M48
;DRILL file {KiCad 4.0.1-stable} date 6/19/2016 2:06:43 PM
;FORMAT={-:-/ absolute / inch / decimal}
FMAT,2
INCH,TZ
T1C0.012
T2C0.036
T3C0.039
T4C0.052
T5C0.091
T6C0.132
%
G90
G05
M72
T1
X4.59Y-1.78
X5.3325Y-2.215
X5.372Y-2.693
X5.4474Y-2.6933
X5.5Y-1.92
X5.53Y-1.99
X5.56Y-2.03
X5.7775Y-2.6275
X5.84Y-2.1975
X5.97Y-2.11
X6.01Y-2.11
X6.025Y-2.63
X6.085Y-1.825
X6.17Y-1.95
X6.17Y-2.21
X6.22Y-2.025
X6.23Y-2.05
X6.27Y-2.08
X6.2875Y-1.7725
X6.29Y-1.93
X6.3Y-1.88
X6.3Y-2.26
X6.32Y-1.76
X6.32Y-2.39
X6.36Y-1.77
X6.39Y-1.8
X6.48Y-1.81
X6.51Y-1.83
X6.5225Y-2.125
X6.53Y-2.05
X6.54Y-1.86
X6.54Y-2.02
X6.55Y-1.99
X6.57Y-1.87
X6.6Y-1.88
X6.8525Y-2.1675
X6.93Y-2.39
X6.98Y-2.23
X7.23Y-2.35
X7.33Y-2.33
X7.43Y-2.38
X7.4825Y-2.195
T2
X4.2808Y-1.3517
X4.2808Y-1.4304
X4.3792Y-1.3517
X4.3792Y-1.4304
T3
X5.5Y-1.3
X5.6Y-1.3
X5.7Y-1.3
X5.8Y-1.3
X5.86Y-2.87
X5.9Y-1.3
X5.96Y-2.87
X6.Y-1.3
X6.06Y-2.87
X6.1Y-1.3
X6.16Y-2.87
X6.2Y-1.3
X6.26Y-2.87
X6.3Y-1.3
X6.36Y-2.87
X6.4Y-1.3
X6.5Y-1.3
X6.6Y-1.3
X6.7Y-1.3
X6.73Y-2.72
X6.73Y-2.82
X6.8Y-1.3
X6.83Y-2.72
X6.83Y-2.82
X6.9Y-1.3
X6.93Y-2.72
X6.93Y-2.82
X7.Y-1.3
X7.03Y-2.72
X7.03Y-2.82
X7.13Y-2.72
X7.13Y-2.82
X7.23Y-2.72
X7.23Y-2.82
X7.33Y-2.72
X7.33Y-2.82
X7.43Y-2.72
X7.43Y-2.82
X7.53Y-2.72
X7.53Y-2.82
X7.63Y-2.72
X7.63Y-2.82
X7.7Y-1.3
X7.8Y-1.3
X7.9Y-1.3
X8.Y-1.3
X8.1Y-1.3
X8.2Y-1.3
X8.3Y-1.3
X8.4Y-1.3
X8.8894Y-1.9717
X8.8894Y-2.0717
X8.8894Y-2.1717
X8.8894Y-2.2717
T4
X4.11Y-2.52
X4.31Y-2.52
T5
X4.0938Y-1.245
X4.5662Y-1.245
T6
X3.855Y-1.245
X4.805Y-1.245
T0
M30
