G04 #@! TF.FileFunction,Legend,Top*
%FSLAX46Y46*%
G04 Gerber Fmt 4.6, Leading zero omitted, Abs format (unit mm)*
G04 Created by KiCad (PCBNEW 4.0.1-stable) date 6/9/2016 4:02:24 PM*
%MOMM*%
G01*
G04 APERTURE LIST*
%ADD10C,0.100000*%
%ADD11C,0.152400*%
%ADD12C,0.350000*%
%ADD13C,0.150000*%
%ADD14C,0.203200*%
G04 APERTURE END LIST*
D10*
D11*
X160316334Y-63552735D02*
X159893001Y-63552735D01*
X159850667Y-63939783D01*
X159893001Y-63901078D01*
X159977667Y-63862373D01*
X160189334Y-63862373D01*
X160274001Y-63901078D01*
X160316334Y-63939783D01*
X160358667Y-64017192D01*
X160358667Y-64210716D01*
X160316334Y-64288126D01*
X160274001Y-64326830D01*
X160189334Y-64365535D01*
X159977667Y-64365535D01*
X159893001Y-64326830D01*
X159850667Y-64288126D01*
X160612668Y-63552735D02*
X160909001Y-64365535D01*
X161205334Y-63552735D01*
X162475334Y-63939783D02*
X162179001Y-63939783D01*
X162179001Y-64365535D02*
X162179001Y-63552735D01*
X162602334Y-63552735D01*
X163449001Y-64365535D02*
X163152667Y-63978488D01*
X162941001Y-64365535D02*
X162941001Y-63552735D01*
X163279667Y-63552735D01*
X163364334Y-63591440D01*
X163406667Y-63630145D01*
X163449001Y-63707554D01*
X163449001Y-63823669D01*
X163406667Y-63901078D01*
X163364334Y-63939783D01*
X163279667Y-63978488D01*
X162941001Y-63978488D01*
X163999334Y-63552735D02*
X164168667Y-63552735D01*
X164253334Y-63591440D01*
X164338001Y-63668850D01*
X164380334Y-63823669D01*
X164380334Y-64094602D01*
X164338001Y-64249421D01*
X164253334Y-64326830D01*
X164168667Y-64365535D01*
X163999334Y-64365535D01*
X163914667Y-64326830D01*
X163830001Y-64249421D01*
X163787667Y-64094602D01*
X163787667Y-63823669D01*
X163830001Y-63668850D01*
X163914667Y-63591440D01*
X163999334Y-63552735D01*
X164761334Y-64365535D02*
X164761334Y-63552735D01*
X165057667Y-64133307D01*
X165354000Y-63552735D01*
X165354000Y-64365535D01*
X161586334Y-64843055D02*
X161586334Y-65423627D01*
X161544000Y-65539741D01*
X161459334Y-65617150D01*
X161332334Y-65655855D01*
X161247667Y-65655855D01*
X161882667Y-64843055D02*
X162390667Y-64843055D01*
X162136667Y-65655855D02*
X162136667Y-64843055D01*
X162644666Y-65423627D02*
X163068000Y-65423627D01*
X162560000Y-65655855D02*
X162856333Y-64843055D01*
X163152666Y-65655855D01*
X163914666Y-64881760D02*
X163830000Y-64843055D01*
X163703000Y-64843055D01*
X163576000Y-64881760D01*
X163491333Y-64959170D01*
X163449000Y-65036579D01*
X163406666Y-65191398D01*
X163406666Y-65307512D01*
X163449000Y-65462331D01*
X163491333Y-65539741D01*
X163576000Y-65617150D01*
X163703000Y-65655855D01*
X163787666Y-65655855D01*
X163914666Y-65617150D01*
X163957000Y-65578446D01*
X163957000Y-65307512D01*
X163787666Y-65307512D01*
X117701785Y-66092735D02*
X117399404Y-66092735D01*
X117369166Y-66479783D01*
X117399404Y-66441078D01*
X117459881Y-66402373D01*
X117611071Y-66402373D01*
X117671547Y-66441078D01*
X117701785Y-66479783D01*
X117732024Y-66557192D01*
X117732024Y-66750716D01*
X117701785Y-66828126D01*
X117671547Y-66866830D01*
X117611071Y-66905535D01*
X117459881Y-66905535D01*
X117399404Y-66866830D01*
X117369166Y-66828126D01*
X117913452Y-66092735D02*
X118125119Y-66905535D01*
X118336786Y-66092735D01*
X119032262Y-66905535D02*
X119032262Y-66092735D01*
X119274167Y-66092735D01*
X119334643Y-66131440D01*
X119364882Y-66170145D01*
X119395120Y-66247554D01*
X119395120Y-66363669D01*
X119364882Y-66441078D01*
X119334643Y-66479783D01*
X119274167Y-66518488D01*
X119032262Y-66518488D01*
X119606786Y-66092735D02*
X119757977Y-66905535D01*
X119878929Y-66324964D01*
X119999882Y-66905535D01*
X120151072Y-66092735D01*
X120755834Y-66905535D02*
X120544167Y-66518488D01*
X120392976Y-66905535D02*
X120392976Y-66092735D01*
X120634881Y-66092735D01*
X120695357Y-66131440D01*
X120725596Y-66170145D01*
X120755834Y-66247554D01*
X120755834Y-66363669D01*
X120725596Y-66441078D01*
X120695357Y-66479783D01*
X120634881Y-66518488D01*
X120392976Y-66518488D01*
X118246072Y-67421760D02*
X118185595Y-67383055D01*
X118094881Y-67383055D01*
X118004167Y-67421760D01*
X117943691Y-67499170D01*
X117913452Y-67576579D01*
X117883214Y-67731398D01*
X117883214Y-67847512D01*
X117913452Y-68002331D01*
X117943691Y-68079741D01*
X118004167Y-68157150D01*
X118094881Y-68195855D01*
X118155357Y-68195855D01*
X118246072Y-68157150D01*
X118276310Y-68118446D01*
X118276310Y-67847512D01*
X118155357Y-67847512D01*
X118669405Y-67383055D02*
X118790357Y-67383055D01*
X118850833Y-67421760D01*
X118911310Y-67499170D01*
X118941548Y-67653989D01*
X118941548Y-67924922D01*
X118911310Y-68079741D01*
X118850833Y-68157150D01*
X118790357Y-68195855D01*
X118669405Y-68195855D01*
X118608929Y-68157150D01*
X118548452Y-68079741D01*
X118518214Y-67924922D01*
X118518214Y-67653989D01*
X118548452Y-67499170D01*
X118608929Y-67421760D01*
X118669405Y-67383055D01*
X119334643Y-67383055D02*
X119455595Y-67383055D01*
X119516071Y-67421760D01*
X119576548Y-67499170D01*
X119606786Y-67653989D01*
X119606786Y-67924922D01*
X119576548Y-68079741D01*
X119516071Y-68157150D01*
X119455595Y-68195855D01*
X119334643Y-68195855D01*
X119274167Y-68157150D01*
X119213690Y-68079741D01*
X119183452Y-67924922D01*
X119183452Y-67653989D01*
X119213690Y-67499170D01*
X119274167Y-67421760D01*
X119334643Y-67383055D01*
X119878928Y-68195855D02*
X119878928Y-67383055D01*
X120030119Y-67383055D01*
X120120833Y-67421760D01*
X120181309Y-67499170D01*
X120211548Y-67576579D01*
X120241786Y-67731398D01*
X120241786Y-67847512D01*
X120211548Y-68002331D01*
X120181309Y-68079741D01*
X120120833Y-68157150D01*
X120030119Y-68195855D01*
X119878928Y-68195855D01*
X123386547Y-66092735D02*
X123779643Y-66092735D01*
X123567976Y-66402373D01*
X123658690Y-66402373D01*
X123719166Y-66441078D01*
X123749404Y-66479783D01*
X123779643Y-66557192D01*
X123779643Y-66750716D01*
X123749404Y-66828126D01*
X123719166Y-66866830D01*
X123658690Y-66905535D01*
X123477262Y-66905535D01*
X123416785Y-66866830D01*
X123386547Y-66828126D01*
X123961071Y-66092735D02*
X124172738Y-66905535D01*
X124384405Y-66092735D01*
X124535595Y-66092735D02*
X124928691Y-66092735D01*
X124717024Y-66402373D01*
X124807738Y-66402373D01*
X124868214Y-66441078D01*
X124898452Y-66479783D01*
X124928691Y-66557192D01*
X124928691Y-66750716D01*
X124898452Y-66828126D01*
X124868214Y-66866830D01*
X124807738Y-66905535D01*
X124626310Y-66905535D01*
X124565833Y-66866830D01*
X124535595Y-66828126D01*
X125684643Y-66905535D02*
X125684643Y-66092735D01*
X125926548Y-66092735D01*
X125987024Y-66131440D01*
X126017263Y-66170145D01*
X126047501Y-66247554D01*
X126047501Y-66363669D01*
X126017263Y-66441078D01*
X125987024Y-66479783D01*
X125926548Y-66518488D01*
X125684643Y-66518488D01*
X126259167Y-66092735D02*
X126410358Y-66905535D01*
X126531310Y-66324964D01*
X126652263Y-66905535D01*
X126803453Y-66092735D01*
X127408215Y-66905535D02*
X127196548Y-66518488D01*
X127045357Y-66905535D02*
X127045357Y-66092735D01*
X127287262Y-66092735D01*
X127347738Y-66131440D01*
X127377977Y-66170145D01*
X127408215Y-66247554D01*
X127408215Y-66363669D01*
X127377977Y-66441078D01*
X127347738Y-66479783D01*
X127287262Y-66518488D01*
X127045357Y-66518488D01*
X124596072Y-67421760D02*
X124535595Y-67383055D01*
X124444881Y-67383055D01*
X124354167Y-67421760D01*
X124293691Y-67499170D01*
X124263452Y-67576579D01*
X124233214Y-67731398D01*
X124233214Y-67847512D01*
X124263452Y-68002331D01*
X124293691Y-68079741D01*
X124354167Y-68157150D01*
X124444881Y-68195855D01*
X124505357Y-68195855D01*
X124596072Y-68157150D01*
X124626310Y-68118446D01*
X124626310Y-67847512D01*
X124505357Y-67847512D01*
X125019405Y-67383055D02*
X125140357Y-67383055D01*
X125200833Y-67421760D01*
X125261310Y-67499170D01*
X125291548Y-67653989D01*
X125291548Y-67924922D01*
X125261310Y-68079741D01*
X125200833Y-68157150D01*
X125140357Y-68195855D01*
X125019405Y-68195855D01*
X124958929Y-68157150D01*
X124898452Y-68079741D01*
X124868214Y-67924922D01*
X124868214Y-67653989D01*
X124898452Y-67499170D01*
X124958929Y-67421760D01*
X125019405Y-67383055D01*
X125684643Y-67383055D02*
X125805595Y-67383055D01*
X125866071Y-67421760D01*
X125926548Y-67499170D01*
X125956786Y-67653989D01*
X125956786Y-67924922D01*
X125926548Y-68079741D01*
X125866071Y-68157150D01*
X125805595Y-68195855D01*
X125684643Y-68195855D01*
X125624167Y-68157150D01*
X125563690Y-68079741D01*
X125533452Y-67924922D01*
X125533452Y-67653989D01*
X125563690Y-67499170D01*
X125624167Y-67421760D01*
X125684643Y-67383055D01*
X126228928Y-68195855D02*
X126228928Y-67383055D01*
X126380119Y-67383055D01*
X126470833Y-67421760D01*
X126531309Y-67499170D01*
X126561548Y-67576579D01*
X126591786Y-67731398D01*
X126591786Y-67847512D01*
X126561548Y-68002331D01*
X126531309Y-68079741D01*
X126470833Y-68157150D01*
X126380119Y-68195855D01*
X126228928Y-68195855D01*
D12*
X197612000Y-74803000D02*
X167132000Y-74803000D01*
X167132000Y-74803000D02*
X167132000Y-65913000D01*
X167132000Y-65913000D02*
X197612000Y-65913000D01*
X197612000Y-65913000D02*
X197612000Y-74803000D01*
X197612000Y-70358000D02*
X192532000Y-70358000D01*
X192532000Y-70358000D02*
X192532000Y-65913000D01*
D13*
X197612000Y-65278000D02*
X192532000Y-65278000D01*
D12*
X150208000Y-46147000D02*
X150208000Y-46055000D01*
X150208000Y-46055000D02*
X150208000Y-46147000D01*
X149766000Y-46147000D02*
X149766000Y-46055000D01*
X149766000Y-46055000D02*
X149766000Y-46147000D01*
X167990500Y-53230500D02*
X167990500Y-53322500D01*
X167990500Y-53322500D02*
X167990500Y-53230500D01*
X168432500Y-53230500D02*
X168432500Y-53322500D01*
X168432500Y-53322500D02*
X168432500Y-53230500D01*
X137089000Y-71337000D02*
X137231000Y-71337000D01*
X137231000Y-71337000D02*
X137089000Y-71337000D01*
X137089000Y-70395000D02*
X137231000Y-70395000D01*
X137231000Y-70395000D02*
X137089000Y-70395000D01*
X162352000Y-48293000D02*
X162260000Y-48293000D01*
X162260000Y-48293000D02*
X162352000Y-48293000D01*
X162352000Y-48735000D02*
X162260000Y-48735000D01*
X162260000Y-48735000D02*
X162352000Y-48735000D01*
X137089000Y-64225000D02*
X137231000Y-64225000D01*
X137231000Y-64225000D02*
X137089000Y-64225000D01*
X137089000Y-63283000D02*
X137231000Y-63283000D01*
X137231000Y-63283000D02*
X137089000Y-63283000D01*
X151548000Y-46030000D02*
X151548000Y-46172000D01*
X151548000Y-46172000D02*
X151548000Y-46030000D01*
X152490000Y-46030000D02*
X152490000Y-46172000D01*
X152490000Y-46172000D02*
X152490000Y-46030000D01*
X156941500Y-43261000D02*
X156941500Y-43353000D01*
X156941500Y-43353000D02*
X156941500Y-43261000D01*
X157383500Y-43261000D02*
X157383500Y-43353000D01*
X157383500Y-43353000D02*
X157383500Y-43261000D01*
X159100500Y-43261000D02*
X159100500Y-43353000D01*
X159100500Y-43353000D02*
X159100500Y-43261000D01*
X159542500Y-43261000D02*
X159542500Y-43353000D01*
X159542500Y-43353000D02*
X159542500Y-43261000D01*
D13*
X118812500Y-70735000D02*
X118812500Y-70235000D01*
X119312500Y-70235000D02*
X119312500Y-70735000D01*
X119562500Y-68735000D02*
X118562500Y-68735000D01*
X125162500Y-70735000D02*
X125162500Y-70235000D01*
X125662500Y-70235000D02*
X125662500Y-70735000D01*
X125912500Y-68735000D02*
X124912500Y-68735000D01*
D12*
X193675000Y-31115000D02*
X215265000Y-31115000D01*
X215265000Y-31115000D02*
X215265000Y-34925000D01*
X215265000Y-34925000D02*
X193675000Y-34925000D01*
X193675000Y-34925000D02*
X193675000Y-31115000D01*
X196850000Y-31115000D02*
X196850000Y-34925000D01*
D13*
X193675000Y-35560000D02*
X196850000Y-35560000D01*
D12*
X137795000Y-31115000D02*
X179705000Y-31115000D01*
X179705000Y-31115000D02*
X179705000Y-34925000D01*
X179705000Y-34925000D02*
X137795000Y-34925000D01*
X137795000Y-34925000D02*
X137795000Y-31115000D01*
X140970000Y-31115000D02*
X140970000Y-34925000D01*
D13*
X137795000Y-35560000D02*
X140970000Y-35560000D01*
D12*
X229600000Y-46905000D02*
X229600000Y-60875000D01*
X229600000Y-60875000D02*
X223885000Y-60875000D01*
X223885000Y-60875000D02*
X223885000Y-46905000D01*
X223885000Y-46905000D02*
X229600000Y-46905000D01*
X229600000Y-51350000D02*
X223885000Y-51350000D01*
D13*
X223250000Y-46905000D02*
X223250000Y-51350000D01*
D12*
X146939000Y-70993000D02*
X163449000Y-70993000D01*
X163449000Y-70993000D02*
X163449000Y-74803000D01*
X163449000Y-74803000D02*
X146939000Y-74803000D01*
X146939000Y-74803000D02*
X146939000Y-70993000D01*
X150114000Y-70993000D02*
X150114000Y-74803000D01*
D13*
X146939000Y-75438000D02*
X150114000Y-75438000D01*
D12*
X120848500Y-70160000D02*
X120848500Y-70302000D01*
X120848500Y-70302000D02*
X120848500Y-70160000D01*
X121340500Y-70160000D02*
X121340500Y-70302000D01*
X121340500Y-70302000D02*
X121340500Y-70160000D01*
X127960500Y-70414000D02*
X127960500Y-70556000D01*
X127960500Y-70556000D02*
X127960500Y-70414000D01*
X128452500Y-70414000D02*
X128452500Y-70556000D01*
X128452500Y-70556000D02*
X128452500Y-70414000D01*
X141930000Y-46363000D02*
X141788000Y-46363000D01*
X141788000Y-46363000D02*
X141930000Y-46363000D01*
X141930000Y-46855000D02*
X141788000Y-46855000D01*
X141788000Y-46855000D02*
X141930000Y-46855000D01*
X162694500Y-66556000D02*
X162552500Y-66556000D01*
X162552500Y-66556000D02*
X162694500Y-66556000D01*
X162694500Y-67048000D02*
X162552500Y-67048000D01*
X162552500Y-67048000D02*
X162694500Y-67048000D01*
X140696000Y-41922000D02*
X140696000Y-43422000D01*
X138196000Y-41922000D02*
X140696000Y-41922000D01*
X138196000Y-43422000D02*
X138196000Y-41922000D01*
X140696000Y-43422000D02*
X138196000Y-43422000D01*
X142446000Y-40922000D02*
X142446000Y-44422000D01*
X136446000Y-40922000D02*
X142446000Y-40922000D01*
X136446000Y-44422000D02*
X136446000Y-40922000D01*
X142446000Y-44422000D02*
X136446000Y-44422000D01*
X138196000Y-55614000D02*
X138196000Y-54114000D01*
X140696000Y-55614000D02*
X138196000Y-55614000D01*
X140696000Y-54114000D02*
X140696000Y-55614000D01*
X138196000Y-54114000D02*
X140696000Y-54114000D01*
X136446000Y-56614000D02*
X136446000Y-53114000D01*
X142446000Y-56614000D02*
X136446000Y-56614000D01*
X142446000Y-53114000D02*
X142446000Y-56614000D01*
X136446000Y-53114000D02*
X142446000Y-53114000D01*
X136041000Y-67560000D02*
X136041000Y-67060000D01*
X136041000Y-67060000D02*
X139041000Y-67060000D01*
X139041000Y-67060000D02*
X139041000Y-67560000D01*
X139041000Y-67560000D02*
X136041000Y-67560000D01*
D13*
X116482000Y-38123000D02*
X116482000Y-21123000D01*
X103482000Y-21123000D02*
X103482000Y-38123000D01*
X109982000Y-21123000D02*
X103482000Y-21123000D01*
X109982000Y-21123000D02*
X116482000Y-21123000D01*
X109982000Y-38123000D02*
X103482000Y-38123000D01*
X109982000Y-38123000D02*
X116482000Y-38123000D01*
X102616000Y-63500000D02*
X89916000Y-63500000D01*
X89916000Y-63500000D02*
X89916000Y-64516000D01*
X89916000Y-64516000D02*
X102616000Y-64516000D01*
X102616000Y-63246000D02*
X102616000Y-63500000D01*
X106934000Y-62230000D02*
X102616000Y-62230000D01*
X102616000Y-62230000D02*
X102616000Y-63246000D01*
X102616000Y-65786000D02*
X102616000Y-64516000D01*
X106934000Y-62230000D02*
X111252000Y-62230000D01*
X111252000Y-62230000D02*
X111252000Y-65786000D01*
X111252000Y-65786000D02*
X102616000Y-65786000D01*
X193535334Y-63569905D02*
X193535334Y-64141333D01*
X193497238Y-64255619D01*
X193421048Y-64331810D01*
X193306762Y-64369905D01*
X193230572Y-64369905D01*
X193840096Y-63569905D02*
X194373429Y-63569905D01*
X194030572Y-64369905D01*
X181438667Y-64141405D02*
X181438667Y-64712833D01*
X181400571Y-64827119D01*
X181324381Y-64903310D01*
X181210095Y-64941405D01*
X181133905Y-64941405D01*
X181705333Y-64141405D02*
X182162476Y-64141405D01*
X181933905Y-64941405D02*
X181933905Y-64141405D01*
X182391048Y-64712833D02*
X182772000Y-64712833D01*
X182314857Y-64941405D02*
X182581524Y-64141405D01*
X182848191Y-64941405D01*
X183533905Y-64179500D02*
X183457714Y-64141405D01*
X183343429Y-64141405D01*
X183229143Y-64179500D01*
X183152952Y-64255690D01*
X183114857Y-64331881D01*
X183076762Y-64484262D01*
X183076762Y-64598548D01*
X183114857Y-64750929D01*
X183152952Y-64827119D01*
X183229143Y-64903310D01*
X183343429Y-64941405D01*
X183419619Y-64941405D01*
X183533905Y-64903310D01*
X183572000Y-64865214D01*
X183572000Y-64598548D01*
X183419619Y-64598548D01*
X149853667Y-44100714D02*
X149815572Y-44138810D01*
X149701286Y-44176905D01*
X149625096Y-44176905D01*
X149510810Y-44138810D01*
X149434619Y-44062619D01*
X149396524Y-43986429D01*
X149358429Y-43834048D01*
X149358429Y-43719762D01*
X149396524Y-43567381D01*
X149434619Y-43491190D01*
X149510810Y-43415000D01*
X149625096Y-43376905D01*
X149701286Y-43376905D01*
X149815572Y-43415000D01*
X149853667Y-43453095D01*
X150615572Y-44176905D02*
X150158429Y-44176905D01*
X150387000Y-44176905D02*
X150387000Y-43376905D01*
X150310810Y-43491190D01*
X150234619Y-43567381D01*
X150158429Y-43605476D01*
X168497214Y-53409833D02*
X168535310Y-53447928D01*
X168573405Y-53562214D01*
X168573405Y-53638404D01*
X168535310Y-53752690D01*
X168459119Y-53828881D01*
X168382929Y-53866976D01*
X168230548Y-53905071D01*
X168116262Y-53905071D01*
X167963881Y-53866976D01*
X167887690Y-53828881D01*
X167811500Y-53752690D01*
X167773405Y-53638404D01*
X167773405Y-53562214D01*
X167811500Y-53447928D01*
X167849595Y-53409833D01*
X167849595Y-53105071D02*
X167811500Y-53066976D01*
X167773405Y-52990785D01*
X167773405Y-52800309D01*
X167811500Y-52724119D01*
X167849595Y-52686023D01*
X167925786Y-52647928D01*
X168001976Y-52647928D01*
X168116262Y-52686023D01*
X168573405Y-53143166D01*
X168573405Y-52647928D01*
X137026667Y-71151714D02*
X136988572Y-71189810D01*
X136874286Y-71227905D01*
X136798096Y-71227905D01*
X136683810Y-71189810D01*
X136607619Y-71113619D01*
X136569524Y-71037429D01*
X136531429Y-70885048D01*
X136531429Y-70770762D01*
X136569524Y-70618381D01*
X136607619Y-70542190D01*
X136683810Y-70466000D01*
X136798096Y-70427905D01*
X136874286Y-70427905D01*
X136988572Y-70466000D01*
X137026667Y-70504095D01*
X137293334Y-70427905D02*
X137788572Y-70427905D01*
X137521905Y-70732667D01*
X137636191Y-70732667D01*
X137712381Y-70770762D01*
X137750477Y-70808857D01*
X137788572Y-70885048D01*
X137788572Y-71075524D01*
X137750477Y-71151714D01*
X137712381Y-71189810D01*
X137636191Y-71227905D01*
X137407619Y-71227905D01*
X137331429Y-71189810D01*
X137293334Y-71151714D01*
X164585667Y-48736214D02*
X164547572Y-48774310D01*
X164433286Y-48812405D01*
X164357096Y-48812405D01*
X164242810Y-48774310D01*
X164166619Y-48698119D01*
X164128524Y-48621929D01*
X164090429Y-48469548D01*
X164090429Y-48355262D01*
X164128524Y-48202881D01*
X164166619Y-48126690D01*
X164242810Y-48050500D01*
X164357096Y-48012405D01*
X164433286Y-48012405D01*
X164547572Y-48050500D01*
X164585667Y-48088595D01*
X165309477Y-48012405D02*
X164928524Y-48012405D01*
X164890429Y-48393357D01*
X164928524Y-48355262D01*
X165004715Y-48317167D01*
X165195191Y-48317167D01*
X165271381Y-48355262D01*
X165309477Y-48393357D01*
X165347572Y-48469548D01*
X165347572Y-48660024D01*
X165309477Y-48736214D01*
X165271381Y-48774310D01*
X165195191Y-48812405D01*
X165004715Y-48812405D01*
X164928524Y-48774310D01*
X164890429Y-48736214D01*
X137026667Y-64039714D02*
X136988572Y-64077810D01*
X136874286Y-64115905D01*
X136798096Y-64115905D01*
X136683810Y-64077810D01*
X136607619Y-64001619D01*
X136569524Y-63925429D01*
X136531429Y-63773048D01*
X136531429Y-63658762D01*
X136569524Y-63506381D01*
X136607619Y-63430190D01*
X136683810Y-63354000D01*
X136798096Y-63315905D01*
X136874286Y-63315905D01*
X136988572Y-63354000D01*
X137026667Y-63392095D01*
X137712381Y-63315905D02*
X137560000Y-63315905D01*
X137483810Y-63354000D01*
X137445715Y-63392095D01*
X137369524Y-63506381D01*
X137331429Y-63658762D01*
X137331429Y-63963524D01*
X137369524Y-64039714D01*
X137407619Y-64077810D01*
X137483810Y-64115905D01*
X137636191Y-64115905D01*
X137712381Y-64077810D01*
X137750477Y-64039714D01*
X137788572Y-63963524D01*
X137788572Y-63773048D01*
X137750477Y-63696857D01*
X137712381Y-63658762D01*
X137636191Y-63620667D01*
X137483810Y-63620667D01*
X137407619Y-63658762D01*
X137369524Y-63696857D01*
X137331429Y-63773048D01*
X152012667Y-43973714D02*
X151974572Y-44011810D01*
X151860286Y-44049905D01*
X151784096Y-44049905D01*
X151669810Y-44011810D01*
X151593619Y-43935619D01*
X151555524Y-43859429D01*
X151517429Y-43707048D01*
X151517429Y-43592762D01*
X151555524Y-43440381D01*
X151593619Y-43364190D01*
X151669810Y-43288000D01*
X151784096Y-43249905D01*
X151860286Y-43249905D01*
X151974572Y-43288000D01*
X152012667Y-43326095D01*
X152279334Y-43249905D02*
X152812667Y-43249905D01*
X152469810Y-44049905D01*
X157029167Y-41306714D02*
X156991072Y-41344810D01*
X156876786Y-41382905D01*
X156800596Y-41382905D01*
X156686310Y-41344810D01*
X156610119Y-41268619D01*
X156572024Y-41192429D01*
X156533929Y-41040048D01*
X156533929Y-40925762D01*
X156572024Y-40773381D01*
X156610119Y-40697190D01*
X156686310Y-40621000D01*
X156800596Y-40582905D01*
X156876786Y-40582905D01*
X156991072Y-40621000D01*
X157029167Y-40659095D01*
X157486310Y-40925762D02*
X157410119Y-40887667D01*
X157372024Y-40849571D01*
X157333929Y-40773381D01*
X157333929Y-40735286D01*
X157372024Y-40659095D01*
X157410119Y-40621000D01*
X157486310Y-40582905D01*
X157638691Y-40582905D01*
X157714881Y-40621000D01*
X157752977Y-40659095D01*
X157791072Y-40735286D01*
X157791072Y-40773381D01*
X157752977Y-40849571D01*
X157714881Y-40887667D01*
X157638691Y-40925762D01*
X157486310Y-40925762D01*
X157410119Y-40963857D01*
X157372024Y-41001952D01*
X157333929Y-41078143D01*
X157333929Y-41230524D01*
X157372024Y-41306714D01*
X157410119Y-41344810D01*
X157486310Y-41382905D01*
X157638691Y-41382905D01*
X157714881Y-41344810D01*
X157752977Y-41306714D01*
X157791072Y-41230524D01*
X157791072Y-41078143D01*
X157752977Y-41001952D01*
X157714881Y-40963857D01*
X157638691Y-40925762D01*
X159188167Y-41306714D02*
X159150072Y-41344810D01*
X159035786Y-41382905D01*
X158959596Y-41382905D01*
X158845310Y-41344810D01*
X158769119Y-41268619D01*
X158731024Y-41192429D01*
X158692929Y-41040048D01*
X158692929Y-40925762D01*
X158731024Y-40773381D01*
X158769119Y-40697190D01*
X158845310Y-40621000D01*
X158959596Y-40582905D01*
X159035786Y-40582905D01*
X159150072Y-40621000D01*
X159188167Y-40659095D01*
X159569119Y-41382905D02*
X159721500Y-41382905D01*
X159797691Y-41344810D01*
X159835786Y-41306714D01*
X159911977Y-41192429D01*
X159950072Y-41040048D01*
X159950072Y-40735286D01*
X159911977Y-40659095D01*
X159873881Y-40621000D01*
X159797691Y-40582905D01*
X159645310Y-40582905D01*
X159569119Y-40621000D01*
X159531024Y-40659095D01*
X159492929Y-40735286D01*
X159492929Y-40925762D01*
X159531024Y-41001952D01*
X159569119Y-41040048D01*
X159645310Y-41078143D01*
X159797691Y-41078143D01*
X159873881Y-41040048D01*
X159911977Y-41001952D01*
X159950072Y-40925762D01*
X118154571Y-73310705D02*
X118154571Y-72510705D01*
X118345047Y-72510705D01*
X118459333Y-72548800D01*
X118535524Y-72624990D01*
X118573619Y-72701181D01*
X118611714Y-72853562D01*
X118611714Y-72967848D01*
X118573619Y-73120229D01*
X118535524Y-73196419D01*
X118459333Y-73272610D01*
X118345047Y-73310705D01*
X118154571Y-73310705D01*
X118916476Y-73272610D02*
X119030762Y-73310705D01*
X119221238Y-73310705D01*
X119297428Y-73272610D01*
X119335524Y-73234514D01*
X119373619Y-73158324D01*
X119373619Y-73082133D01*
X119335524Y-73005943D01*
X119297428Y-72967848D01*
X119221238Y-72929752D01*
X119068857Y-72891657D01*
X118992666Y-72853562D01*
X118954571Y-72815467D01*
X118916476Y-72739276D01*
X118916476Y-72663086D01*
X118954571Y-72586895D01*
X118992666Y-72548800D01*
X119068857Y-72510705D01*
X119259333Y-72510705D01*
X119373619Y-72548800D01*
X120135524Y-73310705D02*
X119678381Y-73310705D01*
X119906952Y-73310705D02*
X119906952Y-72510705D01*
X119830762Y-72624990D01*
X119754571Y-72701181D01*
X119678381Y-72739276D01*
X124504571Y-73323405D02*
X124504571Y-72523405D01*
X124695047Y-72523405D01*
X124809333Y-72561500D01*
X124885524Y-72637690D01*
X124923619Y-72713881D01*
X124961714Y-72866262D01*
X124961714Y-72980548D01*
X124923619Y-73132929D01*
X124885524Y-73209119D01*
X124809333Y-73285310D01*
X124695047Y-73323405D01*
X124504571Y-73323405D01*
X125266476Y-73285310D02*
X125380762Y-73323405D01*
X125571238Y-73323405D01*
X125647428Y-73285310D01*
X125685524Y-73247214D01*
X125723619Y-73171024D01*
X125723619Y-73094833D01*
X125685524Y-73018643D01*
X125647428Y-72980548D01*
X125571238Y-72942452D01*
X125418857Y-72904357D01*
X125342666Y-72866262D01*
X125304571Y-72828167D01*
X125266476Y-72751976D01*
X125266476Y-72675786D01*
X125304571Y-72599595D01*
X125342666Y-72561500D01*
X125418857Y-72523405D01*
X125609333Y-72523405D01*
X125723619Y-72561500D01*
X126028381Y-72599595D02*
X126066476Y-72561500D01*
X126142667Y-72523405D01*
X126333143Y-72523405D01*
X126409333Y-72561500D01*
X126447429Y-72599595D01*
X126485524Y-72675786D01*
X126485524Y-72751976D01*
X126447429Y-72866262D01*
X125990286Y-73323405D01*
X126485524Y-73323405D01*
X195313334Y-29787905D02*
X195313334Y-30359333D01*
X195275238Y-30473619D01*
X195199048Y-30549810D01*
X195084762Y-30587905D01*
X195008572Y-30587905D01*
X195656191Y-29864095D02*
X195694286Y-29826000D01*
X195770477Y-29787905D01*
X195960953Y-29787905D01*
X196037143Y-29826000D01*
X196075239Y-29864095D01*
X196113334Y-29940286D01*
X196113334Y-30016476D01*
X196075239Y-30130762D01*
X195618096Y-30587905D01*
X196113334Y-30587905D01*
X139433334Y-29787905D02*
X139433334Y-30359333D01*
X139395238Y-30473619D01*
X139319048Y-30549810D01*
X139204762Y-30587905D01*
X139128572Y-30587905D01*
X139738096Y-29787905D02*
X140233334Y-29787905D01*
X139966667Y-30092667D01*
X140080953Y-30092667D01*
X140157143Y-30130762D01*
X140195239Y-30168857D01*
X140233334Y-30245048D01*
X140233334Y-30435524D01*
X140195239Y-30511714D01*
X140157143Y-30549810D01*
X140080953Y-30587905D01*
X139852381Y-30587905D01*
X139776191Y-30549810D01*
X139738096Y-30511714D01*
X221729334Y-49599905D02*
X221729334Y-50171333D01*
X221691238Y-50285619D01*
X221615048Y-50361810D01*
X221500762Y-50399905D01*
X221424572Y-50399905D01*
X222491239Y-49599905D02*
X222110286Y-49599905D01*
X222072191Y-49980857D01*
X222110286Y-49942762D01*
X222186477Y-49904667D01*
X222376953Y-49904667D01*
X222453143Y-49942762D01*
X222491239Y-49980857D01*
X222529334Y-50057048D01*
X222529334Y-50247524D01*
X222491239Y-50323714D01*
X222453143Y-50361810D01*
X222376953Y-50399905D01*
X222186477Y-50399905D01*
X222110286Y-50361810D01*
X222072191Y-50323714D01*
X231654310Y-57536881D02*
X231692405Y-57422595D01*
X231692405Y-57232119D01*
X231654310Y-57155929D01*
X231616214Y-57117833D01*
X231540024Y-57079738D01*
X231463833Y-57079738D01*
X231387643Y-57117833D01*
X231349548Y-57155929D01*
X231311452Y-57232119D01*
X231273357Y-57384500D01*
X231235262Y-57460691D01*
X231197167Y-57498786D01*
X231120976Y-57536881D01*
X231044786Y-57536881D01*
X230968595Y-57498786D01*
X230930500Y-57460691D01*
X230892405Y-57384500D01*
X230892405Y-57194024D01*
X230930500Y-57079738D01*
X230892405Y-56851167D02*
X230892405Y-56394024D01*
X231692405Y-56622595D02*
X230892405Y-56622595D01*
X231463833Y-56165452D02*
X231463833Y-55784500D01*
X231692405Y-56241643D02*
X230892405Y-55974976D01*
X231692405Y-55708309D01*
X230892405Y-55555929D02*
X230892405Y-55098786D01*
X231692405Y-55327357D02*
X230892405Y-55327357D01*
X230892405Y-54832119D02*
X231540024Y-54832119D01*
X231616214Y-54794024D01*
X231654310Y-54755928D01*
X231692405Y-54679738D01*
X231692405Y-54527357D01*
X231654310Y-54451166D01*
X231616214Y-54413071D01*
X231540024Y-54374976D01*
X230892405Y-54374976D01*
X231654310Y-54032119D02*
X231692405Y-53917833D01*
X231692405Y-53727357D01*
X231654310Y-53651167D01*
X231616214Y-53613071D01*
X231540024Y-53574976D01*
X231463833Y-53574976D01*
X231387643Y-53613071D01*
X231349548Y-53651167D01*
X231311452Y-53727357D01*
X231273357Y-53879738D01*
X231235262Y-53955929D01*
X231197167Y-53994024D01*
X231120976Y-54032119D01*
X231044786Y-54032119D01*
X230968595Y-53994024D01*
X230930500Y-53955929D01*
X230892405Y-53879738D01*
X230892405Y-53689262D01*
X230930500Y-53574976D01*
X231768595Y-53422595D02*
X231768595Y-52813071D01*
X231692405Y-52241642D02*
X231692405Y-52622595D01*
X230892405Y-52622595D01*
X231273357Y-51974976D02*
X231273357Y-51708309D01*
X231692405Y-51594023D02*
X231692405Y-51974976D01*
X230892405Y-51974976D01*
X230892405Y-51594023D01*
X231692405Y-51251166D02*
X230892405Y-51251166D01*
X230892405Y-51060690D01*
X230930500Y-50946404D01*
X231006690Y-50870213D01*
X231082881Y-50832118D01*
X231235262Y-50794023D01*
X231349548Y-50794023D01*
X231501929Y-50832118D01*
X231578119Y-50870213D01*
X231654310Y-50946404D01*
X231692405Y-51060690D01*
X231692405Y-51251166D01*
X231654310Y-50489261D02*
X231692405Y-50374975D01*
X231692405Y-50184499D01*
X231654310Y-50108309D01*
X231616214Y-50070213D01*
X231540024Y-50032118D01*
X231463833Y-50032118D01*
X231387643Y-50070213D01*
X231349548Y-50108309D01*
X231311452Y-50184499D01*
X231273357Y-50336880D01*
X231235262Y-50413071D01*
X231197167Y-50451166D01*
X231120976Y-50489261D01*
X231044786Y-50489261D01*
X230968595Y-50451166D01*
X230930500Y-50413071D01*
X230892405Y-50336880D01*
X230892405Y-50146404D01*
X230930500Y-50032118D01*
X148577334Y-69157905D02*
X148577334Y-69729333D01*
X148539238Y-69843619D01*
X148463048Y-69919810D01*
X148348762Y-69957905D01*
X148272572Y-69957905D01*
X149301143Y-69157905D02*
X149148762Y-69157905D01*
X149072572Y-69196000D01*
X149034477Y-69234095D01*
X148958286Y-69348381D01*
X148920191Y-69500762D01*
X148920191Y-69805524D01*
X148958286Y-69881714D01*
X148996381Y-69919810D01*
X149072572Y-69957905D01*
X149224953Y-69957905D01*
X149301143Y-69919810D01*
X149339239Y-69881714D01*
X149377334Y-69805524D01*
X149377334Y-69615048D01*
X149339239Y-69538857D01*
X149301143Y-69500762D01*
X149224953Y-69462667D01*
X149072572Y-69462667D01*
X148996381Y-69500762D01*
X148958286Y-69538857D01*
X148920191Y-69615048D01*
X151860667Y-69957905D02*
X151860667Y-69157905D01*
X152051143Y-69157905D01*
X152165429Y-69196000D01*
X152241620Y-69272190D01*
X152279715Y-69348381D01*
X152317810Y-69500762D01*
X152317810Y-69615048D01*
X152279715Y-69767429D01*
X152241620Y-69843619D01*
X152165429Y-69919810D01*
X152051143Y-69957905D01*
X151860667Y-69957905D01*
X152660667Y-69538857D02*
X152927334Y-69538857D01*
X153041620Y-69957905D02*
X152660667Y-69957905D01*
X152660667Y-69157905D01*
X153041620Y-69157905D01*
X153651144Y-69538857D02*
X153765430Y-69576952D01*
X153803525Y-69615048D01*
X153841620Y-69691238D01*
X153841620Y-69805524D01*
X153803525Y-69881714D01*
X153765430Y-69919810D01*
X153689239Y-69957905D01*
X153384477Y-69957905D01*
X153384477Y-69157905D01*
X153651144Y-69157905D01*
X153727334Y-69196000D01*
X153765430Y-69234095D01*
X153803525Y-69310286D01*
X153803525Y-69386476D01*
X153765430Y-69462667D01*
X153727334Y-69500762D01*
X153651144Y-69538857D01*
X153384477Y-69538857D01*
X154184477Y-69157905D02*
X154184477Y-69805524D01*
X154222572Y-69881714D01*
X154260668Y-69919810D01*
X154336858Y-69957905D01*
X154489239Y-69957905D01*
X154565430Y-69919810D01*
X154603525Y-69881714D01*
X154641620Y-69805524D01*
X154641620Y-69157905D01*
X155441620Y-69196000D02*
X155365429Y-69157905D01*
X155251144Y-69157905D01*
X155136858Y-69196000D01*
X155060667Y-69272190D01*
X155022572Y-69348381D01*
X154984477Y-69500762D01*
X154984477Y-69615048D01*
X155022572Y-69767429D01*
X155060667Y-69843619D01*
X155136858Y-69919810D01*
X155251144Y-69957905D01*
X155327334Y-69957905D01*
X155441620Y-69919810D01*
X155479715Y-69881714D01*
X155479715Y-69615048D01*
X155327334Y-69615048D01*
X155632096Y-70034095D02*
X156241620Y-70034095D01*
X156698763Y-69538857D02*
X156432096Y-69538857D01*
X156432096Y-69957905D02*
X156432096Y-69157905D01*
X156813049Y-69157905D01*
X157003524Y-69157905D02*
X157460667Y-69157905D01*
X157232096Y-69957905D02*
X157232096Y-69157905D01*
X157727334Y-69957905D02*
X157727334Y-69157905D01*
X157917810Y-69157905D01*
X158032096Y-69196000D01*
X158108287Y-69272190D01*
X158146382Y-69348381D01*
X158184477Y-69500762D01*
X158184477Y-69615048D01*
X158146382Y-69767429D01*
X158108287Y-69843619D01*
X158032096Y-69919810D01*
X157917810Y-69957905D01*
X157727334Y-69957905D01*
X158527334Y-69957905D02*
X158527334Y-69157905D01*
X121024667Y-72878905D02*
X120758000Y-72497952D01*
X120567524Y-72878905D02*
X120567524Y-72078905D01*
X120872286Y-72078905D01*
X120948477Y-72117000D01*
X120986572Y-72155095D01*
X121024667Y-72231286D01*
X121024667Y-72345571D01*
X120986572Y-72421762D01*
X120948477Y-72459857D01*
X120872286Y-72497952D01*
X120567524Y-72497952D01*
X121786572Y-72878905D02*
X121329429Y-72878905D01*
X121558000Y-72878905D02*
X121558000Y-72078905D01*
X121481810Y-72193190D01*
X121405619Y-72269381D01*
X121329429Y-72307476D01*
X128073167Y-73132905D02*
X127806500Y-72751952D01*
X127616024Y-73132905D02*
X127616024Y-72332905D01*
X127920786Y-72332905D01*
X127996977Y-72371000D01*
X128035072Y-72409095D01*
X128073167Y-72485286D01*
X128073167Y-72599571D01*
X128035072Y-72675762D01*
X127996977Y-72713857D01*
X127920786Y-72751952D01*
X127616024Y-72751952D01*
X128377929Y-72409095D02*
X128416024Y-72371000D01*
X128492215Y-72332905D01*
X128682691Y-72332905D01*
X128758881Y-72371000D01*
X128796977Y-72409095D01*
X128835072Y-72485286D01*
X128835072Y-72561476D01*
X128796977Y-72675762D01*
X128339834Y-73132905D01*
X128835072Y-73132905D01*
X139312667Y-46970905D02*
X139046000Y-46589952D01*
X138855524Y-46970905D02*
X138855524Y-46170905D01*
X139160286Y-46170905D01*
X139236477Y-46209000D01*
X139274572Y-46247095D01*
X139312667Y-46323286D01*
X139312667Y-46437571D01*
X139274572Y-46513762D01*
X139236477Y-46551857D01*
X139160286Y-46589952D01*
X138855524Y-46589952D01*
X140036477Y-46170905D02*
X139655524Y-46170905D01*
X139617429Y-46551857D01*
X139655524Y-46513762D01*
X139731715Y-46475667D01*
X139922191Y-46475667D01*
X139998381Y-46513762D01*
X140036477Y-46551857D01*
X140074572Y-46628048D01*
X140074572Y-46818524D01*
X140036477Y-46894714D01*
X139998381Y-46932810D01*
X139922191Y-46970905D01*
X139731715Y-46970905D01*
X139655524Y-46932810D01*
X139617429Y-46894714D01*
X162045714Y-68687905D02*
X161779047Y-68306952D01*
X161588571Y-68687905D02*
X161588571Y-67887905D01*
X161893333Y-67887905D01*
X161969524Y-67926000D01*
X162007619Y-67964095D01*
X162045714Y-68040286D01*
X162045714Y-68154571D01*
X162007619Y-68230762D01*
X161969524Y-68268857D01*
X161893333Y-68306952D01*
X161588571Y-68306952D01*
X162807619Y-68687905D02*
X162350476Y-68687905D01*
X162579047Y-68687905D02*
X162579047Y-67887905D01*
X162502857Y-68002190D01*
X162426666Y-68078381D01*
X162350476Y-68116476D01*
X163074286Y-67887905D02*
X163569524Y-67887905D01*
X163302857Y-68192667D01*
X163417143Y-68192667D01*
X163493333Y-68230762D01*
X163531429Y-68268857D01*
X163569524Y-68345048D01*
X163569524Y-68535524D01*
X163531429Y-68611714D01*
X163493333Y-68649810D01*
X163417143Y-68687905D01*
X163188571Y-68687905D01*
X163112381Y-68649810D01*
X163074286Y-68611714D01*
D14*
X137816167Y-39297429D02*
X137943167Y-39345810D01*
X137985500Y-39394190D01*
X138027834Y-39490952D01*
X138027834Y-39636095D01*
X137985500Y-39732857D01*
X137943167Y-39781238D01*
X137858500Y-39829619D01*
X137519834Y-39829619D01*
X137519834Y-38813619D01*
X137816167Y-38813619D01*
X137900834Y-38862000D01*
X137943167Y-38910381D01*
X137985500Y-39007143D01*
X137985500Y-39103905D01*
X137943167Y-39200667D01*
X137900834Y-39249048D01*
X137816167Y-39297429D01*
X137519834Y-39297429D01*
X138578167Y-38813619D02*
X138747500Y-38813619D01*
X138832167Y-38862000D01*
X138916834Y-38958762D01*
X138959167Y-39152286D01*
X138959167Y-39490952D01*
X138916834Y-39684476D01*
X138832167Y-39781238D01*
X138747500Y-39829619D01*
X138578167Y-39829619D01*
X138493500Y-39781238D01*
X138408834Y-39684476D01*
X138366500Y-39490952D01*
X138366500Y-39152286D01*
X138408834Y-38958762D01*
X138493500Y-38862000D01*
X138578167Y-38813619D01*
X139509500Y-38813619D02*
X139678833Y-38813619D01*
X139763500Y-38862000D01*
X139848167Y-38958762D01*
X139890500Y-39152286D01*
X139890500Y-39490952D01*
X139848167Y-39684476D01*
X139763500Y-39781238D01*
X139678833Y-39829619D01*
X139509500Y-39829619D01*
X139424833Y-39781238D01*
X139340167Y-39684476D01*
X139297833Y-39490952D01*
X139297833Y-39152286D01*
X139340167Y-38958762D01*
X139424833Y-38862000D01*
X139509500Y-38813619D01*
X140144500Y-38813619D02*
X140652500Y-38813619D01*
X140398500Y-39829619D02*
X140398500Y-38813619D01*
X141118166Y-38813619D02*
X141202833Y-38813619D01*
X141287499Y-38862000D01*
X141329833Y-38910381D01*
X141372166Y-39007143D01*
X141414499Y-39200667D01*
X141414499Y-39442571D01*
X141372166Y-39636095D01*
X141329833Y-39732857D01*
X141287499Y-39781238D01*
X141202833Y-39829619D01*
X141118166Y-39829619D01*
X141033499Y-39781238D01*
X140991166Y-39732857D01*
X140948833Y-39636095D01*
X140906499Y-39442571D01*
X140906499Y-39200667D01*
X140948833Y-39007143D01*
X140991166Y-38910381D01*
X141033499Y-38862000D01*
X141118166Y-38813619D01*
X138154834Y-51767619D02*
X137858500Y-51283810D01*
X137646834Y-51767619D02*
X137646834Y-50751619D01*
X137985500Y-50751619D01*
X138070167Y-50800000D01*
X138112500Y-50848381D01*
X138154834Y-50945143D01*
X138154834Y-51090286D01*
X138112500Y-51187048D01*
X138070167Y-51235429D01*
X137985500Y-51283810D01*
X137646834Y-51283810D01*
X138535834Y-51235429D02*
X138832167Y-51235429D01*
X138959167Y-51767619D02*
X138535834Y-51767619D01*
X138535834Y-50751619D01*
X138959167Y-50751619D01*
X139297833Y-51719238D02*
X139424833Y-51767619D01*
X139636500Y-51767619D01*
X139721167Y-51719238D01*
X139763500Y-51670857D01*
X139805833Y-51574095D01*
X139805833Y-51477333D01*
X139763500Y-51380571D01*
X139721167Y-51332190D01*
X139636500Y-51283810D01*
X139467167Y-51235429D01*
X139382500Y-51187048D01*
X139340167Y-51138667D01*
X139297833Y-51041905D01*
X139297833Y-50945143D01*
X139340167Y-50848381D01*
X139382500Y-50800000D01*
X139467167Y-50751619D01*
X139678833Y-50751619D01*
X139805833Y-50800000D01*
X140186834Y-51235429D02*
X140483167Y-51235429D01*
X140610167Y-51767619D02*
X140186834Y-51767619D01*
X140186834Y-50751619D01*
X140610167Y-50751619D01*
X140864167Y-50751619D02*
X141372167Y-50751619D01*
X141118167Y-51767619D02*
X141118167Y-50751619D01*
D13*
X134010476Y-68141905D02*
X134010476Y-68789524D01*
X134048571Y-68865714D01*
X134086667Y-68903810D01*
X134162857Y-68941905D01*
X134315238Y-68941905D01*
X134391429Y-68903810D01*
X134429524Y-68865714D01*
X134467619Y-68789524D01*
X134467619Y-68141905D01*
X135267619Y-68941905D02*
X134810476Y-68941905D01*
X135039047Y-68941905D02*
X135039047Y-68141905D01*
X134962857Y-68256190D01*
X134886666Y-68332381D01*
X134810476Y-68370476D01*
X109648667Y-31075381D02*
X109648667Y-31789667D01*
X109601047Y-31932524D01*
X109505809Y-32027762D01*
X109362952Y-32075381D01*
X109267714Y-32075381D01*
X110648667Y-32075381D02*
X110077238Y-32075381D01*
X110362952Y-32075381D02*
X110362952Y-31075381D01*
X110267714Y-31218238D01*
X110172476Y-31313476D01*
X110077238Y-31361095D01*
X106600667Y-66508381D02*
X106600667Y-67222667D01*
X106553047Y-67365524D01*
X106457809Y-67460762D01*
X106314952Y-67508381D01*
X106219714Y-67508381D01*
X107505429Y-66841714D02*
X107505429Y-67508381D01*
X107267333Y-66460762D02*
X107029238Y-67175048D01*
X107648286Y-67175048D01*
X101172096Y-61317143D02*
X101124477Y-61364762D01*
X100981620Y-61412381D01*
X100886382Y-61412381D01*
X100743524Y-61364762D01*
X100648286Y-61269524D01*
X100600667Y-61174286D01*
X100553048Y-60983810D01*
X100553048Y-60840952D01*
X100600667Y-60650476D01*
X100648286Y-60555238D01*
X100743524Y-60460000D01*
X100886382Y-60412381D01*
X100981620Y-60412381D01*
X101124477Y-60460000D01*
X101172096Y-60507619D01*
X101600667Y-61412381D02*
X101600667Y-60412381D01*
X101600667Y-60888571D02*
X102172096Y-60888571D01*
X102172096Y-61412381D02*
X102172096Y-60412381D01*
X102600667Y-61126667D02*
X103076858Y-61126667D01*
X102505429Y-61412381D02*
X102838762Y-60412381D01*
X103172096Y-61412381D01*
X103457810Y-61364762D02*
X103600667Y-61412381D01*
X103838763Y-61412381D01*
X103934001Y-61364762D01*
X103981620Y-61317143D01*
X104029239Y-61221905D01*
X104029239Y-61126667D01*
X103981620Y-61031429D01*
X103934001Y-60983810D01*
X103838763Y-60936190D01*
X103648286Y-60888571D01*
X103553048Y-60840952D01*
X103505429Y-60793333D01*
X103457810Y-60698095D01*
X103457810Y-60602857D01*
X103505429Y-60507619D01*
X103553048Y-60460000D01*
X103648286Y-60412381D01*
X103886382Y-60412381D01*
X104029239Y-60460000D01*
X104410191Y-61364762D02*
X104553048Y-61412381D01*
X104791144Y-61412381D01*
X104886382Y-61364762D01*
X104934001Y-61317143D01*
X104981620Y-61221905D01*
X104981620Y-61126667D01*
X104934001Y-61031429D01*
X104886382Y-60983810D01*
X104791144Y-60936190D01*
X104600667Y-60888571D01*
X104505429Y-60840952D01*
X104457810Y-60793333D01*
X104410191Y-60698095D01*
X104410191Y-60602857D01*
X104457810Y-60507619D01*
X104505429Y-60460000D01*
X104600667Y-60412381D01*
X104838763Y-60412381D01*
X104981620Y-60460000D01*
X105410191Y-61412381D02*
X105410191Y-60412381D01*
X105838762Y-61364762D02*
X105981619Y-61412381D01*
X106219715Y-61412381D01*
X106314953Y-61364762D01*
X106362572Y-61317143D01*
X106410191Y-61221905D01*
X106410191Y-61126667D01*
X106362572Y-61031429D01*
X106314953Y-60983810D01*
X106219715Y-60936190D01*
X106029238Y-60888571D01*
X105934000Y-60840952D01*
X105886381Y-60793333D01*
X105838762Y-60698095D01*
X105838762Y-60602857D01*
X105886381Y-60507619D01*
X105934000Y-60460000D01*
X106029238Y-60412381D01*
X106267334Y-60412381D01*
X106410191Y-60460000D01*
X106600667Y-61507619D02*
X107362572Y-61507619D01*
X108124477Y-60460000D02*
X108029239Y-60412381D01*
X107886382Y-60412381D01*
X107743524Y-60460000D01*
X107648286Y-60555238D01*
X107600667Y-60650476D01*
X107553048Y-60840952D01*
X107553048Y-60983810D01*
X107600667Y-61174286D01*
X107648286Y-61269524D01*
X107743524Y-61364762D01*
X107886382Y-61412381D01*
X107981620Y-61412381D01*
X108124477Y-61364762D01*
X108172096Y-61317143D01*
X108172096Y-60983810D01*
X107981620Y-60983810D01*
X109172096Y-61412381D02*
X108838762Y-60936190D01*
X108600667Y-61412381D02*
X108600667Y-60412381D01*
X108981620Y-60412381D01*
X109076858Y-60460000D01*
X109124477Y-60507619D01*
X109172096Y-60602857D01*
X109172096Y-60745714D01*
X109124477Y-60840952D01*
X109076858Y-60888571D01*
X108981620Y-60936190D01*
X108600667Y-60936190D01*
X109791143Y-60412381D02*
X109981620Y-60412381D01*
X110076858Y-60460000D01*
X110172096Y-60555238D01*
X110219715Y-60745714D01*
X110219715Y-61079048D01*
X110172096Y-61269524D01*
X110076858Y-61364762D01*
X109981620Y-61412381D01*
X109791143Y-61412381D01*
X109695905Y-61364762D01*
X109600667Y-61269524D01*
X109553048Y-61079048D01*
X109553048Y-60745714D01*
X109600667Y-60555238D01*
X109695905Y-60460000D01*
X109791143Y-60412381D01*
X110648286Y-60412381D02*
X110648286Y-61221905D01*
X110695905Y-61317143D01*
X110743524Y-61364762D01*
X110838762Y-61412381D01*
X111029239Y-61412381D01*
X111124477Y-61364762D01*
X111172096Y-61317143D01*
X111219715Y-61221905D01*
X111219715Y-60412381D01*
X111695905Y-61412381D02*
X111695905Y-60412381D01*
X112267334Y-61412381D01*
X112267334Y-60412381D01*
X112743524Y-61412381D02*
X112743524Y-60412381D01*
X112981619Y-60412381D01*
X113124477Y-60460000D01*
X113219715Y-60555238D01*
X113267334Y-60650476D01*
X113314953Y-60840952D01*
X113314953Y-60983810D01*
X113267334Y-61174286D01*
X113219715Y-61269524D01*
X113124477Y-61364762D01*
X112981619Y-61412381D01*
X112743524Y-61412381D01*
M02*
