G04 #@! TF.FileFunction,Copper,L1,Top,Signal*
%FSLAX46Y46*%
G04 Gerber Fmt 4.6, Leading zero omitted, Abs format (unit mm)*
G04 Created by KiCad (PCBNEW 4.0.1-stable) date 6/9/2016 4:02:24 PM*
%MOMM*%
G01*
G04 APERTURE LIST*
%ADD10C,0.100000*%
%ADD11R,1.524000X2.286000*%
%ADD12O,1.524000X2.286000*%
%ADD13R,0.950000X0.900000*%
%ADD14R,1.150000X1.450000*%
%ADD15R,0.900000X0.950000*%
%ADD16R,1.450000X1.150000*%
%ADD17R,0.800100X0.899160*%
%ADD18R,2.286000X1.524000*%
%ADD19O,2.286000X1.524000*%
%ADD20R,1.000000X0.850000*%
%ADD21R,0.850000X1.000000*%
%ADD22R,2.190000X1.600000*%
%ADD23R,0.600000X1.100000*%
%ADD24C,5.000000*%
%ADD25C,1.650000*%
%ADD26C,3.000000*%
%ADD27C,2.540000*%
%ADD28C,0.457200*%
%ADD29C,0.254000*%
%ADD30C,0.508000*%
%ADD31C,0.203200*%
%ADD32C,0.152400*%
G04 APERTURE END LIST*
D10*
D11*
X193802000Y-68834000D03*
D12*
X191262000Y-68834000D03*
X188722000Y-68834000D03*
X186182000Y-68834000D03*
X183642000Y-68834000D03*
X181102000Y-68834000D03*
X178562000Y-68834000D03*
X176022000Y-68834000D03*
X173482000Y-68834000D03*
X170942000Y-68834000D03*
X193802000Y-71882000D03*
X191262000Y-71882000D03*
X188722000Y-71882000D03*
X186182000Y-71882000D03*
X183642000Y-71882000D03*
X181102000Y-71882000D03*
X178562000Y-71882000D03*
X176022000Y-71882000D03*
X173482000Y-71882000D03*
X170942000Y-71882000D03*
D13*
X149987000Y-46851000D03*
X149987000Y-45351000D03*
X168211500Y-52526500D03*
X168211500Y-54026500D03*
D14*
X136260000Y-70866000D03*
X138060000Y-70866000D03*
D15*
X163056000Y-48514000D03*
X161556000Y-48514000D03*
D14*
X136260000Y-63754000D03*
X138060000Y-63754000D03*
D16*
X152019000Y-45201000D03*
X152019000Y-47001000D03*
D13*
X157162500Y-42557000D03*
X157162500Y-44057000D03*
X159321500Y-42557000D03*
X159321500Y-44057000D03*
D17*
X119062500Y-69585840D03*
X119062500Y-71384160D03*
X125412500Y-69585840D03*
X125412500Y-71384160D03*
D11*
X195580000Y-33020000D03*
D12*
X198120000Y-33020000D03*
X200660000Y-33020000D03*
X203200000Y-33020000D03*
X205740000Y-33020000D03*
X208280000Y-33020000D03*
X210820000Y-33020000D03*
X213360000Y-33020000D03*
D11*
X139700000Y-33020000D03*
D12*
X142240000Y-33020000D03*
X144780000Y-33020000D03*
X147320000Y-33020000D03*
X149860000Y-33020000D03*
X152400000Y-33020000D03*
X154940000Y-33020000D03*
X157480000Y-33020000D03*
X160020000Y-33020000D03*
X162560000Y-33020000D03*
X165100000Y-33020000D03*
X167640000Y-33020000D03*
X170180000Y-33020000D03*
X172720000Y-33020000D03*
X175260000Y-33020000D03*
X177800000Y-33020000D03*
D18*
X225790000Y-50080000D03*
D19*
X225790000Y-52620000D03*
X225790000Y-55160000D03*
X225790000Y-57700000D03*
D11*
X148844000Y-72898000D03*
D12*
X151384000Y-72898000D03*
X153924000Y-72898000D03*
X156464000Y-72898000D03*
X159004000Y-72898000D03*
X161544000Y-72898000D03*
D20*
X121094500Y-69481000D03*
X121094500Y-70981000D03*
X128206500Y-69735000D03*
X128206500Y-71235000D03*
D21*
X142609000Y-46609000D03*
X141109000Y-46609000D03*
X163373500Y-66802000D03*
X161873500Y-66802000D03*
D22*
X144041000Y-42672000D03*
X134851000Y-42672000D03*
X134851000Y-54864000D03*
X144041000Y-54864000D03*
D23*
X136591000Y-68410000D03*
X138491000Y-68410000D03*
X137541000Y-68410000D03*
X138491000Y-66210000D03*
X136591000Y-66210000D03*
D24*
X122047000Y-31623000D03*
X97917000Y-31623000D03*
D25*
X111232000Y-34333000D03*
X108732000Y-34333000D03*
X111232000Y-36333000D03*
D26*
X103982000Y-31623000D03*
X115982000Y-31623000D03*
D25*
X108732000Y-36333000D03*
D27*
X104394000Y-64008000D03*
X109474000Y-64008000D03*
D28*
X159766000Y-49022000D03*
X135445500Y-56261000D03*
X148336000Y-55816500D03*
X159702500Y-45021500D03*
X174053500Y-55054500D03*
X165671500Y-53975000D03*
X160020000Y-47752000D03*
X154559000Y-46355000D03*
X146748500Y-66738500D03*
X153035000Y-66802000D03*
X116586000Y-45212000D03*
X138364000Y-68410000D03*
X136448800Y-68402200D03*
X159258000Y-52832000D03*
X160528000Y-60706000D03*
X176022000Y-60706000D03*
X160020000Y-57404000D03*
X160528000Y-44704000D03*
X161544000Y-44958000D03*
X162306000Y-45720000D03*
X164592000Y-45974000D03*
X165354000Y-46482000D03*
X166116000Y-47244000D03*
X166878000Y-47498000D03*
X167640000Y-47752000D03*
X166370000Y-50546000D03*
X139700000Y-48768000D03*
X166116000Y-51308000D03*
X140462000Y-50546000D03*
X165862000Y-52070000D03*
X141224000Y-51562000D03*
X158242000Y-52070000D03*
X177292000Y-56642000D03*
X190055500Y-55753000D03*
X157988000Y-51435000D03*
X186182000Y-59182000D03*
X156718000Y-56134000D03*
X183642000Y-59690000D03*
X152654000Y-53594000D03*
X188722000Y-60452000D03*
X151638000Y-53594000D03*
X156718000Y-49530000D03*
D29*
X159766000Y-49022000D02*
X158623000Y-49022000D01*
X158623000Y-49022000D02*
X158496000Y-48895000D01*
X134851000Y-55666500D02*
X134851000Y-54864000D01*
X135445500Y-56261000D02*
X134851000Y-55666500D01*
X149987000Y-46851000D02*
X151869000Y-46851000D01*
X151869000Y-46851000D02*
X152019000Y-47001000D01*
X158508000Y-48895000D02*
X158496000Y-48895000D01*
X158496000Y-48895000D02*
X153913000Y-48895000D01*
X153913000Y-48895000D02*
X152019000Y-47001000D01*
X161556000Y-48514000D02*
X160528000Y-48514000D01*
X160020000Y-48260000D02*
X160020000Y-47752000D01*
X160274000Y-48514000D02*
X160020000Y-48260000D01*
X160528000Y-48514000D02*
X160274000Y-48514000D01*
X148336000Y-55816500D02*
X147891500Y-55816500D01*
X145351500Y-58356500D02*
X145351500Y-61595000D01*
X147891500Y-55816500D02*
X145351500Y-58356500D01*
X128206500Y-69735000D02*
X128206500Y-68707000D01*
X133159500Y-63754000D02*
X136260000Y-63754000D01*
X128206500Y-68707000D02*
X133159500Y-63754000D01*
X159321500Y-44057000D02*
X159321500Y-44640500D01*
X159321500Y-44640500D02*
X159702500Y-45021500D01*
X157162500Y-44057000D02*
X159321500Y-44057000D01*
X168211500Y-54026500D02*
X173025500Y-54026500D01*
X173025500Y-54026500D02*
X174053500Y-55054500D01*
X165671500Y-53975000D02*
X165723000Y-54026500D01*
X165723000Y-54026500D02*
X168211500Y-54026500D01*
X136260000Y-61595000D02*
X143256000Y-61595000D01*
X143256000Y-61595000D02*
X145351500Y-61595000D01*
X145351500Y-61595000D02*
X145415000Y-61595000D01*
X153924000Y-70104000D02*
X153924000Y-72898000D01*
X145415000Y-61595000D02*
X153924000Y-70104000D01*
X154559000Y-46355000D02*
X158623000Y-46355000D01*
X158623000Y-46355000D02*
X160020000Y-47752000D01*
X152019000Y-45201000D02*
X153405000Y-45201000D01*
X153405000Y-45201000D02*
X154559000Y-46355000D01*
X149987000Y-45351000D02*
X151869000Y-45351000D01*
X151869000Y-45351000D02*
X152019000Y-45201000D01*
X134851000Y-42672000D02*
X140462000Y-42672000D01*
X149987000Y-42672000D02*
X149987000Y-45351000D01*
X147955000Y-40640000D02*
X149987000Y-42672000D01*
X142494000Y-40640000D02*
X147955000Y-40640000D01*
X140462000Y-42672000D02*
X142494000Y-40640000D01*
X136260000Y-63754000D02*
X136260000Y-61595000D01*
X136260000Y-61595000D02*
X136260000Y-58304000D01*
X134851000Y-45189000D02*
X134851000Y-42672000D01*
X136906000Y-47244000D02*
X134851000Y-45189000D01*
X136906000Y-57658000D02*
X136906000Y-47244000D01*
X136260000Y-58304000D02*
X136906000Y-57658000D01*
X150137000Y-45201000D02*
X149987000Y-45351000D01*
X151963000Y-45145000D02*
X152019000Y-45201000D01*
D30*
X108732000Y-36333000D02*
X108732000Y-37358000D01*
X109118400Y-37744400D02*
X116586000Y-45212000D01*
X108732000Y-37358000D02*
X109118400Y-37744400D01*
X161873500Y-66802000D02*
X153035000Y-66802000D01*
X136260000Y-72569500D02*
X136260000Y-70866000D01*
X136779000Y-73088500D02*
X136260000Y-72569500D01*
X140398500Y-73088500D02*
X136779000Y-73088500D01*
X146748500Y-66738500D02*
X140398500Y-73088500D01*
X121094500Y-69481000D02*
X122376500Y-69481000D01*
X135382000Y-70866000D02*
X136260000Y-70866000D01*
X131572000Y-74676000D02*
X135382000Y-70866000D01*
X124206000Y-74676000D02*
X131572000Y-74676000D01*
X123063000Y-73533000D02*
X124206000Y-74676000D01*
X123063000Y-70167500D02*
X123063000Y-73533000D01*
X122376500Y-69481000D02*
X123063000Y-70167500D01*
X116586000Y-45212000D02*
X116586000Y-63246000D01*
X121094500Y-67754500D02*
X121094500Y-69481000D01*
X116586000Y-63246000D02*
X121094500Y-67754500D01*
X136456600Y-68410000D02*
X136448800Y-68402200D01*
X136456600Y-68410000D02*
X136464000Y-68410000D01*
D29*
X144041000Y-54864000D02*
X146050000Y-54864000D01*
X148082000Y-52832000D02*
X159258000Y-52832000D01*
X146050000Y-54864000D02*
X148082000Y-52832000D01*
X160020000Y-53594000D02*
X160020000Y-54864000D01*
X160020000Y-54864000D02*
X160020000Y-57404000D01*
X159258000Y-52832000D02*
X160020000Y-53594000D01*
X160528000Y-60706000D02*
X160782000Y-60452000D01*
X160782000Y-60452000D02*
X175768000Y-60452000D01*
X176022000Y-60706000D02*
X175768000Y-60452000D01*
X119062500Y-71384160D02*
X120030240Y-71384160D01*
X120294400Y-71120000D02*
X120955500Y-71120000D01*
X120030240Y-71384160D02*
X120294400Y-71120000D01*
X120955500Y-71120000D02*
X121094500Y-70981000D01*
X125412500Y-71384160D02*
X127053340Y-71384160D01*
X127202500Y-71235000D02*
X128206500Y-71235000D01*
X127053340Y-71384160D02*
X127202500Y-71235000D01*
X125263340Y-71235000D02*
X125412500Y-71384160D01*
X164338000Y-43688000D02*
X163830000Y-44196000D01*
X172212000Y-35814000D02*
X194564000Y-35814000D01*
X194564000Y-35814000D02*
X195580000Y-34798000D01*
X195580000Y-33020000D02*
X195580000Y-34798000D01*
X164338000Y-43688000D02*
X172212000Y-35814000D01*
X161036000Y-44196000D02*
X160528000Y-44704000D01*
X163830000Y-44196000D02*
X161036000Y-44196000D01*
X164592000Y-44196000D02*
X163830000Y-44958000D01*
X164592000Y-44196000D02*
X172466000Y-36322000D01*
X172466000Y-36322000D02*
X197104000Y-36322000D01*
X197104000Y-36322000D02*
X198120000Y-35306000D01*
X198120000Y-33020000D02*
X198120000Y-35306000D01*
X163830000Y-44958000D02*
X161544000Y-44958000D01*
X164338000Y-45466000D02*
X162560000Y-45466000D01*
X162560000Y-45466000D02*
X162306000Y-45720000D01*
X164846000Y-44958000D02*
X172720000Y-37084000D01*
X172720000Y-37084000D02*
X198628000Y-37084000D01*
X198628000Y-37084000D02*
X200660000Y-35052000D01*
X200660000Y-33020000D02*
X200660000Y-35052000D01*
X164846000Y-44958000D02*
X164338000Y-45466000D01*
X203200000Y-35306000D02*
X203200000Y-33020000D01*
X200914000Y-37592000D02*
X203200000Y-35306000D01*
X172974000Y-37592000D02*
X200914000Y-37592000D01*
X164592000Y-45974000D02*
X172974000Y-37592000D01*
X205740000Y-35306000D02*
X205740000Y-33020000D01*
X202946000Y-38100000D02*
X205740000Y-35306000D01*
X173482000Y-38100000D02*
X202946000Y-38100000D01*
X165354000Y-46228000D02*
X173482000Y-38100000D01*
X165354000Y-46482000D02*
X165354000Y-46228000D01*
X208280000Y-35560000D02*
X208280000Y-33020000D01*
X205232000Y-38608000D02*
X208280000Y-35560000D01*
X173736000Y-38608000D02*
X205232000Y-38608000D01*
X166116000Y-46228000D02*
X173736000Y-38608000D01*
X166116000Y-47244000D02*
X166116000Y-46228000D01*
X210820000Y-35814000D02*
X210820000Y-33020000D01*
X207518000Y-39116000D02*
X210820000Y-35814000D01*
X173990000Y-39116000D02*
X207518000Y-39116000D01*
X166878000Y-46228000D02*
X173990000Y-39116000D01*
X166878000Y-47498000D02*
X166878000Y-46228000D01*
X213360000Y-35560000D02*
X213360000Y-33020000D01*
X209296000Y-39624000D02*
X213360000Y-35560000D01*
X174244000Y-39624000D02*
X209296000Y-39624000D01*
X167640000Y-46228000D02*
X174244000Y-39624000D01*
X167640000Y-47752000D02*
X167640000Y-46228000D01*
X156591000Y-50292000D02*
X156845000Y-50292000D01*
X166370000Y-50546000D02*
X166116000Y-50292000D01*
X156591000Y-50292000D02*
X141224000Y-50292000D01*
X166116000Y-50292000D02*
X161163000Y-50292000D01*
X141224000Y-50292000D02*
X139700000Y-48768000D01*
X160655000Y-49784000D02*
X161163000Y-50292000D01*
X157353000Y-49784000D02*
X160655000Y-49784000D01*
X156845000Y-50292000D02*
X157353000Y-49784000D01*
X156781500Y-50749202D02*
X157086298Y-50749202D01*
X166116000Y-51308000D02*
X165557202Y-50749202D01*
X156781500Y-50749202D02*
X140665202Y-50749202D01*
X165557202Y-50749202D02*
X161036000Y-50749202D01*
X140665202Y-50749202D02*
X140462000Y-50546000D01*
X160858202Y-50749202D02*
X161036000Y-50749202D01*
X160401000Y-50292000D02*
X160858202Y-50749202D01*
X157543500Y-50292000D02*
X160401000Y-50292000D01*
X157086298Y-50749202D02*
X157543500Y-50292000D01*
X156718000Y-51308000D02*
X157226000Y-51308000D01*
X165862000Y-52070000D02*
X165100000Y-51308000D01*
X156718000Y-51308000D02*
X141478000Y-51308000D01*
X165100000Y-51308000D02*
X161036000Y-51308000D01*
X141478000Y-51308000D02*
X141224000Y-51562000D01*
X160718500Y-51308000D02*
X161036000Y-51308000D01*
X160210500Y-50800000D02*
X160718500Y-51308000D01*
X157734000Y-50800000D02*
X160210500Y-50800000D01*
X157226000Y-51308000D02*
X157734000Y-50800000D01*
X158242000Y-52070000D02*
X159321500Y-52070000D01*
X167386000Y-56642000D02*
X177292000Y-56642000D01*
X161290000Y-56642000D02*
X167386000Y-56642000D01*
X160591500Y-55943500D02*
X161290000Y-56642000D01*
X160591500Y-53340000D02*
X160591500Y-55943500D01*
X159321500Y-52070000D02*
X160591500Y-53340000D01*
X163893500Y-55753000D02*
X190055500Y-55753000D01*
X159512000Y-51371500D02*
X163893500Y-55753000D01*
X158051500Y-51371500D02*
X159512000Y-51371500D01*
X157988000Y-51435000D02*
X158051500Y-51371500D01*
X186182000Y-59182000D02*
X215011000Y-59182000D01*
X224113000Y-50080000D02*
X225790000Y-50080000D01*
X215011000Y-59182000D02*
X224113000Y-50080000D01*
X157480000Y-58928000D02*
X159385000Y-58928000D01*
X185928000Y-58928000D02*
X186182000Y-59182000D01*
X159385000Y-58928000D02*
X185928000Y-58928000D01*
X156972000Y-58928000D02*
X157480000Y-58928000D01*
X156718000Y-58674000D02*
X156972000Y-58928000D01*
X156718000Y-56134000D02*
X156718000Y-58674000D01*
X183642000Y-59690000D02*
X184277000Y-59690000D01*
X223351000Y-52620000D02*
X225790000Y-52620000D01*
X216154000Y-59817000D02*
X223351000Y-52620000D01*
X184404000Y-59817000D02*
X216154000Y-59817000D01*
X184277000Y-59690000D02*
X184404000Y-59817000D01*
X156464000Y-59436000D02*
X154686000Y-59436000D01*
X156972000Y-59436000D02*
X183388000Y-59436000D01*
X183642000Y-59690000D02*
X183388000Y-59436000D01*
X156718000Y-59436000D02*
X156972000Y-59436000D01*
X156464000Y-59436000D02*
X156718000Y-59436000D01*
X152654000Y-57404000D02*
X152654000Y-53594000D01*
X154686000Y-59436000D02*
X152654000Y-57404000D01*
X188722000Y-60452000D02*
X223038000Y-60452000D01*
X223038000Y-60452000D02*
X225790000Y-57700000D01*
X183388000Y-60452000D02*
X188722000Y-60452000D01*
X182880000Y-59944000D02*
X183388000Y-60452000D01*
X154432000Y-59944000D02*
X182880000Y-59944000D01*
X154381202Y-59893202D02*
X154432000Y-59944000D01*
X152146000Y-57658000D02*
X154381202Y-59893202D01*
X152146000Y-54102000D02*
X152146000Y-57658000D01*
X151638000Y-53594000D02*
X152146000Y-54102000D01*
X163373500Y-66802000D02*
X164846000Y-66802000D01*
X167132000Y-69088000D02*
X170942000Y-69088000D01*
X164846000Y-66802000D02*
X167132000Y-69088000D01*
X170688000Y-69088000D02*
X170942000Y-69088000D01*
X142609000Y-46609000D02*
X144041000Y-46609000D01*
X144018000Y-46482000D02*
X144041000Y-46482000D01*
X144018000Y-46586000D02*
X144018000Y-46482000D01*
X144041000Y-46609000D02*
X144018000Y-46586000D01*
X144018000Y-42649000D02*
X144041000Y-42672000D01*
X144041000Y-42672000D02*
X144041000Y-46482000D01*
X144041000Y-46482000D02*
X144041000Y-47775000D01*
X156464000Y-49784000D02*
X156718000Y-49530000D01*
X146050000Y-49784000D02*
X156464000Y-49784000D01*
X144041000Y-47775000D02*
X146050000Y-49784000D01*
D31*
G36*
X234594400Y-76225400D02*
X85572600Y-76225400D01*
X85572600Y-69674740D01*
X118408450Y-69674740D01*
X118408450Y-70085944D01*
X118447119Y-70179300D01*
X118518571Y-70250751D01*
X118611926Y-70289420D01*
X118973600Y-70289420D01*
X119037100Y-70225920D01*
X119037100Y-69611240D01*
X119087900Y-69611240D01*
X119087900Y-70225920D01*
X119151400Y-70289420D01*
X119513074Y-70289420D01*
X119606429Y-70250751D01*
X119677881Y-70179300D01*
X119716550Y-70085944D01*
X119716550Y-69674740D01*
X119653050Y-69611240D01*
X119087900Y-69611240D01*
X119037100Y-69611240D01*
X118471950Y-69611240D01*
X118408450Y-69674740D01*
X85572600Y-69674740D01*
X85572600Y-69085736D01*
X118408450Y-69085736D01*
X118408450Y-69496940D01*
X118471950Y-69560440D01*
X119037100Y-69560440D01*
X119037100Y-68945760D01*
X119087900Y-68945760D01*
X119087900Y-69560440D01*
X119653050Y-69560440D01*
X119716550Y-69496940D01*
X119716550Y-69085736D01*
X119677881Y-68992380D01*
X119606429Y-68920929D01*
X119513074Y-68882260D01*
X119151400Y-68882260D01*
X119087900Y-68945760D01*
X119037100Y-68945760D01*
X118973600Y-68882260D01*
X118611926Y-68882260D01*
X118518571Y-68920929D01*
X118447119Y-68992380D01*
X118408450Y-69085736D01*
X85572600Y-69085736D01*
X85572600Y-65079649D01*
X103358272Y-65079649D01*
X103501337Y-65279859D01*
X104056006Y-65524651D01*
X104662132Y-65538548D01*
X105227437Y-65319433D01*
X105286663Y-65279859D01*
X105429728Y-65079649D01*
X108438272Y-65079649D01*
X108581337Y-65279859D01*
X109136006Y-65524651D01*
X109742132Y-65538548D01*
X110307437Y-65319433D01*
X110366663Y-65279859D01*
X110509728Y-65079649D01*
X109474000Y-64043921D01*
X108438272Y-65079649D01*
X105429728Y-65079649D01*
X104394000Y-64043921D01*
X103358272Y-65079649D01*
X85572600Y-65079649D01*
X85572600Y-64276132D01*
X102863452Y-64276132D01*
X103082567Y-64841437D01*
X103122141Y-64900663D01*
X103322351Y-65043728D01*
X104358079Y-64008000D01*
X104429921Y-64008000D01*
X105465649Y-65043728D01*
X105665859Y-64900663D01*
X105910651Y-64345994D01*
X105912252Y-64276132D01*
X107943452Y-64276132D01*
X108162567Y-64841437D01*
X108202141Y-64900663D01*
X108402351Y-65043728D01*
X109438079Y-64008000D01*
X109509921Y-64008000D01*
X110545649Y-65043728D01*
X110745859Y-64900663D01*
X110990651Y-64345994D01*
X111004548Y-63739868D01*
X110785433Y-63174563D01*
X110745859Y-63115337D01*
X110545649Y-62972272D01*
X109509921Y-64008000D01*
X109438079Y-64008000D01*
X108402351Y-62972272D01*
X108202141Y-63115337D01*
X107957349Y-63670006D01*
X107943452Y-64276132D01*
X105912252Y-64276132D01*
X105924548Y-63739868D01*
X105705433Y-63174563D01*
X105665859Y-63115337D01*
X105465649Y-62972272D01*
X104429921Y-64008000D01*
X104358079Y-64008000D01*
X103322351Y-62972272D01*
X103122141Y-63115337D01*
X102877349Y-63670006D01*
X102863452Y-64276132D01*
X85572600Y-64276132D01*
X85572600Y-62936351D01*
X103358272Y-62936351D01*
X104394000Y-63972079D01*
X105429728Y-62936351D01*
X108438272Y-62936351D01*
X109474000Y-63972079D01*
X110509728Y-62936351D01*
X110366663Y-62736141D01*
X109811994Y-62491349D01*
X109205868Y-62477452D01*
X108640563Y-62696567D01*
X108581337Y-62736141D01*
X108438272Y-62936351D01*
X105429728Y-62936351D01*
X105286663Y-62736141D01*
X104731994Y-62491349D01*
X104125868Y-62477452D01*
X103560563Y-62696567D01*
X103501337Y-62736141D01*
X103358272Y-62936351D01*
X85572600Y-62936351D01*
X85572600Y-36566806D01*
X107551196Y-36566806D01*
X107730553Y-37000882D01*
X108062371Y-37333280D01*
X108122445Y-37358225D01*
X108168803Y-37591284D01*
X108300948Y-37789052D01*
X115976400Y-45464504D01*
X115976400Y-63246000D01*
X116022803Y-63479284D01*
X116154948Y-63677052D01*
X120484900Y-68007004D01*
X120484900Y-68714057D01*
X120462723Y-68718230D01*
X120341693Y-68796110D01*
X120260499Y-68914942D01*
X120231934Y-69056000D01*
X120231934Y-69906000D01*
X120256730Y-70037777D01*
X120334610Y-70158807D01*
X120453442Y-70240001D01*
X120534763Y-70256469D01*
X120481548Y-70266482D01*
X120377808Y-70333237D01*
X120308213Y-70435093D01*
X120283729Y-70556000D01*
X120283729Y-70690322D01*
X120129158Y-70721068D01*
X120082674Y-70752128D01*
X119989071Y-70814671D01*
X119989069Y-70814674D01*
X119851382Y-70952360D01*
X119773321Y-70952360D01*
X119773321Y-70934580D01*
X119752068Y-70821628D01*
X119685313Y-70717888D01*
X119583457Y-70648293D01*
X119462550Y-70623809D01*
X118662450Y-70623809D01*
X118549498Y-70645062D01*
X118445758Y-70711817D01*
X118376163Y-70813673D01*
X118351679Y-70934580D01*
X118351679Y-71833740D01*
X118372932Y-71946692D01*
X118439687Y-72050432D01*
X118541543Y-72120027D01*
X118662450Y-72144511D01*
X119462550Y-72144511D01*
X119575502Y-72123258D01*
X119679242Y-72056503D01*
X119748837Y-71954647D01*
X119773321Y-71833740D01*
X119773321Y-71815960D01*
X120030240Y-71815960D01*
X120195483Y-71783091D01*
X120335569Y-71689489D01*
X120389933Y-71635125D01*
X120473593Y-71692287D01*
X120594500Y-71716771D01*
X121594500Y-71716771D01*
X121707452Y-71695518D01*
X121811192Y-71628763D01*
X121880787Y-71526907D01*
X121905271Y-71406000D01*
X121905271Y-70556000D01*
X121884018Y-70443048D01*
X121817263Y-70339308D01*
X121715407Y-70269713D01*
X121654236Y-70257326D01*
X121726277Y-70243770D01*
X121847307Y-70165890D01*
X121898750Y-70090600D01*
X122123996Y-70090600D01*
X122453400Y-70420005D01*
X122453400Y-73533000D01*
X122499803Y-73766284D01*
X122631948Y-73964052D01*
X123774948Y-75107052D01*
X123972716Y-75239197D01*
X124206000Y-75285600D01*
X131572000Y-75285600D01*
X131805284Y-75239197D01*
X132003052Y-75107052D01*
X135280400Y-71829705D01*
X135280400Y-71882000D01*
X135288405Y-71921528D01*
X135311157Y-71954828D01*
X135345073Y-71976652D01*
X135382000Y-71983600D01*
X135650400Y-71983600D01*
X135650400Y-72569500D01*
X135696803Y-72802784D01*
X135828948Y-73000552D01*
X136347948Y-73519552D01*
X136545716Y-73651697D01*
X136779000Y-73698100D01*
X140398500Y-73698100D01*
X140631784Y-73651697D01*
X140829552Y-73519552D01*
X141362204Y-72986900D01*
X147828000Y-72986900D01*
X147828000Y-74091524D01*
X147866669Y-74184879D01*
X147938120Y-74256331D01*
X148031476Y-74295000D01*
X148755100Y-74295000D01*
X148818600Y-74231500D01*
X148818600Y-72923400D01*
X148869400Y-72923400D01*
X148869400Y-74231500D01*
X148932900Y-74295000D01*
X149656524Y-74295000D01*
X149749880Y-74256331D01*
X149821331Y-74184879D01*
X149860000Y-74091524D01*
X149860000Y-72986900D01*
X149796500Y-72923400D01*
X148869400Y-72923400D01*
X148818600Y-72923400D01*
X147891500Y-72923400D01*
X147828000Y-72986900D01*
X141362204Y-72986900D01*
X142644628Y-71704476D01*
X147828000Y-71704476D01*
X147828000Y-72809100D01*
X147891500Y-72872600D01*
X148818600Y-72872600D01*
X148818600Y-71564500D01*
X148869400Y-71564500D01*
X148869400Y-72872600D01*
X149796500Y-72872600D01*
X149860000Y-72809100D01*
X149860000Y-72488636D01*
X150317200Y-72488636D01*
X150317200Y-73307364D01*
X150398405Y-73715611D01*
X150629658Y-74061706D01*
X150975753Y-74292959D01*
X151384000Y-74374164D01*
X151792247Y-74292959D01*
X152138342Y-74061706D01*
X152369595Y-73715611D01*
X152450800Y-73307364D01*
X152450800Y-72488636D01*
X152369595Y-72080389D01*
X152138342Y-71734294D01*
X151792247Y-71503041D01*
X151384000Y-71421836D01*
X150975753Y-71503041D01*
X150629658Y-71734294D01*
X150398405Y-72080389D01*
X150317200Y-72488636D01*
X149860000Y-72488636D01*
X149860000Y-71704476D01*
X149821331Y-71611121D01*
X149749880Y-71539669D01*
X149656524Y-71501000D01*
X148932900Y-71501000D01*
X148869400Y-71564500D01*
X148818600Y-71564500D01*
X148755100Y-71501000D01*
X148031476Y-71501000D01*
X147938120Y-71539669D01*
X147866669Y-71611121D01*
X147828000Y-71704476D01*
X142644628Y-71704476D01*
X147179552Y-67169552D01*
X147311697Y-66971784D01*
X147358099Y-66738500D01*
X147311697Y-66505216D01*
X147179552Y-66307448D01*
X146981784Y-66175303D01*
X146748500Y-66128901D01*
X146515216Y-66175303D01*
X146317448Y-66307448D01*
X140145996Y-72478900D01*
X137031504Y-72478900D01*
X136869600Y-72316996D01*
X136869600Y-71983600D01*
X137160000Y-71983600D01*
X137199528Y-71975595D01*
X137232828Y-71952843D01*
X137254652Y-71918927D01*
X137261600Y-71882000D01*
X137261600Y-68525695D01*
X137779699Y-68525695D01*
X137828434Y-68643642D01*
X137828434Y-68960000D01*
X137853230Y-69091777D01*
X137931110Y-69212807D01*
X138049942Y-69294001D01*
X138191000Y-69322566D01*
X138791000Y-69322566D01*
X138922777Y-69297770D01*
X139043807Y-69219890D01*
X139125001Y-69101058D01*
X139153566Y-68960000D01*
X139153566Y-67860000D01*
X139128770Y-67728223D01*
X139050890Y-67607193D01*
X138932058Y-67525999D01*
X138791000Y-67497434D01*
X138191000Y-67497434D01*
X138059223Y-67522230D01*
X137938193Y-67600110D01*
X137856999Y-67718942D01*
X137828434Y-67860000D01*
X137828434Y-68176407D01*
X137779902Y-68293286D01*
X137779699Y-68525695D01*
X137261600Y-68525695D01*
X137261600Y-62738000D01*
X137253595Y-62698472D01*
X137230843Y-62665172D01*
X137196927Y-62643348D01*
X137160000Y-62636400D01*
X136691800Y-62636400D01*
X136691800Y-62026800D01*
X145236142Y-62026800D01*
X153492200Y-70282858D01*
X153492200Y-71518779D01*
X153169658Y-71734294D01*
X152938405Y-72080389D01*
X152857200Y-72488636D01*
X152857200Y-73307364D01*
X152938405Y-73715611D01*
X153169658Y-74061706D01*
X153515753Y-74292959D01*
X153924000Y-74374164D01*
X154332247Y-74292959D01*
X154678342Y-74061706D01*
X154909595Y-73715611D01*
X154990800Y-73307364D01*
X154990800Y-72488636D01*
X155397200Y-72488636D01*
X155397200Y-73307364D01*
X155478405Y-73715611D01*
X155709658Y-74061706D01*
X156055753Y-74292959D01*
X156464000Y-74374164D01*
X156872247Y-74292959D01*
X157218342Y-74061706D01*
X157449595Y-73715611D01*
X157530800Y-73307364D01*
X157530800Y-72488636D01*
X157937200Y-72488636D01*
X157937200Y-73307364D01*
X158018405Y-73715611D01*
X158249658Y-74061706D01*
X158595753Y-74292959D01*
X159004000Y-74374164D01*
X159412247Y-74292959D01*
X159758342Y-74061706D01*
X159989595Y-73715611D01*
X160070800Y-73307364D01*
X160070800Y-72488636D01*
X160477200Y-72488636D01*
X160477200Y-73307364D01*
X160558405Y-73715611D01*
X160789658Y-74061706D01*
X161135753Y-74292959D01*
X161544000Y-74374164D01*
X161952247Y-74292959D01*
X162298342Y-74061706D01*
X162529595Y-73715611D01*
X162610800Y-73307364D01*
X162610800Y-72488636D01*
X162529595Y-72080389D01*
X162414008Y-71907400D01*
X169926000Y-71907400D01*
X169926000Y-72288400D01*
X170013059Y-72675273D01*
X170241540Y-72999381D01*
X170576660Y-73211382D01*
X170758025Y-73262204D01*
X170916600Y-73215161D01*
X170916600Y-71907400D01*
X170967400Y-71907400D01*
X170967400Y-73215161D01*
X171125975Y-73262204D01*
X171307340Y-73211382D01*
X171642460Y-72999381D01*
X171870941Y-72675273D01*
X171958000Y-72288400D01*
X171958000Y-71907400D01*
X172466000Y-71907400D01*
X172466000Y-72288400D01*
X172553059Y-72675273D01*
X172781540Y-72999381D01*
X173116660Y-73211382D01*
X173298025Y-73262204D01*
X173456600Y-73215161D01*
X173456600Y-71907400D01*
X173507400Y-71907400D01*
X173507400Y-73215161D01*
X173665975Y-73262204D01*
X173847340Y-73211382D01*
X174182460Y-72999381D01*
X174410941Y-72675273D01*
X174498000Y-72288400D01*
X174498000Y-71907400D01*
X175006000Y-71907400D01*
X175006000Y-72288400D01*
X175093059Y-72675273D01*
X175321540Y-72999381D01*
X175656660Y-73211382D01*
X175838025Y-73262204D01*
X175996600Y-73215161D01*
X175996600Y-71907400D01*
X176047400Y-71907400D01*
X176047400Y-73215161D01*
X176205975Y-73262204D01*
X176387340Y-73211382D01*
X176722460Y-72999381D01*
X176950941Y-72675273D01*
X177038000Y-72288400D01*
X177038000Y-71907400D01*
X177546000Y-71907400D01*
X177546000Y-72288400D01*
X177633059Y-72675273D01*
X177861540Y-72999381D01*
X178196660Y-73211382D01*
X178378025Y-73262204D01*
X178536600Y-73215161D01*
X178536600Y-71907400D01*
X178587400Y-71907400D01*
X178587400Y-73215161D01*
X178745975Y-73262204D01*
X178927340Y-73211382D01*
X179262460Y-72999381D01*
X179490941Y-72675273D01*
X179578000Y-72288400D01*
X179578000Y-71907400D01*
X180086000Y-71907400D01*
X180086000Y-72288400D01*
X180173059Y-72675273D01*
X180401540Y-72999381D01*
X180736660Y-73211382D01*
X180918025Y-73262204D01*
X181076600Y-73215161D01*
X181076600Y-71907400D01*
X181127400Y-71907400D01*
X181127400Y-73215161D01*
X181285975Y-73262204D01*
X181467340Y-73211382D01*
X181802460Y-72999381D01*
X182030941Y-72675273D01*
X182118000Y-72288400D01*
X182118000Y-71907400D01*
X182626000Y-71907400D01*
X182626000Y-72288400D01*
X182713059Y-72675273D01*
X182941540Y-72999381D01*
X183276660Y-73211382D01*
X183458025Y-73262204D01*
X183616600Y-73215161D01*
X183616600Y-71907400D01*
X183667400Y-71907400D01*
X183667400Y-73215161D01*
X183825975Y-73262204D01*
X184007340Y-73211382D01*
X184342460Y-72999381D01*
X184570941Y-72675273D01*
X184658000Y-72288400D01*
X184658000Y-71907400D01*
X185166000Y-71907400D01*
X185166000Y-72288400D01*
X185253059Y-72675273D01*
X185481540Y-72999381D01*
X185816660Y-73211382D01*
X185998025Y-73262204D01*
X186156600Y-73215161D01*
X186156600Y-71907400D01*
X186207400Y-71907400D01*
X186207400Y-73215161D01*
X186365975Y-73262204D01*
X186547340Y-73211382D01*
X186882460Y-72999381D01*
X187110941Y-72675273D01*
X187198000Y-72288400D01*
X187198000Y-71907400D01*
X187706000Y-71907400D01*
X187706000Y-72288400D01*
X187793059Y-72675273D01*
X188021540Y-72999381D01*
X188356660Y-73211382D01*
X188538025Y-73262204D01*
X188696600Y-73215161D01*
X188696600Y-71907400D01*
X188747400Y-71907400D01*
X188747400Y-73215161D01*
X188905975Y-73262204D01*
X189087340Y-73211382D01*
X189422460Y-72999381D01*
X189650941Y-72675273D01*
X189738000Y-72288400D01*
X189738000Y-71907400D01*
X190246000Y-71907400D01*
X190246000Y-72288400D01*
X190333059Y-72675273D01*
X190561540Y-72999381D01*
X190896660Y-73211382D01*
X191078025Y-73262204D01*
X191236600Y-73215161D01*
X191236600Y-71907400D01*
X191287400Y-71907400D01*
X191287400Y-73215161D01*
X191445975Y-73262204D01*
X191627340Y-73211382D01*
X191962460Y-72999381D01*
X192190941Y-72675273D01*
X192278000Y-72288400D01*
X192278000Y-71907400D01*
X192786000Y-71907400D01*
X192786000Y-72288400D01*
X192873059Y-72675273D01*
X193101540Y-72999381D01*
X193436660Y-73211382D01*
X193618025Y-73262204D01*
X193776600Y-73215161D01*
X193776600Y-71907400D01*
X193827400Y-71907400D01*
X193827400Y-73215161D01*
X193985975Y-73262204D01*
X194167340Y-73211382D01*
X194502460Y-72999381D01*
X194730941Y-72675273D01*
X194818000Y-72288400D01*
X194818000Y-71907400D01*
X193827400Y-71907400D01*
X193776600Y-71907400D01*
X192786000Y-71907400D01*
X192278000Y-71907400D01*
X191287400Y-71907400D01*
X191236600Y-71907400D01*
X190246000Y-71907400D01*
X189738000Y-71907400D01*
X188747400Y-71907400D01*
X188696600Y-71907400D01*
X187706000Y-71907400D01*
X187198000Y-71907400D01*
X186207400Y-71907400D01*
X186156600Y-71907400D01*
X185166000Y-71907400D01*
X184658000Y-71907400D01*
X183667400Y-71907400D01*
X183616600Y-71907400D01*
X182626000Y-71907400D01*
X182118000Y-71907400D01*
X181127400Y-71907400D01*
X181076600Y-71907400D01*
X180086000Y-71907400D01*
X179578000Y-71907400D01*
X178587400Y-71907400D01*
X178536600Y-71907400D01*
X177546000Y-71907400D01*
X177038000Y-71907400D01*
X176047400Y-71907400D01*
X175996600Y-71907400D01*
X175006000Y-71907400D01*
X174498000Y-71907400D01*
X173507400Y-71907400D01*
X173456600Y-71907400D01*
X172466000Y-71907400D01*
X171958000Y-71907400D01*
X170967400Y-71907400D01*
X170916600Y-71907400D01*
X169926000Y-71907400D01*
X162414008Y-71907400D01*
X162298342Y-71734294D01*
X161952247Y-71503041D01*
X161814292Y-71475600D01*
X169926000Y-71475600D01*
X169926000Y-71856600D01*
X170916600Y-71856600D01*
X170916600Y-70548839D01*
X170967400Y-70548839D01*
X170967400Y-71856600D01*
X171958000Y-71856600D01*
X171958000Y-71475600D01*
X172466000Y-71475600D01*
X172466000Y-71856600D01*
X173456600Y-71856600D01*
X173456600Y-70548839D01*
X173507400Y-70548839D01*
X173507400Y-71856600D01*
X174498000Y-71856600D01*
X174498000Y-71475600D01*
X175006000Y-71475600D01*
X175006000Y-71856600D01*
X175996600Y-71856600D01*
X175996600Y-70548839D01*
X176047400Y-70548839D01*
X176047400Y-71856600D01*
X177038000Y-71856600D01*
X177038000Y-71475600D01*
X177546000Y-71475600D01*
X177546000Y-71856600D01*
X178536600Y-71856600D01*
X178536600Y-70548839D01*
X178587400Y-70548839D01*
X178587400Y-71856600D01*
X179578000Y-71856600D01*
X179578000Y-71475600D01*
X180086000Y-71475600D01*
X180086000Y-71856600D01*
X181076600Y-71856600D01*
X181076600Y-70548839D01*
X181127400Y-70548839D01*
X181127400Y-71856600D01*
X182118000Y-71856600D01*
X182118000Y-71475600D01*
X182626000Y-71475600D01*
X182626000Y-71856600D01*
X183616600Y-71856600D01*
X183616600Y-70548839D01*
X183667400Y-70548839D01*
X183667400Y-71856600D01*
X184658000Y-71856600D01*
X184658000Y-71475600D01*
X185166000Y-71475600D01*
X185166000Y-71856600D01*
X186156600Y-71856600D01*
X186156600Y-70548839D01*
X186207400Y-70548839D01*
X186207400Y-71856600D01*
X187198000Y-71856600D01*
X187198000Y-71475600D01*
X187706000Y-71475600D01*
X187706000Y-71856600D01*
X188696600Y-71856600D01*
X188696600Y-70548839D01*
X188747400Y-70548839D01*
X188747400Y-71856600D01*
X189738000Y-71856600D01*
X189738000Y-71475600D01*
X190246000Y-71475600D01*
X190246000Y-71856600D01*
X191236600Y-71856600D01*
X191236600Y-70548839D01*
X191287400Y-70548839D01*
X191287400Y-71856600D01*
X192278000Y-71856600D01*
X192278000Y-71475600D01*
X192786000Y-71475600D01*
X192786000Y-71856600D01*
X193776600Y-71856600D01*
X193776600Y-70548839D01*
X193827400Y-70548839D01*
X193827400Y-71856600D01*
X194818000Y-71856600D01*
X194818000Y-71475600D01*
X194730941Y-71088727D01*
X194502460Y-70764619D01*
X194167340Y-70552618D01*
X193985975Y-70501796D01*
X193827400Y-70548839D01*
X193776600Y-70548839D01*
X193618025Y-70501796D01*
X193436660Y-70552618D01*
X193101540Y-70764619D01*
X192873059Y-71088727D01*
X192786000Y-71475600D01*
X192278000Y-71475600D01*
X192190941Y-71088727D01*
X191962460Y-70764619D01*
X191627340Y-70552618D01*
X191445975Y-70501796D01*
X191287400Y-70548839D01*
X191236600Y-70548839D01*
X191078025Y-70501796D01*
X190896660Y-70552618D01*
X190561540Y-70764619D01*
X190333059Y-71088727D01*
X190246000Y-71475600D01*
X189738000Y-71475600D01*
X189650941Y-71088727D01*
X189422460Y-70764619D01*
X189087340Y-70552618D01*
X188905975Y-70501796D01*
X188747400Y-70548839D01*
X188696600Y-70548839D01*
X188538025Y-70501796D01*
X188356660Y-70552618D01*
X188021540Y-70764619D01*
X187793059Y-71088727D01*
X187706000Y-71475600D01*
X187198000Y-71475600D01*
X187110941Y-71088727D01*
X186882460Y-70764619D01*
X186547340Y-70552618D01*
X186365975Y-70501796D01*
X186207400Y-70548839D01*
X186156600Y-70548839D01*
X185998025Y-70501796D01*
X185816660Y-70552618D01*
X185481540Y-70764619D01*
X185253059Y-71088727D01*
X185166000Y-71475600D01*
X184658000Y-71475600D01*
X184570941Y-71088727D01*
X184342460Y-70764619D01*
X184007340Y-70552618D01*
X183825975Y-70501796D01*
X183667400Y-70548839D01*
X183616600Y-70548839D01*
X183458025Y-70501796D01*
X183276660Y-70552618D01*
X182941540Y-70764619D01*
X182713059Y-71088727D01*
X182626000Y-71475600D01*
X182118000Y-71475600D01*
X182030941Y-71088727D01*
X181802460Y-70764619D01*
X181467340Y-70552618D01*
X181285975Y-70501796D01*
X181127400Y-70548839D01*
X181076600Y-70548839D01*
X180918025Y-70501796D01*
X180736660Y-70552618D01*
X180401540Y-70764619D01*
X180173059Y-71088727D01*
X180086000Y-71475600D01*
X179578000Y-71475600D01*
X179490941Y-71088727D01*
X179262460Y-70764619D01*
X178927340Y-70552618D01*
X178745975Y-70501796D01*
X178587400Y-70548839D01*
X178536600Y-70548839D01*
X178378025Y-70501796D01*
X178196660Y-70552618D01*
X177861540Y-70764619D01*
X177633059Y-71088727D01*
X177546000Y-71475600D01*
X177038000Y-71475600D01*
X176950941Y-71088727D01*
X176722460Y-70764619D01*
X176387340Y-70552618D01*
X176205975Y-70501796D01*
X176047400Y-70548839D01*
X175996600Y-70548839D01*
X175838025Y-70501796D01*
X175656660Y-70552618D01*
X175321540Y-70764619D01*
X175093059Y-71088727D01*
X175006000Y-71475600D01*
X174498000Y-71475600D01*
X174410941Y-71088727D01*
X174182460Y-70764619D01*
X173847340Y-70552618D01*
X173665975Y-70501796D01*
X173507400Y-70548839D01*
X173456600Y-70548839D01*
X173298025Y-70501796D01*
X173116660Y-70552618D01*
X172781540Y-70764619D01*
X172553059Y-71088727D01*
X172466000Y-71475600D01*
X171958000Y-71475600D01*
X171870941Y-71088727D01*
X171642460Y-70764619D01*
X171307340Y-70552618D01*
X171125975Y-70501796D01*
X170967400Y-70548839D01*
X170916600Y-70548839D01*
X170758025Y-70501796D01*
X170576660Y-70552618D01*
X170241540Y-70764619D01*
X170013059Y-71088727D01*
X169926000Y-71475600D01*
X161814292Y-71475600D01*
X161544000Y-71421836D01*
X161135753Y-71503041D01*
X160789658Y-71734294D01*
X160558405Y-72080389D01*
X160477200Y-72488636D01*
X160070800Y-72488636D01*
X159989595Y-72080389D01*
X159758342Y-71734294D01*
X159412247Y-71503041D01*
X159004000Y-71421836D01*
X158595753Y-71503041D01*
X158249658Y-71734294D01*
X158018405Y-72080389D01*
X157937200Y-72488636D01*
X157530800Y-72488636D01*
X157449595Y-72080389D01*
X157218342Y-71734294D01*
X156872247Y-71503041D01*
X156464000Y-71421836D01*
X156055753Y-71503041D01*
X155709658Y-71734294D01*
X155478405Y-72080389D01*
X155397200Y-72488636D01*
X154990800Y-72488636D01*
X154909595Y-72080389D01*
X154678342Y-71734294D01*
X154355800Y-71518779D01*
X154355800Y-70104000D01*
X154322931Y-69938757D01*
X154229329Y-69798671D01*
X151232658Y-66802000D01*
X152425400Y-66802000D01*
X152471803Y-67035284D01*
X152603948Y-67233052D01*
X152801716Y-67365197D01*
X153035000Y-67411600D01*
X161106557Y-67411600D01*
X161110730Y-67433777D01*
X161188610Y-67554807D01*
X161307442Y-67636001D01*
X161448500Y-67664566D01*
X162298500Y-67664566D01*
X162430277Y-67639770D01*
X162551307Y-67561890D01*
X162632501Y-67443058D01*
X162648969Y-67361737D01*
X162658982Y-67414952D01*
X162725737Y-67518692D01*
X162827593Y-67588287D01*
X162948500Y-67612771D01*
X163798500Y-67612771D01*
X163911452Y-67591518D01*
X164015192Y-67524763D01*
X164084787Y-67422907D01*
X164109271Y-67302000D01*
X164109271Y-67233800D01*
X164667142Y-67233800D01*
X166826671Y-69393329D01*
X166966757Y-69486931D01*
X167132000Y-69519800D01*
X169930186Y-69519800D01*
X169956405Y-69651611D01*
X170187658Y-69997706D01*
X170533753Y-70228959D01*
X170942000Y-70310164D01*
X171350247Y-70228959D01*
X171696342Y-69997706D01*
X171927595Y-69651611D01*
X172008800Y-69243364D01*
X172008800Y-68424636D01*
X172415200Y-68424636D01*
X172415200Y-69243364D01*
X172496405Y-69651611D01*
X172727658Y-69997706D01*
X173073753Y-70228959D01*
X173482000Y-70310164D01*
X173890247Y-70228959D01*
X174236342Y-69997706D01*
X174467595Y-69651611D01*
X174548800Y-69243364D01*
X174548800Y-68424636D01*
X174955200Y-68424636D01*
X174955200Y-69243364D01*
X175036405Y-69651611D01*
X175267658Y-69997706D01*
X175613753Y-70228959D01*
X176022000Y-70310164D01*
X176430247Y-70228959D01*
X176776342Y-69997706D01*
X177007595Y-69651611D01*
X177088800Y-69243364D01*
X177088800Y-68424636D01*
X177495200Y-68424636D01*
X177495200Y-69243364D01*
X177576405Y-69651611D01*
X177807658Y-69997706D01*
X178153753Y-70228959D01*
X178562000Y-70310164D01*
X178970247Y-70228959D01*
X179316342Y-69997706D01*
X179547595Y-69651611D01*
X179628800Y-69243364D01*
X179628800Y-68424636D01*
X180035200Y-68424636D01*
X180035200Y-69243364D01*
X180116405Y-69651611D01*
X180347658Y-69997706D01*
X180693753Y-70228959D01*
X181102000Y-70310164D01*
X181510247Y-70228959D01*
X181856342Y-69997706D01*
X182087595Y-69651611D01*
X182168800Y-69243364D01*
X182168800Y-68424636D01*
X182575200Y-68424636D01*
X182575200Y-69243364D01*
X182656405Y-69651611D01*
X182887658Y-69997706D01*
X183233753Y-70228959D01*
X183642000Y-70310164D01*
X184050247Y-70228959D01*
X184396342Y-69997706D01*
X184627595Y-69651611D01*
X184708800Y-69243364D01*
X184708800Y-68424636D01*
X185115200Y-68424636D01*
X185115200Y-69243364D01*
X185196405Y-69651611D01*
X185427658Y-69997706D01*
X185773753Y-70228959D01*
X186182000Y-70310164D01*
X186590247Y-70228959D01*
X186936342Y-69997706D01*
X187167595Y-69651611D01*
X187248800Y-69243364D01*
X187248800Y-68424636D01*
X187655200Y-68424636D01*
X187655200Y-69243364D01*
X187736405Y-69651611D01*
X187967658Y-69997706D01*
X188313753Y-70228959D01*
X188722000Y-70310164D01*
X189130247Y-70228959D01*
X189476342Y-69997706D01*
X189707595Y-69651611D01*
X189788800Y-69243364D01*
X189788800Y-68424636D01*
X190195200Y-68424636D01*
X190195200Y-69243364D01*
X190276405Y-69651611D01*
X190507658Y-69997706D01*
X190853753Y-70228959D01*
X191262000Y-70310164D01*
X191670247Y-70228959D01*
X192016342Y-69997706D01*
X192247595Y-69651611D01*
X192328800Y-69243364D01*
X192328800Y-68424636D01*
X192247595Y-68016389D01*
X192030178Y-67691000D01*
X192729229Y-67691000D01*
X192729229Y-69977000D01*
X192750482Y-70089952D01*
X192817237Y-70193692D01*
X192919093Y-70263287D01*
X193040000Y-70287771D01*
X194564000Y-70287771D01*
X194676952Y-70266518D01*
X194780692Y-70199763D01*
X194850287Y-70097907D01*
X194874771Y-69977000D01*
X194874771Y-67691000D01*
X194853518Y-67578048D01*
X194786763Y-67474308D01*
X194684907Y-67404713D01*
X194564000Y-67380229D01*
X193040000Y-67380229D01*
X192927048Y-67401482D01*
X192823308Y-67468237D01*
X192753713Y-67570093D01*
X192729229Y-67691000D01*
X192030178Y-67691000D01*
X192016342Y-67670294D01*
X191670247Y-67439041D01*
X191262000Y-67357836D01*
X190853753Y-67439041D01*
X190507658Y-67670294D01*
X190276405Y-68016389D01*
X190195200Y-68424636D01*
X189788800Y-68424636D01*
X189707595Y-68016389D01*
X189476342Y-67670294D01*
X189130247Y-67439041D01*
X188722000Y-67357836D01*
X188313753Y-67439041D01*
X187967658Y-67670294D01*
X187736405Y-68016389D01*
X187655200Y-68424636D01*
X187248800Y-68424636D01*
X187167595Y-68016389D01*
X186936342Y-67670294D01*
X186590247Y-67439041D01*
X186182000Y-67357836D01*
X185773753Y-67439041D01*
X185427658Y-67670294D01*
X185196405Y-68016389D01*
X185115200Y-68424636D01*
X184708800Y-68424636D01*
X184627595Y-68016389D01*
X184396342Y-67670294D01*
X184050247Y-67439041D01*
X183642000Y-67357836D01*
X183233753Y-67439041D01*
X182887658Y-67670294D01*
X182656405Y-68016389D01*
X182575200Y-68424636D01*
X182168800Y-68424636D01*
X182087595Y-68016389D01*
X181856342Y-67670294D01*
X181510247Y-67439041D01*
X181102000Y-67357836D01*
X180693753Y-67439041D01*
X180347658Y-67670294D01*
X180116405Y-68016389D01*
X180035200Y-68424636D01*
X179628800Y-68424636D01*
X179547595Y-68016389D01*
X179316342Y-67670294D01*
X178970247Y-67439041D01*
X178562000Y-67357836D01*
X178153753Y-67439041D01*
X177807658Y-67670294D01*
X177576405Y-68016389D01*
X177495200Y-68424636D01*
X177088800Y-68424636D01*
X177007595Y-68016389D01*
X176776342Y-67670294D01*
X176430247Y-67439041D01*
X176022000Y-67357836D01*
X175613753Y-67439041D01*
X175267658Y-67670294D01*
X175036405Y-68016389D01*
X174955200Y-68424636D01*
X174548800Y-68424636D01*
X174467595Y-68016389D01*
X174236342Y-67670294D01*
X173890247Y-67439041D01*
X173482000Y-67357836D01*
X173073753Y-67439041D01*
X172727658Y-67670294D01*
X172496405Y-68016389D01*
X172415200Y-68424636D01*
X172008800Y-68424636D01*
X171927595Y-68016389D01*
X171696342Y-67670294D01*
X171350247Y-67439041D01*
X170942000Y-67357836D01*
X170533753Y-67439041D01*
X170187658Y-67670294D01*
X169956405Y-68016389D01*
X169875200Y-68424636D01*
X169875200Y-68656200D01*
X167310858Y-68656200D01*
X165151329Y-66496671D01*
X165011243Y-66403069D01*
X164846000Y-66370200D01*
X164109271Y-66370200D01*
X164109271Y-66302000D01*
X164088018Y-66189048D01*
X164021263Y-66085308D01*
X163919407Y-66015713D01*
X163798500Y-65991229D01*
X162948500Y-65991229D01*
X162835548Y-66012482D01*
X162731808Y-66079237D01*
X162662213Y-66181093D01*
X162649826Y-66242264D01*
X162636270Y-66170223D01*
X162558390Y-66049193D01*
X162439558Y-65967999D01*
X162298500Y-65939434D01*
X161448500Y-65939434D01*
X161316723Y-65964230D01*
X161195693Y-66042110D01*
X161114499Y-66160942D01*
X161108129Y-66192400D01*
X153035000Y-66192400D01*
X152801716Y-66238803D01*
X152603948Y-66370948D01*
X152471803Y-66568716D01*
X152425400Y-66802000D01*
X151232658Y-66802000D01*
X145783300Y-61352642D01*
X145783300Y-58535358D01*
X148045307Y-56273351D01*
X148229435Y-56349807D01*
X148441634Y-56349992D01*
X148637752Y-56268958D01*
X148787931Y-56119041D01*
X148869307Y-55923065D01*
X148869492Y-55710866D01*
X148788458Y-55514748D01*
X148638541Y-55364569D01*
X148442565Y-55283193D01*
X148230366Y-55283008D01*
X148034248Y-55364042D01*
X148013554Y-55384700D01*
X147891500Y-55384700D01*
X147726257Y-55417569D01*
X147586171Y-55511171D01*
X147586169Y-55511174D01*
X145046171Y-58051171D01*
X144952569Y-58191257D01*
X144919700Y-58356500D01*
X144919700Y-61163200D01*
X136691800Y-61163200D01*
X136691800Y-58482858D01*
X137211329Y-57963329D01*
X137276868Y-57865242D01*
X137304931Y-57823243D01*
X137337800Y-57658000D01*
X137337800Y-48873634D01*
X139166508Y-48873634D01*
X139247542Y-49069752D01*
X139397459Y-49219931D01*
X139593435Y-49301307D01*
X139622675Y-49301332D01*
X140340434Y-50019091D01*
X140160248Y-50093542D01*
X140010069Y-50243459D01*
X139928693Y-50439435D01*
X139928508Y-50651634D01*
X140009542Y-50847752D01*
X140159459Y-50997931D01*
X140355435Y-51079307D01*
X140397007Y-51079343D01*
X140499959Y-51148133D01*
X140665202Y-51181002D01*
X140850663Y-51181002D01*
X140772069Y-51259459D01*
X140690693Y-51455435D01*
X140690508Y-51667634D01*
X140771542Y-51863752D01*
X140921459Y-52013931D01*
X141117435Y-52095307D01*
X141329634Y-52095492D01*
X141525752Y-52014458D01*
X141675931Y-51864541D01*
X141727728Y-51739800D01*
X157226000Y-51739800D01*
X157391243Y-51706931D01*
X157494667Y-51637826D01*
X157535542Y-51736752D01*
X157685459Y-51886931D01*
X157732371Y-51906411D01*
X157708693Y-51963435D01*
X157708508Y-52175634D01*
X157789542Y-52371752D01*
X157817940Y-52400200D01*
X148082000Y-52400200D01*
X147916757Y-52433069D01*
X147813892Y-52501801D01*
X147776671Y-52526671D01*
X145871142Y-54432200D01*
X145446771Y-54432200D01*
X145446771Y-54064000D01*
X145425518Y-53951048D01*
X145358763Y-53847308D01*
X145256907Y-53777713D01*
X145136000Y-53753229D01*
X142946000Y-53753229D01*
X142833048Y-53774482D01*
X142729308Y-53841237D01*
X142659713Y-53943093D01*
X142635229Y-54064000D01*
X142635229Y-55664000D01*
X142656482Y-55776952D01*
X142723237Y-55880692D01*
X142825093Y-55950287D01*
X142946000Y-55974771D01*
X145136000Y-55974771D01*
X145248952Y-55953518D01*
X145352692Y-55886763D01*
X145422287Y-55784907D01*
X145446771Y-55664000D01*
X145446771Y-55295800D01*
X146050000Y-55295800D01*
X146215243Y-55262931D01*
X146355329Y-55169329D01*
X148260858Y-53263800D01*
X151213776Y-53263800D01*
X151186069Y-53291459D01*
X151104693Y-53487435D01*
X151104508Y-53699634D01*
X151185542Y-53895752D01*
X151335459Y-54045931D01*
X151531435Y-54127307D01*
X151560675Y-54127332D01*
X151714200Y-54280857D01*
X151714200Y-57658000D01*
X151747069Y-57823243D01*
X151775132Y-57865242D01*
X151840671Y-57963329D01*
X154126671Y-60249329D01*
X154266757Y-60342931D01*
X154432000Y-60375800D01*
X160103776Y-60375800D01*
X160076069Y-60403459D01*
X159994693Y-60599435D01*
X159994508Y-60811634D01*
X160075542Y-61007752D01*
X160225459Y-61157931D01*
X160421435Y-61239307D01*
X160633634Y-61239492D01*
X160829752Y-61158458D01*
X160979931Y-61008541D01*
X161031728Y-60883800D01*
X175518326Y-60883800D01*
X175569542Y-61007752D01*
X175719459Y-61157931D01*
X175915435Y-61239307D01*
X176127634Y-61239492D01*
X176323752Y-61158458D01*
X176473931Y-61008541D01*
X176555307Y-60812565D01*
X176555492Y-60600366D01*
X176474458Y-60404248D01*
X176446060Y-60375800D01*
X182701142Y-60375800D01*
X183082669Y-60757326D01*
X183082671Y-60757329D01*
X183222757Y-60850931D01*
X183388000Y-60883800D01*
X188399363Y-60883800D01*
X188419459Y-60903931D01*
X188615435Y-60985307D01*
X188827634Y-60985492D01*
X189023752Y-60904458D01*
X189044446Y-60883800D01*
X223038000Y-60883800D01*
X223203243Y-60850931D01*
X223343329Y-60757329D01*
X225341619Y-58759039D01*
X225380636Y-58766800D01*
X226199364Y-58766800D01*
X226607611Y-58685595D01*
X226953706Y-58454342D01*
X227184959Y-58108247D01*
X227266164Y-57700000D01*
X227184959Y-57291753D01*
X226953706Y-56945658D01*
X226607611Y-56714405D01*
X226199364Y-56633200D01*
X225380636Y-56633200D01*
X224972389Y-56714405D01*
X224626294Y-56945658D01*
X224395041Y-57291753D01*
X224313836Y-57700000D01*
X224395041Y-58108247D01*
X224545667Y-58333675D01*
X222859142Y-60020200D01*
X216561458Y-60020200D01*
X221421658Y-55160000D01*
X224313836Y-55160000D01*
X224395041Y-55568247D01*
X224626294Y-55914342D01*
X224972389Y-56145595D01*
X225380636Y-56226800D01*
X226199364Y-56226800D01*
X226607611Y-56145595D01*
X226953706Y-55914342D01*
X227184959Y-55568247D01*
X227266164Y-55160000D01*
X227184959Y-54751753D01*
X226953706Y-54405658D01*
X226607611Y-54174405D01*
X226199364Y-54093200D01*
X225380636Y-54093200D01*
X224972389Y-54174405D01*
X224626294Y-54405658D01*
X224395041Y-54751753D01*
X224313836Y-55160000D01*
X221421658Y-55160000D01*
X223529858Y-53051800D01*
X224410779Y-53051800D01*
X224626294Y-53374342D01*
X224972389Y-53605595D01*
X225380636Y-53686800D01*
X226199364Y-53686800D01*
X226607611Y-53605595D01*
X226953706Y-53374342D01*
X227184959Y-53028247D01*
X227266164Y-52620000D01*
X227184959Y-52211753D01*
X226953706Y-51865658D01*
X226607611Y-51634405D01*
X226199364Y-51553200D01*
X225380636Y-51553200D01*
X224972389Y-51634405D01*
X224626294Y-51865658D01*
X224410779Y-52188200D01*
X223351000Y-52188200D01*
X223185757Y-52221069D01*
X223069861Y-52298508D01*
X223045671Y-52314671D01*
X215975142Y-59385200D01*
X215418458Y-59385200D01*
X224291858Y-50511800D01*
X224336229Y-50511800D01*
X224336229Y-50842000D01*
X224357482Y-50954952D01*
X224424237Y-51058692D01*
X224526093Y-51128287D01*
X224647000Y-51152771D01*
X226933000Y-51152771D01*
X227045952Y-51131518D01*
X227149692Y-51064763D01*
X227219287Y-50962907D01*
X227243771Y-50842000D01*
X227243771Y-49318000D01*
X227222518Y-49205048D01*
X227155763Y-49101308D01*
X227053907Y-49031713D01*
X226933000Y-49007229D01*
X224647000Y-49007229D01*
X224534048Y-49028482D01*
X224430308Y-49095237D01*
X224360713Y-49197093D01*
X224336229Y-49318000D01*
X224336229Y-49648200D01*
X224113005Y-49648200D01*
X224113000Y-49648199D01*
X223975174Y-49675615D01*
X223947757Y-49681069D01*
X223807671Y-49774671D01*
X214832142Y-58750200D01*
X186504637Y-58750200D01*
X186484541Y-58730069D01*
X186288565Y-58648693D01*
X186259326Y-58648668D01*
X186233329Y-58622671D01*
X186213361Y-58609329D01*
X186093243Y-58529069D01*
X185928000Y-58496200D01*
X157150858Y-58496200D01*
X157149800Y-58495142D01*
X157149800Y-56456637D01*
X157169931Y-56436541D01*
X157251307Y-56240565D01*
X157251492Y-56028366D01*
X157170458Y-55832248D01*
X157020541Y-55682069D01*
X156824565Y-55600693D01*
X156612366Y-55600508D01*
X156416248Y-55681542D01*
X156266069Y-55831459D01*
X156184693Y-56027435D01*
X156184508Y-56239634D01*
X156265542Y-56435752D01*
X156286200Y-56456446D01*
X156286200Y-58674000D01*
X156319069Y-58839243D01*
X156346468Y-58880248D01*
X156412671Y-58979329D01*
X156437542Y-59004200D01*
X154864858Y-59004200D01*
X153085800Y-57225142D01*
X153085800Y-53916637D01*
X153105931Y-53896541D01*
X153187307Y-53700565D01*
X153187492Y-53488366D01*
X153106458Y-53292248D01*
X153078060Y-53263800D01*
X158935363Y-53263800D01*
X158955459Y-53283931D01*
X159151435Y-53365307D01*
X159180674Y-53365332D01*
X159588200Y-53772858D01*
X159588200Y-57081363D01*
X159568069Y-57101459D01*
X159486693Y-57297435D01*
X159486508Y-57509634D01*
X159567542Y-57705752D01*
X159717459Y-57855931D01*
X159913435Y-57937307D01*
X160125634Y-57937492D01*
X160321752Y-57856458D01*
X160471931Y-57706541D01*
X160553307Y-57510565D01*
X160553492Y-57298366D01*
X160472458Y-57102248D01*
X160451800Y-57081554D01*
X160451800Y-56414458D01*
X160984671Y-56947329D01*
X161124757Y-57040931D01*
X161290000Y-57073800D01*
X176969363Y-57073800D01*
X176989459Y-57093931D01*
X177185435Y-57175307D01*
X177397634Y-57175492D01*
X177593752Y-57094458D01*
X177743931Y-56944541D01*
X177825307Y-56748565D01*
X177825492Y-56536366D01*
X177744458Y-56340248D01*
X177594541Y-56190069D01*
X177581852Y-56184800D01*
X189732863Y-56184800D01*
X189752959Y-56204931D01*
X189948935Y-56286307D01*
X190161134Y-56286492D01*
X190357252Y-56205458D01*
X190507431Y-56055541D01*
X190588807Y-55859565D01*
X190588992Y-55647366D01*
X190507958Y-55451248D01*
X190358041Y-55301069D01*
X190162065Y-55219693D01*
X189949866Y-55219508D01*
X189753748Y-55300542D01*
X189733054Y-55321200D01*
X174520313Y-55321200D01*
X174586807Y-55161065D01*
X174586992Y-54948866D01*
X174505958Y-54752748D01*
X174356041Y-54602569D01*
X174160065Y-54521193D01*
X174130825Y-54521168D01*
X173330829Y-53721171D01*
X173279389Y-53686800D01*
X173190743Y-53627569D01*
X173025500Y-53594700D01*
X168997271Y-53594700D01*
X168997271Y-53576500D01*
X168976018Y-53463548D01*
X168909263Y-53359808D01*
X168807407Y-53290213D01*
X168686500Y-53265729D01*
X167736500Y-53265729D01*
X167623548Y-53286982D01*
X167519808Y-53353737D01*
X167450213Y-53455593D01*
X167425729Y-53576500D01*
X167425729Y-53594700D01*
X166045547Y-53594700D01*
X165974041Y-53523069D01*
X165778065Y-53441693D01*
X165565866Y-53441508D01*
X165369748Y-53522542D01*
X165219569Y-53672459D01*
X165138193Y-53868435D01*
X165138008Y-54080634D01*
X165219042Y-54276752D01*
X165368959Y-54426931D01*
X165564935Y-54508307D01*
X165777134Y-54508492D01*
X165898608Y-54458300D01*
X167425729Y-54458300D01*
X167425729Y-54476500D01*
X167446982Y-54589452D01*
X167513737Y-54693192D01*
X167615593Y-54762787D01*
X167736500Y-54787271D01*
X168686500Y-54787271D01*
X168799452Y-54766018D01*
X168903192Y-54699263D01*
X168972787Y-54597407D01*
X168997271Y-54476500D01*
X168997271Y-54458300D01*
X172846642Y-54458300D01*
X173520033Y-55131690D01*
X173520008Y-55160134D01*
X173586559Y-55321200D01*
X164072358Y-55321200D01*
X161366558Y-52615400D01*
X167482500Y-52615400D01*
X167482500Y-53027024D01*
X167521169Y-53120380D01*
X167592621Y-53191831D01*
X167685976Y-53230500D01*
X168122600Y-53230500D01*
X168186100Y-53167000D01*
X168186100Y-52551900D01*
X168236900Y-52551900D01*
X168236900Y-53167000D01*
X168300400Y-53230500D01*
X168737024Y-53230500D01*
X168830379Y-53191831D01*
X168901831Y-53120380D01*
X168940500Y-53027024D01*
X168940500Y-52615400D01*
X168877000Y-52551900D01*
X168236900Y-52551900D01*
X168186100Y-52551900D01*
X167546000Y-52551900D01*
X167482500Y-52615400D01*
X161366558Y-52615400D01*
X159982958Y-51231800D01*
X160031642Y-51231800D01*
X160413169Y-51613326D01*
X160413171Y-51613329D01*
X160553257Y-51706931D01*
X160718500Y-51739800D01*
X164921142Y-51739800D01*
X165328533Y-52147191D01*
X165328508Y-52175634D01*
X165409542Y-52371752D01*
X165559459Y-52521931D01*
X165755435Y-52603307D01*
X165967634Y-52603492D01*
X166163752Y-52522458D01*
X166313931Y-52372541D01*
X166395307Y-52176565D01*
X166395438Y-52025976D01*
X167482500Y-52025976D01*
X167482500Y-52437600D01*
X167546000Y-52501100D01*
X168186100Y-52501100D01*
X168186100Y-51886000D01*
X168236900Y-51886000D01*
X168236900Y-52501100D01*
X168877000Y-52501100D01*
X168940500Y-52437600D01*
X168940500Y-52025976D01*
X168901831Y-51932620D01*
X168830379Y-51861169D01*
X168737024Y-51822500D01*
X168300400Y-51822500D01*
X168236900Y-51886000D01*
X168186100Y-51886000D01*
X168122600Y-51822500D01*
X167685976Y-51822500D01*
X167592621Y-51861169D01*
X167521169Y-51932620D01*
X167482500Y-52025976D01*
X166395438Y-52025976D01*
X166395492Y-51964366D01*
X166326772Y-51798050D01*
X166417752Y-51760458D01*
X166567931Y-51610541D01*
X166649307Y-51414565D01*
X166649492Y-51202366D01*
X166580772Y-51036050D01*
X166671752Y-50998458D01*
X166821931Y-50848541D01*
X166903307Y-50652565D01*
X166903492Y-50440366D01*
X166822458Y-50244248D01*
X166672541Y-50094069D01*
X166476565Y-50012693D01*
X166447326Y-50012668D01*
X166421329Y-49986671D01*
X166414235Y-49981931D01*
X166281243Y-49893069D01*
X166116000Y-49860200D01*
X161341857Y-49860200D01*
X160960329Y-49478671D01*
X160879055Y-49424366D01*
X160820243Y-49385069D01*
X160655000Y-49352200D01*
X157353000Y-49352200D01*
X157231648Y-49376339D01*
X157170458Y-49228248D01*
X157020541Y-49078069D01*
X156824565Y-48996693D01*
X156612366Y-48996508D01*
X156416248Y-49077542D01*
X156266069Y-49227459D01*
X156214272Y-49352200D01*
X146228858Y-49352200D01*
X144472800Y-47596142D01*
X144472800Y-46939900D01*
X149258000Y-46939900D01*
X149258000Y-47351524D01*
X149296669Y-47444880D01*
X149368121Y-47516331D01*
X149461476Y-47555000D01*
X149898100Y-47555000D01*
X149961600Y-47491500D01*
X149961600Y-46876400D01*
X150012400Y-46876400D01*
X150012400Y-47491500D01*
X150075900Y-47555000D01*
X150512524Y-47555000D01*
X150605879Y-47516331D01*
X150677331Y-47444880D01*
X150716000Y-47351524D01*
X150716000Y-47089900D01*
X151040000Y-47089900D01*
X151040000Y-47626524D01*
X151078669Y-47719880D01*
X151150121Y-47791331D01*
X151243476Y-47830000D01*
X151930100Y-47830000D01*
X151993600Y-47766500D01*
X151993600Y-47026400D01*
X152044400Y-47026400D01*
X152044400Y-47766500D01*
X152107900Y-47830000D01*
X152794524Y-47830000D01*
X152887879Y-47791331D01*
X152959331Y-47719880D01*
X152998000Y-47626524D01*
X152998000Y-47089900D01*
X152934500Y-47026400D01*
X152044400Y-47026400D01*
X151993600Y-47026400D01*
X151103500Y-47026400D01*
X151040000Y-47089900D01*
X150716000Y-47089900D01*
X150716000Y-46939900D01*
X150652500Y-46876400D01*
X150012400Y-46876400D01*
X149961600Y-46876400D01*
X149321500Y-46876400D01*
X149258000Y-46939900D01*
X144472800Y-46939900D01*
X144472800Y-46350476D01*
X149258000Y-46350476D01*
X149258000Y-46762100D01*
X149321500Y-46825600D01*
X149961600Y-46825600D01*
X149961600Y-46210500D01*
X150012400Y-46210500D01*
X150012400Y-46825600D01*
X150652500Y-46825600D01*
X150716000Y-46762100D01*
X150716000Y-46375476D01*
X151040000Y-46375476D01*
X151040000Y-46912100D01*
X151103500Y-46975600D01*
X151993600Y-46975600D01*
X151993600Y-46235500D01*
X152044400Y-46235500D01*
X152044400Y-46975600D01*
X152934500Y-46975600D01*
X152998000Y-46912100D01*
X152998000Y-46375476D01*
X152959331Y-46282120D01*
X152887879Y-46210669D01*
X152794524Y-46172000D01*
X152107900Y-46172000D01*
X152044400Y-46235500D01*
X151993600Y-46235500D01*
X151930100Y-46172000D01*
X151243476Y-46172000D01*
X151150121Y-46210669D01*
X151078669Y-46282120D01*
X151040000Y-46375476D01*
X150716000Y-46375476D01*
X150716000Y-46350476D01*
X150677331Y-46257120D01*
X150605879Y-46185669D01*
X150512524Y-46147000D01*
X150075900Y-46147000D01*
X150012400Y-46210500D01*
X149961600Y-46210500D01*
X149898100Y-46147000D01*
X149461476Y-46147000D01*
X149368121Y-46185669D01*
X149296669Y-46257120D01*
X149258000Y-46350476D01*
X144472800Y-46350476D01*
X144472800Y-43782771D01*
X145136000Y-43782771D01*
X145248952Y-43761518D01*
X145352692Y-43694763D01*
X145422287Y-43592907D01*
X145446771Y-43472000D01*
X145446771Y-41872000D01*
X145425518Y-41759048D01*
X145358763Y-41655308D01*
X145256907Y-41585713D01*
X145136000Y-41561229D01*
X142946000Y-41561229D01*
X142833048Y-41582482D01*
X142729308Y-41649237D01*
X142659713Y-41751093D01*
X142635229Y-41872000D01*
X142635229Y-43472000D01*
X142656482Y-43584952D01*
X142723237Y-43688692D01*
X142825093Y-43758287D01*
X142946000Y-43782771D01*
X143609200Y-43782771D01*
X143609200Y-46177200D01*
X143344771Y-46177200D01*
X143344771Y-46109000D01*
X143323518Y-45996048D01*
X143256763Y-45892308D01*
X143154907Y-45822713D01*
X143034000Y-45798229D01*
X142184000Y-45798229D01*
X142071048Y-45819482D01*
X141967308Y-45886237D01*
X141897713Y-45988093D01*
X141873229Y-46109000D01*
X141873229Y-47109000D01*
X141894482Y-47221952D01*
X141961237Y-47325692D01*
X142063093Y-47395287D01*
X142184000Y-47419771D01*
X143034000Y-47419771D01*
X143146952Y-47398518D01*
X143250692Y-47331763D01*
X143320287Y-47229907D01*
X143344771Y-47109000D01*
X143344771Y-47040800D01*
X143609200Y-47040800D01*
X143609200Y-47775000D01*
X143642069Y-47940243D01*
X143708056Y-48039000D01*
X143735671Y-48080329D01*
X145515542Y-49860200D01*
X141402857Y-49860200D01*
X140233467Y-48690809D01*
X140233492Y-48662366D01*
X140152458Y-48466248D01*
X140002541Y-48316069D01*
X139806565Y-48234693D01*
X139594366Y-48234508D01*
X139398248Y-48315542D01*
X139248069Y-48465459D01*
X139166693Y-48661435D01*
X139166508Y-48873634D01*
X137337800Y-48873634D01*
X137337800Y-47244005D01*
X137337801Y-47244000D01*
X137304931Y-47078758D01*
X137304931Y-47078757D01*
X137211329Y-46938671D01*
X136970558Y-46697900D01*
X140430000Y-46697900D01*
X140430000Y-47159524D01*
X140468669Y-47252879D01*
X140540120Y-47324331D01*
X140633476Y-47363000D01*
X141020100Y-47363000D01*
X141083600Y-47299500D01*
X141083600Y-46634400D01*
X141134400Y-46634400D01*
X141134400Y-47299500D01*
X141197900Y-47363000D01*
X141584524Y-47363000D01*
X141677880Y-47324331D01*
X141749331Y-47252879D01*
X141788000Y-47159524D01*
X141788000Y-46697900D01*
X141724500Y-46634400D01*
X141134400Y-46634400D01*
X141083600Y-46634400D01*
X140493500Y-46634400D01*
X140430000Y-46697900D01*
X136970558Y-46697900D01*
X136331134Y-46058476D01*
X140430000Y-46058476D01*
X140430000Y-46520100D01*
X140493500Y-46583600D01*
X141083600Y-46583600D01*
X141083600Y-45918500D01*
X141134400Y-45918500D01*
X141134400Y-46583600D01*
X141724500Y-46583600D01*
X141788000Y-46520100D01*
X141788000Y-46058476D01*
X141749331Y-45965121D01*
X141677880Y-45893669D01*
X141584524Y-45855000D01*
X141197900Y-45855000D01*
X141134400Y-45918500D01*
X141083600Y-45918500D01*
X141020100Y-45855000D01*
X140633476Y-45855000D01*
X140540120Y-45893669D01*
X140468669Y-45965121D01*
X140430000Y-46058476D01*
X136331134Y-46058476D01*
X135282800Y-45010142D01*
X135282800Y-43782771D01*
X135946000Y-43782771D01*
X136058952Y-43761518D01*
X136162692Y-43694763D01*
X136232287Y-43592907D01*
X136256771Y-43472000D01*
X136256771Y-43103800D01*
X140462000Y-43103800D01*
X140627243Y-43070931D01*
X140767329Y-42977329D01*
X142672858Y-41071800D01*
X147776142Y-41071800D01*
X149555200Y-42850858D01*
X149555200Y-44590229D01*
X149512000Y-44590229D01*
X149399048Y-44611482D01*
X149295308Y-44678237D01*
X149225713Y-44780093D01*
X149201229Y-44901000D01*
X149201229Y-45801000D01*
X149222482Y-45913952D01*
X149289237Y-46017692D01*
X149391093Y-46087287D01*
X149512000Y-46111771D01*
X150462000Y-46111771D01*
X150574952Y-46090518D01*
X150678692Y-46023763D01*
X150748287Y-45921907D01*
X150772771Y-45801000D01*
X150772771Y-45782800D01*
X150984508Y-45782800D01*
X151004482Y-45888952D01*
X151071237Y-45992692D01*
X151173093Y-46062287D01*
X151294000Y-46086771D01*
X152744000Y-46086771D01*
X152856952Y-46065518D01*
X152960692Y-45998763D01*
X153030287Y-45896907D01*
X153054771Y-45776000D01*
X153054771Y-45632800D01*
X153226142Y-45632800D01*
X154025533Y-46432190D01*
X154025508Y-46460634D01*
X154106542Y-46656752D01*
X154256459Y-46806931D01*
X154452435Y-46888307D01*
X154664634Y-46888492D01*
X154860752Y-46807458D01*
X154881446Y-46786800D01*
X158444142Y-46786800D01*
X159486533Y-47829190D01*
X159486508Y-47857634D01*
X159567542Y-48053752D01*
X159588200Y-48074446D01*
X159588200Y-48260000D01*
X159621069Y-48425243D01*
X159648468Y-48466248D01*
X159714671Y-48565329D01*
X159968671Y-48819329D01*
X160108757Y-48912931D01*
X160274000Y-48945800D01*
X160795229Y-48945800D01*
X160795229Y-48989000D01*
X160816482Y-49101952D01*
X160883237Y-49205692D01*
X160985093Y-49275287D01*
X161106000Y-49299771D01*
X162006000Y-49299771D01*
X162118952Y-49278518D01*
X162222692Y-49211763D01*
X162292287Y-49109907D01*
X162316771Y-48989000D01*
X162316771Y-48602900D01*
X162352000Y-48602900D01*
X162352000Y-49039524D01*
X162390669Y-49132879D01*
X162462120Y-49204331D01*
X162555476Y-49243000D01*
X162967100Y-49243000D01*
X163030600Y-49179500D01*
X163030600Y-48539400D01*
X163081400Y-48539400D01*
X163081400Y-49179500D01*
X163144900Y-49243000D01*
X163556524Y-49243000D01*
X163649880Y-49204331D01*
X163721331Y-49132879D01*
X163760000Y-49039524D01*
X163760000Y-48602900D01*
X163696500Y-48539400D01*
X163081400Y-48539400D01*
X163030600Y-48539400D01*
X162415500Y-48539400D01*
X162352000Y-48602900D01*
X162316771Y-48602900D01*
X162316771Y-48039000D01*
X162307265Y-47988476D01*
X162352000Y-47988476D01*
X162352000Y-48425100D01*
X162415500Y-48488600D01*
X163030600Y-48488600D01*
X163030600Y-47848500D01*
X163081400Y-47848500D01*
X163081400Y-48488600D01*
X163696500Y-48488600D01*
X163760000Y-48425100D01*
X163760000Y-47988476D01*
X163721331Y-47895121D01*
X163649880Y-47823669D01*
X163556524Y-47785000D01*
X163144900Y-47785000D01*
X163081400Y-47848500D01*
X163030600Y-47848500D01*
X162967100Y-47785000D01*
X162555476Y-47785000D01*
X162462120Y-47823669D01*
X162390669Y-47895121D01*
X162352000Y-47988476D01*
X162307265Y-47988476D01*
X162295518Y-47926048D01*
X162228763Y-47822308D01*
X162126907Y-47752713D01*
X162006000Y-47728229D01*
X161106000Y-47728229D01*
X160993048Y-47749482D01*
X160889308Y-47816237D01*
X160819713Y-47918093D01*
X160795229Y-48039000D01*
X160795229Y-48082200D01*
X160452858Y-48082200D01*
X160451800Y-48081142D01*
X160451800Y-48074637D01*
X160471931Y-48054541D01*
X160553307Y-47858565D01*
X160553492Y-47646366D01*
X160472458Y-47450248D01*
X160322541Y-47300069D01*
X160126565Y-47218693D01*
X160097325Y-47218668D01*
X158928329Y-46049671D01*
X158898992Y-46030069D01*
X158788243Y-45956069D01*
X158623000Y-45923200D01*
X154881637Y-45923200D01*
X154861541Y-45903069D01*
X154665565Y-45821693D01*
X154636325Y-45821668D01*
X153710329Y-44895671D01*
X153645518Y-44852366D01*
X153570243Y-44802069D01*
X153405000Y-44769200D01*
X153054771Y-44769200D01*
X153054771Y-44626000D01*
X153033518Y-44513048D01*
X152966763Y-44409308D01*
X152864907Y-44339713D01*
X152744000Y-44315229D01*
X151294000Y-44315229D01*
X151181048Y-44336482D01*
X151077308Y-44403237D01*
X151007713Y-44505093D01*
X150983229Y-44626000D01*
X150983229Y-44919200D01*
X150772771Y-44919200D01*
X150772771Y-44901000D01*
X150751518Y-44788048D01*
X150684763Y-44684308D01*
X150582907Y-44614713D01*
X150462000Y-44590229D01*
X150418800Y-44590229D01*
X150418800Y-43607000D01*
X156376729Y-43607000D01*
X156376729Y-44507000D01*
X156397982Y-44619952D01*
X156464737Y-44723692D01*
X156566593Y-44793287D01*
X156687500Y-44817771D01*
X157637500Y-44817771D01*
X157750452Y-44796518D01*
X157854192Y-44729763D01*
X157923787Y-44627907D01*
X157948271Y-44507000D01*
X157948271Y-44488800D01*
X158535729Y-44488800D01*
X158535729Y-44507000D01*
X158556982Y-44619952D01*
X158623737Y-44723692D01*
X158725593Y-44793287D01*
X158846500Y-44817771D01*
X158930606Y-44817771D01*
X158998378Y-44919200D01*
X159016171Y-44945829D01*
X159169033Y-45098690D01*
X159169008Y-45127134D01*
X159250042Y-45323252D01*
X159399959Y-45473431D01*
X159595935Y-45554807D01*
X159808134Y-45554992D01*
X160004252Y-45473958D01*
X160154431Y-45324041D01*
X160224595Y-45155066D01*
X160225459Y-45155931D01*
X160421435Y-45237307D01*
X160633634Y-45237492D01*
X160829752Y-45156458D01*
X160979931Y-45006541D01*
X161010622Y-44932628D01*
X161010508Y-45063634D01*
X161091542Y-45259752D01*
X161241459Y-45409931D01*
X161437435Y-45491307D01*
X161649634Y-45491492D01*
X161845752Y-45410458D01*
X161866446Y-45389800D01*
X161881776Y-45389800D01*
X161854069Y-45417459D01*
X161772693Y-45613435D01*
X161772508Y-45825634D01*
X161853542Y-46021752D01*
X162003459Y-46171931D01*
X162199435Y-46253307D01*
X162411634Y-46253492D01*
X162607752Y-46172458D01*
X162757931Y-46022541D01*
X162809728Y-45897800D01*
X164058667Y-45897800D01*
X164058508Y-46079634D01*
X164139542Y-46275752D01*
X164289459Y-46425931D01*
X164485435Y-46507307D01*
X164697634Y-46507492D01*
X164820622Y-46456675D01*
X164820508Y-46587634D01*
X164901542Y-46783752D01*
X165051459Y-46933931D01*
X165247435Y-47015307D01*
X165459634Y-47015492D01*
X165655752Y-46934458D01*
X165684200Y-46906060D01*
X165684200Y-46921363D01*
X165664069Y-46941459D01*
X165582693Y-47137435D01*
X165582508Y-47349634D01*
X165663542Y-47545752D01*
X165813459Y-47695931D01*
X166009435Y-47777307D01*
X166221634Y-47777492D01*
X166387950Y-47708772D01*
X166425542Y-47799752D01*
X166575459Y-47949931D01*
X166771435Y-48031307D01*
X166983634Y-48031492D01*
X167149950Y-47962772D01*
X167187542Y-48053752D01*
X167337459Y-48203931D01*
X167533435Y-48285307D01*
X167745634Y-48285492D01*
X167941752Y-48204458D01*
X168091931Y-48054541D01*
X168173307Y-47858565D01*
X168173492Y-47646366D01*
X168092458Y-47450248D01*
X168071800Y-47429554D01*
X168071800Y-46406858D01*
X174422857Y-40055800D01*
X209296000Y-40055800D01*
X209461243Y-40022931D01*
X209601329Y-39929329D01*
X213665329Y-35865329D01*
X213729157Y-35769803D01*
X213758931Y-35725243D01*
X213791800Y-35560000D01*
X213791800Y-34399221D01*
X214114342Y-34183706D01*
X214345595Y-33837611D01*
X214426800Y-33429364D01*
X214426800Y-32610636D01*
X214345595Y-32202389D01*
X214114342Y-31856294D01*
X213768247Y-31625041D01*
X213360000Y-31543836D01*
X212951753Y-31625041D01*
X212605658Y-31856294D01*
X212374405Y-32202389D01*
X212293200Y-32610636D01*
X212293200Y-33429364D01*
X212374405Y-33837611D01*
X212605658Y-34183706D01*
X212928200Y-34399221D01*
X212928200Y-35381142D01*
X209117142Y-39192200D01*
X208052458Y-39192200D01*
X211125329Y-36119329D01*
X211140159Y-36097134D01*
X211218931Y-35979243D01*
X211251800Y-35814000D01*
X211251800Y-34399221D01*
X211574342Y-34183706D01*
X211805595Y-33837611D01*
X211886800Y-33429364D01*
X211886800Y-32610636D01*
X211805595Y-32202389D01*
X211574342Y-31856294D01*
X211228247Y-31625041D01*
X210820000Y-31543836D01*
X210411753Y-31625041D01*
X210065658Y-31856294D01*
X209834405Y-32202389D01*
X209753200Y-32610636D01*
X209753200Y-33429364D01*
X209834405Y-33837611D01*
X210065658Y-34183706D01*
X210388200Y-34399221D01*
X210388200Y-35635142D01*
X207339142Y-38684200D01*
X205766458Y-38684200D01*
X208585329Y-35865329D01*
X208649157Y-35769803D01*
X208678931Y-35725243D01*
X208711800Y-35560000D01*
X208711800Y-34399221D01*
X209034342Y-34183706D01*
X209265595Y-33837611D01*
X209346800Y-33429364D01*
X209346800Y-32610636D01*
X209265595Y-32202389D01*
X209034342Y-31856294D01*
X208688247Y-31625041D01*
X208280000Y-31543836D01*
X207871753Y-31625041D01*
X207525658Y-31856294D01*
X207294405Y-32202389D01*
X207213200Y-32610636D01*
X207213200Y-33429364D01*
X207294405Y-33837611D01*
X207525658Y-34183706D01*
X207848200Y-34399221D01*
X207848200Y-35381142D01*
X205053142Y-38176200D01*
X203480458Y-38176200D01*
X206045326Y-35611331D01*
X206045329Y-35611329D01*
X206138931Y-35471243D01*
X206144385Y-35443827D01*
X206171801Y-35306000D01*
X206171800Y-35305995D01*
X206171800Y-34399221D01*
X206494342Y-34183706D01*
X206725595Y-33837611D01*
X206806800Y-33429364D01*
X206806800Y-32610636D01*
X206725595Y-32202389D01*
X206494342Y-31856294D01*
X206148247Y-31625041D01*
X205740000Y-31543836D01*
X205331753Y-31625041D01*
X204985658Y-31856294D01*
X204754405Y-32202389D01*
X204673200Y-32610636D01*
X204673200Y-33429364D01*
X204754405Y-33837611D01*
X204985658Y-34183706D01*
X205308200Y-34399221D01*
X205308200Y-35127143D01*
X202767142Y-37668200D01*
X201448458Y-37668200D01*
X203505329Y-35611329D01*
X203598931Y-35471243D01*
X203631800Y-35306000D01*
X203631800Y-34399221D01*
X203954342Y-34183706D01*
X204185595Y-33837611D01*
X204266800Y-33429364D01*
X204266800Y-32610636D01*
X204185595Y-32202389D01*
X203954342Y-31856294D01*
X203608247Y-31625041D01*
X203200000Y-31543836D01*
X202791753Y-31625041D01*
X202445658Y-31856294D01*
X202214405Y-32202389D01*
X202133200Y-32610636D01*
X202133200Y-33429364D01*
X202214405Y-33837611D01*
X202445658Y-34183706D01*
X202768200Y-34399221D01*
X202768200Y-35127142D01*
X200735142Y-37160200D01*
X199162458Y-37160200D01*
X200965329Y-35357329D01*
X200999626Y-35306000D01*
X201058931Y-35217243D01*
X201091800Y-35052000D01*
X201091800Y-34399221D01*
X201414342Y-34183706D01*
X201645595Y-33837611D01*
X201726800Y-33429364D01*
X201726800Y-32610636D01*
X201645595Y-32202389D01*
X201414342Y-31856294D01*
X201068247Y-31625041D01*
X200660000Y-31543836D01*
X200251753Y-31625041D01*
X199905658Y-31856294D01*
X199674405Y-32202389D01*
X199593200Y-32610636D01*
X199593200Y-33429364D01*
X199674405Y-33837611D01*
X199905658Y-34183706D01*
X200228200Y-34399221D01*
X200228200Y-34873142D01*
X198449142Y-36652200D01*
X197372107Y-36652200D01*
X197409329Y-36627329D01*
X198425329Y-35611329D01*
X198459626Y-35560000D01*
X198518931Y-35471243D01*
X198551800Y-35306000D01*
X198551800Y-34399221D01*
X198874342Y-34183706D01*
X199105595Y-33837611D01*
X199186800Y-33429364D01*
X199186800Y-32610636D01*
X199105595Y-32202389D01*
X198874342Y-31856294D01*
X198528247Y-31625041D01*
X198120000Y-31543836D01*
X197711753Y-31625041D01*
X197365658Y-31856294D01*
X197134405Y-32202389D01*
X197053200Y-32610636D01*
X197053200Y-33429364D01*
X197134405Y-33837611D01*
X197365658Y-34183706D01*
X197688200Y-34399221D01*
X197688200Y-35127142D01*
X196925142Y-35890200D01*
X195098458Y-35890200D01*
X195885329Y-35103329D01*
X195922409Y-35047834D01*
X195978931Y-34963243D01*
X196011800Y-34798000D01*
X196011800Y-34473771D01*
X196342000Y-34473771D01*
X196454952Y-34452518D01*
X196558692Y-34385763D01*
X196628287Y-34283907D01*
X196652771Y-34163000D01*
X196652771Y-31877000D01*
X196631518Y-31764048D01*
X196564763Y-31660308D01*
X196462907Y-31590713D01*
X196342000Y-31566229D01*
X194818000Y-31566229D01*
X194705048Y-31587482D01*
X194601308Y-31654237D01*
X194531713Y-31756093D01*
X194507229Y-31877000D01*
X194507229Y-34163000D01*
X194528482Y-34275952D01*
X194595237Y-34379692D01*
X194697093Y-34449287D01*
X194818000Y-34473771D01*
X195148200Y-34473771D01*
X195148200Y-34619142D01*
X194385142Y-35382200D01*
X172212005Y-35382200D01*
X172212000Y-35382199D01*
X172046758Y-35415068D01*
X172046756Y-35415069D01*
X172046757Y-35415069D01*
X171906671Y-35508671D01*
X171906669Y-35508674D01*
X164032671Y-43382671D01*
X164032669Y-43382674D01*
X163651142Y-43764200D01*
X161036000Y-43764200D01*
X160870757Y-43797069D01*
X160730671Y-43890671D01*
X160730669Y-43890674D01*
X160450810Y-44170533D01*
X160422366Y-44170508D01*
X160226248Y-44251542D01*
X160107271Y-44370311D01*
X160107271Y-43607000D01*
X160086018Y-43494048D01*
X160019263Y-43390308D01*
X159917407Y-43320713D01*
X159796500Y-43296229D01*
X158846500Y-43296229D01*
X158733548Y-43317482D01*
X158629808Y-43384237D01*
X158560213Y-43486093D01*
X158535729Y-43607000D01*
X158535729Y-43625200D01*
X157948271Y-43625200D01*
X157948271Y-43607000D01*
X157927018Y-43494048D01*
X157860263Y-43390308D01*
X157758407Y-43320713D01*
X157637500Y-43296229D01*
X156687500Y-43296229D01*
X156574548Y-43317482D01*
X156470808Y-43384237D01*
X156401213Y-43486093D01*
X156376729Y-43607000D01*
X150418800Y-43607000D01*
X150418800Y-42672000D01*
X150413609Y-42645900D01*
X156433500Y-42645900D01*
X156433500Y-43057524D01*
X156472169Y-43150880D01*
X156543621Y-43222331D01*
X156636976Y-43261000D01*
X157073600Y-43261000D01*
X157137100Y-43197500D01*
X157137100Y-42582400D01*
X157187900Y-42582400D01*
X157187900Y-43197500D01*
X157251400Y-43261000D01*
X157688024Y-43261000D01*
X157781379Y-43222331D01*
X157852831Y-43150880D01*
X157891500Y-43057524D01*
X157891500Y-42645900D01*
X158592500Y-42645900D01*
X158592500Y-43057524D01*
X158631169Y-43150880D01*
X158702621Y-43222331D01*
X158795976Y-43261000D01*
X159232600Y-43261000D01*
X159296100Y-43197500D01*
X159296100Y-42582400D01*
X159346900Y-42582400D01*
X159346900Y-43197500D01*
X159410400Y-43261000D01*
X159847024Y-43261000D01*
X159940379Y-43222331D01*
X160011831Y-43150880D01*
X160050500Y-43057524D01*
X160050500Y-42645900D01*
X159987000Y-42582400D01*
X159346900Y-42582400D01*
X159296100Y-42582400D01*
X158656000Y-42582400D01*
X158592500Y-42645900D01*
X157891500Y-42645900D01*
X157828000Y-42582400D01*
X157187900Y-42582400D01*
X157137100Y-42582400D01*
X156497000Y-42582400D01*
X156433500Y-42645900D01*
X150413609Y-42645900D01*
X150385931Y-42506757D01*
X150292329Y-42366671D01*
X149982134Y-42056476D01*
X156433500Y-42056476D01*
X156433500Y-42468100D01*
X156497000Y-42531600D01*
X157137100Y-42531600D01*
X157137100Y-41916500D01*
X157187900Y-41916500D01*
X157187900Y-42531600D01*
X157828000Y-42531600D01*
X157891500Y-42468100D01*
X157891500Y-42056476D01*
X158592500Y-42056476D01*
X158592500Y-42468100D01*
X158656000Y-42531600D01*
X159296100Y-42531600D01*
X159296100Y-41916500D01*
X159346900Y-41916500D01*
X159346900Y-42531600D01*
X159987000Y-42531600D01*
X160050500Y-42468100D01*
X160050500Y-42056476D01*
X160011831Y-41963120D01*
X159940379Y-41891669D01*
X159847024Y-41853000D01*
X159410400Y-41853000D01*
X159346900Y-41916500D01*
X159296100Y-41916500D01*
X159232600Y-41853000D01*
X158795976Y-41853000D01*
X158702621Y-41891669D01*
X158631169Y-41963120D01*
X158592500Y-42056476D01*
X157891500Y-42056476D01*
X157852831Y-41963120D01*
X157781379Y-41891669D01*
X157688024Y-41853000D01*
X157251400Y-41853000D01*
X157187900Y-41916500D01*
X157137100Y-41916500D01*
X157073600Y-41853000D01*
X156636976Y-41853000D01*
X156543621Y-41891669D01*
X156472169Y-41963120D01*
X156433500Y-42056476D01*
X149982134Y-42056476D01*
X148260329Y-40334671D01*
X148120243Y-40241069D01*
X147955000Y-40208200D01*
X142494000Y-40208200D01*
X142328757Y-40241069D01*
X142188671Y-40334671D01*
X140283142Y-42240200D01*
X136256771Y-42240200D01*
X136256771Y-41872000D01*
X136235518Y-41759048D01*
X136168763Y-41655308D01*
X136066907Y-41585713D01*
X135946000Y-41561229D01*
X133756000Y-41561229D01*
X133643048Y-41582482D01*
X133539308Y-41649237D01*
X133469713Y-41751093D01*
X133445229Y-41872000D01*
X133445229Y-43472000D01*
X133466482Y-43584952D01*
X133533237Y-43688692D01*
X133635093Y-43758287D01*
X133756000Y-43782771D01*
X134419200Y-43782771D01*
X134419200Y-45189000D01*
X134452069Y-45354243D01*
X134532060Y-45473958D01*
X134545671Y-45494329D01*
X136474200Y-47422858D01*
X136474200Y-57479142D01*
X135954671Y-57998671D01*
X135861069Y-58138757D01*
X135828200Y-58304000D01*
X135828200Y-62636400D01*
X135382000Y-62636400D01*
X135342472Y-62644405D01*
X135309172Y-62667157D01*
X135287348Y-62701073D01*
X135280400Y-62738000D01*
X135280400Y-63322200D01*
X133159505Y-63322200D01*
X133159500Y-63322199D01*
X133021673Y-63349615D01*
X132994257Y-63355069D01*
X132854171Y-63448671D01*
X127901171Y-68401671D01*
X127807569Y-68541757D01*
X127774700Y-68707000D01*
X127774700Y-68999229D01*
X127706500Y-68999229D01*
X127593548Y-69020482D01*
X127489808Y-69087237D01*
X127420213Y-69189093D01*
X127395729Y-69310000D01*
X127395729Y-70160000D01*
X127416982Y-70272952D01*
X127483737Y-70376692D01*
X127585593Y-70446287D01*
X127706500Y-70470771D01*
X128706500Y-70470771D01*
X128819452Y-70449518D01*
X128923192Y-70382763D01*
X128992787Y-70280907D01*
X129017271Y-70160000D01*
X129017271Y-69310000D01*
X128996018Y-69197048D01*
X128929263Y-69093308D01*
X128827407Y-69023713D01*
X128706500Y-68999229D01*
X128638300Y-68999229D01*
X128638300Y-68885858D01*
X133338358Y-64185800D01*
X135280400Y-64185800D01*
X135280400Y-70276609D01*
X135148716Y-70302803D01*
X135137700Y-70310164D01*
X134950948Y-70434947D01*
X131319496Y-74066400D01*
X124458504Y-74066400D01*
X123672600Y-73280496D01*
X123672600Y-70934580D01*
X124701679Y-70934580D01*
X124701679Y-71833740D01*
X124722932Y-71946692D01*
X124789687Y-72050432D01*
X124891543Y-72120027D01*
X125012450Y-72144511D01*
X125812550Y-72144511D01*
X125925502Y-72123258D01*
X126029242Y-72056503D01*
X126098837Y-71954647D01*
X126123321Y-71833740D01*
X126123321Y-71815960D01*
X127053340Y-71815960D01*
X127218583Y-71783091D01*
X127358669Y-71689489D01*
X127381358Y-71666800D01*
X127397008Y-71666800D01*
X127416982Y-71772952D01*
X127483737Y-71876692D01*
X127585593Y-71946287D01*
X127706500Y-71970771D01*
X128706500Y-71970771D01*
X128819452Y-71949518D01*
X128923192Y-71882763D01*
X128992787Y-71780907D01*
X129017271Y-71660000D01*
X129017271Y-70810000D01*
X128996018Y-70697048D01*
X128929263Y-70593308D01*
X128827407Y-70523713D01*
X128706500Y-70499229D01*
X127706500Y-70499229D01*
X127593548Y-70520482D01*
X127489808Y-70587237D01*
X127420213Y-70689093D01*
X127397106Y-70803200D01*
X127202500Y-70803200D01*
X127037257Y-70836069D01*
X126897171Y-70929671D01*
X126874482Y-70952360D01*
X126123321Y-70952360D01*
X126123321Y-70934580D01*
X126102068Y-70821628D01*
X126035313Y-70717888D01*
X125933457Y-70648293D01*
X125812550Y-70623809D01*
X125012450Y-70623809D01*
X124899498Y-70645062D01*
X124795758Y-70711817D01*
X124726163Y-70813673D01*
X124701679Y-70934580D01*
X123672600Y-70934580D01*
X123672600Y-70167500D01*
X123626197Y-69934216D01*
X123538675Y-69803230D01*
X123494053Y-69736448D01*
X123432345Y-69674740D01*
X124758450Y-69674740D01*
X124758450Y-70085944D01*
X124797119Y-70179300D01*
X124868571Y-70250751D01*
X124961926Y-70289420D01*
X125323600Y-70289420D01*
X125387100Y-70225920D01*
X125387100Y-69611240D01*
X125437900Y-69611240D01*
X125437900Y-70225920D01*
X125501400Y-70289420D01*
X125863074Y-70289420D01*
X125956429Y-70250751D01*
X126027881Y-70179300D01*
X126066550Y-70085944D01*
X126066550Y-69674740D01*
X126003050Y-69611240D01*
X125437900Y-69611240D01*
X125387100Y-69611240D01*
X124821950Y-69611240D01*
X124758450Y-69674740D01*
X123432345Y-69674740D01*
X122843341Y-69085736D01*
X124758450Y-69085736D01*
X124758450Y-69496940D01*
X124821950Y-69560440D01*
X125387100Y-69560440D01*
X125387100Y-68945760D01*
X125437900Y-68945760D01*
X125437900Y-69560440D01*
X126003050Y-69560440D01*
X126066550Y-69496940D01*
X126066550Y-69085736D01*
X126027881Y-68992380D01*
X125956429Y-68920929D01*
X125863074Y-68882260D01*
X125501400Y-68882260D01*
X125437900Y-68945760D01*
X125387100Y-68945760D01*
X125323600Y-68882260D01*
X124961926Y-68882260D01*
X124868571Y-68920929D01*
X124797119Y-68992380D01*
X124758450Y-69085736D01*
X122843341Y-69085736D01*
X122807552Y-69049948D01*
X122609784Y-68917803D01*
X122376500Y-68871400D01*
X121898280Y-68871400D01*
X121854390Y-68803193D01*
X121735558Y-68721999D01*
X121704100Y-68715629D01*
X121704100Y-67754500D01*
X121657697Y-67521216D01*
X121525552Y-67323448D01*
X117195600Y-62993496D01*
X117195600Y-54952900D01*
X133502000Y-54952900D01*
X133502000Y-55714524D01*
X133540669Y-55807879D01*
X133612120Y-55879331D01*
X133705476Y-55918000D01*
X134762100Y-55918000D01*
X134825600Y-55854500D01*
X134825600Y-54889400D01*
X134876400Y-54889400D01*
X134876400Y-55854500D01*
X134939900Y-55918000D01*
X135996524Y-55918000D01*
X136089880Y-55879331D01*
X136161331Y-55807879D01*
X136200000Y-55714524D01*
X136200000Y-54952900D01*
X136136500Y-54889400D01*
X134876400Y-54889400D01*
X134825600Y-54889400D01*
X133565500Y-54889400D01*
X133502000Y-54952900D01*
X117195600Y-54952900D01*
X117195600Y-54013476D01*
X133502000Y-54013476D01*
X133502000Y-54775100D01*
X133565500Y-54838600D01*
X134825600Y-54838600D01*
X134825600Y-53873500D01*
X134876400Y-53873500D01*
X134876400Y-54838600D01*
X136136500Y-54838600D01*
X136200000Y-54775100D01*
X136200000Y-54013476D01*
X136161331Y-53920121D01*
X136089880Y-53848669D01*
X135996524Y-53810000D01*
X134939900Y-53810000D01*
X134876400Y-53873500D01*
X134825600Y-53873500D01*
X134762100Y-53810000D01*
X133705476Y-53810000D01*
X133612120Y-53848669D01*
X133540669Y-53920121D01*
X133502000Y-54013476D01*
X117195600Y-54013476D01*
X117195600Y-45212000D01*
X117149197Y-44978716D01*
X117017052Y-44780948D01*
X109485291Y-37249187D01*
X109732280Y-37002629D01*
X109912394Y-36568866D01*
X109912804Y-36099194D01*
X109733447Y-35665118D01*
X109401629Y-35332720D01*
X109273084Y-35279343D01*
X109328325Y-35257502D01*
X109357925Y-35237724D01*
X109446834Y-35083755D01*
X108732000Y-34368921D01*
X108017166Y-35083755D01*
X108106075Y-35237724D01*
X108196439Y-35276879D01*
X108064118Y-35331553D01*
X107731720Y-35663371D01*
X107551606Y-36097134D01*
X107551196Y-36566806D01*
X85572600Y-36566806D01*
X85572600Y-34530141D01*
X107649668Y-34530141D01*
X107807498Y-34929325D01*
X107827276Y-34958925D01*
X107981245Y-35047834D01*
X108696079Y-34333000D01*
X108767921Y-34333000D01*
X109482755Y-35047834D01*
X109636724Y-34958925D01*
X109807387Y-34565056D01*
X109807521Y-34556745D01*
X110102004Y-34556745D01*
X110273644Y-34972144D01*
X110591184Y-35290239D01*
X110693904Y-35332892D01*
X110592856Y-35374644D01*
X110274761Y-35692184D01*
X110102397Y-36107283D01*
X110102004Y-36556745D01*
X110273644Y-36972144D01*
X110591184Y-37290239D01*
X111006283Y-37462603D01*
X111455745Y-37462996D01*
X111871144Y-37291356D01*
X112189239Y-36973816D01*
X112361603Y-36558717D01*
X112361996Y-36109255D01*
X112190356Y-35693856D01*
X111872816Y-35375761D01*
X111770096Y-35333108D01*
X111871144Y-35291356D01*
X112189239Y-34973816D01*
X112361603Y-34558717D01*
X112361996Y-34109255D01*
X112190356Y-33693856D01*
X111872816Y-33375761D01*
X111457717Y-33203397D01*
X111008255Y-33203004D01*
X110592856Y-33374644D01*
X110274761Y-33692184D01*
X110102397Y-34107283D01*
X110102004Y-34556745D01*
X109807521Y-34556745D01*
X109814332Y-34135859D01*
X109656502Y-33736675D01*
X109636724Y-33707075D01*
X109482755Y-33618166D01*
X108767921Y-34333000D01*
X108696079Y-34333000D01*
X107981245Y-33618166D01*
X107827276Y-33707075D01*
X107656613Y-34100944D01*
X107649668Y-34530141D01*
X85572600Y-34530141D01*
X85572600Y-32178461D01*
X95111714Y-32178461D01*
X95537820Y-33209716D01*
X96326134Y-33999407D01*
X97356643Y-34427312D01*
X98472461Y-34428286D01*
X99503716Y-34002180D01*
X99924384Y-33582245D01*
X108017166Y-33582245D01*
X108732000Y-34297079D01*
X109446834Y-33582245D01*
X109357925Y-33428276D01*
X108964056Y-33257613D01*
X108534859Y-33250668D01*
X108135675Y-33408498D01*
X108106075Y-33428276D01*
X108017166Y-33582245D01*
X99924384Y-33582245D01*
X100293407Y-33213866D01*
X100440141Y-32860491D01*
X102780430Y-32860491D01*
X102951482Y-33084600D01*
X103589255Y-33367705D01*
X104286821Y-33385194D01*
X104937980Y-33134404D01*
X105012518Y-33084600D01*
X105183570Y-32860491D01*
X114780430Y-32860491D01*
X114951482Y-33084600D01*
X115589255Y-33367705D01*
X116286821Y-33385194D01*
X116937980Y-33134404D01*
X117012518Y-33084600D01*
X117183570Y-32860491D01*
X115982000Y-31658921D01*
X114780430Y-32860491D01*
X105183570Y-32860491D01*
X103982000Y-31658921D01*
X102780430Y-32860491D01*
X100440141Y-32860491D01*
X100721312Y-32183357D01*
X100721535Y-31927821D01*
X102219806Y-31927821D01*
X102470596Y-32578980D01*
X102520400Y-32653518D01*
X102744509Y-32824570D01*
X103946079Y-31623000D01*
X104017921Y-31623000D01*
X105219491Y-32824570D01*
X105443600Y-32653518D01*
X105726705Y-32015745D01*
X105728909Y-31927821D01*
X114219806Y-31927821D01*
X114470596Y-32578980D01*
X114520400Y-32653518D01*
X114744509Y-32824570D01*
X115946079Y-31623000D01*
X116017921Y-31623000D01*
X117219491Y-32824570D01*
X117443600Y-32653518D01*
X117654475Y-32178461D01*
X119241714Y-32178461D01*
X119667820Y-33209716D01*
X120456134Y-33999407D01*
X121486643Y-34427312D01*
X122602461Y-34428286D01*
X123633716Y-34002180D01*
X124423407Y-33213866D01*
X124851312Y-32183357D01*
X124851579Y-31877000D01*
X138627229Y-31877000D01*
X138627229Y-34163000D01*
X138648482Y-34275952D01*
X138715237Y-34379692D01*
X138817093Y-34449287D01*
X138938000Y-34473771D01*
X140462000Y-34473771D01*
X140574952Y-34452518D01*
X140678692Y-34385763D01*
X140748287Y-34283907D01*
X140772771Y-34163000D01*
X140772771Y-32610636D01*
X141173200Y-32610636D01*
X141173200Y-33429364D01*
X141254405Y-33837611D01*
X141485658Y-34183706D01*
X141831753Y-34414959D01*
X142240000Y-34496164D01*
X142648247Y-34414959D01*
X142994342Y-34183706D01*
X143225595Y-33837611D01*
X143306800Y-33429364D01*
X143306800Y-32610636D01*
X143713200Y-32610636D01*
X143713200Y-33429364D01*
X143794405Y-33837611D01*
X144025658Y-34183706D01*
X144371753Y-34414959D01*
X144780000Y-34496164D01*
X145188247Y-34414959D01*
X145534342Y-34183706D01*
X145765595Y-33837611D01*
X145846800Y-33429364D01*
X145846800Y-32610636D01*
X146253200Y-32610636D01*
X146253200Y-33429364D01*
X146334405Y-33837611D01*
X146565658Y-34183706D01*
X146911753Y-34414959D01*
X147320000Y-34496164D01*
X147728247Y-34414959D01*
X148074342Y-34183706D01*
X148305595Y-33837611D01*
X148386800Y-33429364D01*
X148386800Y-32610636D01*
X148793200Y-32610636D01*
X148793200Y-33429364D01*
X148874405Y-33837611D01*
X149105658Y-34183706D01*
X149451753Y-34414959D01*
X149860000Y-34496164D01*
X150268247Y-34414959D01*
X150614342Y-34183706D01*
X150845595Y-33837611D01*
X150926800Y-33429364D01*
X150926800Y-32610636D01*
X151333200Y-32610636D01*
X151333200Y-33429364D01*
X151414405Y-33837611D01*
X151645658Y-34183706D01*
X151991753Y-34414959D01*
X152400000Y-34496164D01*
X152808247Y-34414959D01*
X153154342Y-34183706D01*
X153385595Y-33837611D01*
X153466800Y-33429364D01*
X153466800Y-32610636D01*
X153873200Y-32610636D01*
X153873200Y-33429364D01*
X153954405Y-33837611D01*
X154185658Y-34183706D01*
X154531753Y-34414959D01*
X154940000Y-34496164D01*
X155348247Y-34414959D01*
X155694342Y-34183706D01*
X155925595Y-33837611D01*
X156006800Y-33429364D01*
X156006800Y-32610636D01*
X156413200Y-32610636D01*
X156413200Y-33429364D01*
X156494405Y-33837611D01*
X156725658Y-34183706D01*
X157071753Y-34414959D01*
X157480000Y-34496164D01*
X157888247Y-34414959D01*
X158234342Y-34183706D01*
X158465595Y-33837611D01*
X158546800Y-33429364D01*
X158546800Y-32610636D01*
X158953200Y-32610636D01*
X158953200Y-33429364D01*
X159034405Y-33837611D01*
X159265658Y-34183706D01*
X159611753Y-34414959D01*
X160020000Y-34496164D01*
X160428247Y-34414959D01*
X160774342Y-34183706D01*
X161005595Y-33837611D01*
X161086800Y-33429364D01*
X161086800Y-32610636D01*
X161493200Y-32610636D01*
X161493200Y-33429364D01*
X161574405Y-33837611D01*
X161805658Y-34183706D01*
X162151753Y-34414959D01*
X162560000Y-34496164D01*
X162968247Y-34414959D01*
X163314342Y-34183706D01*
X163545595Y-33837611D01*
X163626800Y-33429364D01*
X163626800Y-32610636D01*
X164033200Y-32610636D01*
X164033200Y-33429364D01*
X164114405Y-33837611D01*
X164345658Y-34183706D01*
X164691753Y-34414959D01*
X165100000Y-34496164D01*
X165508247Y-34414959D01*
X165854342Y-34183706D01*
X166085595Y-33837611D01*
X166166800Y-33429364D01*
X166166800Y-32610636D01*
X166573200Y-32610636D01*
X166573200Y-33429364D01*
X166654405Y-33837611D01*
X166885658Y-34183706D01*
X167231753Y-34414959D01*
X167640000Y-34496164D01*
X168048247Y-34414959D01*
X168394342Y-34183706D01*
X168625595Y-33837611D01*
X168706800Y-33429364D01*
X168706800Y-32610636D01*
X169113200Y-32610636D01*
X169113200Y-33429364D01*
X169194405Y-33837611D01*
X169425658Y-34183706D01*
X169771753Y-34414959D01*
X170180000Y-34496164D01*
X170588247Y-34414959D01*
X170934342Y-34183706D01*
X171165595Y-33837611D01*
X171246800Y-33429364D01*
X171246800Y-32610636D01*
X171653200Y-32610636D01*
X171653200Y-33429364D01*
X171734405Y-33837611D01*
X171965658Y-34183706D01*
X172311753Y-34414959D01*
X172720000Y-34496164D01*
X173128247Y-34414959D01*
X173474342Y-34183706D01*
X173705595Y-33837611D01*
X173786800Y-33429364D01*
X173786800Y-32610636D01*
X174193200Y-32610636D01*
X174193200Y-33429364D01*
X174274405Y-33837611D01*
X174505658Y-34183706D01*
X174851753Y-34414959D01*
X175260000Y-34496164D01*
X175668247Y-34414959D01*
X176014342Y-34183706D01*
X176245595Y-33837611D01*
X176326800Y-33429364D01*
X176326800Y-32610636D01*
X176733200Y-32610636D01*
X176733200Y-33429364D01*
X176814405Y-33837611D01*
X177045658Y-34183706D01*
X177391753Y-34414959D01*
X177800000Y-34496164D01*
X178208247Y-34414959D01*
X178554342Y-34183706D01*
X178785595Y-33837611D01*
X178866800Y-33429364D01*
X178866800Y-32610636D01*
X178785595Y-32202389D01*
X178554342Y-31856294D01*
X178208247Y-31625041D01*
X177800000Y-31543836D01*
X177391753Y-31625041D01*
X177045658Y-31856294D01*
X176814405Y-32202389D01*
X176733200Y-32610636D01*
X176326800Y-32610636D01*
X176245595Y-32202389D01*
X176014342Y-31856294D01*
X175668247Y-31625041D01*
X175260000Y-31543836D01*
X174851753Y-31625041D01*
X174505658Y-31856294D01*
X174274405Y-32202389D01*
X174193200Y-32610636D01*
X173786800Y-32610636D01*
X173705595Y-32202389D01*
X173474342Y-31856294D01*
X173128247Y-31625041D01*
X172720000Y-31543836D01*
X172311753Y-31625041D01*
X171965658Y-31856294D01*
X171734405Y-32202389D01*
X171653200Y-32610636D01*
X171246800Y-32610636D01*
X171165595Y-32202389D01*
X170934342Y-31856294D01*
X170588247Y-31625041D01*
X170180000Y-31543836D01*
X169771753Y-31625041D01*
X169425658Y-31856294D01*
X169194405Y-32202389D01*
X169113200Y-32610636D01*
X168706800Y-32610636D01*
X168625595Y-32202389D01*
X168394342Y-31856294D01*
X168048247Y-31625041D01*
X167640000Y-31543836D01*
X167231753Y-31625041D01*
X166885658Y-31856294D01*
X166654405Y-32202389D01*
X166573200Y-32610636D01*
X166166800Y-32610636D01*
X166085595Y-32202389D01*
X165854342Y-31856294D01*
X165508247Y-31625041D01*
X165100000Y-31543836D01*
X164691753Y-31625041D01*
X164345658Y-31856294D01*
X164114405Y-32202389D01*
X164033200Y-32610636D01*
X163626800Y-32610636D01*
X163545595Y-32202389D01*
X163314342Y-31856294D01*
X162968247Y-31625041D01*
X162560000Y-31543836D01*
X162151753Y-31625041D01*
X161805658Y-31856294D01*
X161574405Y-32202389D01*
X161493200Y-32610636D01*
X161086800Y-32610636D01*
X161005595Y-32202389D01*
X160774342Y-31856294D01*
X160428247Y-31625041D01*
X160020000Y-31543836D01*
X159611753Y-31625041D01*
X159265658Y-31856294D01*
X159034405Y-32202389D01*
X158953200Y-32610636D01*
X158546800Y-32610636D01*
X158465595Y-32202389D01*
X158234342Y-31856294D01*
X157888247Y-31625041D01*
X157480000Y-31543836D01*
X157071753Y-31625041D01*
X156725658Y-31856294D01*
X156494405Y-32202389D01*
X156413200Y-32610636D01*
X156006800Y-32610636D01*
X155925595Y-32202389D01*
X155694342Y-31856294D01*
X155348247Y-31625041D01*
X154940000Y-31543836D01*
X154531753Y-31625041D01*
X154185658Y-31856294D01*
X153954405Y-32202389D01*
X153873200Y-32610636D01*
X153466800Y-32610636D01*
X153385595Y-32202389D01*
X153154342Y-31856294D01*
X152808247Y-31625041D01*
X152400000Y-31543836D01*
X151991753Y-31625041D01*
X151645658Y-31856294D01*
X151414405Y-32202389D01*
X151333200Y-32610636D01*
X150926800Y-32610636D01*
X150845595Y-32202389D01*
X150614342Y-31856294D01*
X150268247Y-31625041D01*
X149860000Y-31543836D01*
X149451753Y-31625041D01*
X149105658Y-31856294D01*
X148874405Y-32202389D01*
X148793200Y-32610636D01*
X148386800Y-32610636D01*
X148305595Y-32202389D01*
X148074342Y-31856294D01*
X147728247Y-31625041D01*
X147320000Y-31543836D01*
X146911753Y-31625041D01*
X146565658Y-31856294D01*
X146334405Y-32202389D01*
X146253200Y-32610636D01*
X145846800Y-32610636D01*
X145765595Y-32202389D01*
X145534342Y-31856294D01*
X145188247Y-31625041D01*
X144780000Y-31543836D01*
X144371753Y-31625041D01*
X144025658Y-31856294D01*
X143794405Y-32202389D01*
X143713200Y-32610636D01*
X143306800Y-32610636D01*
X143225595Y-32202389D01*
X142994342Y-31856294D01*
X142648247Y-31625041D01*
X142240000Y-31543836D01*
X141831753Y-31625041D01*
X141485658Y-31856294D01*
X141254405Y-32202389D01*
X141173200Y-32610636D01*
X140772771Y-32610636D01*
X140772771Y-31877000D01*
X140751518Y-31764048D01*
X140684763Y-31660308D01*
X140582907Y-31590713D01*
X140462000Y-31566229D01*
X138938000Y-31566229D01*
X138825048Y-31587482D01*
X138721308Y-31654237D01*
X138651713Y-31756093D01*
X138627229Y-31877000D01*
X124851579Y-31877000D01*
X124852286Y-31067539D01*
X124426180Y-30036284D01*
X123637866Y-29246593D01*
X122607357Y-28818688D01*
X121491539Y-28817714D01*
X120460284Y-29243820D01*
X119670593Y-30032134D01*
X119242688Y-31062643D01*
X119241714Y-32178461D01*
X117654475Y-32178461D01*
X117726705Y-32015745D01*
X117744194Y-31318179D01*
X117493404Y-30667020D01*
X117443600Y-30592482D01*
X117219491Y-30421430D01*
X116017921Y-31623000D01*
X115946079Y-31623000D01*
X114744509Y-30421430D01*
X114520400Y-30592482D01*
X114237295Y-31230255D01*
X114219806Y-31927821D01*
X105728909Y-31927821D01*
X105744194Y-31318179D01*
X105493404Y-30667020D01*
X105443600Y-30592482D01*
X105219491Y-30421430D01*
X104017921Y-31623000D01*
X103946079Y-31623000D01*
X102744509Y-30421430D01*
X102520400Y-30592482D01*
X102237295Y-31230255D01*
X102219806Y-31927821D01*
X100721535Y-31927821D01*
X100722286Y-31067539D01*
X100440477Y-30385509D01*
X102780430Y-30385509D01*
X103982000Y-31587079D01*
X105183570Y-30385509D01*
X114780430Y-30385509D01*
X115982000Y-31587079D01*
X117183570Y-30385509D01*
X117012518Y-30161400D01*
X116374745Y-29878295D01*
X115677179Y-29860806D01*
X115026020Y-30111596D01*
X114951482Y-30161400D01*
X114780430Y-30385509D01*
X105183570Y-30385509D01*
X105012518Y-30161400D01*
X104374745Y-29878295D01*
X103677179Y-29860806D01*
X103026020Y-30111596D01*
X102951482Y-30161400D01*
X102780430Y-30385509D01*
X100440477Y-30385509D01*
X100296180Y-30036284D01*
X99507866Y-29246593D01*
X98477357Y-28818688D01*
X97361539Y-28817714D01*
X96330284Y-29243820D01*
X95540593Y-30032134D01*
X95112688Y-31062643D01*
X95111714Y-32178461D01*
X85572600Y-32178461D01*
X85572600Y-27152600D01*
X234594400Y-27152600D01*
X234594400Y-76225400D01*
X234594400Y-76225400D01*
G37*
X234594400Y-76225400D02*
X85572600Y-76225400D01*
X85572600Y-69674740D01*
X118408450Y-69674740D01*
X118408450Y-70085944D01*
X118447119Y-70179300D01*
X118518571Y-70250751D01*
X118611926Y-70289420D01*
X118973600Y-70289420D01*
X119037100Y-70225920D01*
X119037100Y-69611240D01*
X119087900Y-69611240D01*
X119087900Y-70225920D01*
X119151400Y-70289420D01*
X119513074Y-70289420D01*
X119606429Y-70250751D01*
X119677881Y-70179300D01*
X119716550Y-70085944D01*
X119716550Y-69674740D01*
X119653050Y-69611240D01*
X119087900Y-69611240D01*
X119037100Y-69611240D01*
X118471950Y-69611240D01*
X118408450Y-69674740D01*
X85572600Y-69674740D01*
X85572600Y-69085736D01*
X118408450Y-69085736D01*
X118408450Y-69496940D01*
X118471950Y-69560440D01*
X119037100Y-69560440D01*
X119037100Y-68945760D01*
X119087900Y-68945760D01*
X119087900Y-69560440D01*
X119653050Y-69560440D01*
X119716550Y-69496940D01*
X119716550Y-69085736D01*
X119677881Y-68992380D01*
X119606429Y-68920929D01*
X119513074Y-68882260D01*
X119151400Y-68882260D01*
X119087900Y-68945760D01*
X119037100Y-68945760D01*
X118973600Y-68882260D01*
X118611926Y-68882260D01*
X118518571Y-68920929D01*
X118447119Y-68992380D01*
X118408450Y-69085736D01*
X85572600Y-69085736D01*
X85572600Y-65079649D01*
X103358272Y-65079649D01*
X103501337Y-65279859D01*
X104056006Y-65524651D01*
X104662132Y-65538548D01*
X105227437Y-65319433D01*
X105286663Y-65279859D01*
X105429728Y-65079649D01*
X108438272Y-65079649D01*
X108581337Y-65279859D01*
X109136006Y-65524651D01*
X109742132Y-65538548D01*
X110307437Y-65319433D01*
X110366663Y-65279859D01*
X110509728Y-65079649D01*
X109474000Y-64043921D01*
X108438272Y-65079649D01*
X105429728Y-65079649D01*
X104394000Y-64043921D01*
X103358272Y-65079649D01*
X85572600Y-65079649D01*
X85572600Y-64276132D01*
X102863452Y-64276132D01*
X103082567Y-64841437D01*
X103122141Y-64900663D01*
X103322351Y-65043728D01*
X104358079Y-64008000D01*
X104429921Y-64008000D01*
X105465649Y-65043728D01*
X105665859Y-64900663D01*
X105910651Y-64345994D01*
X105912252Y-64276132D01*
X107943452Y-64276132D01*
X108162567Y-64841437D01*
X108202141Y-64900663D01*
X108402351Y-65043728D01*
X109438079Y-64008000D01*
X109509921Y-64008000D01*
X110545649Y-65043728D01*
X110745859Y-64900663D01*
X110990651Y-64345994D01*
X111004548Y-63739868D01*
X110785433Y-63174563D01*
X110745859Y-63115337D01*
X110545649Y-62972272D01*
X109509921Y-64008000D01*
X109438079Y-64008000D01*
X108402351Y-62972272D01*
X108202141Y-63115337D01*
X107957349Y-63670006D01*
X107943452Y-64276132D01*
X105912252Y-64276132D01*
X105924548Y-63739868D01*
X105705433Y-63174563D01*
X105665859Y-63115337D01*
X105465649Y-62972272D01*
X104429921Y-64008000D01*
X104358079Y-64008000D01*
X103322351Y-62972272D01*
X103122141Y-63115337D01*
X102877349Y-63670006D01*
X102863452Y-64276132D01*
X85572600Y-64276132D01*
X85572600Y-62936351D01*
X103358272Y-62936351D01*
X104394000Y-63972079D01*
X105429728Y-62936351D01*
X108438272Y-62936351D01*
X109474000Y-63972079D01*
X110509728Y-62936351D01*
X110366663Y-62736141D01*
X109811994Y-62491349D01*
X109205868Y-62477452D01*
X108640563Y-62696567D01*
X108581337Y-62736141D01*
X108438272Y-62936351D01*
X105429728Y-62936351D01*
X105286663Y-62736141D01*
X104731994Y-62491349D01*
X104125868Y-62477452D01*
X103560563Y-62696567D01*
X103501337Y-62736141D01*
X103358272Y-62936351D01*
X85572600Y-62936351D01*
X85572600Y-36566806D01*
X107551196Y-36566806D01*
X107730553Y-37000882D01*
X108062371Y-37333280D01*
X108122445Y-37358225D01*
X108168803Y-37591284D01*
X108300948Y-37789052D01*
X115976400Y-45464504D01*
X115976400Y-63246000D01*
X116022803Y-63479284D01*
X116154948Y-63677052D01*
X120484900Y-68007004D01*
X120484900Y-68714057D01*
X120462723Y-68718230D01*
X120341693Y-68796110D01*
X120260499Y-68914942D01*
X120231934Y-69056000D01*
X120231934Y-69906000D01*
X120256730Y-70037777D01*
X120334610Y-70158807D01*
X120453442Y-70240001D01*
X120534763Y-70256469D01*
X120481548Y-70266482D01*
X120377808Y-70333237D01*
X120308213Y-70435093D01*
X120283729Y-70556000D01*
X120283729Y-70690322D01*
X120129158Y-70721068D01*
X120082674Y-70752128D01*
X119989071Y-70814671D01*
X119989069Y-70814674D01*
X119851382Y-70952360D01*
X119773321Y-70952360D01*
X119773321Y-70934580D01*
X119752068Y-70821628D01*
X119685313Y-70717888D01*
X119583457Y-70648293D01*
X119462550Y-70623809D01*
X118662450Y-70623809D01*
X118549498Y-70645062D01*
X118445758Y-70711817D01*
X118376163Y-70813673D01*
X118351679Y-70934580D01*
X118351679Y-71833740D01*
X118372932Y-71946692D01*
X118439687Y-72050432D01*
X118541543Y-72120027D01*
X118662450Y-72144511D01*
X119462550Y-72144511D01*
X119575502Y-72123258D01*
X119679242Y-72056503D01*
X119748837Y-71954647D01*
X119773321Y-71833740D01*
X119773321Y-71815960D01*
X120030240Y-71815960D01*
X120195483Y-71783091D01*
X120335569Y-71689489D01*
X120389933Y-71635125D01*
X120473593Y-71692287D01*
X120594500Y-71716771D01*
X121594500Y-71716771D01*
X121707452Y-71695518D01*
X121811192Y-71628763D01*
X121880787Y-71526907D01*
X121905271Y-71406000D01*
X121905271Y-70556000D01*
X121884018Y-70443048D01*
X121817263Y-70339308D01*
X121715407Y-70269713D01*
X121654236Y-70257326D01*
X121726277Y-70243770D01*
X121847307Y-70165890D01*
X121898750Y-70090600D01*
X122123996Y-70090600D01*
X122453400Y-70420005D01*
X122453400Y-73533000D01*
X122499803Y-73766284D01*
X122631948Y-73964052D01*
X123774948Y-75107052D01*
X123972716Y-75239197D01*
X124206000Y-75285600D01*
X131572000Y-75285600D01*
X131805284Y-75239197D01*
X132003052Y-75107052D01*
X135280400Y-71829705D01*
X135280400Y-71882000D01*
X135288405Y-71921528D01*
X135311157Y-71954828D01*
X135345073Y-71976652D01*
X135382000Y-71983600D01*
X135650400Y-71983600D01*
X135650400Y-72569500D01*
X135696803Y-72802784D01*
X135828948Y-73000552D01*
X136347948Y-73519552D01*
X136545716Y-73651697D01*
X136779000Y-73698100D01*
X140398500Y-73698100D01*
X140631784Y-73651697D01*
X140829552Y-73519552D01*
X141362204Y-72986900D01*
X147828000Y-72986900D01*
X147828000Y-74091524D01*
X147866669Y-74184879D01*
X147938120Y-74256331D01*
X148031476Y-74295000D01*
X148755100Y-74295000D01*
X148818600Y-74231500D01*
X148818600Y-72923400D01*
X148869400Y-72923400D01*
X148869400Y-74231500D01*
X148932900Y-74295000D01*
X149656524Y-74295000D01*
X149749880Y-74256331D01*
X149821331Y-74184879D01*
X149860000Y-74091524D01*
X149860000Y-72986900D01*
X149796500Y-72923400D01*
X148869400Y-72923400D01*
X148818600Y-72923400D01*
X147891500Y-72923400D01*
X147828000Y-72986900D01*
X141362204Y-72986900D01*
X142644628Y-71704476D01*
X147828000Y-71704476D01*
X147828000Y-72809100D01*
X147891500Y-72872600D01*
X148818600Y-72872600D01*
X148818600Y-71564500D01*
X148869400Y-71564500D01*
X148869400Y-72872600D01*
X149796500Y-72872600D01*
X149860000Y-72809100D01*
X149860000Y-72488636D01*
X150317200Y-72488636D01*
X150317200Y-73307364D01*
X150398405Y-73715611D01*
X150629658Y-74061706D01*
X150975753Y-74292959D01*
X151384000Y-74374164D01*
X151792247Y-74292959D01*
X152138342Y-74061706D01*
X152369595Y-73715611D01*
X152450800Y-73307364D01*
X152450800Y-72488636D01*
X152369595Y-72080389D01*
X152138342Y-71734294D01*
X151792247Y-71503041D01*
X151384000Y-71421836D01*
X150975753Y-71503041D01*
X150629658Y-71734294D01*
X150398405Y-72080389D01*
X150317200Y-72488636D01*
X149860000Y-72488636D01*
X149860000Y-71704476D01*
X149821331Y-71611121D01*
X149749880Y-71539669D01*
X149656524Y-71501000D01*
X148932900Y-71501000D01*
X148869400Y-71564500D01*
X148818600Y-71564500D01*
X148755100Y-71501000D01*
X148031476Y-71501000D01*
X147938120Y-71539669D01*
X147866669Y-71611121D01*
X147828000Y-71704476D01*
X142644628Y-71704476D01*
X147179552Y-67169552D01*
X147311697Y-66971784D01*
X147358099Y-66738500D01*
X147311697Y-66505216D01*
X147179552Y-66307448D01*
X146981784Y-66175303D01*
X146748500Y-66128901D01*
X146515216Y-66175303D01*
X146317448Y-66307448D01*
X140145996Y-72478900D01*
X137031504Y-72478900D01*
X136869600Y-72316996D01*
X136869600Y-71983600D01*
X137160000Y-71983600D01*
X137199528Y-71975595D01*
X137232828Y-71952843D01*
X137254652Y-71918927D01*
X137261600Y-71882000D01*
X137261600Y-68525695D01*
X137779699Y-68525695D01*
X137828434Y-68643642D01*
X137828434Y-68960000D01*
X137853230Y-69091777D01*
X137931110Y-69212807D01*
X138049942Y-69294001D01*
X138191000Y-69322566D01*
X138791000Y-69322566D01*
X138922777Y-69297770D01*
X139043807Y-69219890D01*
X139125001Y-69101058D01*
X139153566Y-68960000D01*
X139153566Y-67860000D01*
X139128770Y-67728223D01*
X139050890Y-67607193D01*
X138932058Y-67525999D01*
X138791000Y-67497434D01*
X138191000Y-67497434D01*
X138059223Y-67522230D01*
X137938193Y-67600110D01*
X137856999Y-67718942D01*
X137828434Y-67860000D01*
X137828434Y-68176407D01*
X137779902Y-68293286D01*
X137779699Y-68525695D01*
X137261600Y-68525695D01*
X137261600Y-62738000D01*
X137253595Y-62698472D01*
X137230843Y-62665172D01*
X137196927Y-62643348D01*
X137160000Y-62636400D01*
X136691800Y-62636400D01*
X136691800Y-62026800D01*
X145236142Y-62026800D01*
X153492200Y-70282858D01*
X153492200Y-71518779D01*
X153169658Y-71734294D01*
X152938405Y-72080389D01*
X152857200Y-72488636D01*
X152857200Y-73307364D01*
X152938405Y-73715611D01*
X153169658Y-74061706D01*
X153515753Y-74292959D01*
X153924000Y-74374164D01*
X154332247Y-74292959D01*
X154678342Y-74061706D01*
X154909595Y-73715611D01*
X154990800Y-73307364D01*
X154990800Y-72488636D01*
X155397200Y-72488636D01*
X155397200Y-73307364D01*
X155478405Y-73715611D01*
X155709658Y-74061706D01*
X156055753Y-74292959D01*
X156464000Y-74374164D01*
X156872247Y-74292959D01*
X157218342Y-74061706D01*
X157449595Y-73715611D01*
X157530800Y-73307364D01*
X157530800Y-72488636D01*
X157937200Y-72488636D01*
X157937200Y-73307364D01*
X158018405Y-73715611D01*
X158249658Y-74061706D01*
X158595753Y-74292959D01*
X159004000Y-74374164D01*
X159412247Y-74292959D01*
X159758342Y-74061706D01*
X159989595Y-73715611D01*
X160070800Y-73307364D01*
X160070800Y-72488636D01*
X160477200Y-72488636D01*
X160477200Y-73307364D01*
X160558405Y-73715611D01*
X160789658Y-74061706D01*
X161135753Y-74292959D01*
X161544000Y-74374164D01*
X161952247Y-74292959D01*
X162298342Y-74061706D01*
X162529595Y-73715611D01*
X162610800Y-73307364D01*
X162610800Y-72488636D01*
X162529595Y-72080389D01*
X162414008Y-71907400D01*
X169926000Y-71907400D01*
X169926000Y-72288400D01*
X170013059Y-72675273D01*
X170241540Y-72999381D01*
X170576660Y-73211382D01*
X170758025Y-73262204D01*
X170916600Y-73215161D01*
X170916600Y-71907400D01*
X170967400Y-71907400D01*
X170967400Y-73215161D01*
X171125975Y-73262204D01*
X171307340Y-73211382D01*
X171642460Y-72999381D01*
X171870941Y-72675273D01*
X171958000Y-72288400D01*
X171958000Y-71907400D01*
X172466000Y-71907400D01*
X172466000Y-72288400D01*
X172553059Y-72675273D01*
X172781540Y-72999381D01*
X173116660Y-73211382D01*
X173298025Y-73262204D01*
X173456600Y-73215161D01*
X173456600Y-71907400D01*
X173507400Y-71907400D01*
X173507400Y-73215161D01*
X173665975Y-73262204D01*
X173847340Y-73211382D01*
X174182460Y-72999381D01*
X174410941Y-72675273D01*
X174498000Y-72288400D01*
X174498000Y-71907400D01*
X175006000Y-71907400D01*
X175006000Y-72288400D01*
X175093059Y-72675273D01*
X175321540Y-72999381D01*
X175656660Y-73211382D01*
X175838025Y-73262204D01*
X175996600Y-73215161D01*
X175996600Y-71907400D01*
X176047400Y-71907400D01*
X176047400Y-73215161D01*
X176205975Y-73262204D01*
X176387340Y-73211382D01*
X176722460Y-72999381D01*
X176950941Y-72675273D01*
X177038000Y-72288400D01*
X177038000Y-71907400D01*
X177546000Y-71907400D01*
X177546000Y-72288400D01*
X177633059Y-72675273D01*
X177861540Y-72999381D01*
X178196660Y-73211382D01*
X178378025Y-73262204D01*
X178536600Y-73215161D01*
X178536600Y-71907400D01*
X178587400Y-71907400D01*
X178587400Y-73215161D01*
X178745975Y-73262204D01*
X178927340Y-73211382D01*
X179262460Y-72999381D01*
X179490941Y-72675273D01*
X179578000Y-72288400D01*
X179578000Y-71907400D01*
X180086000Y-71907400D01*
X180086000Y-72288400D01*
X180173059Y-72675273D01*
X180401540Y-72999381D01*
X180736660Y-73211382D01*
X180918025Y-73262204D01*
X181076600Y-73215161D01*
X181076600Y-71907400D01*
X181127400Y-71907400D01*
X181127400Y-73215161D01*
X181285975Y-73262204D01*
X181467340Y-73211382D01*
X181802460Y-72999381D01*
X182030941Y-72675273D01*
X182118000Y-72288400D01*
X182118000Y-71907400D01*
X182626000Y-71907400D01*
X182626000Y-72288400D01*
X182713059Y-72675273D01*
X182941540Y-72999381D01*
X183276660Y-73211382D01*
X183458025Y-73262204D01*
X183616600Y-73215161D01*
X183616600Y-71907400D01*
X183667400Y-71907400D01*
X183667400Y-73215161D01*
X183825975Y-73262204D01*
X184007340Y-73211382D01*
X184342460Y-72999381D01*
X184570941Y-72675273D01*
X184658000Y-72288400D01*
X184658000Y-71907400D01*
X185166000Y-71907400D01*
X185166000Y-72288400D01*
X185253059Y-72675273D01*
X185481540Y-72999381D01*
X185816660Y-73211382D01*
X185998025Y-73262204D01*
X186156600Y-73215161D01*
X186156600Y-71907400D01*
X186207400Y-71907400D01*
X186207400Y-73215161D01*
X186365975Y-73262204D01*
X186547340Y-73211382D01*
X186882460Y-72999381D01*
X187110941Y-72675273D01*
X187198000Y-72288400D01*
X187198000Y-71907400D01*
X187706000Y-71907400D01*
X187706000Y-72288400D01*
X187793059Y-72675273D01*
X188021540Y-72999381D01*
X188356660Y-73211382D01*
X188538025Y-73262204D01*
X188696600Y-73215161D01*
X188696600Y-71907400D01*
X188747400Y-71907400D01*
X188747400Y-73215161D01*
X188905975Y-73262204D01*
X189087340Y-73211382D01*
X189422460Y-72999381D01*
X189650941Y-72675273D01*
X189738000Y-72288400D01*
X189738000Y-71907400D01*
X190246000Y-71907400D01*
X190246000Y-72288400D01*
X190333059Y-72675273D01*
X190561540Y-72999381D01*
X190896660Y-73211382D01*
X191078025Y-73262204D01*
X191236600Y-73215161D01*
X191236600Y-71907400D01*
X191287400Y-71907400D01*
X191287400Y-73215161D01*
X191445975Y-73262204D01*
X191627340Y-73211382D01*
X191962460Y-72999381D01*
X192190941Y-72675273D01*
X192278000Y-72288400D01*
X192278000Y-71907400D01*
X192786000Y-71907400D01*
X192786000Y-72288400D01*
X192873059Y-72675273D01*
X193101540Y-72999381D01*
X193436660Y-73211382D01*
X193618025Y-73262204D01*
X193776600Y-73215161D01*
X193776600Y-71907400D01*
X193827400Y-71907400D01*
X193827400Y-73215161D01*
X193985975Y-73262204D01*
X194167340Y-73211382D01*
X194502460Y-72999381D01*
X194730941Y-72675273D01*
X194818000Y-72288400D01*
X194818000Y-71907400D01*
X193827400Y-71907400D01*
X193776600Y-71907400D01*
X192786000Y-71907400D01*
X192278000Y-71907400D01*
X191287400Y-71907400D01*
X191236600Y-71907400D01*
X190246000Y-71907400D01*
X189738000Y-71907400D01*
X188747400Y-71907400D01*
X188696600Y-71907400D01*
X187706000Y-71907400D01*
X187198000Y-71907400D01*
X186207400Y-71907400D01*
X186156600Y-71907400D01*
X185166000Y-71907400D01*
X184658000Y-71907400D01*
X183667400Y-71907400D01*
X183616600Y-71907400D01*
X182626000Y-71907400D01*
X182118000Y-71907400D01*
X181127400Y-71907400D01*
X181076600Y-71907400D01*
X180086000Y-71907400D01*
X179578000Y-71907400D01*
X178587400Y-71907400D01*
X178536600Y-71907400D01*
X177546000Y-71907400D01*
X177038000Y-71907400D01*
X176047400Y-71907400D01*
X175996600Y-71907400D01*
X175006000Y-71907400D01*
X174498000Y-71907400D01*
X173507400Y-71907400D01*
X173456600Y-71907400D01*
X172466000Y-71907400D01*
X171958000Y-71907400D01*
X170967400Y-71907400D01*
X170916600Y-71907400D01*
X169926000Y-71907400D01*
X162414008Y-71907400D01*
X162298342Y-71734294D01*
X161952247Y-71503041D01*
X161814292Y-71475600D01*
X169926000Y-71475600D01*
X169926000Y-71856600D01*
X170916600Y-71856600D01*
X170916600Y-70548839D01*
X170967400Y-70548839D01*
X170967400Y-71856600D01*
X171958000Y-71856600D01*
X171958000Y-71475600D01*
X172466000Y-71475600D01*
X172466000Y-71856600D01*
X173456600Y-71856600D01*
X173456600Y-70548839D01*
X173507400Y-70548839D01*
X173507400Y-71856600D01*
X174498000Y-71856600D01*
X174498000Y-71475600D01*
X175006000Y-71475600D01*
X175006000Y-71856600D01*
X175996600Y-71856600D01*
X175996600Y-70548839D01*
X176047400Y-70548839D01*
X176047400Y-71856600D01*
X177038000Y-71856600D01*
X177038000Y-71475600D01*
X177546000Y-71475600D01*
X177546000Y-71856600D01*
X178536600Y-71856600D01*
X178536600Y-70548839D01*
X178587400Y-70548839D01*
X178587400Y-71856600D01*
X179578000Y-71856600D01*
X179578000Y-71475600D01*
X180086000Y-71475600D01*
X180086000Y-71856600D01*
X181076600Y-71856600D01*
X181076600Y-70548839D01*
X181127400Y-70548839D01*
X181127400Y-71856600D01*
X182118000Y-71856600D01*
X182118000Y-71475600D01*
X182626000Y-71475600D01*
X182626000Y-71856600D01*
X183616600Y-71856600D01*
X183616600Y-70548839D01*
X183667400Y-70548839D01*
X183667400Y-71856600D01*
X184658000Y-71856600D01*
X184658000Y-71475600D01*
X185166000Y-71475600D01*
X185166000Y-71856600D01*
X186156600Y-71856600D01*
X186156600Y-70548839D01*
X186207400Y-70548839D01*
X186207400Y-71856600D01*
X187198000Y-71856600D01*
X187198000Y-71475600D01*
X187706000Y-71475600D01*
X187706000Y-71856600D01*
X188696600Y-71856600D01*
X188696600Y-70548839D01*
X188747400Y-70548839D01*
X188747400Y-71856600D01*
X189738000Y-71856600D01*
X189738000Y-71475600D01*
X190246000Y-71475600D01*
X190246000Y-71856600D01*
X191236600Y-71856600D01*
X191236600Y-70548839D01*
X191287400Y-70548839D01*
X191287400Y-71856600D01*
X192278000Y-71856600D01*
X192278000Y-71475600D01*
X192786000Y-71475600D01*
X192786000Y-71856600D01*
X193776600Y-71856600D01*
X193776600Y-70548839D01*
X193827400Y-70548839D01*
X193827400Y-71856600D01*
X194818000Y-71856600D01*
X194818000Y-71475600D01*
X194730941Y-71088727D01*
X194502460Y-70764619D01*
X194167340Y-70552618D01*
X193985975Y-70501796D01*
X193827400Y-70548839D01*
X193776600Y-70548839D01*
X193618025Y-70501796D01*
X193436660Y-70552618D01*
X193101540Y-70764619D01*
X192873059Y-71088727D01*
X192786000Y-71475600D01*
X192278000Y-71475600D01*
X192190941Y-71088727D01*
X191962460Y-70764619D01*
X191627340Y-70552618D01*
X191445975Y-70501796D01*
X191287400Y-70548839D01*
X191236600Y-70548839D01*
X191078025Y-70501796D01*
X190896660Y-70552618D01*
X190561540Y-70764619D01*
X190333059Y-71088727D01*
X190246000Y-71475600D01*
X189738000Y-71475600D01*
X189650941Y-71088727D01*
X189422460Y-70764619D01*
X189087340Y-70552618D01*
X188905975Y-70501796D01*
X188747400Y-70548839D01*
X188696600Y-70548839D01*
X188538025Y-70501796D01*
X188356660Y-70552618D01*
X188021540Y-70764619D01*
X187793059Y-71088727D01*
X187706000Y-71475600D01*
X187198000Y-71475600D01*
X187110941Y-71088727D01*
X186882460Y-70764619D01*
X186547340Y-70552618D01*
X186365975Y-70501796D01*
X186207400Y-70548839D01*
X186156600Y-70548839D01*
X185998025Y-70501796D01*
X185816660Y-70552618D01*
X185481540Y-70764619D01*
X185253059Y-71088727D01*
X185166000Y-71475600D01*
X184658000Y-71475600D01*
X184570941Y-71088727D01*
X184342460Y-70764619D01*
X184007340Y-70552618D01*
X183825975Y-70501796D01*
X183667400Y-70548839D01*
X183616600Y-70548839D01*
X183458025Y-70501796D01*
X183276660Y-70552618D01*
X182941540Y-70764619D01*
X182713059Y-71088727D01*
X182626000Y-71475600D01*
X182118000Y-71475600D01*
X182030941Y-71088727D01*
X181802460Y-70764619D01*
X181467340Y-70552618D01*
X181285975Y-70501796D01*
X181127400Y-70548839D01*
X181076600Y-70548839D01*
X180918025Y-70501796D01*
X180736660Y-70552618D01*
X180401540Y-70764619D01*
X180173059Y-71088727D01*
X180086000Y-71475600D01*
X179578000Y-71475600D01*
X179490941Y-71088727D01*
X179262460Y-70764619D01*
X178927340Y-70552618D01*
X178745975Y-70501796D01*
X178587400Y-70548839D01*
X178536600Y-70548839D01*
X178378025Y-70501796D01*
X178196660Y-70552618D01*
X177861540Y-70764619D01*
X177633059Y-71088727D01*
X177546000Y-71475600D01*
X177038000Y-71475600D01*
X176950941Y-71088727D01*
X176722460Y-70764619D01*
X176387340Y-70552618D01*
X176205975Y-70501796D01*
X176047400Y-70548839D01*
X175996600Y-70548839D01*
X175838025Y-70501796D01*
X175656660Y-70552618D01*
X175321540Y-70764619D01*
X175093059Y-71088727D01*
X175006000Y-71475600D01*
X174498000Y-71475600D01*
X174410941Y-71088727D01*
X174182460Y-70764619D01*
X173847340Y-70552618D01*
X173665975Y-70501796D01*
X173507400Y-70548839D01*
X173456600Y-70548839D01*
X173298025Y-70501796D01*
X173116660Y-70552618D01*
X172781540Y-70764619D01*
X172553059Y-71088727D01*
X172466000Y-71475600D01*
X171958000Y-71475600D01*
X171870941Y-71088727D01*
X171642460Y-70764619D01*
X171307340Y-70552618D01*
X171125975Y-70501796D01*
X170967400Y-70548839D01*
X170916600Y-70548839D01*
X170758025Y-70501796D01*
X170576660Y-70552618D01*
X170241540Y-70764619D01*
X170013059Y-71088727D01*
X169926000Y-71475600D01*
X161814292Y-71475600D01*
X161544000Y-71421836D01*
X161135753Y-71503041D01*
X160789658Y-71734294D01*
X160558405Y-72080389D01*
X160477200Y-72488636D01*
X160070800Y-72488636D01*
X159989595Y-72080389D01*
X159758342Y-71734294D01*
X159412247Y-71503041D01*
X159004000Y-71421836D01*
X158595753Y-71503041D01*
X158249658Y-71734294D01*
X158018405Y-72080389D01*
X157937200Y-72488636D01*
X157530800Y-72488636D01*
X157449595Y-72080389D01*
X157218342Y-71734294D01*
X156872247Y-71503041D01*
X156464000Y-71421836D01*
X156055753Y-71503041D01*
X155709658Y-71734294D01*
X155478405Y-72080389D01*
X155397200Y-72488636D01*
X154990800Y-72488636D01*
X154909595Y-72080389D01*
X154678342Y-71734294D01*
X154355800Y-71518779D01*
X154355800Y-70104000D01*
X154322931Y-69938757D01*
X154229329Y-69798671D01*
X151232658Y-66802000D01*
X152425400Y-66802000D01*
X152471803Y-67035284D01*
X152603948Y-67233052D01*
X152801716Y-67365197D01*
X153035000Y-67411600D01*
X161106557Y-67411600D01*
X161110730Y-67433777D01*
X161188610Y-67554807D01*
X161307442Y-67636001D01*
X161448500Y-67664566D01*
X162298500Y-67664566D01*
X162430277Y-67639770D01*
X162551307Y-67561890D01*
X162632501Y-67443058D01*
X162648969Y-67361737D01*
X162658982Y-67414952D01*
X162725737Y-67518692D01*
X162827593Y-67588287D01*
X162948500Y-67612771D01*
X163798500Y-67612771D01*
X163911452Y-67591518D01*
X164015192Y-67524763D01*
X164084787Y-67422907D01*
X164109271Y-67302000D01*
X164109271Y-67233800D01*
X164667142Y-67233800D01*
X166826671Y-69393329D01*
X166966757Y-69486931D01*
X167132000Y-69519800D01*
X169930186Y-69519800D01*
X169956405Y-69651611D01*
X170187658Y-69997706D01*
X170533753Y-70228959D01*
X170942000Y-70310164D01*
X171350247Y-70228959D01*
X171696342Y-69997706D01*
X171927595Y-69651611D01*
X172008800Y-69243364D01*
X172008800Y-68424636D01*
X172415200Y-68424636D01*
X172415200Y-69243364D01*
X172496405Y-69651611D01*
X172727658Y-69997706D01*
X173073753Y-70228959D01*
X173482000Y-70310164D01*
X173890247Y-70228959D01*
X174236342Y-69997706D01*
X174467595Y-69651611D01*
X174548800Y-69243364D01*
X174548800Y-68424636D01*
X174955200Y-68424636D01*
X174955200Y-69243364D01*
X175036405Y-69651611D01*
X175267658Y-69997706D01*
X175613753Y-70228959D01*
X176022000Y-70310164D01*
X176430247Y-70228959D01*
X176776342Y-69997706D01*
X177007595Y-69651611D01*
X177088800Y-69243364D01*
X177088800Y-68424636D01*
X177495200Y-68424636D01*
X177495200Y-69243364D01*
X177576405Y-69651611D01*
X177807658Y-69997706D01*
X178153753Y-70228959D01*
X178562000Y-70310164D01*
X178970247Y-70228959D01*
X179316342Y-69997706D01*
X179547595Y-69651611D01*
X179628800Y-69243364D01*
X179628800Y-68424636D01*
X180035200Y-68424636D01*
X180035200Y-69243364D01*
X180116405Y-69651611D01*
X180347658Y-69997706D01*
X180693753Y-70228959D01*
X181102000Y-70310164D01*
X181510247Y-70228959D01*
X181856342Y-69997706D01*
X182087595Y-69651611D01*
X182168800Y-69243364D01*
X182168800Y-68424636D01*
X182575200Y-68424636D01*
X182575200Y-69243364D01*
X182656405Y-69651611D01*
X182887658Y-69997706D01*
X183233753Y-70228959D01*
X183642000Y-70310164D01*
X184050247Y-70228959D01*
X184396342Y-69997706D01*
X184627595Y-69651611D01*
X184708800Y-69243364D01*
X184708800Y-68424636D01*
X185115200Y-68424636D01*
X185115200Y-69243364D01*
X185196405Y-69651611D01*
X185427658Y-69997706D01*
X185773753Y-70228959D01*
X186182000Y-70310164D01*
X186590247Y-70228959D01*
X186936342Y-69997706D01*
X187167595Y-69651611D01*
X187248800Y-69243364D01*
X187248800Y-68424636D01*
X187655200Y-68424636D01*
X187655200Y-69243364D01*
X187736405Y-69651611D01*
X187967658Y-69997706D01*
X188313753Y-70228959D01*
X188722000Y-70310164D01*
X189130247Y-70228959D01*
X189476342Y-69997706D01*
X189707595Y-69651611D01*
X189788800Y-69243364D01*
X189788800Y-68424636D01*
X190195200Y-68424636D01*
X190195200Y-69243364D01*
X190276405Y-69651611D01*
X190507658Y-69997706D01*
X190853753Y-70228959D01*
X191262000Y-70310164D01*
X191670247Y-70228959D01*
X192016342Y-69997706D01*
X192247595Y-69651611D01*
X192328800Y-69243364D01*
X192328800Y-68424636D01*
X192247595Y-68016389D01*
X192030178Y-67691000D01*
X192729229Y-67691000D01*
X192729229Y-69977000D01*
X192750482Y-70089952D01*
X192817237Y-70193692D01*
X192919093Y-70263287D01*
X193040000Y-70287771D01*
X194564000Y-70287771D01*
X194676952Y-70266518D01*
X194780692Y-70199763D01*
X194850287Y-70097907D01*
X194874771Y-69977000D01*
X194874771Y-67691000D01*
X194853518Y-67578048D01*
X194786763Y-67474308D01*
X194684907Y-67404713D01*
X194564000Y-67380229D01*
X193040000Y-67380229D01*
X192927048Y-67401482D01*
X192823308Y-67468237D01*
X192753713Y-67570093D01*
X192729229Y-67691000D01*
X192030178Y-67691000D01*
X192016342Y-67670294D01*
X191670247Y-67439041D01*
X191262000Y-67357836D01*
X190853753Y-67439041D01*
X190507658Y-67670294D01*
X190276405Y-68016389D01*
X190195200Y-68424636D01*
X189788800Y-68424636D01*
X189707595Y-68016389D01*
X189476342Y-67670294D01*
X189130247Y-67439041D01*
X188722000Y-67357836D01*
X188313753Y-67439041D01*
X187967658Y-67670294D01*
X187736405Y-68016389D01*
X187655200Y-68424636D01*
X187248800Y-68424636D01*
X187167595Y-68016389D01*
X186936342Y-67670294D01*
X186590247Y-67439041D01*
X186182000Y-67357836D01*
X185773753Y-67439041D01*
X185427658Y-67670294D01*
X185196405Y-68016389D01*
X185115200Y-68424636D01*
X184708800Y-68424636D01*
X184627595Y-68016389D01*
X184396342Y-67670294D01*
X184050247Y-67439041D01*
X183642000Y-67357836D01*
X183233753Y-67439041D01*
X182887658Y-67670294D01*
X182656405Y-68016389D01*
X182575200Y-68424636D01*
X182168800Y-68424636D01*
X182087595Y-68016389D01*
X181856342Y-67670294D01*
X181510247Y-67439041D01*
X181102000Y-67357836D01*
X180693753Y-67439041D01*
X180347658Y-67670294D01*
X180116405Y-68016389D01*
X180035200Y-68424636D01*
X179628800Y-68424636D01*
X179547595Y-68016389D01*
X179316342Y-67670294D01*
X178970247Y-67439041D01*
X178562000Y-67357836D01*
X178153753Y-67439041D01*
X177807658Y-67670294D01*
X177576405Y-68016389D01*
X177495200Y-68424636D01*
X177088800Y-68424636D01*
X177007595Y-68016389D01*
X176776342Y-67670294D01*
X176430247Y-67439041D01*
X176022000Y-67357836D01*
X175613753Y-67439041D01*
X175267658Y-67670294D01*
X175036405Y-68016389D01*
X174955200Y-68424636D01*
X174548800Y-68424636D01*
X174467595Y-68016389D01*
X174236342Y-67670294D01*
X173890247Y-67439041D01*
X173482000Y-67357836D01*
X173073753Y-67439041D01*
X172727658Y-67670294D01*
X172496405Y-68016389D01*
X172415200Y-68424636D01*
X172008800Y-68424636D01*
X171927595Y-68016389D01*
X171696342Y-67670294D01*
X171350247Y-67439041D01*
X170942000Y-67357836D01*
X170533753Y-67439041D01*
X170187658Y-67670294D01*
X169956405Y-68016389D01*
X169875200Y-68424636D01*
X169875200Y-68656200D01*
X167310858Y-68656200D01*
X165151329Y-66496671D01*
X165011243Y-66403069D01*
X164846000Y-66370200D01*
X164109271Y-66370200D01*
X164109271Y-66302000D01*
X164088018Y-66189048D01*
X164021263Y-66085308D01*
X163919407Y-66015713D01*
X163798500Y-65991229D01*
X162948500Y-65991229D01*
X162835548Y-66012482D01*
X162731808Y-66079237D01*
X162662213Y-66181093D01*
X162649826Y-66242264D01*
X162636270Y-66170223D01*
X162558390Y-66049193D01*
X162439558Y-65967999D01*
X162298500Y-65939434D01*
X161448500Y-65939434D01*
X161316723Y-65964230D01*
X161195693Y-66042110D01*
X161114499Y-66160942D01*
X161108129Y-66192400D01*
X153035000Y-66192400D01*
X152801716Y-66238803D01*
X152603948Y-66370948D01*
X152471803Y-66568716D01*
X152425400Y-66802000D01*
X151232658Y-66802000D01*
X145783300Y-61352642D01*
X145783300Y-58535358D01*
X148045307Y-56273351D01*
X148229435Y-56349807D01*
X148441634Y-56349992D01*
X148637752Y-56268958D01*
X148787931Y-56119041D01*
X148869307Y-55923065D01*
X148869492Y-55710866D01*
X148788458Y-55514748D01*
X148638541Y-55364569D01*
X148442565Y-55283193D01*
X148230366Y-55283008D01*
X148034248Y-55364042D01*
X148013554Y-55384700D01*
X147891500Y-55384700D01*
X147726257Y-55417569D01*
X147586171Y-55511171D01*
X147586169Y-55511174D01*
X145046171Y-58051171D01*
X144952569Y-58191257D01*
X144919700Y-58356500D01*
X144919700Y-61163200D01*
X136691800Y-61163200D01*
X136691800Y-58482858D01*
X137211329Y-57963329D01*
X137276868Y-57865242D01*
X137304931Y-57823243D01*
X137337800Y-57658000D01*
X137337800Y-48873634D01*
X139166508Y-48873634D01*
X139247542Y-49069752D01*
X139397459Y-49219931D01*
X139593435Y-49301307D01*
X139622675Y-49301332D01*
X140340434Y-50019091D01*
X140160248Y-50093542D01*
X140010069Y-50243459D01*
X139928693Y-50439435D01*
X139928508Y-50651634D01*
X140009542Y-50847752D01*
X140159459Y-50997931D01*
X140355435Y-51079307D01*
X140397007Y-51079343D01*
X140499959Y-51148133D01*
X140665202Y-51181002D01*
X140850663Y-51181002D01*
X140772069Y-51259459D01*
X140690693Y-51455435D01*
X140690508Y-51667634D01*
X140771542Y-51863752D01*
X140921459Y-52013931D01*
X141117435Y-52095307D01*
X141329634Y-52095492D01*
X141525752Y-52014458D01*
X141675931Y-51864541D01*
X141727728Y-51739800D01*
X157226000Y-51739800D01*
X157391243Y-51706931D01*
X157494667Y-51637826D01*
X157535542Y-51736752D01*
X157685459Y-51886931D01*
X157732371Y-51906411D01*
X157708693Y-51963435D01*
X157708508Y-52175634D01*
X157789542Y-52371752D01*
X157817940Y-52400200D01*
X148082000Y-52400200D01*
X147916757Y-52433069D01*
X147813892Y-52501801D01*
X147776671Y-52526671D01*
X145871142Y-54432200D01*
X145446771Y-54432200D01*
X145446771Y-54064000D01*
X145425518Y-53951048D01*
X145358763Y-53847308D01*
X145256907Y-53777713D01*
X145136000Y-53753229D01*
X142946000Y-53753229D01*
X142833048Y-53774482D01*
X142729308Y-53841237D01*
X142659713Y-53943093D01*
X142635229Y-54064000D01*
X142635229Y-55664000D01*
X142656482Y-55776952D01*
X142723237Y-55880692D01*
X142825093Y-55950287D01*
X142946000Y-55974771D01*
X145136000Y-55974771D01*
X145248952Y-55953518D01*
X145352692Y-55886763D01*
X145422287Y-55784907D01*
X145446771Y-55664000D01*
X145446771Y-55295800D01*
X146050000Y-55295800D01*
X146215243Y-55262931D01*
X146355329Y-55169329D01*
X148260858Y-53263800D01*
X151213776Y-53263800D01*
X151186069Y-53291459D01*
X151104693Y-53487435D01*
X151104508Y-53699634D01*
X151185542Y-53895752D01*
X151335459Y-54045931D01*
X151531435Y-54127307D01*
X151560675Y-54127332D01*
X151714200Y-54280857D01*
X151714200Y-57658000D01*
X151747069Y-57823243D01*
X151775132Y-57865242D01*
X151840671Y-57963329D01*
X154126671Y-60249329D01*
X154266757Y-60342931D01*
X154432000Y-60375800D01*
X160103776Y-60375800D01*
X160076069Y-60403459D01*
X159994693Y-60599435D01*
X159994508Y-60811634D01*
X160075542Y-61007752D01*
X160225459Y-61157931D01*
X160421435Y-61239307D01*
X160633634Y-61239492D01*
X160829752Y-61158458D01*
X160979931Y-61008541D01*
X161031728Y-60883800D01*
X175518326Y-60883800D01*
X175569542Y-61007752D01*
X175719459Y-61157931D01*
X175915435Y-61239307D01*
X176127634Y-61239492D01*
X176323752Y-61158458D01*
X176473931Y-61008541D01*
X176555307Y-60812565D01*
X176555492Y-60600366D01*
X176474458Y-60404248D01*
X176446060Y-60375800D01*
X182701142Y-60375800D01*
X183082669Y-60757326D01*
X183082671Y-60757329D01*
X183222757Y-60850931D01*
X183388000Y-60883800D01*
X188399363Y-60883800D01*
X188419459Y-60903931D01*
X188615435Y-60985307D01*
X188827634Y-60985492D01*
X189023752Y-60904458D01*
X189044446Y-60883800D01*
X223038000Y-60883800D01*
X223203243Y-60850931D01*
X223343329Y-60757329D01*
X225341619Y-58759039D01*
X225380636Y-58766800D01*
X226199364Y-58766800D01*
X226607611Y-58685595D01*
X226953706Y-58454342D01*
X227184959Y-58108247D01*
X227266164Y-57700000D01*
X227184959Y-57291753D01*
X226953706Y-56945658D01*
X226607611Y-56714405D01*
X226199364Y-56633200D01*
X225380636Y-56633200D01*
X224972389Y-56714405D01*
X224626294Y-56945658D01*
X224395041Y-57291753D01*
X224313836Y-57700000D01*
X224395041Y-58108247D01*
X224545667Y-58333675D01*
X222859142Y-60020200D01*
X216561458Y-60020200D01*
X221421658Y-55160000D01*
X224313836Y-55160000D01*
X224395041Y-55568247D01*
X224626294Y-55914342D01*
X224972389Y-56145595D01*
X225380636Y-56226800D01*
X226199364Y-56226800D01*
X226607611Y-56145595D01*
X226953706Y-55914342D01*
X227184959Y-55568247D01*
X227266164Y-55160000D01*
X227184959Y-54751753D01*
X226953706Y-54405658D01*
X226607611Y-54174405D01*
X226199364Y-54093200D01*
X225380636Y-54093200D01*
X224972389Y-54174405D01*
X224626294Y-54405658D01*
X224395041Y-54751753D01*
X224313836Y-55160000D01*
X221421658Y-55160000D01*
X223529858Y-53051800D01*
X224410779Y-53051800D01*
X224626294Y-53374342D01*
X224972389Y-53605595D01*
X225380636Y-53686800D01*
X226199364Y-53686800D01*
X226607611Y-53605595D01*
X226953706Y-53374342D01*
X227184959Y-53028247D01*
X227266164Y-52620000D01*
X227184959Y-52211753D01*
X226953706Y-51865658D01*
X226607611Y-51634405D01*
X226199364Y-51553200D01*
X225380636Y-51553200D01*
X224972389Y-51634405D01*
X224626294Y-51865658D01*
X224410779Y-52188200D01*
X223351000Y-52188200D01*
X223185757Y-52221069D01*
X223069861Y-52298508D01*
X223045671Y-52314671D01*
X215975142Y-59385200D01*
X215418458Y-59385200D01*
X224291858Y-50511800D01*
X224336229Y-50511800D01*
X224336229Y-50842000D01*
X224357482Y-50954952D01*
X224424237Y-51058692D01*
X224526093Y-51128287D01*
X224647000Y-51152771D01*
X226933000Y-51152771D01*
X227045952Y-51131518D01*
X227149692Y-51064763D01*
X227219287Y-50962907D01*
X227243771Y-50842000D01*
X227243771Y-49318000D01*
X227222518Y-49205048D01*
X227155763Y-49101308D01*
X227053907Y-49031713D01*
X226933000Y-49007229D01*
X224647000Y-49007229D01*
X224534048Y-49028482D01*
X224430308Y-49095237D01*
X224360713Y-49197093D01*
X224336229Y-49318000D01*
X224336229Y-49648200D01*
X224113005Y-49648200D01*
X224113000Y-49648199D01*
X223975174Y-49675615D01*
X223947757Y-49681069D01*
X223807671Y-49774671D01*
X214832142Y-58750200D01*
X186504637Y-58750200D01*
X186484541Y-58730069D01*
X186288565Y-58648693D01*
X186259326Y-58648668D01*
X186233329Y-58622671D01*
X186213361Y-58609329D01*
X186093243Y-58529069D01*
X185928000Y-58496200D01*
X157150858Y-58496200D01*
X157149800Y-58495142D01*
X157149800Y-56456637D01*
X157169931Y-56436541D01*
X157251307Y-56240565D01*
X157251492Y-56028366D01*
X157170458Y-55832248D01*
X157020541Y-55682069D01*
X156824565Y-55600693D01*
X156612366Y-55600508D01*
X156416248Y-55681542D01*
X156266069Y-55831459D01*
X156184693Y-56027435D01*
X156184508Y-56239634D01*
X156265542Y-56435752D01*
X156286200Y-56456446D01*
X156286200Y-58674000D01*
X156319069Y-58839243D01*
X156346468Y-58880248D01*
X156412671Y-58979329D01*
X156437542Y-59004200D01*
X154864858Y-59004200D01*
X153085800Y-57225142D01*
X153085800Y-53916637D01*
X153105931Y-53896541D01*
X153187307Y-53700565D01*
X153187492Y-53488366D01*
X153106458Y-53292248D01*
X153078060Y-53263800D01*
X158935363Y-53263800D01*
X158955459Y-53283931D01*
X159151435Y-53365307D01*
X159180674Y-53365332D01*
X159588200Y-53772858D01*
X159588200Y-57081363D01*
X159568069Y-57101459D01*
X159486693Y-57297435D01*
X159486508Y-57509634D01*
X159567542Y-57705752D01*
X159717459Y-57855931D01*
X159913435Y-57937307D01*
X160125634Y-57937492D01*
X160321752Y-57856458D01*
X160471931Y-57706541D01*
X160553307Y-57510565D01*
X160553492Y-57298366D01*
X160472458Y-57102248D01*
X160451800Y-57081554D01*
X160451800Y-56414458D01*
X160984671Y-56947329D01*
X161124757Y-57040931D01*
X161290000Y-57073800D01*
X176969363Y-57073800D01*
X176989459Y-57093931D01*
X177185435Y-57175307D01*
X177397634Y-57175492D01*
X177593752Y-57094458D01*
X177743931Y-56944541D01*
X177825307Y-56748565D01*
X177825492Y-56536366D01*
X177744458Y-56340248D01*
X177594541Y-56190069D01*
X177581852Y-56184800D01*
X189732863Y-56184800D01*
X189752959Y-56204931D01*
X189948935Y-56286307D01*
X190161134Y-56286492D01*
X190357252Y-56205458D01*
X190507431Y-56055541D01*
X190588807Y-55859565D01*
X190588992Y-55647366D01*
X190507958Y-55451248D01*
X190358041Y-55301069D01*
X190162065Y-55219693D01*
X189949866Y-55219508D01*
X189753748Y-55300542D01*
X189733054Y-55321200D01*
X174520313Y-55321200D01*
X174586807Y-55161065D01*
X174586992Y-54948866D01*
X174505958Y-54752748D01*
X174356041Y-54602569D01*
X174160065Y-54521193D01*
X174130825Y-54521168D01*
X173330829Y-53721171D01*
X173279389Y-53686800D01*
X173190743Y-53627569D01*
X173025500Y-53594700D01*
X168997271Y-53594700D01*
X168997271Y-53576500D01*
X168976018Y-53463548D01*
X168909263Y-53359808D01*
X168807407Y-53290213D01*
X168686500Y-53265729D01*
X167736500Y-53265729D01*
X167623548Y-53286982D01*
X167519808Y-53353737D01*
X167450213Y-53455593D01*
X167425729Y-53576500D01*
X167425729Y-53594700D01*
X166045547Y-53594700D01*
X165974041Y-53523069D01*
X165778065Y-53441693D01*
X165565866Y-53441508D01*
X165369748Y-53522542D01*
X165219569Y-53672459D01*
X165138193Y-53868435D01*
X165138008Y-54080634D01*
X165219042Y-54276752D01*
X165368959Y-54426931D01*
X165564935Y-54508307D01*
X165777134Y-54508492D01*
X165898608Y-54458300D01*
X167425729Y-54458300D01*
X167425729Y-54476500D01*
X167446982Y-54589452D01*
X167513737Y-54693192D01*
X167615593Y-54762787D01*
X167736500Y-54787271D01*
X168686500Y-54787271D01*
X168799452Y-54766018D01*
X168903192Y-54699263D01*
X168972787Y-54597407D01*
X168997271Y-54476500D01*
X168997271Y-54458300D01*
X172846642Y-54458300D01*
X173520033Y-55131690D01*
X173520008Y-55160134D01*
X173586559Y-55321200D01*
X164072358Y-55321200D01*
X161366558Y-52615400D01*
X167482500Y-52615400D01*
X167482500Y-53027024D01*
X167521169Y-53120380D01*
X167592621Y-53191831D01*
X167685976Y-53230500D01*
X168122600Y-53230500D01*
X168186100Y-53167000D01*
X168186100Y-52551900D01*
X168236900Y-52551900D01*
X168236900Y-53167000D01*
X168300400Y-53230500D01*
X168737024Y-53230500D01*
X168830379Y-53191831D01*
X168901831Y-53120380D01*
X168940500Y-53027024D01*
X168940500Y-52615400D01*
X168877000Y-52551900D01*
X168236900Y-52551900D01*
X168186100Y-52551900D01*
X167546000Y-52551900D01*
X167482500Y-52615400D01*
X161366558Y-52615400D01*
X159982958Y-51231800D01*
X160031642Y-51231800D01*
X160413169Y-51613326D01*
X160413171Y-51613329D01*
X160553257Y-51706931D01*
X160718500Y-51739800D01*
X164921142Y-51739800D01*
X165328533Y-52147191D01*
X165328508Y-52175634D01*
X165409542Y-52371752D01*
X165559459Y-52521931D01*
X165755435Y-52603307D01*
X165967634Y-52603492D01*
X166163752Y-52522458D01*
X166313931Y-52372541D01*
X166395307Y-52176565D01*
X166395438Y-52025976D01*
X167482500Y-52025976D01*
X167482500Y-52437600D01*
X167546000Y-52501100D01*
X168186100Y-52501100D01*
X168186100Y-51886000D01*
X168236900Y-51886000D01*
X168236900Y-52501100D01*
X168877000Y-52501100D01*
X168940500Y-52437600D01*
X168940500Y-52025976D01*
X168901831Y-51932620D01*
X168830379Y-51861169D01*
X168737024Y-51822500D01*
X168300400Y-51822500D01*
X168236900Y-51886000D01*
X168186100Y-51886000D01*
X168122600Y-51822500D01*
X167685976Y-51822500D01*
X167592621Y-51861169D01*
X167521169Y-51932620D01*
X167482500Y-52025976D01*
X166395438Y-52025976D01*
X166395492Y-51964366D01*
X166326772Y-51798050D01*
X166417752Y-51760458D01*
X166567931Y-51610541D01*
X166649307Y-51414565D01*
X166649492Y-51202366D01*
X166580772Y-51036050D01*
X166671752Y-50998458D01*
X166821931Y-50848541D01*
X166903307Y-50652565D01*
X166903492Y-50440366D01*
X166822458Y-50244248D01*
X166672541Y-50094069D01*
X166476565Y-50012693D01*
X166447326Y-50012668D01*
X166421329Y-49986671D01*
X166414235Y-49981931D01*
X166281243Y-49893069D01*
X166116000Y-49860200D01*
X161341857Y-49860200D01*
X160960329Y-49478671D01*
X160879055Y-49424366D01*
X160820243Y-49385069D01*
X160655000Y-49352200D01*
X157353000Y-49352200D01*
X157231648Y-49376339D01*
X157170458Y-49228248D01*
X157020541Y-49078069D01*
X156824565Y-48996693D01*
X156612366Y-48996508D01*
X156416248Y-49077542D01*
X156266069Y-49227459D01*
X156214272Y-49352200D01*
X146228858Y-49352200D01*
X144472800Y-47596142D01*
X144472800Y-46939900D01*
X149258000Y-46939900D01*
X149258000Y-47351524D01*
X149296669Y-47444880D01*
X149368121Y-47516331D01*
X149461476Y-47555000D01*
X149898100Y-47555000D01*
X149961600Y-47491500D01*
X149961600Y-46876400D01*
X150012400Y-46876400D01*
X150012400Y-47491500D01*
X150075900Y-47555000D01*
X150512524Y-47555000D01*
X150605879Y-47516331D01*
X150677331Y-47444880D01*
X150716000Y-47351524D01*
X150716000Y-47089900D01*
X151040000Y-47089900D01*
X151040000Y-47626524D01*
X151078669Y-47719880D01*
X151150121Y-47791331D01*
X151243476Y-47830000D01*
X151930100Y-47830000D01*
X151993600Y-47766500D01*
X151993600Y-47026400D01*
X152044400Y-47026400D01*
X152044400Y-47766500D01*
X152107900Y-47830000D01*
X152794524Y-47830000D01*
X152887879Y-47791331D01*
X152959331Y-47719880D01*
X152998000Y-47626524D01*
X152998000Y-47089900D01*
X152934500Y-47026400D01*
X152044400Y-47026400D01*
X151993600Y-47026400D01*
X151103500Y-47026400D01*
X151040000Y-47089900D01*
X150716000Y-47089900D01*
X150716000Y-46939900D01*
X150652500Y-46876400D01*
X150012400Y-46876400D01*
X149961600Y-46876400D01*
X149321500Y-46876400D01*
X149258000Y-46939900D01*
X144472800Y-46939900D01*
X144472800Y-46350476D01*
X149258000Y-46350476D01*
X149258000Y-46762100D01*
X149321500Y-46825600D01*
X149961600Y-46825600D01*
X149961600Y-46210500D01*
X150012400Y-46210500D01*
X150012400Y-46825600D01*
X150652500Y-46825600D01*
X150716000Y-46762100D01*
X150716000Y-46375476D01*
X151040000Y-46375476D01*
X151040000Y-46912100D01*
X151103500Y-46975600D01*
X151993600Y-46975600D01*
X151993600Y-46235500D01*
X152044400Y-46235500D01*
X152044400Y-46975600D01*
X152934500Y-46975600D01*
X152998000Y-46912100D01*
X152998000Y-46375476D01*
X152959331Y-46282120D01*
X152887879Y-46210669D01*
X152794524Y-46172000D01*
X152107900Y-46172000D01*
X152044400Y-46235500D01*
X151993600Y-46235500D01*
X151930100Y-46172000D01*
X151243476Y-46172000D01*
X151150121Y-46210669D01*
X151078669Y-46282120D01*
X151040000Y-46375476D01*
X150716000Y-46375476D01*
X150716000Y-46350476D01*
X150677331Y-46257120D01*
X150605879Y-46185669D01*
X150512524Y-46147000D01*
X150075900Y-46147000D01*
X150012400Y-46210500D01*
X149961600Y-46210500D01*
X149898100Y-46147000D01*
X149461476Y-46147000D01*
X149368121Y-46185669D01*
X149296669Y-46257120D01*
X149258000Y-46350476D01*
X144472800Y-46350476D01*
X144472800Y-43782771D01*
X145136000Y-43782771D01*
X145248952Y-43761518D01*
X145352692Y-43694763D01*
X145422287Y-43592907D01*
X145446771Y-43472000D01*
X145446771Y-41872000D01*
X145425518Y-41759048D01*
X145358763Y-41655308D01*
X145256907Y-41585713D01*
X145136000Y-41561229D01*
X142946000Y-41561229D01*
X142833048Y-41582482D01*
X142729308Y-41649237D01*
X142659713Y-41751093D01*
X142635229Y-41872000D01*
X142635229Y-43472000D01*
X142656482Y-43584952D01*
X142723237Y-43688692D01*
X142825093Y-43758287D01*
X142946000Y-43782771D01*
X143609200Y-43782771D01*
X143609200Y-46177200D01*
X143344771Y-46177200D01*
X143344771Y-46109000D01*
X143323518Y-45996048D01*
X143256763Y-45892308D01*
X143154907Y-45822713D01*
X143034000Y-45798229D01*
X142184000Y-45798229D01*
X142071048Y-45819482D01*
X141967308Y-45886237D01*
X141897713Y-45988093D01*
X141873229Y-46109000D01*
X141873229Y-47109000D01*
X141894482Y-47221952D01*
X141961237Y-47325692D01*
X142063093Y-47395287D01*
X142184000Y-47419771D01*
X143034000Y-47419771D01*
X143146952Y-47398518D01*
X143250692Y-47331763D01*
X143320287Y-47229907D01*
X143344771Y-47109000D01*
X143344771Y-47040800D01*
X143609200Y-47040800D01*
X143609200Y-47775000D01*
X143642069Y-47940243D01*
X143708056Y-48039000D01*
X143735671Y-48080329D01*
X145515542Y-49860200D01*
X141402857Y-49860200D01*
X140233467Y-48690809D01*
X140233492Y-48662366D01*
X140152458Y-48466248D01*
X140002541Y-48316069D01*
X139806565Y-48234693D01*
X139594366Y-48234508D01*
X139398248Y-48315542D01*
X139248069Y-48465459D01*
X139166693Y-48661435D01*
X139166508Y-48873634D01*
X137337800Y-48873634D01*
X137337800Y-47244005D01*
X137337801Y-47244000D01*
X137304931Y-47078758D01*
X137304931Y-47078757D01*
X137211329Y-46938671D01*
X136970558Y-46697900D01*
X140430000Y-46697900D01*
X140430000Y-47159524D01*
X140468669Y-47252879D01*
X140540120Y-47324331D01*
X140633476Y-47363000D01*
X141020100Y-47363000D01*
X141083600Y-47299500D01*
X141083600Y-46634400D01*
X141134400Y-46634400D01*
X141134400Y-47299500D01*
X141197900Y-47363000D01*
X141584524Y-47363000D01*
X141677880Y-47324331D01*
X141749331Y-47252879D01*
X141788000Y-47159524D01*
X141788000Y-46697900D01*
X141724500Y-46634400D01*
X141134400Y-46634400D01*
X141083600Y-46634400D01*
X140493500Y-46634400D01*
X140430000Y-46697900D01*
X136970558Y-46697900D01*
X136331134Y-46058476D01*
X140430000Y-46058476D01*
X140430000Y-46520100D01*
X140493500Y-46583600D01*
X141083600Y-46583600D01*
X141083600Y-45918500D01*
X141134400Y-45918500D01*
X141134400Y-46583600D01*
X141724500Y-46583600D01*
X141788000Y-46520100D01*
X141788000Y-46058476D01*
X141749331Y-45965121D01*
X141677880Y-45893669D01*
X141584524Y-45855000D01*
X141197900Y-45855000D01*
X141134400Y-45918500D01*
X141083600Y-45918500D01*
X141020100Y-45855000D01*
X140633476Y-45855000D01*
X140540120Y-45893669D01*
X140468669Y-45965121D01*
X140430000Y-46058476D01*
X136331134Y-46058476D01*
X135282800Y-45010142D01*
X135282800Y-43782771D01*
X135946000Y-43782771D01*
X136058952Y-43761518D01*
X136162692Y-43694763D01*
X136232287Y-43592907D01*
X136256771Y-43472000D01*
X136256771Y-43103800D01*
X140462000Y-43103800D01*
X140627243Y-43070931D01*
X140767329Y-42977329D01*
X142672858Y-41071800D01*
X147776142Y-41071800D01*
X149555200Y-42850858D01*
X149555200Y-44590229D01*
X149512000Y-44590229D01*
X149399048Y-44611482D01*
X149295308Y-44678237D01*
X149225713Y-44780093D01*
X149201229Y-44901000D01*
X149201229Y-45801000D01*
X149222482Y-45913952D01*
X149289237Y-46017692D01*
X149391093Y-46087287D01*
X149512000Y-46111771D01*
X150462000Y-46111771D01*
X150574952Y-46090518D01*
X150678692Y-46023763D01*
X150748287Y-45921907D01*
X150772771Y-45801000D01*
X150772771Y-45782800D01*
X150984508Y-45782800D01*
X151004482Y-45888952D01*
X151071237Y-45992692D01*
X151173093Y-46062287D01*
X151294000Y-46086771D01*
X152744000Y-46086771D01*
X152856952Y-46065518D01*
X152960692Y-45998763D01*
X153030287Y-45896907D01*
X153054771Y-45776000D01*
X153054771Y-45632800D01*
X153226142Y-45632800D01*
X154025533Y-46432190D01*
X154025508Y-46460634D01*
X154106542Y-46656752D01*
X154256459Y-46806931D01*
X154452435Y-46888307D01*
X154664634Y-46888492D01*
X154860752Y-46807458D01*
X154881446Y-46786800D01*
X158444142Y-46786800D01*
X159486533Y-47829190D01*
X159486508Y-47857634D01*
X159567542Y-48053752D01*
X159588200Y-48074446D01*
X159588200Y-48260000D01*
X159621069Y-48425243D01*
X159648468Y-48466248D01*
X159714671Y-48565329D01*
X159968671Y-48819329D01*
X160108757Y-48912931D01*
X160274000Y-48945800D01*
X160795229Y-48945800D01*
X160795229Y-48989000D01*
X160816482Y-49101952D01*
X160883237Y-49205692D01*
X160985093Y-49275287D01*
X161106000Y-49299771D01*
X162006000Y-49299771D01*
X162118952Y-49278518D01*
X162222692Y-49211763D01*
X162292287Y-49109907D01*
X162316771Y-48989000D01*
X162316771Y-48602900D01*
X162352000Y-48602900D01*
X162352000Y-49039524D01*
X162390669Y-49132879D01*
X162462120Y-49204331D01*
X162555476Y-49243000D01*
X162967100Y-49243000D01*
X163030600Y-49179500D01*
X163030600Y-48539400D01*
X163081400Y-48539400D01*
X163081400Y-49179500D01*
X163144900Y-49243000D01*
X163556524Y-49243000D01*
X163649880Y-49204331D01*
X163721331Y-49132879D01*
X163760000Y-49039524D01*
X163760000Y-48602900D01*
X163696500Y-48539400D01*
X163081400Y-48539400D01*
X163030600Y-48539400D01*
X162415500Y-48539400D01*
X162352000Y-48602900D01*
X162316771Y-48602900D01*
X162316771Y-48039000D01*
X162307265Y-47988476D01*
X162352000Y-47988476D01*
X162352000Y-48425100D01*
X162415500Y-48488600D01*
X163030600Y-48488600D01*
X163030600Y-47848500D01*
X163081400Y-47848500D01*
X163081400Y-48488600D01*
X163696500Y-48488600D01*
X163760000Y-48425100D01*
X163760000Y-47988476D01*
X163721331Y-47895121D01*
X163649880Y-47823669D01*
X163556524Y-47785000D01*
X163144900Y-47785000D01*
X163081400Y-47848500D01*
X163030600Y-47848500D01*
X162967100Y-47785000D01*
X162555476Y-47785000D01*
X162462120Y-47823669D01*
X162390669Y-47895121D01*
X162352000Y-47988476D01*
X162307265Y-47988476D01*
X162295518Y-47926048D01*
X162228763Y-47822308D01*
X162126907Y-47752713D01*
X162006000Y-47728229D01*
X161106000Y-47728229D01*
X160993048Y-47749482D01*
X160889308Y-47816237D01*
X160819713Y-47918093D01*
X160795229Y-48039000D01*
X160795229Y-48082200D01*
X160452858Y-48082200D01*
X160451800Y-48081142D01*
X160451800Y-48074637D01*
X160471931Y-48054541D01*
X160553307Y-47858565D01*
X160553492Y-47646366D01*
X160472458Y-47450248D01*
X160322541Y-47300069D01*
X160126565Y-47218693D01*
X160097325Y-47218668D01*
X158928329Y-46049671D01*
X158898992Y-46030069D01*
X158788243Y-45956069D01*
X158623000Y-45923200D01*
X154881637Y-45923200D01*
X154861541Y-45903069D01*
X154665565Y-45821693D01*
X154636325Y-45821668D01*
X153710329Y-44895671D01*
X153645518Y-44852366D01*
X153570243Y-44802069D01*
X153405000Y-44769200D01*
X153054771Y-44769200D01*
X153054771Y-44626000D01*
X153033518Y-44513048D01*
X152966763Y-44409308D01*
X152864907Y-44339713D01*
X152744000Y-44315229D01*
X151294000Y-44315229D01*
X151181048Y-44336482D01*
X151077308Y-44403237D01*
X151007713Y-44505093D01*
X150983229Y-44626000D01*
X150983229Y-44919200D01*
X150772771Y-44919200D01*
X150772771Y-44901000D01*
X150751518Y-44788048D01*
X150684763Y-44684308D01*
X150582907Y-44614713D01*
X150462000Y-44590229D01*
X150418800Y-44590229D01*
X150418800Y-43607000D01*
X156376729Y-43607000D01*
X156376729Y-44507000D01*
X156397982Y-44619952D01*
X156464737Y-44723692D01*
X156566593Y-44793287D01*
X156687500Y-44817771D01*
X157637500Y-44817771D01*
X157750452Y-44796518D01*
X157854192Y-44729763D01*
X157923787Y-44627907D01*
X157948271Y-44507000D01*
X157948271Y-44488800D01*
X158535729Y-44488800D01*
X158535729Y-44507000D01*
X158556982Y-44619952D01*
X158623737Y-44723692D01*
X158725593Y-44793287D01*
X158846500Y-44817771D01*
X158930606Y-44817771D01*
X158998378Y-44919200D01*
X159016171Y-44945829D01*
X159169033Y-45098690D01*
X159169008Y-45127134D01*
X159250042Y-45323252D01*
X159399959Y-45473431D01*
X159595935Y-45554807D01*
X159808134Y-45554992D01*
X160004252Y-45473958D01*
X160154431Y-45324041D01*
X160224595Y-45155066D01*
X160225459Y-45155931D01*
X160421435Y-45237307D01*
X160633634Y-45237492D01*
X160829752Y-45156458D01*
X160979931Y-45006541D01*
X161010622Y-44932628D01*
X161010508Y-45063634D01*
X161091542Y-45259752D01*
X161241459Y-45409931D01*
X161437435Y-45491307D01*
X161649634Y-45491492D01*
X161845752Y-45410458D01*
X161866446Y-45389800D01*
X161881776Y-45389800D01*
X161854069Y-45417459D01*
X161772693Y-45613435D01*
X161772508Y-45825634D01*
X161853542Y-46021752D01*
X162003459Y-46171931D01*
X162199435Y-46253307D01*
X162411634Y-46253492D01*
X162607752Y-46172458D01*
X162757931Y-46022541D01*
X162809728Y-45897800D01*
X164058667Y-45897800D01*
X164058508Y-46079634D01*
X164139542Y-46275752D01*
X164289459Y-46425931D01*
X164485435Y-46507307D01*
X164697634Y-46507492D01*
X164820622Y-46456675D01*
X164820508Y-46587634D01*
X164901542Y-46783752D01*
X165051459Y-46933931D01*
X165247435Y-47015307D01*
X165459634Y-47015492D01*
X165655752Y-46934458D01*
X165684200Y-46906060D01*
X165684200Y-46921363D01*
X165664069Y-46941459D01*
X165582693Y-47137435D01*
X165582508Y-47349634D01*
X165663542Y-47545752D01*
X165813459Y-47695931D01*
X166009435Y-47777307D01*
X166221634Y-47777492D01*
X166387950Y-47708772D01*
X166425542Y-47799752D01*
X166575459Y-47949931D01*
X166771435Y-48031307D01*
X166983634Y-48031492D01*
X167149950Y-47962772D01*
X167187542Y-48053752D01*
X167337459Y-48203931D01*
X167533435Y-48285307D01*
X167745634Y-48285492D01*
X167941752Y-48204458D01*
X168091931Y-48054541D01*
X168173307Y-47858565D01*
X168173492Y-47646366D01*
X168092458Y-47450248D01*
X168071800Y-47429554D01*
X168071800Y-46406858D01*
X174422857Y-40055800D01*
X209296000Y-40055800D01*
X209461243Y-40022931D01*
X209601329Y-39929329D01*
X213665329Y-35865329D01*
X213729157Y-35769803D01*
X213758931Y-35725243D01*
X213791800Y-35560000D01*
X213791800Y-34399221D01*
X214114342Y-34183706D01*
X214345595Y-33837611D01*
X214426800Y-33429364D01*
X214426800Y-32610636D01*
X214345595Y-32202389D01*
X214114342Y-31856294D01*
X213768247Y-31625041D01*
X213360000Y-31543836D01*
X212951753Y-31625041D01*
X212605658Y-31856294D01*
X212374405Y-32202389D01*
X212293200Y-32610636D01*
X212293200Y-33429364D01*
X212374405Y-33837611D01*
X212605658Y-34183706D01*
X212928200Y-34399221D01*
X212928200Y-35381142D01*
X209117142Y-39192200D01*
X208052458Y-39192200D01*
X211125329Y-36119329D01*
X211140159Y-36097134D01*
X211218931Y-35979243D01*
X211251800Y-35814000D01*
X211251800Y-34399221D01*
X211574342Y-34183706D01*
X211805595Y-33837611D01*
X211886800Y-33429364D01*
X211886800Y-32610636D01*
X211805595Y-32202389D01*
X211574342Y-31856294D01*
X211228247Y-31625041D01*
X210820000Y-31543836D01*
X210411753Y-31625041D01*
X210065658Y-31856294D01*
X209834405Y-32202389D01*
X209753200Y-32610636D01*
X209753200Y-33429364D01*
X209834405Y-33837611D01*
X210065658Y-34183706D01*
X210388200Y-34399221D01*
X210388200Y-35635142D01*
X207339142Y-38684200D01*
X205766458Y-38684200D01*
X208585329Y-35865329D01*
X208649157Y-35769803D01*
X208678931Y-35725243D01*
X208711800Y-35560000D01*
X208711800Y-34399221D01*
X209034342Y-34183706D01*
X209265595Y-33837611D01*
X209346800Y-33429364D01*
X209346800Y-32610636D01*
X209265595Y-32202389D01*
X209034342Y-31856294D01*
X208688247Y-31625041D01*
X208280000Y-31543836D01*
X207871753Y-31625041D01*
X207525658Y-31856294D01*
X207294405Y-32202389D01*
X207213200Y-32610636D01*
X207213200Y-33429364D01*
X207294405Y-33837611D01*
X207525658Y-34183706D01*
X207848200Y-34399221D01*
X207848200Y-35381142D01*
X205053142Y-38176200D01*
X203480458Y-38176200D01*
X206045326Y-35611331D01*
X206045329Y-35611329D01*
X206138931Y-35471243D01*
X206144385Y-35443827D01*
X206171801Y-35306000D01*
X206171800Y-35305995D01*
X206171800Y-34399221D01*
X206494342Y-34183706D01*
X206725595Y-33837611D01*
X206806800Y-33429364D01*
X206806800Y-32610636D01*
X206725595Y-32202389D01*
X206494342Y-31856294D01*
X206148247Y-31625041D01*
X205740000Y-31543836D01*
X205331753Y-31625041D01*
X204985658Y-31856294D01*
X204754405Y-32202389D01*
X204673200Y-32610636D01*
X204673200Y-33429364D01*
X204754405Y-33837611D01*
X204985658Y-34183706D01*
X205308200Y-34399221D01*
X205308200Y-35127143D01*
X202767142Y-37668200D01*
X201448458Y-37668200D01*
X203505329Y-35611329D01*
X203598931Y-35471243D01*
X203631800Y-35306000D01*
X203631800Y-34399221D01*
X203954342Y-34183706D01*
X204185595Y-33837611D01*
X204266800Y-33429364D01*
X204266800Y-32610636D01*
X204185595Y-32202389D01*
X203954342Y-31856294D01*
X203608247Y-31625041D01*
X203200000Y-31543836D01*
X202791753Y-31625041D01*
X202445658Y-31856294D01*
X202214405Y-32202389D01*
X202133200Y-32610636D01*
X202133200Y-33429364D01*
X202214405Y-33837611D01*
X202445658Y-34183706D01*
X202768200Y-34399221D01*
X202768200Y-35127142D01*
X200735142Y-37160200D01*
X199162458Y-37160200D01*
X200965329Y-35357329D01*
X200999626Y-35306000D01*
X201058931Y-35217243D01*
X201091800Y-35052000D01*
X201091800Y-34399221D01*
X201414342Y-34183706D01*
X201645595Y-33837611D01*
X201726800Y-33429364D01*
X201726800Y-32610636D01*
X201645595Y-32202389D01*
X201414342Y-31856294D01*
X201068247Y-31625041D01*
X200660000Y-31543836D01*
X200251753Y-31625041D01*
X199905658Y-31856294D01*
X199674405Y-32202389D01*
X199593200Y-32610636D01*
X199593200Y-33429364D01*
X199674405Y-33837611D01*
X199905658Y-34183706D01*
X200228200Y-34399221D01*
X200228200Y-34873142D01*
X198449142Y-36652200D01*
X197372107Y-36652200D01*
X197409329Y-36627329D01*
X198425329Y-35611329D01*
X198459626Y-35560000D01*
X198518931Y-35471243D01*
X198551800Y-35306000D01*
X198551800Y-34399221D01*
X198874342Y-34183706D01*
X199105595Y-33837611D01*
X199186800Y-33429364D01*
X199186800Y-32610636D01*
X199105595Y-32202389D01*
X198874342Y-31856294D01*
X198528247Y-31625041D01*
X198120000Y-31543836D01*
X197711753Y-31625041D01*
X197365658Y-31856294D01*
X197134405Y-32202389D01*
X197053200Y-32610636D01*
X197053200Y-33429364D01*
X197134405Y-33837611D01*
X197365658Y-34183706D01*
X197688200Y-34399221D01*
X197688200Y-35127142D01*
X196925142Y-35890200D01*
X195098458Y-35890200D01*
X195885329Y-35103329D01*
X195922409Y-35047834D01*
X195978931Y-34963243D01*
X196011800Y-34798000D01*
X196011800Y-34473771D01*
X196342000Y-34473771D01*
X196454952Y-34452518D01*
X196558692Y-34385763D01*
X196628287Y-34283907D01*
X196652771Y-34163000D01*
X196652771Y-31877000D01*
X196631518Y-31764048D01*
X196564763Y-31660308D01*
X196462907Y-31590713D01*
X196342000Y-31566229D01*
X194818000Y-31566229D01*
X194705048Y-31587482D01*
X194601308Y-31654237D01*
X194531713Y-31756093D01*
X194507229Y-31877000D01*
X194507229Y-34163000D01*
X194528482Y-34275952D01*
X194595237Y-34379692D01*
X194697093Y-34449287D01*
X194818000Y-34473771D01*
X195148200Y-34473771D01*
X195148200Y-34619142D01*
X194385142Y-35382200D01*
X172212005Y-35382200D01*
X172212000Y-35382199D01*
X172046758Y-35415068D01*
X172046756Y-35415069D01*
X172046757Y-35415069D01*
X171906671Y-35508671D01*
X171906669Y-35508674D01*
X164032671Y-43382671D01*
X164032669Y-43382674D01*
X163651142Y-43764200D01*
X161036000Y-43764200D01*
X160870757Y-43797069D01*
X160730671Y-43890671D01*
X160730669Y-43890674D01*
X160450810Y-44170533D01*
X160422366Y-44170508D01*
X160226248Y-44251542D01*
X160107271Y-44370311D01*
X160107271Y-43607000D01*
X160086018Y-43494048D01*
X160019263Y-43390308D01*
X159917407Y-43320713D01*
X159796500Y-43296229D01*
X158846500Y-43296229D01*
X158733548Y-43317482D01*
X158629808Y-43384237D01*
X158560213Y-43486093D01*
X158535729Y-43607000D01*
X158535729Y-43625200D01*
X157948271Y-43625200D01*
X157948271Y-43607000D01*
X157927018Y-43494048D01*
X157860263Y-43390308D01*
X157758407Y-43320713D01*
X157637500Y-43296229D01*
X156687500Y-43296229D01*
X156574548Y-43317482D01*
X156470808Y-43384237D01*
X156401213Y-43486093D01*
X156376729Y-43607000D01*
X150418800Y-43607000D01*
X150418800Y-42672000D01*
X150413609Y-42645900D01*
X156433500Y-42645900D01*
X156433500Y-43057524D01*
X156472169Y-43150880D01*
X156543621Y-43222331D01*
X156636976Y-43261000D01*
X157073600Y-43261000D01*
X157137100Y-43197500D01*
X157137100Y-42582400D01*
X157187900Y-42582400D01*
X157187900Y-43197500D01*
X157251400Y-43261000D01*
X157688024Y-43261000D01*
X157781379Y-43222331D01*
X157852831Y-43150880D01*
X157891500Y-43057524D01*
X157891500Y-42645900D01*
X158592500Y-42645900D01*
X158592500Y-43057524D01*
X158631169Y-43150880D01*
X158702621Y-43222331D01*
X158795976Y-43261000D01*
X159232600Y-43261000D01*
X159296100Y-43197500D01*
X159296100Y-42582400D01*
X159346900Y-42582400D01*
X159346900Y-43197500D01*
X159410400Y-43261000D01*
X159847024Y-43261000D01*
X159940379Y-43222331D01*
X160011831Y-43150880D01*
X160050500Y-43057524D01*
X160050500Y-42645900D01*
X159987000Y-42582400D01*
X159346900Y-42582400D01*
X159296100Y-42582400D01*
X158656000Y-42582400D01*
X158592500Y-42645900D01*
X157891500Y-42645900D01*
X157828000Y-42582400D01*
X157187900Y-42582400D01*
X157137100Y-42582400D01*
X156497000Y-42582400D01*
X156433500Y-42645900D01*
X150413609Y-42645900D01*
X150385931Y-42506757D01*
X150292329Y-42366671D01*
X149982134Y-42056476D01*
X156433500Y-42056476D01*
X156433500Y-42468100D01*
X156497000Y-42531600D01*
X157137100Y-42531600D01*
X157137100Y-41916500D01*
X157187900Y-41916500D01*
X157187900Y-42531600D01*
X157828000Y-42531600D01*
X157891500Y-42468100D01*
X157891500Y-42056476D01*
X158592500Y-42056476D01*
X158592500Y-42468100D01*
X158656000Y-42531600D01*
X159296100Y-42531600D01*
X159296100Y-41916500D01*
X159346900Y-41916500D01*
X159346900Y-42531600D01*
X159987000Y-42531600D01*
X160050500Y-42468100D01*
X160050500Y-42056476D01*
X160011831Y-41963120D01*
X159940379Y-41891669D01*
X159847024Y-41853000D01*
X159410400Y-41853000D01*
X159346900Y-41916500D01*
X159296100Y-41916500D01*
X159232600Y-41853000D01*
X158795976Y-41853000D01*
X158702621Y-41891669D01*
X158631169Y-41963120D01*
X158592500Y-42056476D01*
X157891500Y-42056476D01*
X157852831Y-41963120D01*
X157781379Y-41891669D01*
X157688024Y-41853000D01*
X157251400Y-41853000D01*
X157187900Y-41916500D01*
X157137100Y-41916500D01*
X157073600Y-41853000D01*
X156636976Y-41853000D01*
X156543621Y-41891669D01*
X156472169Y-41963120D01*
X156433500Y-42056476D01*
X149982134Y-42056476D01*
X148260329Y-40334671D01*
X148120243Y-40241069D01*
X147955000Y-40208200D01*
X142494000Y-40208200D01*
X142328757Y-40241069D01*
X142188671Y-40334671D01*
X140283142Y-42240200D01*
X136256771Y-42240200D01*
X136256771Y-41872000D01*
X136235518Y-41759048D01*
X136168763Y-41655308D01*
X136066907Y-41585713D01*
X135946000Y-41561229D01*
X133756000Y-41561229D01*
X133643048Y-41582482D01*
X133539308Y-41649237D01*
X133469713Y-41751093D01*
X133445229Y-41872000D01*
X133445229Y-43472000D01*
X133466482Y-43584952D01*
X133533237Y-43688692D01*
X133635093Y-43758287D01*
X133756000Y-43782771D01*
X134419200Y-43782771D01*
X134419200Y-45189000D01*
X134452069Y-45354243D01*
X134532060Y-45473958D01*
X134545671Y-45494329D01*
X136474200Y-47422858D01*
X136474200Y-57479142D01*
X135954671Y-57998671D01*
X135861069Y-58138757D01*
X135828200Y-58304000D01*
X135828200Y-62636400D01*
X135382000Y-62636400D01*
X135342472Y-62644405D01*
X135309172Y-62667157D01*
X135287348Y-62701073D01*
X135280400Y-62738000D01*
X135280400Y-63322200D01*
X133159505Y-63322200D01*
X133159500Y-63322199D01*
X133021673Y-63349615D01*
X132994257Y-63355069D01*
X132854171Y-63448671D01*
X127901171Y-68401671D01*
X127807569Y-68541757D01*
X127774700Y-68707000D01*
X127774700Y-68999229D01*
X127706500Y-68999229D01*
X127593548Y-69020482D01*
X127489808Y-69087237D01*
X127420213Y-69189093D01*
X127395729Y-69310000D01*
X127395729Y-70160000D01*
X127416982Y-70272952D01*
X127483737Y-70376692D01*
X127585593Y-70446287D01*
X127706500Y-70470771D01*
X128706500Y-70470771D01*
X128819452Y-70449518D01*
X128923192Y-70382763D01*
X128992787Y-70280907D01*
X129017271Y-70160000D01*
X129017271Y-69310000D01*
X128996018Y-69197048D01*
X128929263Y-69093308D01*
X128827407Y-69023713D01*
X128706500Y-68999229D01*
X128638300Y-68999229D01*
X128638300Y-68885858D01*
X133338358Y-64185800D01*
X135280400Y-64185800D01*
X135280400Y-70276609D01*
X135148716Y-70302803D01*
X135137700Y-70310164D01*
X134950948Y-70434947D01*
X131319496Y-74066400D01*
X124458504Y-74066400D01*
X123672600Y-73280496D01*
X123672600Y-70934580D01*
X124701679Y-70934580D01*
X124701679Y-71833740D01*
X124722932Y-71946692D01*
X124789687Y-72050432D01*
X124891543Y-72120027D01*
X125012450Y-72144511D01*
X125812550Y-72144511D01*
X125925502Y-72123258D01*
X126029242Y-72056503D01*
X126098837Y-71954647D01*
X126123321Y-71833740D01*
X126123321Y-71815960D01*
X127053340Y-71815960D01*
X127218583Y-71783091D01*
X127358669Y-71689489D01*
X127381358Y-71666800D01*
X127397008Y-71666800D01*
X127416982Y-71772952D01*
X127483737Y-71876692D01*
X127585593Y-71946287D01*
X127706500Y-71970771D01*
X128706500Y-71970771D01*
X128819452Y-71949518D01*
X128923192Y-71882763D01*
X128992787Y-71780907D01*
X129017271Y-71660000D01*
X129017271Y-70810000D01*
X128996018Y-70697048D01*
X128929263Y-70593308D01*
X128827407Y-70523713D01*
X128706500Y-70499229D01*
X127706500Y-70499229D01*
X127593548Y-70520482D01*
X127489808Y-70587237D01*
X127420213Y-70689093D01*
X127397106Y-70803200D01*
X127202500Y-70803200D01*
X127037257Y-70836069D01*
X126897171Y-70929671D01*
X126874482Y-70952360D01*
X126123321Y-70952360D01*
X126123321Y-70934580D01*
X126102068Y-70821628D01*
X126035313Y-70717888D01*
X125933457Y-70648293D01*
X125812550Y-70623809D01*
X125012450Y-70623809D01*
X124899498Y-70645062D01*
X124795758Y-70711817D01*
X124726163Y-70813673D01*
X124701679Y-70934580D01*
X123672600Y-70934580D01*
X123672600Y-70167500D01*
X123626197Y-69934216D01*
X123538675Y-69803230D01*
X123494053Y-69736448D01*
X123432345Y-69674740D01*
X124758450Y-69674740D01*
X124758450Y-70085944D01*
X124797119Y-70179300D01*
X124868571Y-70250751D01*
X124961926Y-70289420D01*
X125323600Y-70289420D01*
X125387100Y-70225920D01*
X125387100Y-69611240D01*
X125437900Y-69611240D01*
X125437900Y-70225920D01*
X125501400Y-70289420D01*
X125863074Y-70289420D01*
X125956429Y-70250751D01*
X126027881Y-70179300D01*
X126066550Y-70085944D01*
X126066550Y-69674740D01*
X126003050Y-69611240D01*
X125437900Y-69611240D01*
X125387100Y-69611240D01*
X124821950Y-69611240D01*
X124758450Y-69674740D01*
X123432345Y-69674740D01*
X122843341Y-69085736D01*
X124758450Y-69085736D01*
X124758450Y-69496940D01*
X124821950Y-69560440D01*
X125387100Y-69560440D01*
X125387100Y-68945760D01*
X125437900Y-68945760D01*
X125437900Y-69560440D01*
X126003050Y-69560440D01*
X126066550Y-69496940D01*
X126066550Y-69085736D01*
X126027881Y-68992380D01*
X125956429Y-68920929D01*
X125863074Y-68882260D01*
X125501400Y-68882260D01*
X125437900Y-68945760D01*
X125387100Y-68945760D01*
X125323600Y-68882260D01*
X124961926Y-68882260D01*
X124868571Y-68920929D01*
X124797119Y-68992380D01*
X124758450Y-69085736D01*
X122843341Y-69085736D01*
X122807552Y-69049948D01*
X122609784Y-68917803D01*
X122376500Y-68871400D01*
X121898280Y-68871400D01*
X121854390Y-68803193D01*
X121735558Y-68721999D01*
X121704100Y-68715629D01*
X121704100Y-67754500D01*
X121657697Y-67521216D01*
X121525552Y-67323448D01*
X117195600Y-62993496D01*
X117195600Y-54952900D01*
X133502000Y-54952900D01*
X133502000Y-55714524D01*
X133540669Y-55807879D01*
X133612120Y-55879331D01*
X133705476Y-55918000D01*
X134762100Y-55918000D01*
X134825600Y-55854500D01*
X134825600Y-54889400D01*
X134876400Y-54889400D01*
X134876400Y-55854500D01*
X134939900Y-55918000D01*
X135996524Y-55918000D01*
X136089880Y-55879331D01*
X136161331Y-55807879D01*
X136200000Y-55714524D01*
X136200000Y-54952900D01*
X136136500Y-54889400D01*
X134876400Y-54889400D01*
X134825600Y-54889400D01*
X133565500Y-54889400D01*
X133502000Y-54952900D01*
X117195600Y-54952900D01*
X117195600Y-54013476D01*
X133502000Y-54013476D01*
X133502000Y-54775100D01*
X133565500Y-54838600D01*
X134825600Y-54838600D01*
X134825600Y-53873500D01*
X134876400Y-53873500D01*
X134876400Y-54838600D01*
X136136500Y-54838600D01*
X136200000Y-54775100D01*
X136200000Y-54013476D01*
X136161331Y-53920121D01*
X136089880Y-53848669D01*
X135996524Y-53810000D01*
X134939900Y-53810000D01*
X134876400Y-53873500D01*
X134825600Y-53873500D01*
X134762100Y-53810000D01*
X133705476Y-53810000D01*
X133612120Y-53848669D01*
X133540669Y-53920121D01*
X133502000Y-54013476D01*
X117195600Y-54013476D01*
X117195600Y-45212000D01*
X117149197Y-44978716D01*
X117017052Y-44780948D01*
X109485291Y-37249187D01*
X109732280Y-37002629D01*
X109912394Y-36568866D01*
X109912804Y-36099194D01*
X109733447Y-35665118D01*
X109401629Y-35332720D01*
X109273084Y-35279343D01*
X109328325Y-35257502D01*
X109357925Y-35237724D01*
X109446834Y-35083755D01*
X108732000Y-34368921D01*
X108017166Y-35083755D01*
X108106075Y-35237724D01*
X108196439Y-35276879D01*
X108064118Y-35331553D01*
X107731720Y-35663371D01*
X107551606Y-36097134D01*
X107551196Y-36566806D01*
X85572600Y-36566806D01*
X85572600Y-34530141D01*
X107649668Y-34530141D01*
X107807498Y-34929325D01*
X107827276Y-34958925D01*
X107981245Y-35047834D01*
X108696079Y-34333000D01*
X108767921Y-34333000D01*
X109482755Y-35047834D01*
X109636724Y-34958925D01*
X109807387Y-34565056D01*
X109807521Y-34556745D01*
X110102004Y-34556745D01*
X110273644Y-34972144D01*
X110591184Y-35290239D01*
X110693904Y-35332892D01*
X110592856Y-35374644D01*
X110274761Y-35692184D01*
X110102397Y-36107283D01*
X110102004Y-36556745D01*
X110273644Y-36972144D01*
X110591184Y-37290239D01*
X111006283Y-37462603D01*
X111455745Y-37462996D01*
X111871144Y-37291356D01*
X112189239Y-36973816D01*
X112361603Y-36558717D01*
X112361996Y-36109255D01*
X112190356Y-35693856D01*
X111872816Y-35375761D01*
X111770096Y-35333108D01*
X111871144Y-35291356D01*
X112189239Y-34973816D01*
X112361603Y-34558717D01*
X112361996Y-34109255D01*
X112190356Y-33693856D01*
X111872816Y-33375761D01*
X111457717Y-33203397D01*
X111008255Y-33203004D01*
X110592856Y-33374644D01*
X110274761Y-33692184D01*
X110102397Y-34107283D01*
X110102004Y-34556745D01*
X109807521Y-34556745D01*
X109814332Y-34135859D01*
X109656502Y-33736675D01*
X109636724Y-33707075D01*
X109482755Y-33618166D01*
X108767921Y-34333000D01*
X108696079Y-34333000D01*
X107981245Y-33618166D01*
X107827276Y-33707075D01*
X107656613Y-34100944D01*
X107649668Y-34530141D01*
X85572600Y-34530141D01*
X85572600Y-32178461D01*
X95111714Y-32178461D01*
X95537820Y-33209716D01*
X96326134Y-33999407D01*
X97356643Y-34427312D01*
X98472461Y-34428286D01*
X99503716Y-34002180D01*
X99924384Y-33582245D01*
X108017166Y-33582245D01*
X108732000Y-34297079D01*
X109446834Y-33582245D01*
X109357925Y-33428276D01*
X108964056Y-33257613D01*
X108534859Y-33250668D01*
X108135675Y-33408498D01*
X108106075Y-33428276D01*
X108017166Y-33582245D01*
X99924384Y-33582245D01*
X100293407Y-33213866D01*
X100440141Y-32860491D01*
X102780430Y-32860491D01*
X102951482Y-33084600D01*
X103589255Y-33367705D01*
X104286821Y-33385194D01*
X104937980Y-33134404D01*
X105012518Y-33084600D01*
X105183570Y-32860491D01*
X114780430Y-32860491D01*
X114951482Y-33084600D01*
X115589255Y-33367705D01*
X116286821Y-33385194D01*
X116937980Y-33134404D01*
X117012518Y-33084600D01*
X117183570Y-32860491D01*
X115982000Y-31658921D01*
X114780430Y-32860491D01*
X105183570Y-32860491D01*
X103982000Y-31658921D01*
X102780430Y-32860491D01*
X100440141Y-32860491D01*
X100721312Y-32183357D01*
X100721535Y-31927821D01*
X102219806Y-31927821D01*
X102470596Y-32578980D01*
X102520400Y-32653518D01*
X102744509Y-32824570D01*
X103946079Y-31623000D01*
X104017921Y-31623000D01*
X105219491Y-32824570D01*
X105443600Y-32653518D01*
X105726705Y-32015745D01*
X105728909Y-31927821D01*
X114219806Y-31927821D01*
X114470596Y-32578980D01*
X114520400Y-32653518D01*
X114744509Y-32824570D01*
X115946079Y-31623000D01*
X116017921Y-31623000D01*
X117219491Y-32824570D01*
X117443600Y-32653518D01*
X117654475Y-32178461D01*
X119241714Y-32178461D01*
X119667820Y-33209716D01*
X120456134Y-33999407D01*
X121486643Y-34427312D01*
X122602461Y-34428286D01*
X123633716Y-34002180D01*
X124423407Y-33213866D01*
X124851312Y-32183357D01*
X124851579Y-31877000D01*
X138627229Y-31877000D01*
X138627229Y-34163000D01*
X138648482Y-34275952D01*
X138715237Y-34379692D01*
X138817093Y-34449287D01*
X138938000Y-34473771D01*
X140462000Y-34473771D01*
X140574952Y-34452518D01*
X140678692Y-34385763D01*
X140748287Y-34283907D01*
X140772771Y-34163000D01*
X140772771Y-32610636D01*
X141173200Y-32610636D01*
X141173200Y-33429364D01*
X141254405Y-33837611D01*
X141485658Y-34183706D01*
X141831753Y-34414959D01*
X142240000Y-34496164D01*
X142648247Y-34414959D01*
X142994342Y-34183706D01*
X143225595Y-33837611D01*
X143306800Y-33429364D01*
X143306800Y-32610636D01*
X143713200Y-32610636D01*
X143713200Y-33429364D01*
X143794405Y-33837611D01*
X144025658Y-34183706D01*
X144371753Y-34414959D01*
X144780000Y-34496164D01*
X145188247Y-34414959D01*
X145534342Y-34183706D01*
X145765595Y-33837611D01*
X145846800Y-33429364D01*
X145846800Y-32610636D01*
X146253200Y-32610636D01*
X146253200Y-33429364D01*
X146334405Y-33837611D01*
X146565658Y-34183706D01*
X146911753Y-34414959D01*
X147320000Y-34496164D01*
X147728247Y-34414959D01*
X148074342Y-34183706D01*
X148305595Y-33837611D01*
X148386800Y-33429364D01*
X148386800Y-32610636D01*
X148793200Y-32610636D01*
X148793200Y-33429364D01*
X148874405Y-33837611D01*
X149105658Y-34183706D01*
X149451753Y-34414959D01*
X149860000Y-34496164D01*
X150268247Y-34414959D01*
X150614342Y-34183706D01*
X150845595Y-33837611D01*
X150926800Y-33429364D01*
X150926800Y-32610636D01*
X151333200Y-32610636D01*
X151333200Y-33429364D01*
X151414405Y-33837611D01*
X151645658Y-34183706D01*
X151991753Y-34414959D01*
X152400000Y-34496164D01*
X152808247Y-34414959D01*
X153154342Y-34183706D01*
X153385595Y-33837611D01*
X153466800Y-33429364D01*
X153466800Y-32610636D01*
X153873200Y-32610636D01*
X153873200Y-33429364D01*
X153954405Y-33837611D01*
X154185658Y-34183706D01*
X154531753Y-34414959D01*
X154940000Y-34496164D01*
X155348247Y-34414959D01*
X155694342Y-34183706D01*
X155925595Y-33837611D01*
X156006800Y-33429364D01*
X156006800Y-32610636D01*
X156413200Y-32610636D01*
X156413200Y-33429364D01*
X156494405Y-33837611D01*
X156725658Y-34183706D01*
X157071753Y-34414959D01*
X157480000Y-34496164D01*
X157888247Y-34414959D01*
X158234342Y-34183706D01*
X158465595Y-33837611D01*
X158546800Y-33429364D01*
X158546800Y-32610636D01*
X158953200Y-32610636D01*
X158953200Y-33429364D01*
X159034405Y-33837611D01*
X159265658Y-34183706D01*
X159611753Y-34414959D01*
X160020000Y-34496164D01*
X160428247Y-34414959D01*
X160774342Y-34183706D01*
X161005595Y-33837611D01*
X161086800Y-33429364D01*
X161086800Y-32610636D01*
X161493200Y-32610636D01*
X161493200Y-33429364D01*
X161574405Y-33837611D01*
X161805658Y-34183706D01*
X162151753Y-34414959D01*
X162560000Y-34496164D01*
X162968247Y-34414959D01*
X163314342Y-34183706D01*
X163545595Y-33837611D01*
X163626800Y-33429364D01*
X163626800Y-32610636D01*
X164033200Y-32610636D01*
X164033200Y-33429364D01*
X164114405Y-33837611D01*
X164345658Y-34183706D01*
X164691753Y-34414959D01*
X165100000Y-34496164D01*
X165508247Y-34414959D01*
X165854342Y-34183706D01*
X166085595Y-33837611D01*
X166166800Y-33429364D01*
X166166800Y-32610636D01*
X166573200Y-32610636D01*
X166573200Y-33429364D01*
X166654405Y-33837611D01*
X166885658Y-34183706D01*
X167231753Y-34414959D01*
X167640000Y-34496164D01*
X168048247Y-34414959D01*
X168394342Y-34183706D01*
X168625595Y-33837611D01*
X168706800Y-33429364D01*
X168706800Y-32610636D01*
X169113200Y-32610636D01*
X169113200Y-33429364D01*
X169194405Y-33837611D01*
X169425658Y-34183706D01*
X169771753Y-34414959D01*
X170180000Y-34496164D01*
X170588247Y-34414959D01*
X170934342Y-34183706D01*
X171165595Y-33837611D01*
X171246800Y-33429364D01*
X171246800Y-32610636D01*
X171653200Y-32610636D01*
X171653200Y-33429364D01*
X171734405Y-33837611D01*
X171965658Y-34183706D01*
X172311753Y-34414959D01*
X172720000Y-34496164D01*
X173128247Y-34414959D01*
X173474342Y-34183706D01*
X173705595Y-33837611D01*
X173786800Y-33429364D01*
X173786800Y-32610636D01*
X174193200Y-32610636D01*
X174193200Y-33429364D01*
X174274405Y-33837611D01*
X174505658Y-34183706D01*
X174851753Y-34414959D01*
X175260000Y-34496164D01*
X175668247Y-34414959D01*
X176014342Y-34183706D01*
X176245595Y-33837611D01*
X176326800Y-33429364D01*
X176326800Y-32610636D01*
X176733200Y-32610636D01*
X176733200Y-33429364D01*
X176814405Y-33837611D01*
X177045658Y-34183706D01*
X177391753Y-34414959D01*
X177800000Y-34496164D01*
X178208247Y-34414959D01*
X178554342Y-34183706D01*
X178785595Y-33837611D01*
X178866800Y-33429364D01*
X178866800Y-32610636D01*
X178785595Y-32202389D01*
X178554342Y-31856294D01*
X178208247Y-31625041D01*
X177800000Y-31543836D01*
X177391753Y-31625041D01*
X177045658Y-31856294D01*
X176814405Y-32202389D01*
X176733200Y-32610636D01*
X176326800Y-32610636D01*
X176245595Y-32202389D01*
X176014342Y-31856294D01*
X175668247Y-31625041D01*
X175260000Y-31543836D01*
X174851753Y-31625041D01*
X174505658Y-31856294D01*
X174274405Y-32202389D01*
X174193200Y-32610636D01*
X173786800Y-32610636D01*
X173705595Y-32202389D01*
X173474342Y-31856294D01*
X173128247Y-31625041D01*
X172720000Y-31543836D01*
X172311753Y-31625041D01*
X171965658Y-31856294D01*
X171734405Y-32202389D01*
X171653200Y-32610636D01*
X171246800Y-32610636D01*
X171165595Y-32202389D01*
X170934342Y-31856294D01*
X170588247Y-31625041D01*
X170180000Y-31543836D01*
X169771753Y-31625041D01*
X169425658Y-31856294D01*
X169194405Y-32202389D01*
X169113200Y-32610636D01*
X168706800Y-32610636D01*
X168625595Y-32202389D01*
X168394342Y-31856294D01*
X168048247Y-31625041D01*
X167640000Y-31543836D01*
X167231753Y-31625041D01*
X166885658Y-31856294D01*
X166654405Y-32202389D01*
X166573200Y-32610636D01*
X166166800Y-32610636D01*
X166085595Y-32202389D01*
X165854342Y-31856294D01*
X165508247Y-31625041D01*
X165100000Y-31543836D01*
X164691753Y-31625041D01*
X164345658Y-31856294D01*
X164114405Y-32202389D01*
X164033200Y-32610636D01*
X163626800Y-32610636D01*
X163545595Y-32202389D01*
X163314342Y-31856294D01*
X162968247Y-31625041D01*
X162560000Y-31543836D01*
X162151753Y-31625041D01*
X161805658Y-31856294D01*
X161574405Y-32202389D01*
X161493200Y-32610636D01*
X161086800Y-32610636D01*
X161005595Y-32202389D01*
X160774342Y-31856294D01*
X160428247Y-31625041D01*
X160020000Y-31543836D01*
X159611753Y-31625041D01*
X159265658Y-31856294D01*
X159034405Y-32202389D01*
X158953200Y-32610636D01*
X158546800Y-32610636D01*
X158465595Y-32202389D01*
X158234342Y-31856294D01*
X157888247Y-31625041D01*
X157480000Y-31543836D01*
X157071753Y-31625041D01*
X156725658Y-31856294D01*
X156494405Y-32202389D01*
X156413200Y-32610636D01*
X156006800Y-32610636D01*
X155925595Y-32202389D01*
X155694342Y-31856294D01*
X155348247Y-31625041D01*
X154940000Y-31543836D01*
X154531753Y-31625041D01*
X154185658Y-31856294D01*
X153954405Y-32202389D01*
X153873200Y-32610636D01*
X153466800Y-32610636D01*
X153385595Y-32202389D01*
X153154342Y-31856294D01*
X152808247Y-31625041D01*
X152400000Y-31543836D01*
X151991753Y-31625041D01*
X151645658Y-31856294D01*
X151414405Y-32202389D01*
X151333200Y-32610636D01*
X150926800Y-32610636D01*
X150845595Y-32202389D01*
X150614342Y-31856294D01*
X150268247Y-31625041D01*
X149860000Y-31543836D01*
X149451753Y-31625041D01*
X149105658Y-31856294D01*
X148874405Y-32202389D01*
X148793200Y-32610636D01*
X148386800Y-32610636D01*
X148305595Y-32202389D01*
X148074342Y-31856294D01*
X147728247Y-31625041D01*
X147320000Y-31543836D01*
X146911753Y-31625041D01*
X146565658Y-31856294D01*
X146334405Y-32202389D01*
X146253200Y-32610636D01*
X145846800Y-32610636D01*
X145765595Y-32202389D01*
X145534342Y-31856294D01*
X145188247Y-31625041D01*
X144780000Y-31543836D01*
X144371753Y-31625041D01*
X144025658Y-31856294D01*
X143794405Y-32202389D01*
X143713200Y-32610636D01*
X143306800Y-32610636D01*
X143225595Y-32202389D01*
X142994342Y-31856294D01*
X142648247Y-31625041D01*
X142240000Y-31543836D01*
X141831753Y-31625041D01*
X141485658Y-31856294D01*
X141254405Y-32202389D01*
X141173200Y-32610636D01*
X140772771Y-32610636D01*
X140772771Y-31877000D01*
X140751518Y-31764048D01*
X140684763Y-31660308D01*
X140582907Y-31590713D01*
X140462000Y-31566229D01*
X138938000Y-31566229D01*
X138825048Y-31587482D01*
X138721308Y-31654237D01*
X138651713Y-31756093D01*
X138627229Y-31877000D01*
X124851579Y-31877000D01*
X124852286Y-31067539D01*
X124426180Y-30036284D01*
X123637866Y-29246593D01*
X122607357Y-28818688D01*
X121491539Y-28817714D01*
X120460284Y-29243820D01*
X119670593Y-30032134D01*
X119242688Y-31062643D01*
X119241714Y-32178461D01*
X117654475Y-32178461D01*
X117726705Y-32015745D01*
X117744194Y-31318179D01*
X117493404Y-30667020D01*
X117443600Y-30592482D01*
X117219491Y-30421430D01*
X116017921Y-31623000D01*
X115946079Y-31623000D01*
X114744509Y-30421430D01*
X114520400Y-30592482D01*
X114237295Y-31230255D01*
X114219806Y-31927821D01*
X105728909Y-31927821D01*
X105744194Y-31318179D01*
X105493404Y-30667020D01*
X105443600Y-30592482D01*
X105219491Y-30421430D01*
X104017921Y-31623000D01*
X103946079Y-31623000D01*
X102744509Y-30421430D01*
X102520400Y-30592482D01*
X102237295Y-31230255D01*
X102219806Y-31927821D01*
X100721535Y-31927821D01*
X100722286Y-31067539D01*
X100440477Y-30385509D01*
X102780430Y-30385509D01*
X103982000Y-31587079D01*
X105183570Y-30385509D01*
X114780430Y-30385509D01*
X115982000Y-31587079D01*
X117183570Y-30385509D01*
X117012518Y-30161400D01*
X116374745Y-29878295D01*
X115677179Y-29860806D01*
X115026020Y-30111596D01*
X114951482Y-30161400D01*
X114780430Y-30385509D01*
X105183570Y-30385509D01*
X105012518Y-30161400D01*
X104374745Y-29878295D01*
X103677179Y-29860806D01*
X103026020Y-30111596D01*
X102951482Y-30161400D01*
X102780430Y-30385509D01*
X100440477Y-30385509D01*
X100296180Y-30036284D01*
X99507866Y-29246593D01*
X98477357Y-28818688D01*
X97361539Y-28817714D01*
X96330284Y-29243820D01*
X95540593Y-30032134D01*
X95112688Y-31062643D01*
X95111714Y-32178461D01*
X85572600Y-32178461D01*
X85572600Y-27152600D01*
X234594400Y-27152600D01*
X234594400Y-76225400D01*
D32*
G36*
X136829800Y-66852800D02*
X135712200Y-66852800D01*
X135712200Y-63068200D01*
X136829800Y-63068200D01*
X136829800Y-66852800D01*
X136829800Y-66852800D01*
G37*
X136829800Y-66852800D02*
X135712200Y-66852800D01*
X135712200Y-63068200D01*
X136829800Y-63068200D01*
X136829800Y-66852800D01*
G36*
X136829800Y-71551800D02*
X135712200Y-71551800D01*
X135712200Y-67640200D01*
X136829800Y-67640200D01*
X136829800Y-71551800D01*
X136829800Y-71551800D01*
G37*
X136829800Y-71551800D02*
X135712200Y-71551800D01*
X135712200Y-67640200D01*
X136829800Y-67640200D01*
X136829800Y-71551800D01*
M02*
