G04 #@! TF.FileFunction,Soldermask,Bot*
%FSLAX46Y46*%
G04 Gerber Fmt 4.6, Leading zero omitted, Abs format (unit mm)*
G04 Created by KiCad (PCBNEW 4.0.1-stable) date 6/9/2016 4:02:24 PM*
%MOMM*%
G01*
G04 APERTURE LIST*
%ADD10C,0.100000*%
%ADD11R,1.924000X2.686000*%
%ADD12O,1.924000X2.686000*%
%ADD13R,1.300000X1.350000*%
%ADD14R,1.000000X1.500000*%
%ADD15R,2.686000X1.924000*%
%ADD16O,2.686000X1.924000*%
%ADD17R,1.400000X1.250000*%
%ADD18O,0.700000X1.900000*%
%ADD19O,1.900000X0.700000*%
%ADD20R,3.400000X3.400000*%
%ADD21C,5.400000*%
%ADD22C,2.050000*%
%ADD23C,3.400000*%
%ADD24C,2.940000*%
G04 APERTURE END LIST*
D10*
D11*
X193802000Y-68834000D03*
D12*
X191262000Y-68834000D03*
X188722000Y-68834000D03*
X186182000Y-68834000D03*
X183642000Y-68834000D03*
X181102000Y-68834000D03*
X178562000Y-68834000D03*
X176022000Y-68834000D03*
X173482000Y-68834000D03*
X170942000Y-68834000D03*
X193802000Y-71882000D03*
X191262000Y-71882000D03*
X188722000Y-71882000D03*
X186182000Y-71882000D03*
X183642000Y-71882000D03*
X181102000Y-71882000D03*
X178562000Y-71882000D03*
X176022000Y-71882000D03*
X173482000Y-71882000D03*
X170942000Y-71882000D03*
D13*
X151713500Y-54800500D03*
X153213500Y-54800500D03*
X154698000Y-37846000D03*
X156198000Y-37846000D03*
X161786000Y-37846000D03*
X160286000Y-37846000D03*
X172478000Y-56642000D03*
X173978000Y-56642000D03*
D14*
X115636000Y-41318000D03*
X117536000Y-41318000D03*
X116586000Y-41318000D03*
X117536000Y-43518000D03*
X115636000Y-43518000D03*
X116586000Y-43518000D03*
D11*
X195580000Y-33020000D03*
D12*
X198120000Y-33020000D03*
X200660000Y-33020000D03*
X203200000Y-33020000D03*
X205740000Y-33020000D03*
X208280000Y-33020000D03*
X210820000Y-33020000D03*
X213360000Y-33020000D03*
D11*
X139700000Y-33020000D03*
D12*
X142240000Y-33020000D03*
X144780000Y-33020000D03*
X147320000Y-33020000D03*
X149860000Y-33020000D03*
X152400000Y-33020000D03*
X154940000Y-33020000D03*
X157480000Y-33020000D03*
X160020000Y-33020000D03*
X162560000Y-33020000D03*
X165100000Y-33020000D03*
X167640000Y-33020000D03*
X170180000Y-33020000D03*
X172720000Y-33020000D03*
X175260000Y-33020000D03*
X177800000Y-33020000D03*
D15*
X225790000Y-50080000D03*
D16*
X225790000Y-52620000D03*
X225790000Y-55160000D03*
X225790000Y-57700000D03*
D11*
X148844000Y-72898000D03*
D12*
X151384000Y-72898000D03*
X153924000Y-72898000D03*
X156464000Y-72898000D03*
X159004000Y-72898000D03*
X161544000Y-72898000D03*
D17*
X115316000Y-47994000D03*
X115316000Y-46494000D03*
X117856000Y-47994000D03*
X117856000Y-46494000D03*
X191262000Y-55130000D03*
X191262000Y-56630000D03*
X183642000Y-58408000D03*
X183642000Y-56908000D03*
X188722000Y-55130000D03*
X188722000Y-56630000D03*
X186182000Y-55130000D03*
X186182000Y-56630000D03*
X181102000Y-58408000D03*
X181102000Y-56908000D03*
X178562000Y-55130000D03*
X178562000Y-56630000D03*
X176022000Y-55130000D03*
X176022000Y-56630000D03*
D18*
X156000000Y-46346000D03*
X156500000Y-46346000D03*
X157000000Y-46346000D03*
X157500000Y-46346000D03*
X158000000Y-46346000D03*
X158500000Y-46346000D03*
X159000000Y-46346000D03*
X159500000Y-46346000D03*
X160000000Y-46346000D03*
X160500000Y-46346000D03*
X161000000Y-46346000D03*
X161500000Y-46346000D03*
D19*
X162950000Y-47796000D03*
X162950000Y-48296000D03*
X162950000Y-48796000D03*
X162950000Y-49296000D03*
X162950000Y-49796000D03*
X162950000Y-50296000D03*
X162950000Y-50796000D03*
X162950000Y-51296000D03*
X162950000Y-51796000D03*
X162950000Y-52296000D03*
X162950000Y-52796000D03*
X162950000Y-53296000D03*
D18*
X161500000Y-54746000D03*
X161000000Y-54746000D03*
X160500000Y-54746000D03*
X160000000Y-54746000D03*
X159500000Y-54746000D03*
X159000000Y-54746000D03*
X158500000Y-54746000D03*
X158000000Y-54746000D03*
X157500000Y-54746000D03*
X157000000Y-54746000D03*
X156500000Y-54746000D03*
X156000000Y-54746000D03*
D19*
X154550000Y-53296000D03*
X154550000Y-52796000D03*
X154550000Y-52296000D03*
X154550000Y-51796000D03*
X154550000Y-51296000D03*
X154550000Y-50796000D03*
X154550000Y-50296000D03*
X154550000Y-49796000D03*
X154550000Y-49296000D03*
X154550000Y-48796000D03*
X154550000Y-48296000D03*
X154550000Y-47796000D03*
D20*
X154742000Y-41148000D03*
X161742000Y-41148000D03*
D21*
X122047000Y-31623000D03*
X97917000Y-31623000D03*
D22*
X111232000Y-34333000D03*
X108732000Y-34333000D03*
X111232000Y-36333000D03*
D23*
X103982000Y-31623000D03*
X115982000Y-31623000D03*
D22*
X108732000Y-36333000D03*
D24*
X104394000Y-64008000D03*
X109474000Y-64008000D03*
M02*
