G04 #@! TF.FileFunction,Soldermask,Top*
%FSLAX46Y46*%
G04 Gerber Fmt 4.6, Leading zero omitted, Abs format (unit mm)*
G04 Created by KiCad (PCBNEW 4.0.1-stable) date 6/9/2016 4:02:24 PM*
%MOMM*%
G01*
G04 APERTURE LIST*
%ADD10C,0.100000*%
%ADD11R,1.924000X2.686000*%
%ADD12O,1.924000X2.686000*%
%ADD13R,1.350000X1.300000*%
%ADD14R,1.550000X1.850000*%
%ADD15R,1.300000X1.350000*%
%ADD16R,1.850000X1.550000*%
%ADD17R,1.200100X1.299160*%
%ADD18R,2.686000X1.924000*%
%ADD19O,2.686000X1.924000*%
%ADD20R,1.400000X1.250000*%
%ADD21R,1.250000X1.400000*%
%ADD22R,2.590000X2.000000*%
%ADD23R,1.000000X1.500000*%
%ADD24C,5.400000*%
%ADD25C,2.050000*%
%ADD26C,3.400000*%
%ADD27C,2.940000*%
G04 APERTURE END LIST*
D10*
D11*
X193802000Y-68834000D03*
D12*
X191262000Y-68834000D03*
X188722000Y-68834000D03*
X186182000Y-68834000D03*
X183642000Y-68834000D03*
X181102000Y-68834000D03*
X178562000Y-68834000D03*
X176022000Y-68834000D03*
X173482000Y-68834000D03*
X170942000Y-68834000D03*
X193802000Y-71882000D03*
X191262000Y-71882000D03*
X188722000Y-71882000D03*
X186182000Y-71882000D03*
X183642000Y-71882000D03*
X181102000Y-71882000D03*
X178562000Y-71882000D03*
X176022000Y-71882000D03*
X173482000Y-71882000D03*
X170942000Y-71882000D03*
D13*
X149987000Y-46851000D03*
X149987000Y-45351000D03*
X168211500Y-52526500D03*
X168211500Y-54026500D03*
D14*
X136260000Y-70866000D03*
X138060000Y-70866000D03*
D15*
X163056000Y-48514000D03*
X161556000Y-48514000D03*
D14*
X136260000Y-63754000D03*
X138060000Y-63754000D03*
D16*
X152019000Y-45201000D03*
X152019000Y-47001000D03*
D13*
X157162500Y-42557000D03*
X157162500Y-44057000D03*
X159321500Y-42557000D03*
X159321500Y-44057000D03*
D17*
X119062500Y-69585840D03*
X119062500Y-71384160D03*
X125412500Y-69585840D03*
X125412500Y-71384160D03*
D11*
X195580000Y-33020000D03*
D12*
X198120000Y-33020000D03*
X200660000Y-33020000D03*
X203200000Y-33020000D03*
X205740000Y-33020000D03*
X208280000Y-33020000D03*
X210820000Y-33020000D03*
X213360000Y-33020000D03*
D11*
X139700000Y-33020000D03*
D12*
X142240000Y-33020000D03*
X144780000Y-33020000D03*
X147320000Y-33020000D03*
X149860000Y-33020000D03*
X152400000Y-33020000D03*
X154940000Y-33020000D03*
X157480000Y-33020000D03*
X160020000Y-33020000D03*
X162560000Y-33020000D03*
X165100000Y-33020000D03*
X167640000Y-33020000D03*
X170180000Y-33020000D03*
X172720000Y-33020000D03*
X175260000Y-33020000D03*
X177800000Y-33020000D03*
D18*
X225790000Y-50080000D03*
D19*
X225790000Y-52620000D03*
X225790000Y-55160000D03*
X225790000Y-57700000D03*
D11*
X148844000Y-72898000D03*
D12*
X151384000Y-72898000D03*
X153924000Y-72898000D03*
X156464000Y-72898000D03*
X159004000Y-72898000D03*
X161544000Y-72898000D03*
D20*
X121094500Y-69481000D03*
X121094500Y-70981000D03*
X128206500Y-69735000D03*
X128206500Y-71235000D03*
D21*
X142609000Y-46609000D03*
X141109000Y-46609000D03*
X163373500Y-66802000D03*
X161873500Y-66802000D03*
D22*
X144041000Y-42672000D03*
X134851000Y-42672000D03*
X134851000Y-54864000D03*
X144041000Y-54864000D03*
D23*
X136591000Y-68410000D03*
X138491000Y-68410000D03*
X137541000Y-68410000D03*
X138491000Y-66210000D03*
X136591000Y-66210000D03*
D24*
X122047000Y-31623000D03*
X97917000Y-31623000D03*
D25*
X111232000Y-34333000D03*
X108732000Y-34333000D03*
X111232000Y-36333000D03*
D26*
X103982000Y-31623000D03*
X115982000Y-31623000D03*
D25*
X108732000Y-36333000D03*
D27*
X104394000Y-64008000D03*
X109474000Y-64008000D03*
M02*
