G04 #@! TF.FileFunction,Copper,L2,Bot,Signal*
%FSLAX46Y46*%
G04 Gerber Fmt 4.6, Leading zero omitted, Abs format (unit mm)*
G04 Created by KiCad (PCBNEW 4.0.1-stable) date 6/19/2016 2:06:42 PM*
%MOMM*%
G01*
G04 APERTURE LIST*
%ADD10C,0.100000*%
%ADD11R,1.524000X2.286000*%
%ADD12O,1.524000X2.286000*%
%ADD13R,0.900000X0.950000*%
%ADD14R,0.600000X1.100000*%
%ADD15R,2.286000X1.524000*%
%ADD16O,2.286000X1.524000*%
%ADD17R,1.000000X0.850000*%
%ADD18O,0.300000X1.500000*%
%ADD19O,1.500000X0.300000*%
%ADD20R,3.000000X3.000000*%
%ADD21C,5.000000*%
%ADD22C,1.650000*%
%ADD23C,3.000000*%
%ADD24C,2.540000*%
%ADD25C,0.457200*%
%ADD26C,0.254000*%
%ADD27C,0.508000*%
%ADD28C,0.203200*%
G04 APERTURE END LIST*
D10*
D11*
X193802000Y-68834000D03*
D12*
X191262000Y-68834000D03*
X188722000Y-68834000D03*
X186182000Y-68834000D03*
X183642000Y-68834000D03*
X181102000Y-68834000D03*
X178562000Y-68834000D03*
X176022000Y-68834000D03*
X173482000Y-68834000D03*
X170942000Y-68834000D03*
X193802000Y-71882000D03*
X191262000Y-71882000D03*
X188722000Y-71882000D03*
X186182000Y-71882000D03*
X183642000Y-71882000D03*
X181102000Y-71882000D03*
X178562000Y-71882000D03*
X176022000Y-71882000D03*
X173482000Y-71882000D03*
X170942000Y-71882000D03*
D13*
X151713500Y-54800500D03*
X153213500Y-54800500D03*
X154698000Y-37846000D03*
X156198000Y-37846000D03*
X161786000Y-37846000D03*
X160286000Y-37846000D03*
X172478000Y-56642000D03*
X173978000Y-56642000D03*
D14*
X115636000Y-41318000D03*
X117536000Y-41318000D03*
X116586000Y-41318000D03*
X117536000Y-43518000D03*
X115636000Y-43518000D03*
X116586000Y-43518000D03*
D11*
X195580000Y-33020000D03*
D12*
X198120000Y-33020000D03*
X200660000Y-33020000D03*
X203200000Y-33020000D03*
X205740000Y-33020000D03*
X208280000Y-33020000D03*
X210820000Y-33020000D03*
X213360000Y-33020000D03*
D11*
X139700000Y-33020000D03*
D12*
X142240000Y-33020000D03*
X144780000Y-33020000D03*
X147320000Y-33020000D03*
X149860000Y-33020000D03*
X152400000Y-33020000D03*
X154940000Y-33020000D03*
X157480000Y-33020000D03*
X160020000Y-33020000D03*
X162560000Y-33020000D03*
X165100000Y-33020000D03*
X167640000Y-33020000D03*
X170180000Y-33020000D03*
X172720000Y-33020000D03*
X175260000Y-33020000D03*
X177800000Y-33020000D03*
D15*
X225790000Y-50080000D03*
D16*
X225790000Y-52620000D03*
X225790000Y-55160000D03*
X225790000Y-57700000D03*
D11*
X148844000Y-72898000D03*
D12*
X151384000Y-72898000D03*
X153924000Y-72898000D03*
X156464000Y-72898000D03*
X159004000Y-72898000D03*
X161544000Y-72898000D03*
D17*
X115316000Y-47994000D03*
X115316000Y-46494000D03*
X117856000Y-47994000D03*
X117856000Y-46494000D03*
X191262000Y-55130000D03*
X191262000Y-56630000D03*
X183642000Y-58408000D03*
X183642000Y-56908000D03*
X188722000Y-55130000D03*
X188722000Y-56630000D03*
X186182000Y-55130000D03*
X186182000Y-56630000D03*
X181102000Y-58408000D03*
X181102000Y-56908000D03*
X178562000Y-55130000D03*
X178562000Y-56630000D03*
X176022000Y-55130000D03*
X176022000Y-56630000D03*
D18*
X156000000Y-46346000D03*
X156500000Y-46346000D03*
X157000000Y-46346000D03*
X157500000Y-46346000D03*
X158000000Y-46346000D03*
X158500000Y-46346000D03*
X159000000Y-46346000D03*
X159500000Y-46346000D03*
X160000000Y-46346000D03*
X160500000Y-46346000D03*
X161000000Y-46346000D03*
X161500000Y-46346000D03*
D19*
X162950000Y-47796000D03*
X162950000Y-48296000D03*
X162950000Y-48796000D03*
X162950000Y-49296000D03*
X162950000Y-49796000D03*
X162950000Y-50296000D03*
X162950000Y-50796000D03*
X162950000Y-51296000D03*
X162950000Y-51796000D03*
X162950000Y-52296000D03*
X162950000Y-52796000D03*
X162950000Y-53296000D03*
D18*
X161500000Y-54746000D03*
X161000000Y-54746000D03*
X160500000Y-54746000D03*
X160000000Y-54746000D03*
X159500000Y-54746000D03*
X159000000Y-54746000D03*
X158500000Y-54746000D03*
X158000000Y-54746000D03*
X157500000Y-54746000D03*
X157000000Y-54746000D03*
X156500000Y-54746000D03*
X156000000Y-54746000D03*
D19*
X154550000Y-53296000D03*
X154550000Y-52796000D03*
X154550000Y-52296000D03*
X154550000Y-51796000D03*
X154550000Y-51296000D03*
X154550000Y-50796000D03*
X154550000Y-50296000D03*
X154550000Y-49796000D03*
X154550000Y-49296000D03*
X154550000Y-48796000D03*
X154550000Y-48296000D03*
X154550000Y-47796000D03*
D20*
X154742000Y-41148000D03*
X161742000Y-41148000D03*
D21*
X122047000Y-31623000D03*
X97917000Y-31623000D03*
D22*
X111232000Y-34333000D03*
X108732000Y-34333000D03*
X111232000Y-36333000D03*
D23*
X103982000Y-31623000D03*
X115982000Y-31623000D03*
D22*
X108732000Y-36333000D03*
D24*
X104394000Y-64008000D03*
X109474000Y-64008000D03*
D25*
X159766000Y-49022000D03*
X135445500Y-56261000D03*
X148336000Y-55816500D03*
X159702500Y-45021500D03*
X174053500Y-55054500D03*
X165671500Y-53975000D03*
X160020000Y-47752000D03*
X154559000Y-46355000D03*
X146748500Y-66738500D03*
X153035000Y-66802000D03*
X116586000Y-45212000D03*
X138364000Y-68410000D03*
X136448800Y-68402200D03*
X159258000Y-52832000D03*
X160528000Y-60706000D03*
X176022000Y-60706000D03*
X160020000Y-57404000D03*
X160528000Y-44704000D03*
X161544000Y-44958000D03*
X162306000Y-45720000D03*
X164592000Y-45974000D03*
X165354000Y-46482000D03*
X166116000Y-47244000D03*
X166878000Y-47498000D03*
X167640000Y-47752000D03*
X166370000Y-50546000D03*
X139700000Y-48768000D03*
X166116000Y-51308000D03*
X140462000Y-50546000D03*
X165862000Y-52070000D03*
X141224000Y-51562000D03*
X158242000Y-52070000D03*
X177292000Y-56642000D03*
X190055500Y-55753000D03*
X157988000Y-51435000D03*
X186182000Y-59182000D03*
X156718000Y-56134000D03*
X183642000Y-59690000D03*
X152654000Y-53594000D03*
X188722000Y-60452000D03*
X151638000Y-53594000D03*
X156718000Y-49530000D03*
D26*
X161762000Y-52796000D02*
X159766000Y-50800000D01*
X159766000Y-50800000D02*
X159766000Y-49022000D01*
X162950000Y-52796000D02*
X161762000Y-52796000D01*
X156500000Y-54746000D02*
X156500000Y-55526500D01*
X135572500Y-56388000D02*
X135445500Y-56261000D01*
X155638500Y-56388000D02*
X135572500Y-56388000D01*
X156500000Y-55526500D02*
X155638500Y-56388000D01*
X153225500Y-55816500D02*
X148336000Y-55816500D01*
X193802000Y-69088000D02*
X209423000Y-69088000D01*
X223351000Y-55160000D02*
X225790000Y-55160000D01*
X209423000Y-69088000D02*
X223351000Y-55160000D01*
X160000000Y-45319000D02*
X160000000Y-46346000D01*
X159702500Y-45021500D02*
X160000000Y-45319000D01*
X153213500Y-54800500D02*
X153213500Y-55816500D01*
X153213500Y-55816500D02*
X153225500Y-55816500D01*
X159893000Y-53467000D02*
X161734500Y-53467000D01*
X159893000Y-53467000D02*
X156083000Y-53467000D01*
X156083000Y-53467000D02*
X156000000Y-53550000D01*
X156000000Y-54746000D02*
X156000000Y-53550000D01*
X161905500Y-53296000D02*
X162950000Y-53296000D01*
X161734500Y-53467000D02*
X161905500Y-53296000D01*
X156000000Y-54746000D02*
X155566000Y-54746000D01*
X154495500Y-55816500D02*
X153225500Y-55816500D01*
X155566000Y-54746000D02*
X154495500Y-55816500D01*
X191262000Y-55130000D02*
X192417000Y-55130000D01*
X193802000Y-56515000D02*
X193802000Y-69088000D01*
X192417000Y-55130000D02*
X193802000Y-56515000D01*
X174129000Y-55130000D02*
X176022000Y-55130000D01*
X174053500Y-55054500D02*
X174129000Y-55130000D01*
X162950000Y-53296000D02*
X164992500Y-53296000D01*
X164992500Y-53296000D02*
X165671500Y-53975000D01*
X160000000Y-47732000D02*
X160000000Y-46346000D01*
X160020000Y-47752000D02*
X160000000Y-47732000D01*
X154559000Y-46355000D02*
X155991000Y-46355000D01*
X155991000Y-46355000D02*
X156000000Y-46346000D01*
X154550000Y-46364000D02*
X154550000Y-47796000D01*
X154559000Y-46355000D02*
X154550000Y-46364000D01*
X188722000Y-55130000D02*
X191262000Y-55130000D01*
X186182000Y-55130000D02*
X188722000Y-55130000D01*
X178562000Y-55130000D02*
X186182000Y-55130000D01*
X176022000Y-55130000D02*
X178562000Y-55130000D01*
D27*
X152971500Y-66738500D02*
X146748500Y-66738500D01*
X153035000Y-66802000D02*
X152971500Y-66738500D01*
X116586000Y-45212000D02*
X116586000Y-43518000D01*
X138356200Y-68402200D02*
X136448800Y-68402200D01*
X138356200Y-68402200D02*
X138364000Y-68410000D01*
D26*
X154698000Y-37846000D02*
X154698000Y-41104000D01*
X154698000Y-41104000D02*
X154742000Y-41148000D01*
X158000000Y-46346000D02*
X158000000Y-42430000D01*
X156718000Y-41148000D02*
X154742000Y-41148000D01*
X158000000Y-42430000D02*
X156718000Y-41148000D01*
X161786000Y-37846000D02*
X161786000Y-41104000D01*
X161786000Y-41104000D02*
X161742000Y-41148000D01*
X158500000Y-46346000D02*
X158500000Y-42422000D01*
X159774000Y-41148000D02*
X161742000Y-41148000D01*
X158500000Y-42422000D02*
X159774000Y-41148000D01*
X159000000Y-52574000D02*
X159258000Y-52832000D01*
X160528000Y-57912000D02*
X160528000Y-60706000D01*
X159000000Y-52574000D02*
X159000000Y-46346000D01*
X160020000Y-57404000D02*
X160528000Y-57912000D01*
X173978000Y-56642000D02*
X176010000Y-56642000D01*
X176010000Y-56642000D02*
X176022000Y-56630000D01*
X176022000Y-60706000D02*
X176022000Y-69088000D01*
X176022000Y-60706000D02*
X176022000Y-56630000D01*
X115636000Y-41318000D02*
X115636000Y-38775600D01*
X113193400Y-36333000D02*
X111232000Y-36333000D01*
X115636000Y-38775600D02*
X113193400Y-36333000D01*
X111232000Y-34333000D02*
X113327000Y-34333000D01*
X113454000Y-34460000D02*
X117536000Y-38542000D01*
X117536000Y-38542000D02*
X117536000Y-41318000D01*
X113327000Y-34333000D02*
X113454000Y-34460000D01*
X117536000Y-43518000D02*
X117536000Y-44638000D01*
X117856000Y-44958000D02*
X117856000Y-46494000D01*
X117536000Y-44638000D02*
X117856000Y-44958000D01*
X115636000Y-43518000D02*
X115636000Y-44892000D01*
X115316000Y-45212000D02*
X115316000Y-46494000D01*
X115636000Y-44892000D02*
X115316000Y-45212000D01*
X160500000Y-44986000D02*
X160500000Y-46346000D01*
X160500000Y-44732000D02*
X160500000Y-44986000D01*
X160528000Y-44704000D02*
X160500000Y-44732000D01*
X161000000Y-45248000D02*
X161000000Y-46346000D01*
X161290000Y-44958000D02*
X161000000Y-45248000D01*
X161544000Y-44958000D02*
X161290000Y-44958000D01*
X162306000Y-45720000D02*
X162306000Y-46228000D01*
X162188000Y-46346000D02*
X161500000Y-46346000D01*
X162306000Y-46228000D02*
X162188000Y-46346000D01*
X162950000Y-47796000D02*
X164040000Y-47796000D01*
X164592000Y-47244000D02*
X164592000Y-45974000D01*
X164040000Y-47796000D02*
X164592000Y-47244000D01*
X162950000Y-48296000D02*
X164302000Y-48296000D01*
X165354000Y-47244000D02*
X165354000Y-46482000D01*
X164302000Y-48296000D02*
X165354000Y-47244000D01*
X162950000Y-48796000D02*
X164564000Y-48796000D01*
X164564000Y-48796000D02*
X166116000Y-47244000D01*
X162950000Y-49296000D02*
X165080000Y-49296000D01*
X165080000Y-49296000D02*
X166878000Y-47498000D01*
X162950000Y-49796000D02*
X165596000Y-49796000D01*
X165596000Y-49796000D02*
X167640000Y-47752000D01*
X166120000Y-50296000D02*
X166370000Y-50546000D01*
X139700000Y-33020000D02*
X139700000Y-48768000D01*
X166120000Y-50296000D02*
X162950000Y-50296000D01*
X165604000Y-50796000D02*
X166116000Y-51308000D01*
X140462000Y-50546000D02*
X140462000Y-35814000D01*
X142240000Y-34036000D02*
X140462000Y-35814000D01*
X165604000Y-50796000D02*
X162950000Y-50796000D01*
X142240000Y-34036000D02*
X142240000Y-33020000D01*
X165088000Y-51296000D02*
X165862000Y-52070000D01*
X141224000Y-51562000D02*
X141224000Y-36322000D01*
X141224000Y-36322000D02*
X142494000Y-35052000D01*
X142494000Y-35052000D02*
X144272000Y-35052000D01*
X144272000Y-35052000D02*
X144780000Y-34544000D01*
X144780000Y-33020000D02*
X144780000Y-34544000D01*
X165088000Y-51296000D02*
X162950000Y-51296000D01*
X158016000Y-52296000D02*
X158242000Y-52070000D01*
X177292000Y-56642000D02*
X177304000Y-56630000D01*
X178562000Y-56630000D02*
X177304000Y-56630000D01*
X158016000Y-52296000D02*
X154550000Y-52296000D01*
X150904000Y-52296000D02*
X150086000Y-52296000D01*
X150086000Y-52296000D02*
X147320000Y-49530000D01*
X147320000Y-49530000D02*
X147320000Y-33020000D01*
X154550000Y-52296000D02*
X150904000Y-52296000D01*
X178562000Y-60198000D02*
X178562000Y-69088000D01*
X178562000Y-60198000D02*
X178562000Y-56630000D01*
X154550000Y-51796000D02*
X157627000Y-51796000D01*
X190309500Y-55753000D02*
X191186500Y-56630000D01*
X190055500Y-55753000D02*
X190309500Y-55753000D01*
X157627000Y-51796000D02*
X157988000Y-51435000D01*
X191186500Y-56630000D02*
X191262000Y-56630000D01*
X191262000Y-57912000D02*
X191262000Y-69088000D01*
X191262000Y-57912000D02*
X191262000Y-56630000D01*
X154550000Y-51796000D02*
X150368000Y-51796000D01*
X150368000Y-51796000D02*
X150348000Y-51796000D01*
X149860000Y-34798000D02*
X149860000Y-33020000D01*
X149352000Y-35306000D02*
X149860000Y-34798000D01*
X148590000Y-35306000D02*
X149352000Y-35306000D01*
X147828000Y-36068000D02*
X148590000Y-35306000D01*
X147828000Y-49276000D02*
X147828000Y-36068000D01*
X150348000Y-51796000D02*
X147828000Y-49276000D01*
X154550000Y-51296000D02*
X150610000Y-51296000D01*
X152400000Y-34798000D02*
X152400000Y-33020000D01*
X151384000Y-35814000D02*
X152400000Y-34798000D01*
X148844000Y-35814000D02*
X151384000Y-35814000D01*
X148285202Y-36372798D02*
X148844000Y-35814000D01*
X148285202Y-48971202D02*
X148285202Y-36372798D01*
X150610000Y-51296000D02*
X148285202Y-48971202D01*
X148844000Y-40640000D02*
X148844000Y-36830000D01*
X150872000Y-50796000D02*
X148844000Y-48768000D01*
X148844000Y-48768000D02*
X148844000Y-40640000D01*
X154550000Y-50796000D02*
X150872000Y-50796000D01*
X151522582Y-36322000D02*
X154824582Y-33020000D01*
X149352000Y-36322000D02*
X151522582Y-36322000D01*
X148844000Y-36830000D02*
X149352000Y-36322000D01*
X154824582Y-33020000D02*
X154940000Y-33020000D01*
X149352000Y-40894000D02*
X149352000Y-37338000D01*
X151134000Y-50296000D02*
X149352000Y-48514000D01*
X149352000Y-48514000D02*
X149352000Y-40894000D01*
X154550000Y-50296000D02*
X151134000Y-50296000D01*
X156464000Y-35052000D02*
X157480000Y-34036000D01*
X153670000Y-35052000D02*
X156464000Y-35052000D01*
X151892000Y-36830000D02*
X153670000Y-35052000D01*
X149860000Y-36830000D02*
X151892000Y-36830000D01*
X149352000Y-37338000D02*
X149860000Y-36830000D01*
X157480000Y-34036000D02*
X157480000Y-33020000D01*
X149860000Y-41148000D02*
X149860000Y-37795202D01*
X150845202Y-49296000D02*
X149860000Y-48310798D01*
X149860000Y-48310798D02*
X149860000Y-41148000D01*
X154550000Y-49296000D02*
X150845202Y-49296000D01*
X157480000Y-35560000D02*
X160020000Y-33020000D01*
X153924000Y-35560000D02*
X157480000Y-35560000D01*
X152146000Y-37338000D02*
X153924000Y-35560000D01*
X150317202Y-37338000D02*
X152146000Y-37338000D01*
X149860000Y-37795202D02*
X150317202Y-37338000D01*
X150368000Y-41402000D02*
X150368000Y-38100000D01*
X151158000Y-48796000D02*
X150368000Y-48006000D01*
X150368000Y-48006000D02*
X150368000Y-41402000D01*
X154550000Y-48796000D02*
X151158000Y-48796000D01*
X160528000Y-35052000D02*
X162560000Y-33020000D01*
X158750000Y-35052000D02*
X160528000Y-35052000D01*
X157734000Y-36068000D02*
X158750000Y-35052000D01*
X154178000Y-36068000D02*
X157734000Y-36068000D01*
X152400000Y-37846000D02*
X154178000Y-36068000D01*
X150622000Y-37846000D02*
X152400000Y-37846000D01*
X150368000Y-38100000D02*
X150622000Y-37846000D01*
X162950000Y-51796000D02*
X161778000Y-51796000D01*
X165100000Y-44196000D02*
X165100000Y-33020000D01*
X161544000Y-47752000D02*
X165100000Y-44196000D01*
X161544000Y-51562000D02*
X161544000Y-47752000D01*
X161778000Y-51796000D02*
X161544000Y-51562000D01*
X168910000Y-50038000D02*
X168910000Y-46990000D01*
X164818000Y-52296000D02*
X165354000Y-52832000D01*
X165354000Y-52832000D02*
X166116000Y-52832000D01*
X166116000Y-52832000D02*
X168910000Y-50038000D01*
X162950000Y-52296000D02*
X164818000Y-52296000D01*
X167640000Y-45720000D02*
X167640000Y-33020000D01*
X168910000Y-46990000D02*
X167640000Y-45720000D01*
X161500000Y-54746000D02*
X161500000Y-55582000D01*
X170180000Y-51816000D02*
X170180000Y-33020000D01*
X165354000Y-56642000D02*
X170180000Y-51816000D01*
X162560000Y-56642000D02*
X165354000Y-56642000D01*
X161500000Y-55582000D02*
X162560000Y-56642000D01*
X161000000Y-54746000D02*
X161000000Y-55844000D01*
X172720000Y-50038000D02*
X172720000Y-33020000D01*
X165608000Y-57150000D02*
X172720000Y-50038000D01*
X162306000Y-57150000D02*
X165608000Y-57150000D01*
X161000000Y-55844000D02*
X162306000Y-57150000D01*
X160500000Y-54746000D02*
X160500000Y-56106000D01*
X175260000Y-48260000D02*
X175260000Y-33020000D01*
X165862000Y-57658000D02*
X175260000Y-48260000D01*
X162052000Y-57658000D02*
X165862000Y-57658000D01*
X160500000Y-56106000D02*
X162052000Y-57658000D01*
X160000000Y-54746000D02*
X160000000Y-56368000D01*
X177800000Y-46482000D02*
X177800000Y-33020000D01*
X166116000Y-58166000D02*
X177800000Y-46482000D01*
X161798000Y-58166000D02*
X166116000Y-58166000D01*
X160000000Y-56368000D02*
X161798000Y-58166000D01*
X157000000Y-54746000D02*
X157000000Y-55852000D01*
X157000000Y-55852000D02*
X156718000Y-56134000D01*
X186182000Y-59182000D02*
X186182000Y-69088000D01*
X186182000Y-59182000D02*
X186182000Y-56630000D01*
X153206000Y-53296000D02*
X154550000Y-53296000D01*
X152952000Y-53296000D02*
X153206000Y-53296000D01*
X152654000Y-53594000D02*
X152952000Y-53296000D01*
X183642000Y-59690000D02*
X183642000Y-69088000D01*
X183642000Y-59690000D02*
X183642000Y-58408000D01*
X154550000Y-52796000D02*
X152436000Y-52796000D01*
X152436000Y-52796000D02*
X151638000Y-53594000D01*
X188722000Y-58674000D02*
X188722000Y-60452000D01*
X188722000Y-60452000D02*
X188722000Y-69088000D01*
X188722000Y-58674000D02*
X188722000Y-56630000D01*
X158500000Y-54746000D02*
X158500000Y-70608000D01*
X158500000Y-70608000D02*
X156464000Y-72644000D01*
X156464000Y-72644000D02*
X156464000Y-72898000D01*
X156464000Y-72517000D02*
X156464000Y-72898000D01*
X159000000Y-54746000D02*
X159000000Y-72894000D01*
X159000000Y-72894000D02*
X159004000Y-72898000D01*
X181102000Y-58408000D02*
X181102000Y-69088000D01*
X115316000Y-47994000D02*
X115316000Y-56388000D01*
X158000000Y-56884000D02*
X158000000Y-54746000D01*
X157480000Y-57404000D02*
X158000000Y-56884000D01*
X116332000Y-57404000D02*
X157480000Y-57404000D01*
X115316000Y-56388000D02*
X116332000Y-57404000D01*
X117856000Y-47994000D02*
X117856000Y-55880000D01*
X157500000Y-56368000D02*
X157500000Y-54746000D01*
X156972000Y-56896000D02*
X157500000Y-56368000D01*
X118872000Y-56896000D02*
X156972000Y-56896000D01*
X117856000Y-55880000D02*
X118872000Y-56896000D01*
X156452000Y-49796000D02*
X154550000Y-49796000D01*
X156718000Y-49530000D02*
X156452000Y-49796000D01*
D28*
G36*
X234594400Y-76225400D02*
X85572600Y-76225400D01*
X85572600Y-72986900D01*
X147828000Y-72986900D01*
X147828000Y-74091524D01*
X147866669Y-74184879D01*
X147938120Y-74256331D01*
X148031476Y-74295000D01*
X148755100Y-74295000D01*
X148818600Y-74231500D01*
X148818600Y-72923400D01*
X148869400Y-72923400D01*
X148869400Y-74231500D01*
X148932900Y-74295000D01*
X149656524Y-74295000D01*
X149749880Y-74256331D01*
X149821331Y-74184879D01*
X149860000Y-74091524D01*
X149860000Y-72986900D01*
X149796500Y-72923400D01*
X148869400Y-72923400D01*
X148818600Y-72923400D01*
X147891500Y-72923400D01*
X147828000Y-72986900D01*
X85572600Y-72986900D01*
X85572600Y-71704476D01*
X147828000Y-71704476D01*
X147828000Y-72809100D01*
X147891500Y-72872600D01*
X148818600Y-72872600D01*
X148818600Y-71564500D01*
X148869400Y-71564500D01*
X148869400Y-72872600D01*
X149796500Y-72872600D01*
X149860000Y-72809100D01*
X149860000Y-72488636D01*
X150317200Y-72488636D01*
X150317200Y-73307364D01*
X150398405Y-73715611D01*
X150629658Y-74061706D01*
X150975753Y-74292959D01*
X151384000Y-74374164D01*
X151792247Y-74292959D01*
X152138342Y-74061706D01*
X152369595Y-73715611D01*
X152450800Y-73307364D01*
X152450800Y-72488636D01*
X152857200Y-72488636D01*
X152857200Y-73307364D01*
X152938405Y-73715611D01*
X153169658Y-74061706D01*
X153515753Y-74292959D01*
X153924000Y-74374164D01*
X154332247Y-74292959D01*
X154678342Y-74061706D01*
X154909595Y-73715611D01*
X154990800Y-73307364D01*
X154990800Y-72488636D01*
X154909595Y-72080389D01*
X154678342Y-71734294D01*
X154332247Y-71503041D01*
X153924000Y-71421836D01*
X153515753Y-71503041D01*
X153169658Y-71734294D01*
X152938405Y-72080389D01*
X152857200Y-72488636D01*
X152450800Y-72488636D01*
X152369595Y-72080389D01*
X152138342Y-71734294D01*
X151792247Y-71503041D01*
X151384000Y-71421836D01*
X150975753Y-71503041D01*
X150629658Y-71734294D01*
X150398405Y-72080389D01*
X150317200Y-72488636D01*
X149860000Y-72488636D01*
X149860000Y-71704476D01*
X149821331Y-71611121D01*
X149749880Y-71539669D01*
X149656524Y-71501000D01*
X148932900Y-71501000D01*
X148869400Y-71564500D01*
X148818600Y-71564500D01*
X148755100Y-71501000D01*
X148031476Y-71501000D01*
X147938120Y-71539669D01*
X147866669Y-71611121D01*
X147828000Y-71704476D01*
X85572600Y-71704476D01*
X85572600Y-68402200D01*
X135839200Y-68402200D01*
X135885603Y-68635484D01*
X136017748Y-68833252D01*
X136215516Y-68965397D01*
X136448800Y-69011800D01*
X138324787Y-69011800D01*
X138364000Y-69019600D01*
X138597284Y-68973197D01*
X138795052Y-68841052D01*
X138927197Y-68643284D01*
X138973600Y-68410000D01*
X138927197Y-68176716D01*
X138795052Y-67978948D01*
X138787252Y-67971148D01*
X138589484Y-67839003D01*
X138356200Y-67792600D01*
X136448800Y-67792600D01*
X136215516Y-67839003D01*
X136017748Y-67971148D01*
X135885603Y-68168916D01*
X135839200Y-68402200D01*
X85572600Y-68402200D01*
X85572600Y-66738500D01*
X146138900Y-66738500D01*
X146185303Y-66971784D01*
X146317448Y-67169552D01*
X146515216Y-67301697D01*
X146748500Y-67348100D01*
X152776129Y-67348100D01*
X152801717Y-67365197D01*
X153035000Y-67411600D01*
X153268284Y-67365197D01*
X153466053Y-67233053D01*
X153598197Y-67035284D01*
X153644600Y-66802000D01*
X153598197Y-66568717D01*
X153466053Y-66370948D01*
X153402552Y-66307448D01*
X153204784Y-66175303D01*
X152971500Y-66128900D01*
X146748500Y-66128900D01*
X146515216Y-66175303D01*
X146317448Y-66307448D01*
X146185303Y-66505216D01*
X146138900Y-66738500D01*
X85572600Y-66738500D01*
X85572600Y-65079649D01*
X103358272Y-65079649D01*
X103501337Y-65279859D01*
X104056006Y-65524651D01*
X104662132Y-65538548D01*
X105227437Y-65319433D01*
X105286663Y-65279859D01*
X105429728Y-65079649D01*
X108438272Y-65079649D01*
X108581337Y-65279859D01*
X109136006Y-65524651D01*
X109742132Y-65538548D01*
X110307437Y-65319433D01*
X110366663Y-65279859D01*
X110509728Y-65079649D01*
X109474000Y-64043921D01*
X108438272Y-65079649D01*
X105429728Y-65079649D01*
X104394000Y-64043921D01*
X103358272Y-65079649D01*
X85572600Y-65079649D01*
X85572600Y-64276132D01*
X102863452Y-64276132D01*
X103082567Y-64841437D01*
X103122141Y-64900663D01*
X103322351Y-65043728D01*
X104358079Y-64008000D01*
X104429921Y-64008000D01*
X105465649Y-65043728D01*
X105665859Y-64900663D01*
X105910651Y-64345994D01*
X105912252Y-64276132D01*
X107943452Y-64276132D01*
X108162567Y-64841437D01*
X108202141Y-64900663D01*
X108402351Y-65043728D01*
X109438079Y-64008000D01*
X109509921Y-64008000D01*
X110545649Y-65043728D01*
X110745859Y-64900663D01*
X110990651Y-64345994D01*
X111004548Y-63739868D01*
X110785433Y-63174563D01*
X110745859Y-63115337D01*
X110545649Y-62972272D01*
X109509921Y-64008000D01*
X109438079Y-64008000D01*
X108402351Y-62972272D01*
X108202141Y-63115337D01*
X107957349Y-63670006D01*
X107943452Y-64276132D01*
X105912252Y-64276132D01*
X105924548Y-63739868D01*
X105705433Y-63174563D01*
X105665859Y-63115337D01*
X105465649Y-62972272D01*
X104429921Y-64008000D01*
X104358079Y-64008000D01*
X103322351Y-62972272D01*
X103122141Y-63115337D01*
X102877349Y-63670006D01*
X102863452Y-64276132D01*
X85572600Y-64276132D01*
X85572600Y-62936351D01*
X103358272Y-62936351D01*
X104394000Y-63972079D01*
X105429728Y-62936351D01*
X108438272Y-62936351D01*
X109474000Y-63972079D01*
X110509728Y-62936351D01*
X110366663Y-62736141D01*
X109811994Y-62491349D01*
X109205868Y-62477452D01*
X108640563Y-62696567D01*
X108581337Y-62736141D01*
X108438272Y-62936351D01*
X105429728Y-62936351D01*
X105286663Y-62736141D01*
X104731994Y-62491349D01*
X104125868Y-62477452D01*
X103560563Y-62696567D01*
X103501337Y-62736141D01*
X103358272Y-62936351D01*
X85572600Y-62936351D01*
X85572600Y-47569000D01*
X114505229Y-47569000D01*
X114505229Y-48419000D01*
X114526482Y-48531952D01*
X114593237Y-48635692D01*
X114695093Y-48705287D01*
X114816000Y-48729771D01*
X114884200Y-48729771D01*
X114884200Y-56388000D01*
X114917069Y-56553243D01*
X115001927Y-56680243D01*
X115010671Y-56693329D01*
X116026671Y-57709329D01*
X116166757Y-57802931D01*
X116332000Y-57835800D01*
X157480000Y-57835800D01*
X157645243Y-57802931D01*
X157785329Y-57709329D01*
X158068200Y-57426458D01*
X158068200Y-70429142D01*
X156945413Y-71551929D01*
X156872247Y-71503041D01*
X156464000Y-71421836D01*
X156055753Y-71503041D01*
X155709658Y-71734294D01*
X155478405Y-72080389D01*
X155397200Y-72488636D01*
X155397200Y-73307364D01*
X155478405Y-73715611D01*
X155709658Y-74061706D01*
X156055753Y-74292959D01*
X156464000Y-74374164D01*
X156872247Y-74292959D01*
X157218342Y-74061706D01*
X157449595Y-73715611D01*
X157530800Y-73307364D01*
X157530800Y-72488636D01*
X157480898Y-72237760D01*
X158568200Y-71150458D01*
X158568200Y-71521451D01*
X158249658Y-71734294D01*
X158018405Y-72080389D01*
X157937200Y-72488636D01*
X157937200Y-73307364D01*
X158018405Y-73715611D01*
X158249658Y-74061706D01*
X158595753Y-74292959D01*
X159004000Y-74374164D01*
X159412247Y-74292959D01*
X159758342Y-74061706D01*
X159989595Y-73715611D01*
X160070800Y-73307364D01*
X160070800Y-72488636D01*
X160477200Y-72488636D01*
X160477200Y-73307364D01*
X160558405Y-73715611D01*
X160789658Y-74061706D01*
X161135753Y-74292959D01*
X161544000Y-74374164D01*
X161952247Y-74292959D01*
X162298342Y-74061706D01*
X162529595Y-73715611D01*
X162610800Y-73307364D01*
X162610800Y-72488636D01*
X162529595Y-72080389D01*
X162414008Y-71907400D01*
X169926000Y-71907400D01*
X169926000Y-72288400D01*
X170013059Y-72675273D01*
X170241540Y-72999381D01*
X170576660Y-73211382D01*
X170758025Y-73262204D01*
X170916600Y-73215161D01*
X170916600Y-71907400D01*
X170967400Y-71907400D01*
X170967400Y-73215161D01*
X171125975Y-73262204D01*
X171307340Y-73211382D01*
X171642460Y-72999381D01*
X171870941Y-72675273D01*
X171958000Y-72288400D01*
X171958000Y-71907400D01*
X172466000Y-71907400D01*
X172466000Y-72288400D01*
X172553059Y-72675273D01*
X172781540Y-72999381D01*
X173116660Y-73211382D01*
X173298025Y-73262204D01*
X173456600Y-73215161D01*
X173456600Y-71907400D01*
X173507400Y-71907400D01*
X173507400Y-73215161D01*
X173665975Y-73262204D01*
X173847340Y-73211382D01*
X174182460Y-72999381D01*
X174410941Y-72675273D01*
X174498000Y-72288400D01*
X174498000Y-71907400D01*
X175006000Y-71907400D01*
X175006000Y-72288400D01*
X175093059Y-72675273D01*
X175321540Y-72999381D01*
X175656660Y-73211382D01*
X175838025Y-73262204D01*
X175996600Y-73215161D01*
X175996600Y-71907400D01*
X176047400Y-71907400D01*
X176047400Y-73215161D01*
X176205975Y-73262204D01*
X176387340Y-73211382D01*
X176722460Y-72999381D01*
X176950941Y-72675273D01*
X177038000Y-72288400D01*
X177038000Y-71907400D01*
X177546000Y-71907400D01*
X177546000Y-72288400D01*
X177633059Y-72675273D01*
X177861540Y-72999381D01*
X178196660Y-73211382D01*
X178378025Y-73262204D01*
X178536600Y-73215161D01*
X178536600Y-71907400D01*
X178587400Y-71907400D01*
X178587400Y-73215161D01*
X178745975Y-73262204D01*
X178927340Y-73211382D01*
X179262460Y-72999381D01*
X179490941Y-72675273D01*
X179578000Y-72288400D01*
X179578000Y-71907400D01*
X180086000Y-71907400D01*
X180086000Y-72288400D01*
X180173059Y-72675273D01*
X180401540Y-72999381D01*
X180736660Y-73211382D01*
X180918025Y-73262204D01*
X181076600Y-73215161D01*
X181076600Y-71907400D01*
X181127400Y-71907400D01*
X181127400Y-73215161D01*
X181285975Y-73262204D01*
X181467340Y-73211382D01*
X181802460Y-72999381D01*
X182030941Y-72675273D01*
X182118000Y-72288400D01*
X182118000Y-71907400D01*
X182626000Y-71907400D01*
X182626000Y-72288400D01*
X182713059Y-72675273D01*
X182941540Y-72999381D01*
X183276660Y-73211382D01*
X183458025Y-73262204D01*
X183616600Y-73215161D01*
X183616600Y-71907400D01*
X183667400Y-71907400D01*
X183667400Y-73215161D01*
X183825975Y-73262204D01*
X184007340Y-73211382D01*
X184342460Y-72999381D01*
X184570941Y-72675273D01*
X184658000Y-72288400D01*
X184658000Y-71907400D01*
X185166000Y-71907400D01*
X185166000Y-72288400D01*
X185253059Y-72675273D01*
X185481540Y-72999381D01*
X185816660Y-73211382D01*
X185998025Y-73262204D01*
X186156600Y-73215161D01*
X186156600Y-71907400D01*
X186207400Y-71907400D01*
X186207400Y-73215161D01*
X186365975Y-73262204D01*
X186547340Y-73211382D01*
X186882460Y-72999381D01*
X187110941Y-72675273D01*
X187198000Y-72288400D01*
X187198000Y-71907400D01*
X187706000Y-71907400D01*
X187706000Y-72288400D01*
X187793059Y-72675273D01*
X188021540Y-72999381D01*
X188356660Y-73211382D01*
X188538025Y-73262204D01*
X188696600Y-73215161D01*
X188696600Y-71907400D01*
X188747400Y-71907400D01*
X188747400Y-73215161D01*
X188905975Y-73262204D01*
X189087340Y-73211382D01*
X189422460Y-72999381D01*
X189650941Y-72675273D01*
X189738000Y-72288400D01*
X189738000Y-71907400D01*
X190246000Y-71907400D01*
X190246000Y-72288400D01*
X190333059Y-72675273D01*
X190561540Y-72999381D01*
X190896660Y-73211382D01*
X191078025Y-73262204D01*
X191236600Y-73215161D01*
X191236600Y-71907400D01*
X191287400Y-71907400D01*
X191287400Y-73215161D01*
X191445975Y-73262204D01*
X191627340Y-73211382D01*
X191962460Y-72999381D01*
X192190941Y-72675273D01*
X192278000Y-72288400D01*
X192278000Y-71907400D01*
X192786000Y-71907400D01*
X192786000Y-72288400D01*
X192873059Y-72675273D01*
X193101540Y-72999381D01*
X193436660Y-73211382D01*
X193618025Y-73262204D01*
X193776600Y-73215161D01*
X193776600Y-71907400D01*
X193827400Y-71907400D01*
X193827400Y-73215161D01*
X193985975Y-73262204D01*
X194167340Y-73211382D01*
X194502460Y-72999381D01*
X194730941Y-72675273D01*
X194818000Y-72288400D01*
X194818000Y-71907400D01*
X193827400Y-71907400D01*
X193776600Y-71907400D01*
X192786000Y-71907400D01*
X192278000Y-71907400D01*
X191287400Y-71907400D01*
X191236600Y-71907400D01*
X190246000Y-71907400D01*
X189738000Y-71907400D01*
X188747400Y-71907400D01*
X188696600Y-71907400D01*
X187706000Y-71907400D01*
X187198000Y-71907400D01*
X186207400Y-71907400D01*
X186156600Y-71907400D01*
X185166000Y-71907400D01*
X184658000Y-71907400D01*
X183667400Y-71907400D01*
X183616600Y-71907400D01*
X182626000Y-71907400D01*
X182118000Y-71907400D01*
X181127400Y-71907400D01*
X181076600Y-71907400D01*
X180086000Y-71907400D01*
X179578000Y-71907400D01*
X178587400Y-71907400D01*
X178536600Y-71907400D01*
X177546000Y-71907400D01*
X177038000Y-71907400D01*
X176047400Y-71907400D01*
X175996600Y-71907400D01*
X175006000Y-71907400D01*
X174498000Y-71907400D01*
X173507400Y-71907400D01*
X173456600Y-71907400D01*
X172466000Y-71907400D01*
X171958000Y-71907400D01*
X170967400Y-71907400D01*
X170916600Y-71907400D01*
X169926000Y-71907400D01*
X162414008Y-71907400D01*
X162298342Y-71734294D01*
X161952247Y-71503041D01*
X161814292Y-71475600D01*
X169926000Y-71475600D01*
X169926000Y-71856600D01*
X170916600Y-71856600D01*
X170916600Y-70548839D01*
X170967400Y-70548839D01*
X170967400Y-71856600D01*
X171958000Y-71856600D01*
X171958000Y-71475600D01*
X172466000Y-71475600D01*
X172466000Y-71856600D01*
X173456600Y-71856600D01*
X173456600Y-70548839D01*
X173507400Y-70548839D01*
X173507400Y-71856600D01*
X174498000Y-71856600D01*
X174498000Y-71475600D01*
X175006000Y-71475600D01*
X175006000Y-71856600D01*
X175996600Y-71856600D01*
X175996600Y-70548839D01*
X176047400Y-70548839D01*
X176047400Y-71856600D01*
X177038000Y-71856600D01*
X177038000Y-71475600D01*
X177546000Y-71475600D01*
X177546000Y-71856600D01*
X178536600Y-71856600D01*
X178536600Y-70548839D01*
X178587400Y-70548839D01*
X178587400Y-71856600D01*
X179578000Y-71856600D01*
X179578000Y-71475600D01*
X180086000Y-71475600D01*
X180086000Y-71856600D01*
X181076600Y-71856600D01*
X181076600Y-70548839D01*
X181127400Y-70548839D01*
X181127400Y-71856600D01*
X182118000Y-71856600D01*
X182118000Y-71475600D01*
X182626000Y-71475600D01*
X182626000Y-71856600D01*
X183616600Y-71856600D01*
X183616600Y-70548839D01*
X183667400Y-70548839D01*
X183667400Y-71856600D01*
X184658000Y-71856600D01*
X184658000Y-71475600D01*
X185166000Y-71475600D01*
X185166000Y-71856600D01*
X186156600Y-71856600D01*
X186156600Y-70548839D01*
X186207400Y-70548839D01*
X186207400Y-71856600D01*
X187198000Y-71856600D01*
X187198000Y-71475600D01*
X187706000Y-71475600D01*
X187706000Y-71856600D01*
X188696600Y-71856600D01*
X188696600Y-70548839D01*
X188747400Y-70548839D01*
X188747400Y-71856600D01*
X189738000Y-71856600D01*
X189738000Y-71475600D01*
X190246000Y-71475600D01*
X190246000Y-71856600D01*
X191236600Y-71856600D01*
X191236600Y-70548839D01*
X191287400Y-70548839D01*
X191287400Y-71856600D01*
X192278000Y-71856600D01*
X192278000Y-71475600D01*
X192786000Y-71475600D01*
X192786000Y-71856600D01*
X193776600Y-71856600D01*
X193776600Y-70548839D01*
X193827400Y-70548839D01*
X193827400Y-71856600D01*
X194818000Y-71856600D01*
X194818000Y-71475600D01*
X194730941Y-71088727D01*
X194502460Y-70764619D01*
X194167340Y-70552618D01*
X193985975Y-70501796D01*
X193827400Y-70548839D01*
X193776600Y-70548839D01*
X193618025Y-70501796D01*
X193436660Y-70552618D01*
X193101540Y-70764619D01*
X192873059Y-71088727D01*
X192786000Y-71475600D01*
X192278000Y-71475600D01*
X192190941Y-71088727D01*
X191962460Y-70764619D01*
X191627340Y-70552618D01*
X191445975Y-70501796D01*
X191287400Y-70548839D01*
X191236600Y-70548839D01*
X191078025Y-70501796D01*
X190896660Y-70552618D01*
X190561540Y-70764619D01*
X190333059Y-71088727D01*
X190246000Y-71475600D01*
X189738000Y-71475600D01*
X189650941Y-71088727D01*
X189422460Y-70764619D01*
X189087340Y-70552618D01*
X188905975Y-70501796D01*
X188747400Y-70548839D01*
X188696600Y-70548839D01*
X188538025Y-70501796D01*
X188356660Y-70552618D01*
X188021540Y-70764619D01*
X187793059Y-71088727D01*
X187706000Y-71475600D01*
X187198000Y-71475600D01*
X187110941Y-71088727D01*
X186882460Y-70764619D01*
X186547340Y-70552618D01*
X186365975Y-70501796D01*
X186207400Y-70548839D01*
X186156600Y-70548839D01*
X185998025Y-70501796D01*
X185816660Y-70552618D01*
X185481540Y-70764619D01*
X185253059Y-71088727D01*
X185166000Y-71475600D01*
X184658000Y-71475600D01*
X184570941Y-71088727D01*
X184342460Y-70764619D01*
X184007340Y-70552618D01*
X183825975Y-70501796D01*
X183667400Y-70548839D01*
X183616600Y-70548839D01*
X183458025Y-70501796D01*
X183276660Y-70552618D01*
X182941540Y-70764619D01*
X182713059Y-71088727D01*
X182626000Y-71475600D01*
X182118000Y-71475600D01*
X182030941Y-71088727D01*
X181802460Y-70764619D01*
X181467340Y-70552618D01*
X181285975Y-70501796D01*
X181127400Y-70548839D01*
X181076600Y-70548839D01*
X180918025Y-70501796D01*
X180736660Y-70552618D01*
X180401540Y-70764619D01*
X180173059Y-71088727D01*
X180086000Y-71475600D01*
X179578000Y-71475600D01*
X179490941Y-71088727D01*
X179262460Y-70764619D01*
X178927340Y-70552618D01*
X178745975Y-70501796D01*
X178587400Y-70548839D01*
X178536600Y-70548839D01*
X178378025Y-70501796D01*
X178196660Y-70552618D01*
X177861540Y-70764619D01*
X177633059Y-71088727D01*
X177546000Y-71475600D01*
X177038000Y-71475600D01*
X176950941Y-71088727D01*
X176722460Y-70764619D01*
X176387340Y-70552618D01*
X176205975Y-70501796D01*
X176047400Y-70548839D01*
X175996600Y-70548839D01*
X175838025Y-70501796D01*
X175656660Y-70552618D01*
X175321540Y-70764619D01*
X175093059Y-71088727D01*
X175006000Y-71475600D01*
X174498000Y-71475600D01*
X174410941Y-71088727D01*
X174182460Y-70764619D01*
X173847340Y-70552618D01*
X173665975Y-70501796D01*
X173507400Y-70548839D01*
X173456600Y-70548839D01*
X173298025Y-70501796D01*
X173116660Y-70552618D01*
X172781540Y-70764619D01*
X172553059Y-71088727D01*
X172466000Y-71475600D01*
X171958000Y-71475600D01*
X171870941Y-71088727D01*
X171642460Y-70764619D01*
X171307340Y-70552618D01*
X171125975Y-70501796D01*
X170967400Y-70548839D01*
X170916600Y-70548839D01*
X170758025Y-70501796D01*
X170576660Y-70552618D01*
X170241540Y-70764619D01*
X170013059Y-71088727D01*
X169926000Y-71475600D01*
X161814292Y-71475600D01*
X161544000Y-71421836D01*
X161135753Y-71503041D01*
X160789658Y-71734294D01*
X160558405Y-72080389D01*
X160477200Y-72488636D01*
X160070800Y-72488636D01*
X159989595Y-72080389D01*
X159758342Y-71734294D01*
X159431800Y-71516106D01*
X159431800Y-68424636D01*
X169875200Y-68424636D01*
X169875200Y-69243364D01*
X169956405Y-69651611D01*
X170187658Y-69997706D01*
X170533753Y-70228959D01*
X170942000Y-70310164D01*
X171350247Y-70228959D01*
X171696342Y-69997706D01*
X171927595Y-69651611D01*
X172008800Y-69243364D01*
X172008800Y-68424636D01*
X172415200Y-68424636D01*
X172415200Y-69243364D01*
X172496405Y-69651611D01*
X172727658Y-69997706D01*
X173073753Y-70228959D01*
X173482000Y-70310164D01*
X173890247Y-70228959D01*
X174236342Y-69997706D01*
X174467595Y-69651611D01*
X174548800Y-69243364D01*
X174548800Y-68424636D01*
X174467595Y-68016389D01*
X174236342Y-67670294D01*
X173890247Y-67439041D01*
X173482000Y-67357836D01*
X173073753Y-67439041D01*
X172727658Y-67670294D01*
X172496405Y-68016389D01*
X172415200Y-68424636D01*
X172008800Y-68424636D01*
X171927595Y-68016389D01*
X171696342Y-67670294D01*
X171350247Y-67439041D01*
X170942000Y-67357836D01*
X170533753Y-67439041D01*
X170187658Y-67670294D01*
X169956405Y-68016389D01*
X169875200Y-68424636D01*
X159431800Y-68424636D01*
X159431800Y-55807899D01*
X159500000Y-55821465D01*
X159568200Y-55807899D01*
X159568200Y-56368000D01*
X159601069Y-56533243D01*
X159614432Y-56553242D01*
X159694671Y-56673329D01*
X159898433Y-56877091D01*
X159718248Y-56951542D01*
X159568069Y-57101459D01*
X159486693Y-57297435D01*
X159486508Y-57509634D01*
X159567542Y-57705752D01*
X159717459Y-57855931D01*
X159913435Y-57937307D01*
X159942675Y-57937332D01*
X160096200Y-58090857D01*
X160096200Y-60383363D01*
X160076069Y-60403459D01*
X159994693Y-60599435D01*
X159994508Y-60811634D01*
X160075542Y-61007752D01*
X160225459Y-61157931D01*
X160421435Y-61239307D01*
X160633634Y-61239492D01*
X160829752Y-61158458D01*
X160979931Y-61008541D01*
X161061307Y-60812565D01*
X161061492Y-60600366D01*
X160980458Y-60404248D01*
X160959800Y-60383554D01*
X160959800Y-57938458D01*
X161492671Y-58471329D01*
X161632757Y-58564931D01*
X161798000Y-58597800D01*
X166116000Y-58597800D01*
X166281243Y-58564931D01*
X166421329Y-58471329D01*
X168161758Y-56730900D01*
X171774000Y-56730900D01*
X171774000Y-57167524D01*
X171812669Y-57260879D01*
X171884120Y-57332331D01*
X171977476Y-57371000D01*
X172389100Y-57371000D01*
X172452600Y-57307500D01*
X172452600Y-56667400D01*
X172503400Y-56667400D01*
X172503400Y-57307500D01*
X172566900Y-57371000D01*
X172978524Y-57371000D01*
X173071880Y-57332331D01*
X173143331Y-57260879D01*
X173182000Y-57167524D01*
X173182000Y-56730900D01*
X173118500Y-56667400D01*
X172503400Y-56667400D01*
X172452600Y-56667400D01*
X171837500Y-56667400D01*
X171774000Y-56730900D01*
X168161758Y-56730900D01*
X168776182Y-56116476D01*
X171774000Y-56116476D01*
X171774000Y-56553100D01*
X171837500Y-56616600D01*
X172452600Y-56616600D01*
X172452600Y-55976500D01*
X172503400Y-55976500D01*
X172503400Y-56616600D01*
X173118500Y-56616600D01*
X173182000Y-56553100D01*
X173182000Y-56167000D01*
X173217229Y-56167000D01*
X173217229Y-57117000D01*
X173238482Y-57229952D01*
X173305237Y-57333692D01*
X173407093Y-57403287D01*
X173528000Y-57427771D01*
X174428000Y-57427771D01*
X174540952Y-57406518D01*
X174644692Y-57339763D01*
X174714287Y-57237907D01*
X174738771Y-57117000D01*
X174738771Y-57073800D01*
X175214766Y-57073800D01*
X175232482Y-57167952D01*
X175299237Y-57271692D01*
X175401093Y-57341287D01*
X175522000Y-57365771D01*
X175590200Y-57365771D01*
X175590200Y-60383363D01*
X175570069Y-60403459D01*
X175488693Y-60599435D01*
X175488508Y-60811634D01*
X175569542Y-61007752D01*
X175590200Y-61028446D01*
X175590200Y-67454779D01*
X175267658Y-67670294D01*
X175036405Y-68016389D01*
X174955200Y-68424636D01*
X174955200Y-69243364D01*
X175036405Y-69651611D01*
X175267658Y-69997706D01*
X175613753Y-70228959D01*
X176022000Y-70310164D01*
X176430247Y-70228959D01*
X176776342Y-69997706D01*
X177007595Y-69651611D01*
X177088800Y-69243364D01*
X177088800Y-68424636D01*
X177007595Y-68016389D01*
X176776342Y-67670294D01*
X176453800Y-67454779D01*
X176453800Y-61028637D01*
X176473931Y-61008541D01*
X176555307Y-60812565D01*
X176555492Y-60600366D01*
X176474458Y-60404248D01*
X176453800Y-60383554D01*
X176453800Y-57365771D01*
X176522000Y-57365771D01*
X176634952Y-57344518D01*
X176738692Y-57277763D01*
X176808287Y-57175907D01*
X176832771Y-57055000D01*
X176832771Y-56927365D01*
X176839542Y-56943752D01*
X176989459Y-57093931D01*
X177185435Y-57175307D01*
X177397634Y-57175492D01*
X177593752Y-57094458D01*
X177626467Y-57061800D01*
X177752508Y-57061800D01*
X177772482Y-57167952D01*
X177839237Y-57271692D01*
X177941093Y-57341287D01*
X178062000Y-57365771D01*
X178130200Y-57365771D01*
X178130200Y-67454779D01*
X177807658Y-67670294D01*
X177576405Y-68016389D01*
X177495200Y-68424636D01*
X177495200Y-69243364D01*
X177576405Y-69651611D01*
X177807658Y-69997706D01*
X178153753Y-70228959D01*
X178562000Y-70310164D01*
X178970247Y-70228959D01*
X179316342Y-69997706D01*
X179547595Y-69651611D01*
X179628800Y-69243364D01*
X179628800Y-68424636D01*
X180035200Y-68424636D01*
X180035200Y-69243364D01*
X180116405Y-69651611D01*
X180347658Y-69997706D01*
X180693753Y-70228959D01*
X181102000Y-70310164D01*
X181510247Y-70228959D01*
X181856342Y-69997706D01*
X182087595Y-69651611D01*
X182168800Y-69243364D01*
X182168800Y-68424636D01*
X182575200Y-68424636D01*
X182575200Y-69243364D01*
X182656405Y-69651611D01*
X182887658Y-69997706D01*
X183233753Y-70228959D01*
X183642000Y-70310164D01*
X184050247Y-70228959D01*
X184396342Y-69997706D01*
X184627595Y-69651611D01*
X184708800Y-69243364D01*
X184708800Y-68424636D01*
X185115200Y-68424636D01*
X185115200Y-69243364D01*
X185196405Y-69651611D01*
X185427658Y-69997706D01*
X185773753Y-70228959D01*
X186182000Y-70310164D01*
X186590247Y-70228959D01*
X186936342Y-69997706D01*
X187167595Y-69651611D01*
X187248800Y-69243364D01*
X187248800Y-68424636D01*
X187655200Y-68424636D01*
X187655200Y-69243364D01*
X187736405Y-69651611D01*
X187967658Y-69997706D01*
X188313753Y-70228959D01*
X188722000Y-70310164D01*
X189130247Y-70228959D01*
X189476342Y-69997706D01*
X189707595Y-69651611D01*
X189788800Y-69243364D01*
X189788800Y-68424636D01*
X189707595Y-68016389D01*
X189476342Y-67670294D01*
X189153800Y-67454779D01*
X189153800Y-60774637D01*
X189173931Y-60754541D01*
X189255307Y-60558565D01*
X189255492Y-60346366D01*
X189174458Y-60150248D01*
X189153800Y-60129554D01*
X189153800Y-57365771D01*
X189222000Y-57365771D01*
X189334952Y-57344518D01*
X189438692Y-57277763D01*
X189508287Y-57175907D01*
X189532771Y-57055000D01*
X189532771Y-56205000D01*
X189511518Y-56092048D01*
X189444763Y-55988308D01*
X189342907Y-55918713D01*
X189222000Y-55894229D01*
X188222000Y-55894229D01*
X188109048Y-55915482D01*
X188005308Y-55982237D01*
X187935713Y-56084093D01*
X187911229Y-56205000D01*
X187911229Y-57055000D01*
X187932482Y-57167952D01*
X187999237Y-57271692D01*
X188101093Y-57341287D01*
X188222000Y-57365771D01*
X188290200Y-57365771D01*
X188290200Y-60129363D01*
X188270069Y-60149459D01*
X188188693Y-60345435D01*
X188188508Y-60557634D01*
X188269542Y-60753752D01*
X188290200Y-60774446D01*
X188290200Y-67454779D01*
X187967658Y-67670294D01*
X187736405Y-68016389D01*
X187655200Y-68424636D01*
X187248800Y-68424636D01*
X187167595Y-68016389D01*
X186936342Y-67670294D01*
X186613800Y-67454779D01*
X186613800Y-59504637D01*
X186633931Y-59484541D01*
X186715307Y-59288565D01*
X186715492Y-59076366D01*
X186634458Y-58880248D01*
X186613800Y-58859554D01*
X186613800Y-57365771D01*
X186682000Y-57365771D01*
X186794952Y-57344518D01*
X186898692Y-57277763D01*
X186968287Y-57175907D01*
X186992771Y-57055000D01*
X186992771Y-56205000D01*
X186971518Y-56092048D01*
X186904763Y-55988308D01*
X186802907Y-55918713D01*
X186682000Y-55894229D01*
X185682000Y-55894229D01*
X185569048Y-55915482D01*
X185465308Y-55982237D01*
X185395713Y-56084093D01*
X185371229Y-56205000D01*
X185371229Y-57055000D01*
X185392482Y-57167952D01*
X185459237Y-57271692D01*
X185561093Y-57341287D01*
X185682000Y-57365771D01*
X185750200Y-57365771D01*
X185750200Y-58859363D01*
X185730069Y-58879459D01*
X185648693Y-59075435D01*
X185648508Y-59287634D01*
X185729542Y-59483752D01*
X185750200Y-59504446D01*
X185750200Y-67454779D01*
X185427658Y-67670294D01*
X185196405Y-68016389D01*
X185115200Y-68424636D01*
X184708800Y-68424636D01*
X184627595Y-68016389D01*
X184396342Y-67670294D01*
X184073800Y-67454779D01*
X184073800Y-60012637D01*
X184093931Y-59992541D01*
X184175307Y-59796565D01*
X184175492Y-59584366D01*
X184094458Y-59388248D01*
X184073800Y-59367554D01*
X184073800Y-59143771D01*
X184142000Y-59143771D01*
X184254952Y-59122518D01*
X184358692Y-59055763D01*
X184428287Y-58953907D01*
X184452771Y-58833000D01*
X184452771Y-57983000D01*
X184431518Y-57870048D01*
X184364763Y-57766308D01*
X184262907Y-57696713D01*
X184142000Y-57672229D01*
X183142000Y-57672229D01*
X183029048Y-57693482D01*
X182925308Y-57760237D01*
X182855713Y-57862093D01*
X182831229Y-57983000D01*
X182831229Y-58833000D01*
X182852482Y-58945952D01*
X182919237Y-59049692D01*
X183021093Y-59119287D01*
X183142000Y-59143771D01*
X183210200Y-59143771D01*
X183210200Y-59367363D01*
X183190069Y-59387459D01*
X183108693Y-59583435D01*
X183108508Y-59795634D01*
X183189542Y-59991752D01*
X183210200Y-60012446D01*
X183210200Y-67454779D01*
X182887658Y-67670294D01*
X182656405Y-68016389D01*
X182575200Y-68424636D01*
X182168800Y-68424636D01*
X182087595Y-68016389D01*
X181856342Y-67670294D01*
X181533800Y-67454779D01*
X181533800Y-59143771D01*
X181602000Y-59143771D01*
X181714952Y-59122518D01*
X181818692Y-59055763D01*
X181888287Y-58953907D01*
X181912771Y-58833000D01*
X181912771Y-57983000D01*
X181891518Y-57870048D01*
X181824763Y-57766308D01*
X181722907Y-57696713D01*
X181602000Y-57672229D01*
X180602000Y-57672229D01*
X180489048Y-57693482D01*
X180385308Y-57760237D01*
X180315713Y-57862093D01*
X180291229Y-57983000D01*
X180291229Y-58833000D01*
X180312482Y-58945952D01*
X180379237Y-59049692D01*
X180481093Y-59119287D01*
X180602000Y-59143771D01*
X180670200Y-59143771D01*
X180670200Y-67454779D01*
X180347658Y-67670294D01*
X180116405Y-68016389D01*
X180035200Y-68424636D01*
X179628800Y-68424636D01*
X179547595Y-68016389D01*
X179316342Y-67670294D01*
X178993800Y-67454779D01*
X178993800Y-57365771D01*
X179062000Y-57365771D01*
X179174952Y-57344518D01*
X179278692Y-57277763D01*
X179348287Y-57175907D01*
X179372771Y-57055000D01*
X179372771Y-56996900D01*
X180348000Y-56996900D01*
X180348000Y-57383524D01*
X180386669Y-57476880D01*
X180458121Y-57548331D01*
X180551476Y-57587000D01*
X181013100Y-57587000D01*
X181076600Y-57523500D01*
X181076600Y-56933400D01*
X181127400Y-56933400D01*
X181127400Y-57523500D01*
X181190900Y-57587000D01*
X181652524Y-57587000D01*
X181745879Y-57548331D01*
X181817331Y-57476880D01*
X181856000Y-57383524D01*
X181856000Y-56996900D01*
X182888000Y-56996900D01*
X182888000Y-57383524D01*
X182926669Y-57476880D01*
X182998121Y-57548331D01*
X183091476Y-57587000D01*
X183553100Y-57587000D01*
X183616600Y-57523500D01*
X183616600Y-56933400D01*
X183667400Y-56933400D01*
X183667400Y-57523500D01*
X183730900Y-57587000D01*
X184192524Y-57587000D01*
X184285879Y-57548331D01*
X184357331Y-57476880D01*
X184396000Y-57383524D01*
X184396000Y-56996900D01*
X184332500Y-56933400D01*
X183667400Y-56933400D01*
X183616600Y-56933400D01*
X182951500Y-56933400D01*
X182888000Y-56996900D01*
X181856000Y-56996900D01*
X181792500Y-56933400D01*
X181127400Y-56933400D01*
X181076600Y-56933400D01*
X180411500Y-56933400D01*
X180348000Y-56996900D01*
X179372771Y-56996900D01*
X179372771Y-56432476D01*
X180348000Y-56432476D01*
X180348000Y-56819100D01*
X180411500Y-56882600D01*
X181076600Y-56882600D01*
X181076600Y-56292500D01*
X181127400Y-56292500D01*
X181127400Y-56882600D01*
X181792500Y-56882600D01*
X181856000Y-56819100D01*
X181856000Y-56432476D01*
X182888000Y-56432476D01*
X182888000Y-56819100D01*
X182951500Y-56882600D01*
X183616600Y-56882600D01*
X183616600Y-56292500D01*
X183667400Y-56292500D01*
X183667400Y-56882600D01*
X184332500Y-56882600D01*
X184396000Y-56819100D01*
X184396000Y-56432476D01*
X184357331Y-56339120D01*
X184285879Y-56267669D01*
X184192524Y-56229000D01*
X183730900Y-56229000D01*
X183667400Y-56292500D01*
X183616600Y-56292500D01*
X183553100Y-56229000D01*
X183091476Y-56229000D01*
X182998121Y-56267669D01*
X182926669Y-56339120D01*
X182888000Y-56432476D01*
X181856000Y-56432476D01*
X181817331Y-56339120D01*
X181745879Y-56267669D01*
X181652524Y-56229000D01*
X181190900Y-56229000D01*
X181127400Y-56292500D01*
X181076600Y-56292500D01*
X181013100Y-56229000D01*
X180551476Y-56229000D01*
X180458121Y-56267669D01*
X180386669Y-56339120D01*
X180348000Y-56432476D01*
X179372771Y-56432476D01*
X179372771Y-56205000D01*
X179351518Y-56092048D01*
X179284763Y-55988308D01*
X179182907Y-55918713D01*
X179062000Y-55894229D01*
X178062000Y-55894229D01*
X177949048Y-55915482D01*
X177845308Y-55982237D01*
X177775713Y-56084093D01*
X177752606Y-56198200D01*
X177602658Y-56198200D01*
X177594541Y-56190069D01*
X177398565Y-56108693D01*
X177186366Y-56108508D01*
X176990248Y-56189542D01*
X176840069Y-56339459D01*
X176832771Y-56357035D01*
X176832771Y-56205000D01*
X176811518Y-56092048D01*
X176744763Y-55988308D01*
X176642907Y-55918713D01*
X176522000Y-55894229D01*
X175522000Y-55894229D01*
X175409048Y-55915482D01*
X175305308Y-55982237D01*
X175235713Y-56084093D01*
X175211229Y-56205000D01*
X175211229Y-56210200D01*
X174738771Y-56210200D01*
X174738771Y-56167000D01*
X174717518Y-56054048D01*
X174650763Y-55950308D01*
X174548907Y-55880713D01*
X174428000Y-55856229D01*
X173528000Y-55856229D01*
X173415048Y-55877482D01*
X173311308Y-55944237D01*
X173241713Y-56046093D01*
X173217229Y-56167000D01*
X173182000Y-56167000D01*
X173182000Y-56116476D01*
X173143331Y-56023121D01*
X173071880Y-55951669D01*
X172978524Y-55913000D01*
X172566900Y-55913000D01*
X172503400Y-55976500D01*
X172452600Y-55976500D01*
X172389100Y-55913000D01*
X171977476Y-55913000D01*
X171884120Y-55951669D01*
X171812669Y-56023121D01*
X171774000Y-56116476D01*
X168776182Y-56116476D01*
X169732524Y-55160134D01*
X173520008Y-55160134D01*
X173601042Y-55356252D01*
X173750959Y-55506431D01*
X173946935Y-55587807D01*
X174159134Y-55587992D01*
X174222524Y-55561800D01*
X175212508Y-55561800D01*
X175232482Y-55667952D01*
X175299237Y-55771692D01*
X175401093Y-55841287D01*
X175522000Y-55865771D01*
X176522000Y-55865771D01*
X176634952Y-55844518D01*
X176738692Y-55777763D01*
X176808287Y-55675907D01*
X176831394Y-55561800D01*
X177752508Y-55561800D01*
X177772482Y-55667952D01*
X177839237Y-55771692D01*
X177941093Y-55841287D01*
X178062000Y-55865771D01*
X179062000Y-55865771D01*
X179174952Y-55844518D01*
X179278692Y-55777763D01*
X179348287Y-55675907D01*
X179371394Y-55561800D01*
X185372508Y-55561800D01*
X185392482Y-55667952D01*
X185459237Y-55771692D01*
X185561093Y-55841287D01*
X185682000Y-55865771D01*
X186682000Y-55865771D01*
X186794952Y-55844518D01*
X186898692Y-55777763D01*
X186968287Y-55675907D01*
X186991394Y-55561800D01*
X187912508Y-55561800D01*
X187932482Y-55667952D01*
X187999237Y-55771692D01*
X188101093Y-55841287D01*
X188222000Y-55865771D01*
X189222000Y-55865771D01*
X189334952Y-55844518D01*
X189438692Y-55777763D01*
X189508287Y-55675907D01*
X189531394Y-55561800D01*
X189557336Y-55561800D01*
X189522193Y-55646435D01*
X189522008Y-55858634D01*
X189603042Y-56054752D01*
X189752959Y-56204931D01*
X189948935Y-56286307D01*
X190161134Y-56286492D01*
X190211516Y-56265674D01*
X190451229Y-56505387D01*
X190451229Y-57055000D01*
X190472482Y-57167952D01*
X190539237Y-57271692D01*
X190641093Y-57341287D01*
X190762000Y-57365771D01*
X190830200Y-57365771D01*
X190830200Y-67454779D01*
X190507658Y-67670294D01*
X190276405Y-68016389D01*
X190195200Y-68424636D01*
X190195200Y-69243364D01*
X190276405Y-69651611D01*
X190507658Y-69997706D01*
X190853753Y-70228959D01*
X191262000Y-70310164D01*
X191670247Y-70228959D01*
X192016342Y-69997706D01*
X192247595Y-69651611D01*
X192328800Y-69243364D01*
X192328800Y-68424636D01*
X192247595Y-68016389D01*
X192016342Y-67670294D01*
X191693800Y-67454779D01*
X191693800Y-57365771D01*
X191762000Y-57365771D01*
X191874952Y-57344518D01*
X191978692Y-57277763D01*
X192048287Y-57175907D01*
X192072771Y-57055000D01*
X192072771Y-56205000D01*
X192051518Y-56092048D01*
X191984763Y-55988308D01*
X191882907Y-55918713D01*
X191762000Y-55894229D01*
X191061387Y-55894229D01*
X191032929Y-55865771D01*
X191762000Y-55865771D01*
X191874952Y-55844518D01*
X191978692Y-55777763D01*
X192048287Y-55675907D01*
X192071394Y-55561800D01*
X192238142Y-55561800D01*
X193370200Y-56693858D01*
X193370200Y-67380229D01*
X193040000Y-67380229D01*
X192927048Y-67401482D01*
X192823308Y-67468237D01*
X192753713Y-67570093D01*
X192729229Y-67691000D01*
X192729229Y-69977000D01*
X192750482Y-70089952D01*
X192817237Y-70193692D01*
X192919093Y-70263287D01*
X193040000Y-70287771D01*
X194564000Y-70287771D01*
X194676952Y-70266518D01*
X194780692Y-70199763D01*
X194850287Y-70097907D01*
X194874771Y-69977000D01*
X194874771Y-69519800D01*
X209423000Y-69519800D01*
X209588243Y-69486931D01*
X209728329Y-69393329D01*
X221421657Y-57700000D01*
X224313836Y-57700000D01*
X224395041Y-58108247D01*
X224626294Y-58454342D01*
X224972389Y-58685595D01*
X225380636Y-58766800D01*
X226199364Y-58766800D01*
X226607611Y-58685595D01*
X226953706Y-58454342D01*
X227184959Y-58108247D01*
X227266164Y-57700000D01*
X227184959Y-57291753D01*
X226953706Y-56945658D01*
X226607611Y-56714405D01*
X226199364Y-56633200D01*
X225380636Y-56633200D01*
X224972389Y-56714405D01*
X224626294Y-56945658D01*
X224395041Y-57291753D01*
X224313836Y-57700000D01*
X221421657Y-57700000D01*
X223529857Y-55591800D01*
X224410779Y-55591800D01*
X224626294Y-55914342D01*
X224972389Y-56145595D01*
X225380636Y-56226800D01*
X226199364Y-56226800D01*
X226607611Y-56145595D01*
X226953706Y-55914342D01*
X227184959Y-55568247D01*
X227266164Y-55160000D01*
X227184959Y-54751753D01*
X226953706Y-54405658D01*
X226607611Y-54174405D01*
X226199364Y-54093200D01*
X225380636Y-54093200D01*
X224972389Y-54174405D01*
X224626294Y-54405658D01*
X224410779Y-54728200D01*
X223351000Y-54728200D01*
X223185757Y-54761069D01*
X223045671Y-54854671D01*
X223045669Y-54854674D01*
X209244142Y-68656200D01*
X194874771Y-68656200D01*
X194874771Y-67691000D01*
X194853518Y-67578048D01*
X194786763Y-67474308D01*
X194684907Y-67404713D01*
X194564000Y-67380229D01*
X194233800Y-67380229D01*
X194233800Y-56515005D01*
X194233801Y-56515000D01*
X194200931Y-56349758D01*
X194200931Y-56349757D01*
X194107329Y-56209671D01*
X192722329Y-54824671D01*
X192648140Y-54775100D01*
X192582243Y-54731069D01*
X192417000Y-54698200D01*
X192071492Y-54698200D01*
X192051518Y-54592048D01*
X191984763Y-54488308D01*
X191882907Y-54418713D01*
X191762000Y-54394229D01*
X190762000Y-54394229D01*
X190649048Y-54415482D01*
X190545308Y-54482237D01*
X190475713Y-54584093D01*
X190452606Y-54698200D01*
X189531492Y-54698200D01*
X189511518Y-54592048D01*
X189444763Y-54488308D01*
X189342907Y-54418713D01*
X189222000Y-54394229D01*
X188222000Y-54394229D01*
X188109048Y-54415482D01*
X188005308Y-54482237D01*
X187935713Y-54584093D01*
X187912606Y-54698200D01*
X186991492Y-54698200D01*
X186971518Y-54592048D01*
X186904763Y-54488308D01*
X186802907Y-54418713D01*
X186682000Y-54394229D01*
X185682000Y-54394229D01*
X185569048Y-54415482D01*
X185465308Y-54482237D01*
X185395713Y-54584093D01*
X185372606Y-54698200D01*
X179371492Y-54698200D01*
X179351518Y-54592048D01*
X179284763Y-54488308D01*
X179182907Y-54418713D01*
X179062000Y-54394229D01*
X178062000Y-54394229D01*
X177949048Y-54415482D01*
X177845308Y-54482237D01*
X177775713Y-54584093D01*
X177752606Y-54698200D01*
X176831492Y-54698200D01*
X176811518Y-54592048D01*
X176744763Y-54488308D01*
X176642907Y-54418713D01*
X176522000Y-54394229D01*
X175522000Y-54394229D01*
X175409048Y-54415482D01*
X175305308Y-54482237D01*
X175235713Y-54584093D01*
X175212606Y-54698200D01*
X174451505Y-54698200D01*
X174356041Y-54602569D01*
X174160065Y-54521193D01*
X173947866Y-54521008D01*
X173751748Y-54602042D01*
X173601569Y-54751959D01*
X173520193Y-54947935D01*
X173520008Y-55160134D01*
X169732524Y-55160134D01*
X172272658Y-52620000D01*
X224313836Y-52620000D01*
X224395041Y-53028247D01*
X224626294Y-53374342D01*
X224972389Y-53605595D01*
X225380636Y-53686800D01*
X226199364Y-53686800D01*
X226607611Y-53605595D01*
X226953706Y-53374342D01*
X227184959Y-53028247D01*
X227266164Y-52620000D01*
X227184959Y-52211753D01*
X226953706Y-51865658D01*
X226607611Y-51634405D01*
X226199364Y-51553200D01*
X225380636Y-51553200D01*
X224972389Y-51634405D01*
X224626294Y-51865658D01*
X224395041Y-52211753D01*
X224313836Y-52620000D01*
X172272658Y-52620000D01*
X175574658Y-49318000D01*
X224336229Y-49318000D01*
X224336229Y-50842000D01*
X224357482Y-50954952D01*
X224424237Y-51058692D01*
X224526093Y-51128287D01*
X224647000Y-51152771D01*
X226933000Y-51152771D01*
X227045952Y-51131518D01*
X227149692Y-51064763D01*
X227219287Y-50962907D01*
X227243771Y-50842000D01*
X227243771Y-49318000D01*
X227222518Y-49205048D01*
X227155763Y-49101308D01*
X227053907Y-49031713D01*
X226933000Y-49007229D01*
X224647000Y-49007229D01*
X224534048Y-49028482D01*
X224430308Y-49095237D01*
X224360713Y-49197093D01*
X224336229Y-49318000D01*
X175574658Y-49318000D01*
X178105329Y-46787329D01*
X178198931Y-46647243D01*
X178231800Y-46482000D01*
X178231800Y-34399221D01*
X178554342Y-34183706D01*
X178785595Y-33837611D01*
X178866800Y-33429364D01*
X178866800Y-32610636D01*
X178785595Y-32202389D01*
X178568178Y-31877000D01*
X194507229Y-31877000D01*
X194507229Y-34163000D01*
X194528482Y-34275952D01*
X194595237Y-34379692D01*
X194697093Y-34449287D01*
X194818000Y-34473771D01*
X196342000Y-34473771D01*
X196454952Y-34452518D01*
X196558692Y-34385763D01*
X196628287Y-34283907D01*
X196652771Y-34163000D01*
X196652771Y-32610636D01*
X197053200Y-32610636D01*
X197053200Y-33429364D01*
X197134405Y-33837611D01*
X197365658Y-34183706D01*
X197711753Y-34414959D01*
X198120000Y-34496164D01*
X198528247Y-34414959D01*
X198874342Y-34183706D01*
X199105595Y-33837611D01*
X199186800Y-33429364D01*
X199186800Y-32610636D01*
X199593200Y-32610636D01*
X199593200Y-33429364D01*
X199674405Y-33837611D01*
X199905658Y-34183706D01*
X200251753Y-34414959D01*
X200660000Y-34496164D01*
X201068247Y-34414959D01*
X201414342Y-34183706D01*
X201645595Y-33837611D01*
X201726800Y-33429364D01*
X201726800Y-32610636D01*
X202133200Y-32610636D01*
X202133200Y-33429364D01*
X202214405Y-33837611D01*
X202445658Y-34183706D01*
X202791753Y-34414959D01*
X203200000Y-34496164D01*
X203608247Y-34414959D01*
X203954342Y-34183706D01*
X204185595Y-33837611D01*
X204266800Y-33429364D01*
X204266800Y-32610636D01*
X204673200Y-32610636D01*
X204673200Y-33429364D01*
X204754405Y-33837611D01*
X204985658Y-34183706D01*
X205331753Y-34414959D01*
X205740000Y-34496164D01*
X206148247Y-34414959D01*
X206494342Y-34183706D01*
X206725595Y-33837611D01*
X206806800Y-33429364D01*
X206806800Y-32610636D01*
X207213200Y-32610636D01*
X207213200Y-33429364D01*
X207294405Y-33837611D01*
X207525658Y-34183706D01*
X207871753Y-34414959D01*
X208280000Y-34496164D01*
X208688247Y-34414959D01*
X209034342Y-34183706D01*
X209265595Y-33837611D01*
X209346800Y-33429364D01*
X209346800Y-32610636D01*
X209753200Y-32610636D01*
X209753200Y-33429364D01*
X209834405Y-33837611D01*
X210065658Y-34183706D01*
X210411753Y-34414959D01*
X210820000Y-34496164D01*
X211228247Y-34414959D01*
X211574342Y-34183706D01*
X211805595Y-33837611D01*
X211886800Y-33429364D01*
X211886800Y-32610636D01*
X212293200Y-32610636D01*
X212293200Y-33429364D01*
X212374405Y-33837611D01*
X212605658Y-34183706D01*
X212951753Y-34414959D01*
X213360000Y-34496164D01*
X213768247Y-34414959D01*
X214114342Y-34183706D01*
X214345595Y-33837611D01*
X214426800Y-33429364D01*
X214426800Y-32610636D01*
X214345595Y-32202389D01*
X214114342Y-31856294D01*
X213768247Y-31625041D01*
X213360000Y-31543836D01*
X212951753Y-31625041D01*
X212605658Y-31856294D01*
X212374405Y-32202389D01*
X212293200Y-32610636D01*
X211886800Y-32610636D01*
X211805595Y-32202389D01*
X211574342Y-31856294D01*
X211228247Y-31625041D01*
X210820000Y-31543836D01*
X210411753Y-31625041D01*
X210065658Y-31856294D01*
X209834405Y-32202389D01*
X209753200Y-32610636D01*
X209346800Y-32610636D01*
X209265595Y-32202389D01*
X209034342Y-31856294D01*
X208688247Y-31625041D01*
X208280000Y-31543836D01*
X207871753Y-31625041D01*
X207525658Y-31856294D01*
X207294405Y-32202389D01*
X207213200Y-32610636D01*
X206806800Y-32610636D01*
X206725595Y-32202389D01*
X206494342Y-31856294D01*
X206148247Y-31625041D01*
X205740000Y-31543836D01*
X205331753Y-31625041D01*
X204985658Y-31856294D01*
X204754405Y-32202389D01*
X204673200Y-32610636D01*
X204266800Y-32610636D01*
X204185595Y-32202389D01*
X203954342Y-31856294D01*
X203608247Y-31625041D01*
X203200000Y-31543836D01*
X202791753Y-31625041D01*
X202445658Y-31856294D01*
X202214405Y-32202389D01*
X202133200Y-32610636D01*
X201726800Y-32610636D01*
X201645595Y-32202389D01*
X201414342Y-31856294D01*
X201068247Y-31625041D01*
X200660000Y-31543836D01*
X200251753Y-31625041D01*
X199905658Y-31856294D01*
X199674405Y-32202389D01*
X199593200Y-32610636D01*
X199186800Y-32610636D01*
X199105595Y-32202389D01*
X198874342Y-31856294D01*
X198528247Y-31625041D01*
X198120000Y-31543836D01*
X197711753Y-31625041D01*
X197365658Y-31856294D01*
X197134405Y-32202389D01*
X197053200Y-32610636D01*
X196652771Y-32610636D01*
X196652771Y-31877000D01*
X196631518Y-31764048D01*
X196564763Y-31660308D01*
X196462907Y-31590713D01*
X196342000Y-31566229D01*
X194818000Y-31566229D01*
X194705048Y-31587482D01*
X194601308Y-31654237D01*
X194531713Y-31756093D01*
X194507229Y-31877000D01*
X178568178Y-31877000D01*
X178554342Y-31856294D01*
X178208247Y-31625041D01*
X177800000Y-31543836D01*
X177391753Y-31625041D01*
X177045658Y-31856294D01*
X176814405Y-32202389D01*
X176733200Y-32610636D01*
X176733200Y-33429364D01*
X176814405Y-33837611D01*
X177045658Y-34183706D01*
X177368200Y-34399221D01*
X177368200Y-46303142D01*
X175691800Y-47979542D01*
X175691800Y-34399221D01*
X176014342Y-34183706D01*
X176245595Y-33837611D01*
X176326800Y-33429364D01*
X176326800Y-32610636D01*
X176245595Y-32202389D01*
X176014342Y-31856294D01*
X175668247Y-31625041D01*
X175260000Y-31543836D01*
X174851753Y-31625041D01*
X174505658Y-31856294D01*
X174274405Y-32202389D01*
X174193200Y-32610636D01*
X174193200Y-33429364D01*
X174274405Y-33837611D01*
X174505658Y-34183706D01*
X174828200Y-34399221D01*
X174828200Y-48081142D01*
X173151800Y-49757542D01*
X173151800Y-34399221D01*
X173474342Y-34183706D01*
X173705595Y-33837611D01*
X173786800Y-33429364D01*
X173786800Y-32610636D01*
X173705595Y-32202389D01*
X173474342Y-31856294D01*
X173128247Y-31625041D01*
X172720000Y-31543836D01*
X172311753Y-31625041D01*
X171965658Y-31856294D01*
X171734405Y-32202389D01*
X171653200Y-32610636D01*
X171653200Y-33429364D01*
X171734405Y-33837611D01*
X171965658Y-34183706D01*
X172288200Y-34399221D01*
X172288200Y-49859142D01*
X170611800Y-51535542D01*
X170611800Y-34399221D01*
X170934342Y-34183706D01*
X171165595Y-33837611D01*
X171246800Y-33429364D01*
X171246800Y-32610636D01*
X171165595Y-32202389D01*
X170934342Y-31856294D01*
X170588247Y-31625041D01*
X170180000Y-31543836D01*
X169771753Y-31625041D01*
X169425658Y-31856294D01*
X169194405Y-32202389D01*
X169113200Y-32610636D01*
X169113200Y-33429364D01*
X169194405Y-33837611D01*
X169425658Y-34183706D01*
X169748200Y-34399221D01*
X169748200Y-51637143D01*
X165175142Y-56210200D01*
X162738857Y-56210200D01*
X161944932Y-55416274D01*
X161954800Y-55366665D01*
X161954800Y-54125335D01*
X161920180Y-53951291D01*
X161867438Y-53872357D01*
X161899743Y-53865931D01*
X162039829Y-53772329D01*
X162084358Y-53727800D01*
X162213708Y-53727800D01*
X162329335Y-53750800D01*
X163570665Y-53750800D01*
X163686292Y-53727800D01*
X164813642Y-53727800D01*
X165138033Y-54052191D01*
X165138008Y-54080634D01*
X165219042Y-54276752D01*
X165368959Y-54426931D01*
X165564935Y-54508307D01*
X165777134Y-54508492D01*
X165973252Y-54427458D01*
X166123431Y-54277541D01*
X166204807Y-54081565D01*
X166204992Y-53869366D01*
X166123958Y-53673248D01*
X165974041Y-53523069D01*
X165778065Y-53441693D01*
X165748826Y-53441668D01*
X165570958Y-53263800D01*
X166116000Y-53263800D01*
X166281243Y-53230931D01*
X166421329Y-53137329D01*
X166421330Y-53137328D01*
X169215326Y-50343331D01*
X169215329Y-50343329D01*
X169308931Y-50203243D01*
X169314385Y-50175827D01*
X169341801Y-50038000D01*
X169341800Y-50037995D01*
X169341800Y-46990000D01*
X169308931Y-46824757D01*
X169215329Y-46684671D01*
X168071800Y-45541142D01*
X168071800Y-34399221D01*
X168394342Y-34183706D01*
X168625595Y-33837611D01*
X168706800Y-33429364D01*
X168706800Y-32610636D01*
X168625595Y-32202389D01*
X168394342Y-31856294D01*
X168048247Y-31625041D01*
X167640000Y-31543836D01*
X167231753Y-31625041D01*
X166885658Y-31856294D01*
X166654405Y-32202389D01*
X166573200Y-32610636D01*
X166573200Y-33429364D01*
X166654405Y-33837611D01*
X166885658Y-34183706D01*
X167208200Y-34399221D01*
X167208200Y-45720000D01*
X167241069Y-45885243D01*
X167294407Y-45965069D01*
X167334671Y-46025329D01*
X168478200Y-47168858D01*
X168478200Y-49859143D01*
X166388909Y-51948433D01*
X166326772Y-51798050D01*
X166417752Y-51760458D01*
X166567931Y-51610541D01*
X166649307Y-51414565D01*
X166649492Y-51202366D01*
X166580772Y-51036050D01*
X166671752Y-50998458D01*
X166821931Y-50848541D01*
X166903307Y-50652565D01*
X166903492Y-50440366D01*
X166822458Y-50244248D01*
X166672541Y-50094069D01*
X166476565Y-50012693D01*
X166447325Y-50012668D01*
X166425329Y-49990671D01*
X166412249Y-49981931D01*
X166285243Y-49897069D01*
X166135396Y-49867262D01*
X167717190Y-48285467D01*
X167745634Y-48285492D01*
X167941752Y-48204458D01*
X168091931Y-48054541D01*
X168173307Y-47858565D01*
X168173492Y-47646366D01*
X168092458Y-47450248D01*
X167942541Y-47300069D01*
X167746565Y-47218693D01*
X167534366Y-47218508D01*
X167368050Y-47287228D01*
X167330458Y-47196248D01*
X167180541Y-47046069D01*
X166984565Y-46964693D01*
X166772366Y-46964508D01*
X166606050Y-47033228D01*
X166568458Y-46942248D01*
X166418541Y-46792069D01*
X166222565Y-46710693D01*
X166010366Y-46710508D01*
X165814248Y-46791542D01*
X165785800Y-46819940D01*
X165785800Y-46804637D01*
X165805931Y-46784541D01*
X165887307Y-46588565D01*
X165887492Y-46376366D01*
X165806458Y-46180248D01*
X165656541Y-46030069D01*
X165460565Y-45948693D01*
X165248366Y-45948508D01*
X165125378Y-45999325D01*
X165125492Y-45868366D01*
X165044458Y-45672248D01*
X164894541Y-45522069D01*
X164698565Y-45440693D01*
X164486366Y-45440508D01*
X164451914Y-45454743D01*
X165405326Y-44501331D01*
X165405329Y-44501329D01*
X165498931Y-44361243D01*
X165531800Y-44196000D01*
X165531800Y-34399221D01*
X165854342Y-34183706D01*
X166085595Y-33837611D01*
X166166800Y-33429364D01*
X166166800Y-32610636D01*
X166085595Y-32202389D01*
X165854342Y-31856294D01*
X165508247Y-31625041D01*
X165100000Y-31543836D01*
X164691753Y-31625041D01*
X164345658Y-31856294D01*
X164114405Y-32202389D01*
X164033200Y-32610636D01*
X164033200Y-33429364D01*
X164114405Y-33837611D01*
X164345658Y-34183706D01*
X164668200Y-34399221D01*
X164668200Y-44017143D01*
X162825481Y-45859861D01*
X162839307Y-45826565D01*
X162839492Y-45614366D01*
X162758458Y-45418248D01*
X162608541Y-45268069D01*
X162412565Y-45186693D01*
X162200366Y-45186508D01*
X162004248Y-45267542D01*
X161854069Y-45417459D01*
X161845134Y-45438977D01*
X161830335Y-45416828D01*
X161845752Y-45410458D01*
X161995931Y-45260541D01*
X162077307Y-45064565D01*
X162077492Y-44852366D01*
X161996458Y-44656248D01*
X161846541Y-44506069D01*
X161650565Y-44424693D01*
X161438366Y-44424508D01*
X161242248Y-44505542D01*
X161204521Y-44543203D01*
X161124757Y-44559069D01*
X161061489Y-44601343D01*
X161061492Y-44598366D01*
X160980458Y-44402248D01*
X160830541Y-44252069D01*
X160634565Y-44170693D01*
X160422366Y-44170508D01*
X160226248Y-44251542D01*
X160076069Y-44401459D01*
X160005905Y-44570434D01*
X160005041Y-44569569D01*
X159809065Y-44488193D01*
X159596866Y-44488008D01*
X159400748Y-44569042D01*
X159250569Y-44718959D01*
X159169193Y-44914935D01*
X159169008Y-45127134D01*
X159250042Y-45323252D01*
X159318790Y-45392120D01*
X159310983Y-45396655D01*
X159174044Y-45305155D01*
X159000000Y-45270535D01*
X158931800Y-45284101D01*
X158931800Y-42600858D01*
X159931229Y-41601429D01*
X159931229Y-42648000D01*
X159952482Y-42760952D01*
X160019237Y-42864692D01*
X160121093Y-42934287D01*
X160242000Y-42958771D01*
X163242000Y-42958771D01*
X163354952Y-42937518D01*
X163458692Y-42870763D01*
X163528287Y-42768907D01*
X163552771Y-42648000D01*
X163552771Y-39648000D01*
X163531518Y-39535048D01*
X163464763Y-39431308D01*
X163362907Y-39361713D01*
X163242000Y-39337229D01*
X162217800Y-39337229D01*
X162217800Y-38631771D01*
X162236000Y-38631771D01*
X162348952Y-38610518D01*
X162452692Y-38543763D01*
X162522287Y-38441907D01*
X162546771Y-38321000D01*
X162546771Y-37371000D01*
X162525518Y-37258048D01*
X162458763Y-37154308D01*
X162356907Y-37084713D01*
X162236000Y-37060229D01*
X161336000Y-37060229D01*
X161223048Y-37081482D01*
X161119308Y-37148237D01*
X161049713Y-37250093D01*
X161025229Y-37371000D01*
X161025229Y-38321000D01*
X161046482Y-38433952D01*
X161113237Y-38537692D01*
X161215093Y-38607287D01*
X161336000Y-38631771D01*
X161354200Y-38631771D01*
X161354200Y-39337229D01*
X160242000Y-39337229D01*
X160129048Y-39358482D01*
X160025308Y-39425237D01*
X159955713Y-39527093D01*
X159931229Y-39648000D01*
X159931229Y-40716200D01*
X159774000Y-40716200D01*
X159608757Y-40749069D01*
X159468671Y-40842671D01*
X158246000Y-42065342D01*
X157023329Y-40842671D01*
X156883243Y-40749069D01*
X156718000Y-40716200D01*
X156552771Y-40716200D01*
X156552771Y-39648000D01*
X156531518Y-39535048D01*
X156464763Y-39431308D01*
X156362907Y-39361713D01*
X156242000Y-39337229D01*
X155129800Y-39337229D01*
X155129800Y-38631771D01*
X155148000Y-38631771D01*
X155260952Y-38610518D01*
X155364692Y-38543763D01*
X155434287Y-38441907D01*
X155458771Y-38321000D01*
X155458771Y-37934900D01*
X155494000Y-37934900D01*
X155494000Y-38371524D01*
X155532669Y-38464879D01*
X155604120Y-38536331D01*
X155697476Y-38575000D01*
X156109100Y-38575000D01*
X156172600Y-38511500D01*
X156172600Y-37871400D01*
X156223400Y-37871400D01*
X156223400Y-38511500D01*
X156286900Y-38575000D01*
X156698524Y-38575000D01*
X156791880Y-38536331D01*
X156863331Y-38464879D01*
X156902000Y-38371524D01*
X156902000Y-37934900D01*
X159582000Y-37934900D01*
X159582000Y-38371524D01*
X159620669Y-38464879D01*
X159692120Y-38536331D01*
X159785476Y-38575000D01*
X160197100Y-38575000D01*
X160260600Y-38511500D01*
X160260600Y-37871400D01*
X160311400Y-37871400D01*
X160311400Y-38511500D01*
X160374900Y-38575000D01*
X160786524Y-38575000D01*
X160879880Y-38536331D01*
X160951331Y-38464879D01*
X160990000Y-38371524D01*
X160990000Y-37934900D01*
X160926500Y-37871400D01*
X160311400Y-37871400D01*
X160260600Y-37871400D01*
X159645500Y-37871400D01*
X159582000Y-37934900D01*
X156902000Y-37934900D01*
X156838500Y-37871400D01*
X156223400Y-37871400D01*
X156172600Y-37871400D01*
X155557500Y-37871400D01*
X155494000Y-37934900D01*
X155458771Y-37934900D01*
X155458771Y-37371000D01*
X155449265Y-37320476D01*
X155494000Y-37320476D01*
X155494000Y-37757100D01*
X155557500Y-37820600D01*
X156172600Y-37820600D01*
X156172600Y-37180500D01*
X156223400Y-37180500D01*
X156223400Y-37820600D01*
X156838500Y-37820600D01*
X156902000Y-37757100D01*
X156902000Y-37320476D01*
X159582000Y-37320476D01*
X159582000Y-37757100D01*
X159645500Y-37820600D01*
X160260600Y-37820600D01*
X160260600Y-37180500D01*
X160311400Y-37180500D01*
X160311400Y-37820600D01*
X160926500Y-37820600D01*
X160990000Y-37757100D01*
X160990000Y-37320476D01*
X160951331Y-37227121D01*
X160879880Y-37155669D01*
X160786524Y-37117000D01*
X160374900Y-37117000D01*
X160311400Y-37180500D01*
X160260600Y-37180500D01*
X160197100Y-37117000D01*
X159785476Y-37117000D01*
X159692120Y-37155669D01*
X159620669Y-37227121D01*
X159582000Y-37320476D01*
X156902000Y-37320476D01*
X156863331Y-37227121D01*
X156791880Y-37155669D01*
X156698524Y-37117000D01*
X156286900Y-37117000D01*
X156223400Y-37180500D01*
X156172600Y-37180500D01*
X156109100Y-37117000D01*
X155697476Y-37117000D01*
X155604120Y-37155669D01*
X155532669Y-37227121D01*
X155494000Y-37320476D01*
X155449265Y-37320476D01*
X155437518Y-37258048D01*
X155370763Y-37154308D01*
X155268907Y-37084713D01*
X155148000Y-37060229D01*
X154248000Y-37060229D01*
X154135048Y-37081482D01*
X154031308Y-37148237D01*
X153961713Y-37250093D01*
X153937229Y-37371000D01*
X153937229Y-38321000D01*
X153958482Y-38433952D01*
X154025237Y-38537692D01*
X154127093Y-38607287D01*
X154248000Y-38631771D01*
X154266200Y-38631771D01*
X154266200Y-39337229D01*
X153242000Y-39337229D01*
X153129048Y-39358482D01*
X153025308Y-39425237D01*
X152955713Y-39527093D01*
X152931229Y-39648000D01*
X152931229Y-42648000D01*
X152952482Y-42760952D01*
X153019237Y-42864692D01*
X153121093Y-42934287D01*
X153242000Y-42958771D01*
X156242000Y-42958771D01*
X156354952Y-42937518D01*
X156458692Y-42870763D01*
X156528287Y-42768907D01*
X156552771Y-42648000D01*
X156552771Y-41593429D01*
X157568200Y-42608858D01*
X157568200Y-45284101D01*
X157500000Y-45270535D01*
X157325956Y-45305155D01*
X157250000Y-45355907D01*
X157174044Y-45305155D01*
X157000000Y-45270535D01*
X156825956Y-45305155D01*
X156750000Y-45355907D01*
X156674044Y-45305155D01*
X156500000Y-45270535D01*
X156325956Y-45305155D01*
X156250000Y-45355907D01*
X156174044Y-45305155D01*
X156000000Y-45270535D01*
X155825956Y-45305155D01*
X155678408Y-45403743D01*
X155579820Y-45551291D01*
X155545200Y-45725335D01*
X155545200Y-45923200D01*
X154881637Y-45923200D01*
X154861541Y-45903069D01*
X154665565Y-45821693D01*
X154453366Y-45821508D01*
X154257248Y-45902542D01*
X154107069Y-46052459D01*
X154025693Y-46248435D01*
X154025508Y-46460634D01*
X154106542Y-46656752D01*
X154118200Y-46668430D01*
X154118200Y-47341200D01*
X153929335Y-47341200D01*
X153755291Y-47375820D01*
X153607743Y-47474408D01*
X153509155Y-47621956D01*
X153474535Y-47796000D01*
X153509155Y-47970044D01*
X153600655Y-48106983D01*
X153567032Y-48164863D01*
X153555737Y-48207838D01*
X153610449Y-48270600D01*
X154524600Y-48270600D01*
X154524600Y-48250800D01*
X154575400Y-48250800D01*
X154575400Y-48270600D01*
X155489551Y-48270600D01*
X155544263Y-48207838D01*
X155532968Y-48164863D01*
X155499345Y-48106983D01*
X155590845Y-47970044D01*
X155625465Y-47796000D01*
X155590845Y-47621956D01*
X155492257Y-47474408D01*
X155344709Y-47375820D01*
X155170665Y-47341200D01*
X154981800Y-47341200D01*
X154981800Y-46786800D01*
X155545200Y-46786800D01*
X155545200Y-46966665D01*
X155579820Y-47140709D01*
X155678408Y-47288257D01*
X155825956Y-47386845D01*
X156000000Y-47421465D01*
X156174044Y-47386845D01*
X156250000Y-47336093D01*
X156325956Y-47386845D01*
X156500000Y-47421465D01*
X156674044Y-47386845D01*
X156750000Y-47336093D01*
X156825956Y-47386845D01*
X157000000Y-47421465D01*
X157174044Y-47386845D01*
X157250000Y-47336093D01*
X157325956Y-47386845D01*
X157500000Y-47421465D01*
X157674044Y-47386845D01*
X157750000Y-47336093D01*
X157825956Y-47386845D01*
X158000000Y-47421465D01*
X158174044Y-47386845D01*
X158250000Y-47336093D01*
X158325956Y-47386845D01*
X158500000Y-47421465D01*
X158568200Y-47407899D01*
X158568200Y-51641769D01*
X158544541Y-51618069D01*
X158497629Y-51598589D01*
X158521307Y-51541565D01*
X158521492Y-51329366D01*
X158440458Y-51133248D01*
X158290541Y-50983069D01*
X158094565Y-50901693D01*
X157882366Y-50901508D01*
X157686248Y-50982542D01*
X157536069Y-51132459D01*
X157454693Y-51328435D01*
X157454668Y-51357674D01*
X157448142Y-51364200D01*
X155611899Y-51364200D01*
X155625465Y-51296000D01*
X155590845Y-51121956D01*
X155540093Y-51046000D01*
X155590845Y-50970044D01*
X155625465Y-50796000D01*
X155590845Y-50621956D01*
X155540093Y-50546000D01*
X155590845Y-50470044D01*
X155625465Y-50296000D01*
X155611899Y-50227800D01*
X156452000Y-50227800D01*
X156617243Y-50194931D01*
X156757329Y-50101329D01*
X156795191Y-50063467D01*
X156823634Y-50063492D01*
X157019752Y-49982458D01*
X157169931Y-49832541D01*
X157251307Y-49636565D01*
X157251492Y-49424366D01*
X157170458Y-49228248D01*
X157020541Y-49078069D01*
X156824565Y-48996693D01*
X156612366Y-48996508D01*
X156416248Y-49077542D01*
X156266069Y-49227459D01*
X156209289Y-49364200D01*
X155611899Y-49364200D01*
X155625465Y-49296000D01*
X155590845Y-49121956D01*
X155540093Y-49046000D01*
X155590845Y-48970044D01*
X155625465Y-48796000D01*
X155590845Y-48621956D01*
X155499345Y-48485017D01*
X155532968Y-48427137D01*
X155544263Y-48384162D01*
X155489551Y-48321400D01*
X154575400Y-48321400D01*
X154575400Y-48341200D01*
X154524600Y-48341200D01*
X154524600Y-48321400D01*
X153610449Y-48321400D01*
X153573139Y-48364200D01*
X151336858Y-48364200D01*
X150799800Y-47827142D01*
X150799800Y-38278858D01*
X150800858Y-38277800D01*
X152400000Y-38277800D01*
X152565243Y-38244931D01*
X152705329Y-38151329D01*
X154356858Y-36499800D01*
X157734000Y-36499800D01*
X157899243Y-36466931D01*
X158039329Y-36373329D01*
X158928858Y-35483800D01*
X160528000Y-35483800D01*
X160693243Y-35450931D01*
X160833329Y-35357329D01*
X161926325Y-34264333D01*
X162151753Y-34414959D01*
X162560000Y-34496164D01*
X162968247Y-34414959D01*
X163314342Y-34183706D01*
X163545595Y-33837611D01*
X163626800Y-33429364D01*
X163626800Y-32610636D01*
X163545595Y-32202389D01*
X163314342Y-31856294D01*
X162968247Y-31625041D01*
X162560000Y-31543836D01*
X162151753Y-31625041D01*
X161805658Y-31856294D01*
X161574405Y-32202389D01*
X161493200Y-32610636D01*
X161493200Y-33429364D01*
X161500961Y-33468381D01*
X160349142Y-34620200D01*
X159030458Y-34620200D01*
X159386325Y-34264333D01*
X159611753Y-34414959D01*
X160020000Y-34496164D01*
X160428247Y-34414959D01*
X160774342Y-34183706D01*
X161005595Y-33837611D01*
X161086800Y-33429364D01*
X161086800Y-32610636D01*
X161005595Y-32202389D01*
X160774342Y-31856294D01*
X160428247Y-31625041D01*
X160020000Y-31543836D01*
X159611753Y-31625041D01*
X159265658Y-31856294D01*
X159034405Y-32202389D01*
X158953200Y-32610636D01*
X158953200Y-33429364D01*
X158960961Y-33468382D01*
X157301142Y-35128200D01*
X156998458Y-35128200D01*
X157667862Y-34458796D01*
X157888247Y-34414959D01*
X158234342Y-34183706D01*
X158465595Y-33837611D01*
X158546800Y-33429364D01*
X158546800Y-32610636D01*
X158465595Y-32202389D01*
X158234342Y-31856294D01*
X157888247Y-31625041D01*
X157480000Y-31543836D01*
X157071753Y-31625041D01*
X156725658Y-31856294D01*
X156494405Y-32202389D01*
X156413200Y-32610636D01*
X156413200Y-33429364D01*
X156494405Y-33837611D01*
X156724047Y-34181295D01*
X156285142Y-34620200D01*
X153835040Y-34620200D01*
X154237137Y-34218103D01*
X154531753Y-34414959D01*
X154940000Y-34496164D01*
X155348247Y-34414959D01*
X155694342Y-34183706D01*
X155925595Y-33837611D01*
X156006800Y-33429364D01*
X156006800Y-32610636D01*
X155925595Y-32202389D01*
X155694342Y-31856294D01*
X155348247Y-31625041D01*
X154940000Y-31543836D01*
X154531753Y-31625041D01*
X154185658Y-31856294D01*
X153954405Y-32202389D01*
X153873200Y-32610636D01*
X153873200Y-33360724D01*
X153364013Y-33869911D01*
X153385595Y-33837611D01*
X153466800Y-33429364D01*
X153466800Y-32610636D01*
X153385595Y-32202389D01*
X153154342Y-31856294D01*
X152808247Y-31625041D01*
X152400000Y-31543836D01*
X151991753Y-31625041D01*
X151645658Y-31856294D01*
X151414405Y-32202389D01*
X151333200Y-32610636D01*
X151333200Y-33429364D01*
X151414405Y-33837611D01*
X151645658Y-34183706D01*
X151968200Y-34399221D01*
X151968200Y-34619142D01*
X151205142Y-35382200D01*
X149886458Y-35382200D01*
X150165326Y-35103331D01*
X150165329Y-35103329D01*
X150258931Y-34963243D01*
X150291800Y-34798000D01*
X150291800Y-34399221D01*
X150614342Y-34183706D01*
X150845595Y-33837611D01*
X150926800Y-33429364D01*
X150926800Y-32610636D01*
X150845595Y-32202389D01*
X150614342Y-31856294D01*
X150268247Y-31625041D01*
X149860000Y-31543836D01*
X149451753Y-31625041D01*
X149105658Y-31856294D01*
X148874405Y-32202389D01*
X148793200Y-32610636D01*
X148793200Y-33429364D01*
X148874405Y-33837611D01*
X149105658Y-34183706D01*
X149428200Y-34399221D01*
X149428200Y-34619143D01*
X149173142Y-34874200D01*
X148590005Y-34874200D01*
X148590000Y-34874199D01*
X148452173Y-34901615D01*
X148424757Y-34907069D01*
X148284671Y-35000671D01*
X147751800Y-35533542D01*
X147751800Y-34399221D01*
X148074342Y-34183706D01*
X148305595Y-33837611D01*
X148386800Y-33429364D01*
X148386800Y-32610636D01*
X148305595Y-32202389D01*
X148074342Y-31856294D01*
X147728247Y-31625041D01*
X147320000Y-31543836D01*
X146911753Y-31625041D01*
X146565658Y-31856294D01*
X146334405Y-32202389D01*
X146253200Y-32610636D01*
X146253200Y-33429364D01*
X146334405Y-33837611D01*
X146565658Y-34183706D01*
X146888200Y-34399221D01*
X146888200Y-49530000D01*
X146921069Y-49695243D01*
X147012281Y-49831752D01*
X147014671Y-49835329D01*
X149780671Y-52601329D01*
X149920757Y-52694931D01*
X149948173Y-52700385D01*
X150086000Y-52727801D01*
X150086005Y-52727800D01*
X151893543Y-52727800D01*
X151560809Y-53060533D01*
X151532366Y-53060508D01*
X151336248Y-53141542D01*
X151186069Y-53291459D01*
X151104693Y-53487435D01*
X151104508Y-53699634D01*
X151185542Y-53895752D01*
X151335459Y-54045931D01*
X151397036Y-54071500D01*
X151212976Y-54071500D01*
X151119620Y-54110169D01*
X151048169Y-54181621D01*
X151009500Y-54274976D01*
X151009500Y-54711600D01*
X151073000Y-54775100D01*
X151688100Y-54775100D01*
X151688100Y-54755100D01*
X151738900Y-54755100D01*
X151738900Y-54775100D01*
X152354000Y-54775100D01*
X152417500Y-54711600D01*
X152417500Y-54274976D01*
X152378831Y-54181621D01*
X152307380Y-54110169D01*
X152214024Y-54071500D01*
X151879146Y-54071500D01*
X151939752Y-54046458D01*
X152089931Y-53896541D01*
X152146038Y-53761421D01*
X152201542Y-53895752D01*
X152351459Y-54045931D01*
X152533869Y-54121674D01*
X152477213Y-54204593D01*
X152452729Y-54325500D01*
X152452729Y-55275500D01*
X152473276Y-55384700D01*
X152393196Y-55384700D01*
X152417500Y-55326024D01*
X152417500Y-54889400D01*
X152354000Y-54825900D01*
X151738900Y-54825900D01*
X151738900Y-54845900D01*
X151688100Y-54845900D01*
X151688100Y-54825900D01*
X151073000Y-54825900D01*
X151009500Y-54889400D01*
X151009500Y-55326024D01*
X151033804Y-55384700D01*
X148658637Y-55384700D01*
X148638541Y-55364569D01*
X148442565Y-55283193D01*
X148230366Y-55283008D01*
X148034248Y-55364042D01*
X147884069Y-55513959D01*
X147802693Y-55709935D01*
X147802508Y-55922134D01*
X147883542Y-56118252D01*
X148033459Y-56268431D01*
X148229435Y-56349807D01*
X148441634Y-56349992D01*
X148637752Y-56268958D01*
X148658446Y-56248300D01*
X154495500Y-56248300D01*
X154660743Y-56215431D01*
X154800829Y-56121829D01*
X155546991Y-55375667D01*
X155579820Y-55540709D01*
X155678408Y-55688257D01*
X155825956Y-55786845D01*
X156000000Y-55821465D01*
X156174044Y-55786845D01*
X156310983Y-55695345D01*
X156368785Y-55728923D01*
X156266069Y-55831459D01*
X156184693Y-56027435D01*
X156184508Y-56239634D01*
X156265542Y-56435752D01*
X156293940Y-56464200D01*
X119050858Y-56464200D01*
X118287800Y-55701142D01*
X118287800Y-48729771D01*
X118356000Y-48729771D01*
X118468952Y-48708518D01*
X118572692Y-48641763D01*
X118642287Y-48539907D01*
X118666771Y-48419000D01*
X118666771Y-47569000D01*
X118645518Y-47456048D01*
X118578763Y-47352308D01*
X118476907Y-47282713D01*
X118356000Y-47258229D01*
X117356000Y-47258229D01*
X117243048Y-47279482D01*
X117139308Y-47346237D01*
X117069713Y-47448093D01*
X117045229Y-47569000D01*
X117045229Y-48419000D01*
X117066482Y-48531952D01*
X117133237Y-48635692D01*
X117235093Y-48705287D01*
X117356000Y-48729771D01*
X117424200Y-48729771D01*
X117424200Y-55880000D01*
X117457069Y-56045243D01*
X117504665Y-56116476D01*
X117550671Y-56185329D01*
X118337542Y-56972200D01*
X116510858Y-56972200D01*
X115747800Y-56209142D01*
X115747800Y-48729771D01*
X115816000Y-48729771D01*
X115928952Y-48708518D01*
X116032692Y-48641763D01*
X116102287Y-48539907D01*
X116126771Y-48419000D01*
X116126771Y-47569000D01*
X116105518Y-47456048D01*
X116038763Y-47352308D01*
X115936907Y-47282713D01*
X115816000Y-47258229D01*
X114816000Y-47258229D01*
X114703048Y-47279482D01*
X114599308Y-47346237D01*
X114529713Y-47448093D01*
X114505229Y-47569000D01*
X85572600Y-47569000D01*
X85572600Y-46069000D01*
X114505229Y-46069000D01*
X114505229Y-46919000D01*
X114526482Y-47031952D01*
X114593237Y-47135692D01*
X114695093Y-47205287D01*
X114816000Y-47229771D01*
X115816000Y-47229771D01*
X115928952Y-47208518D01*
X116032692Y-47141763D01*
X116102287Y-47039907D01*
X116126771Y-46919000D01*
X116126771Y-46069000D01*
X116105518Y-45956048D01*
X116038763Y-45852308D01*
X115936907Y-45782713D01*
X115816000Y-45758229D01*
X115747800Y-45758229D01*
X115747800Y-45390858D01*
X115941326Y-45197331D01*
X115941329Y-45197329D01*
X115976400Y-45144841D01*
X115976400Y-45212000D01*
X116022803Y-45445284D01*
X116154948Y-45643052D01*
X116352716Y-45775197D01*
X116586000Y-45821600D01*
X116819284Y-45775197D01*
X117017052Y-45643052D01*
X117149197Y-45445284D01*
X117195600Y-45212000D01*
X117195600Y-44890841D01*
X117230671Y-44943329D01*
X117424200Y-45136857D01*
X117424200Y-45758229D01*
X117356000Y-45758229D01*
X117243048Y-45779482D01*
X117139308Y-45846237D01*
X117069713Y-45948093D01*
X117045229Y-46069000D01*
X117045229Y-46919000D01*
X117066482Y-47031952D01*
X117133237Y-47135692D01*
X117235093Y-47205287D01*
X117356000Y-47229771D01*
X118356000Y-47229771D01*
X118468952Y-47208518D01*
X118572692Y-47141763D01*
X118642287Y-47039907D01*
X118666771Y-46919000D01*
X118666771Y-46069000D01*
X118645518Y-45956048D01*
X118578763Y-45852308D01*
X118476907Y-45782713D01*
X118356000Y-45758229D01*
X118287800Y-45758229D01*
X118287800Y-44958000D01*
X118254931Y-44792757D01*
X118161329Y-44652671D01*
X118161326Y-44652669D01*
X117967800Y-44459142D01*
X117967800Y-44345390D01*
X118052692Y-44290763D01*
X118122287Y-44188907D01*
X118146771Y-44068000D01*
X118146771Y-42968000D01*
X118125518Y-42855048D01*
X118058763Y-42751308D01*
X117956907Y-42681713D01*
X117836000Y-42657229D01*
X117236000Y-42657229D01*
X117123048Y-42678482D01*
X117107142Y-42688718D01*
X117027058Y-42633999D01*
X116886000Y-42605434D01*
X116286000Y-42605434D01*
X116154223Y-42630230D01*
X116065302Y-42687449D01*
X116056907Y-42681713D01*
X115936000Y-42657229D01*
X115336000Y-42657229D01*
X115223048Y-42678482D01*
X115119308Y-42745237D01*
X115049713Y-42847093D01*
X115025229Y-42968000D01*
X115025229Y-44068000D01*
X115046482Y-44180952D01*
X115113237Y-44284692D01*
X115204200Y-44346844D01*
X115204200Y-44713143D01*
X115010671Y-44906671D01*
X114917069Y-45046757D01*
X114884200Y-45212000D01*
X114884200Y-45758229D01*
X114816000Y-45758229D01*
X114703048Y-45779482D01*
X114599308Y-45846237D01*
X114529713Y-45948093D01*
X114505229Y-46069000D01*
X85572600Y-46069000D01*
X85572600Y-36566806D01*
X107551196Y-36566806D01*
X107730553Y-37000882D01*
X108062371Y-37333280D01*
X108496134Y-37513394D01*
X108965806Y-37513804D01*
X109399882Y-37334447D01*
X109732280Y-37002629D01*
X109912394Y-36568866D01*
X109912804Y-36099194D01*
X109733447Y-35665118D01*
X109401629Y-35332720D01*
X109273084Y-35279343D01*
X109328325Y-35257502D01*
X109357925Y-35237724D01*
X109446834Y-35083755D01*
X108732000Y-34368921D01*
X108017166Y-35083755D01*
X108106075Y-35237724D01*
X108196439Y-35276879D01*
X108064118Y-35331553D01*
X107731720Y-35663371D01*
X107551606Y-36097134D01*
X107551196Y-36566806D01*
X85572600Y-36566806D01*
X85572600Y-34530141D01*
X107649668Y-34530141D01*
X107807498Y-34929325D01*
X107827276Y-34958925D01*
X107981245Y-35047834D01*
X108696079Y-34333000D01*
X108767921Y-34333000D01*
X109482755Y-35047834D01*
X109636724Y-34958925D01*
X109807387Y-34565056D01*
X109807521Y-34556745D01*
X110102004Y-34556745D01*
X110273644Y-34972144D01*
X110591184Y-35290239D01*
X110693904Y-35332892D01*
X110592856Y-35374644D01*
X110274761Y-35692184D01*
X110102397Y-36107283D01*
X110102004Y-36556745D01*
X110273644Y-36972144D01*
X110591184Y-37290239D01*
X111006283Y-37462603D01*
X111455745Y-37462996D01*
X111871144Y-37291356D01*
X112189239Y-36973816D01*
X112276030Y-36764800D01*
X113014542Y-36764800D01*
X115204200Y-38954458D01*
X115204200Y-40490610D01*
X115119308Y-40545237D01*
X115049713Y-40647093D01*
X115025229Y-40768000D01*
X115025229Y-41868000D01*
X115046482Y-41980952D01*
X115113237Y-42084692D01*
X115215093Y-42154287D01*
X115336000Y-42178771D01*
X115936000Y-42178771D01*
X116048952Y-42157518D01*
X116152692Y-42090763D01*
X116154318Y-42088383D01*
X116235476Y-42122000D01*
X116497100Y-42122000D01*
X116560600Y-42058500D01*
X116560600Y-41343400D01*
X116540600Y-41343400D01*
X116540600Y-41292600D01*
X116560600Y-41292600D01*
X116560600Y-40577500D01*
X116497100Y-40514000D01*
X116235476Y-40514000D01*
X116153722Y-40547864D01*
X116067800Y-40489156D01*
X116067800Y-38775600D01*
X116034931Y-38610357D01*
X115941329Y-38470271D01*
X113498729Y-36027671D01*
X113445044Y-35991800D01*
X113358643Y-35934069D01*
X113193400Y-35901200D01*
X112276029Y-35901200D01*
X112190356Y-35693856D01*
X111872816Y-35375761D01*
X111770096Y-35333108D01*
X111871144Y-35291356D01*
X112189239Y-34973816D01*
X112276030Y-34764800D01*
X113148142Y-34764800D01*
X117104200Y-38720858D01*
X117104200Y-40490610D01*
X117019308Y-40545237D01*
X117017682Y-40547617D01*
X116936524Y-40514000D01*
X116674900Y-40514000D01*
X116611400Y-40577500D01*
X116611400Y-41292600D01*
X116631400Y-41292600D01*
X116631400Y-41343400D01*
X116611400Y-41343400D01*
X116611400Y-42058500D01*
X116674900Y-42122000D01*
X116936524Y-42122000D01*
X117018278Y-42088136D01*
X117115093Y-42154287D01*
X117236000Y-42178771D01*
X117836000Y-42178771D01*
X117948952Y-42157518D01*
X118052692Y-42090763D01*
X118122287Y-41988907D01*
X118146771Y-41868000D01*
X118146771Y-40768000D01*
X118125518Y-40655048D01*
X118058763Y-40551308D01*
X117967800Y-40489156D01*
X117967800Y-38542005D01*
X117967801Y-38542000D01*
X117934931Y-38376758D01*
X117934931Y-38376757D01*
X117841329Y-38236671D01*
X113632329Y-34027671D01*
X113594179Y-34002180D01*
X113492243Y-33934069D01*
X113327000Y-33901200D01*
X112276029Y-33901200D01*
X112190356Y-33693856D01*
X111872816Y-33375761D01*
X111457717Y-33203397D01*
X111008255Y-33203004D01*
X110592856Y-33374644D01*
X110274761Y-33692184D01*
X110102397Y-34107283D01*
X110102004Y-34556745D01*
X109807521Y-34556745D01*
X109814332Y-34135859D01*
X109656502Y-33736675D01*
X109636724Y-33707075D01*
X109482755Y-33618166D01*
X108767921Y-34333000D01*
X108696079Y-34333000D01*
X107981245Y-33618166D01*
X107827276Y-33707075D01*
X107656613Y-34100944D01*
X107649668Y-34530141D01*
X85572600Y-34530141D01*
X85572600Y-32178461D01*
X95111714Y-32178461D01*
X95537820Y-33209716D01*
X96326134Y-33999407D01*
X97356643Y-34427312D01*
X98472461Y-34428286D01*
X99503716Y-34002180D01*
X99924384Y-33582245D01*
X108017166Y-33582245D01*
X108732000Y-34297079D01*
X109446834Y-33582245D01*
X109357925Y-33428276D01*
X108964056Y-33257613D01*
X108534859Y-33250668D01*
X108135675Y-33408498D01*
X108106075Y-33428276D01*
X108017166Y-33582245D01*
X99924384Y-33582245D01*
X100293407Y-33213866D01*
X100440141Y-32860491D01*
X102780430Y-32860491D01*
X102951482Y-33084600D01*
X103589255Y-33367705D01*
X104286821Y-33385194D01*
X104937980Y-33134404D01*
X105012518Y-33084600D01*
X105183570Y-32860491D01*
X114780430Y-32860491D01*
X114951482Y-33084600D01*
X115589255Y-33367705D01*
X116286821Y-33385194D01*
X116937980Y-33134404D01*
X117012518Y-33084600D01*
X117183570Y-32860491D01*
X115982000Y-31658921D01*
X114780430Y-32860491D01*
X105183570Y-32860491D01*
X103982000Y-31658921D01*
X102780430Y-32860491D01*
X100440141Y-32860491D01*
X100721312Y-32183357D01*
X100721535Y-31927821D01*
X102219806Y-31927821D01*
X102470596Y-32578980D01*
X102520400Y-32653518D01*
X102744509Y-32824570D01*
X103946079Y-31623000D01*
X104017921Y-31623000D01*
X105219491Y-32824570D01*
X105443600Y-32653518D01*
X105726705Y-32015745D01*
X105728909Y-31927821D01*
X114219806Y-31927821D01*
X114470596Y-32578980D01*
X114520400Y-32653518D01*
X114744509Y-32824570D01*
X115946079Y-31623000D01*
X116017921Y-31623000D01*
X117219491Y-32824570D01*
X117443600Y-32653518D01*
X117654475Y-32178461D01*
X119241714Y-32178461D01*
X119667820Y-33209716D01*
X120456134Y-33999407D01*
X121486643Y-34427312D01*
X122602461Y-34428286D01*
X123633716Y-34002180D01*
X124423407Y-33213866D01*
X124851312Y-32183357D01*
X124851579Y-31877000D01*
X138627229Y-31877000D01*
X138627229Y-34163000D01*
X138648482Y-34275952D01*
X138715237Y-34379692D01*
X138817093Y-34449287D01*
X138938000Y-34473771D01*
X139268200Y-34473771D01*
X139268200Y-48445363D01*
X139248069Y-48465459D01*
X139166693Y-48661435D01*
X139166508Y-48873634D01*
X139247542Y-49069752D01*
X139397459Y-49219931D01*
X139593435Y-49301307D01*
X139805634Y-49301492D01*
X140001752Y-49220458D01*
X140030200Y-49192060D01*
X140030200Y-50223363D01*
X140010069Y-50243459D01*
X139928693Y-50439435D01*
X139928508Y-50651634D01*
X140009542Y-50847752D01*
X140159459Y-50997931D01*
X140355435Y-51079307D01*
X140567634Y-51079492D01*
X140763752Y-50998458D01*
X140792200Y-50970060D01*
X140792200Y-51239363D01*
X140772069Y-51259459D01*
X140690693Y-51455435D01*
X140690508Y-51667634D01*
X140771542Y-51863752D01*
X140921459Y-52013931D01*
X141117435Y-52095307D01*
X141329634Y-52095492D01*
X141525752Y-52014458D01*
X141675931Y-51864541D01*
X141757307Y-51668565D01*
X141757492Y-51456366D01*
X141676458Y-51260248D01*
X141655800Y-51239554D01*
X141655800Y-36500858D01*
X142672858Y-35483800D01*
X144272000Y-35483800D01*
X144437243Y-35450931D01*
X144577329Y-35357329D01*
X145085326Y-34849331D01*
X145085329Y-34849329D01*
X145178931Y-34709243D01*
X145211800Y-34544000D01*
X145211800Y-34399221D01*
X145534342Y-34183706D01*
X145765595Y-33837611D01*
X145846800Y-33429364D01*
X145846800Y-32610636D01*
X145765595Y-32202389D01*
X145534342Y-31856294D01*
X145188247Y-31625041D01*
X144780000Y-31543836D01*
X144371753Y-31625041D01*
X144025658Y-31856294D01*
X143794405Y-32202389D01*
X143713200Y-32610636D01*
X143713200Y-33429364D01*
X143794405Y-33837611D01*
X144025658Y-34183706D01*
X144327771Y-34385571D01*
X144093142Y-34620200D01*
X142494000Y-34620200D01*
X142328757Y-34653069D01*
X142188671Y-34746671D01*
X140918671Y-36016671D01*
X140893800Y-36053893D01*
X140893800Y-35992858D01*
X142427862Y-34458796D01*
X142648247Y-34414959D01*
X142994342Y-34183706D01*
X143225595Y-33837611D01*
X143306800Y-33429364D01*
X143306800Y-32610636D01*
X143225595Y-32202389D01*
X142994342Y-31856294D01*
X142648247Y-31625041D01*
X142240000Y-31543836D01*
X141831753Y-31625041D01*
X141485658Y-31856294D01*
X141254405Y-32202389D01*
X141173200Y-32610636D01*
X141173200Y-33429364D01*
X141254405Y-33837611D01*
X141484047Y-34181295D01*
X140156671Y-35508671D01*
X140131800Y-35545893D01*
X140131800Y-34473771D01*
X140462000Y-34473771D01*
X140574952Y-34452518D01*
X140678692Y-34385763D01*
X140748287Y-34283907D01*
X140772771Y-34163000D01*
X140772771Y-31877000D01*
X140751518Y-31764048D01*
X140684763Y-31660308D01*
X140582907Y-31590713D01*
X140462000Y-31566229D01*
X138938000Y-31566229D01*
X138825048Y-31587482D01*
X138721308Y-31654237D01*
X138651713Y-31756093D01*
X138627229Y-31877000D01*
X124851579Y-31877000D01*
X124852286Y-31067539D01*
X124426180Y-30036284D01*
X123637866Y-29246593D01*
X122607357Y-28818688D01*
X121491539Y-28817714D01*
X120460284Y-29243820D01*
X119670593Y-30032134D01*
X119242688Y-31062643D01*
X119241714Y-32178461D01*
X117654475Y-32178461D01*
X117726705Y-32015745D01*
X117744194Y-31318179D01*
X117493404Y-30667020D01*
X117443600Y-30592482D01*
X117219491Y-30421430D01*
X116017921Y-31623000D01*
X115946079Y-31623000D01*
X114744509Y-30421430D01*
X114520400Y-30592482D01*
X114237295Y-31230255D01*
X114219806Y-31927821D01*
X105728909Y-31927821D01*
X105744194Y-31318179D01*
X105493404Y-30667020D01*
X105443600Y-30592482D01*
X105219491Y-30421430D01*
X104017921Y-31623000D01*
X103946079Y-31623000D01*
X102744509Y-30421430D01*
X102520400Y-30592482D01*
X102237295Y-31230255D01*
X102219806Y-31927821D01*
X100721535Y-31927821D01*
X100722286Y-31067539D01*
X100440477Y-30385509D01*
X102780430Y-30385509D01*
X103982000Y-31587079D01*
X105183570Y-30385509D01*
X114780430Y-30385509D01*
X115982000Y-31587079D01*
X117183570Y-30385509D01*
X117012518Y-30161400D01*
X116374745Y-29878295D01*
X115677179Y-29860806D01*
X115026020Y-30111596D01*
X114951482Y-30161400D01*
X114780430Y-30385509D01*
X105183570Y-30385509D01*
X105012518Y-30161400D01*
X104374745Y-29878295D01*
X103677179Y-29860806D01*
X103026020Y-30111596D01*
X102951482Y-30161400D01*
X102780430Y-30385509D01*
X100440477Y-30385509D01*
X100296180Y-30036284D01*
X99507866Y-29246593D01*
X98477357Y-28818688D01*
X97361539Y-28817714D01*
X96330284Y-29243820D01*
X95540593Y-30032134D01*
X95112688Y-31062643D01*
X95111714Y-32178461D01*
X85572600Y-32178461D01*
X85572600Y-27152600D01*
X234594400Y-27152600D01*
X234594400Y-76225400D01*
X234594400Y-76225400D01*
G37*
X234594400Y-76225400D02*
X85572600Y-76225400D01*
X85572600Y-72986900D01*
X147828000Y-72986900D01*
X147828000Y-74091524D01*
X147866669Y-74184879D01*
X147938120Y-74256331D01*
X148031476Y-74295000D01*
X148755100Y-74295000D01*
X148818600Y-74231500D01*
X148818600Y-72923400D01*
X148869400Y-72923400D01*
X148869400Y-74231500D01*
X148932900Y-74295000D01*
X149656524Y-74295000D01*
X149749880Y-74256331D01*
X149821331Y-74184879D01*
X149860000Y-74091524D01*
X149860000Y-72986900D01*
X149796500Y-72923400D01*
X148869400Y-72923400D01*
X148818600Y-72923400D01*
X147891500Y-72923400D01*
X147828000Y-72986900D01*
X85572600Y-72986900D01*
X85572600Y-71704476D01*
X147828000Y-71704476D01*
X147828000Y-72809100D01*
X147891500Y-72872600D01*
X148818600Y-72872600D01*
X148818600Y-71564500D01*
X148869400Y-71564500D01*
X148869400Y-72872600D01*
X149796500Y-72872600D01*
X149860000Y-72809100D01*
X149860000Y-72488636D01*
X150317200Y-72488636D01*
X150317200Y-73307364D01*
X150398405Y-73715611D01*
X150629658Y-74061706D01*
X150975753Y-74292959D01*
X151384000Y-74374164D01*
X151792247Y-74292959D01*
X152138342Y-74061706D01*
X152369595Y-73715611D01*
X152450800Y-73307364D01*
X152450800Y-72488636D01*
X152857200Y-72488636D01*
X152857200Y-73307364D01*
X152938405Y-73715611D01*
X153169658Y-74061706D01*
X153515753Y-74292959D01*
X153924000Y-74374164D01*
X154332247Y-74292959D01*
X154678342Y-74061706D01*
X154909595Y-73715611D01*
X154990800Y-73307364D01*
X154990800Y-72488636D01*
X154909595Y-72080389D01*
X154678342Y-71734294D01*
X154332247Y-71503041D01*
X153924000Y-71421836D01*
X153515753Y-71503041D01*
X153169658Y-71734294D01*
X152938405Y-72080389D01*
X152857200Y-72488636D01*
X152450800Y-72488636D01*
X152369595Y-72080389D01*
X152138342Y-71734294D01*
X151792247Y-71503041D01*
X151384000Y-71421836D01*
X150975753Y-71503041D01*
X150629658Y-71734294D01*
X150398405Y-72080389D01*
X150317200Y-72488636D01*
X149860000Y-72488636D01*
X149860000Y-71704476D01*
X149821331Y-71611121D01*
X149749880Y-71539669D01*
X149656524Y-71501000D01*
X148932900Y-71501000D01*
X148869400Y-71564500D01*
X148818600Y-71564500D01*
X148755100Y-71501000D01*
X148031476Y-71501000D01*
X147938120Y-71539669D01*
X147866669Y-71611121D01*
X147828000Y-71704476D01*
X85572600Y-71704476D01*
X85572600Y-68402200D01*
X135839200Y-68402200D01*
X135885603Y-68635484D01*
X136017748Y-68833252D01*
X136215516Y-68965397D01*
X136448800Y-69011800D01*
X138324787Y-69011800D01*
X138364000Y-69019600D01*
X138597284Y-68973197D01*
X138795052Y-68841052D01*
X138927197Y-68643284D01*
X138973600Y-68410000D01*
X138927197Y-68176716D01*
X138795052Y-67978948D01*
X138787252Y-67971148D01*
X138589484Y-67839003D01*
X138356200Y-67792600D01*
X136448800Y-67792600D01*
X136215516Y-67839003D01*
X136017748Y-67971148D01*
X135885603Y-68168916D01*
X135839200Y-68402200D01*
X85572600Y-68402200D01*
X85572600Y-66738500D01*
X146138900Y-66738500D01*
X146185303Y-66971784D01*
X146317448Y-67169552D01*
X146515216Y-67301697D01*
X146748500Y-67348100D01*
X152776129Y-67348100D01*
X152801717Y-67365197D01*
X153035000Y-67411600D01*
X153268284Y-67365197D01*
X153466053Y-67233053D01*
X153598197Y-67035284D01*
X153644600Y-66802000D01*
X153598197Y-66568717D01*
X153466053Y-66370948D01*
X153402552Y-66307448D01*
X153204784Y-66175303D01*
X152971500Y-66128900D01*
X146748500Y-66128900D01*
X146515216Y-66175303D01*
X146317448Y-66307448D01*
X146185303Y-66505216D01*
X146138900Y-66738500D01*
X85572600Y-66738500D01*
X85572600Y-65079649D01*
X103358272Y-65079649D01*
X103501337Y-65279859D01*
X104056006Y-65524651D01*
X104662132Y-65538548D01*
X105227437Y-65319433D01*
X105286663Y-65279859D01*
X105429728Y-65079649D01*
X108438272Y-65079649D01*
X108581337Y-65279859D01*
X109136006Y-65524651D01*
X109742132Y-65538548D01*
X110307437Y-65319433D01*
X110366663Y-65279859D01*
X110509728Y-65079649D01*
X109474000Y-64043921D01*
X108438272Y-65079649D01*
X105429728Y-65079649D01*
X104394000Y-64043921D01*
X103358272Y-65079649D01*
X85572600Y-65079649D01*
X85572600Y-64276132D01*
X102863452Y-64276132D01*
X103082567Y-64841437D01*
X103122141Y-64900663D01*
X103322351Y-65043728D01*
X104358079Y-64008000D01*
X104429921Y-64008000D01*
X105465649Y-65043728D01*
X105665859Y-64900663D01*
X105910651Y-64345994D01*
X105912252Y-64276132D01*
X107943452Y-64276132D01*
X108162567Y-64841437D01*
X108202141Y-64900663D01*
X108402351Y-65043728D01*
X109438079Y-64008000D01*
X109509921Y-64008000D01*
X110545649Y-65043728D01*
X110745859Y-64900663D01*
X110990651Y-64345994D01*
X111004548Y-63739868D01*
X110785433Y-63174563D01*
X110745859Y-63115337D01*
X110545649Y-62972272D01*
X109509921Y-64008000D01*
X109438079Y-64008000D01*
X108402351Y-62972272D01*
X108202141Y-63115337D01*
X107957349Y-63670006D01*
X107943452Y-64276132D01*
X105912252Y-64276132D01*
X105924548Y-63739868D01*
X105705433Y-63174563D01*
X105665859Y-63115337D01*
X105465649Y-62972272D01*
X104429921Y-64008000D01*
X104358079Y-64008000D01*
X103322351Y-62972272D01*
X103122141Y-63115337D01*
X102877349Y-63670006D01*
X102863452Y-64276132D01*
X85572600Y-64276132D01*
X85572600Y-62936351D01*
X103358272Y-62936351D01*
X104394000Y-63972079D01*
X105429728Y-62936351D01*
X108438272Y-62936351D01*
X109474000Y-63972079D01*
X110509728Y-62936351D01*
X110366663Y-62736141D01*
X109811994Y-62491349D01*
X109205868Y-62477452D01*
X108640563Y-62696567D01*
X108581337Y-62736141D01*
X108438272Y-62936351D01*
X105429728Y-62936351D01*
X105286663Y-62736141D01*
X104731994Y-62491349D01*
X104125868Y-62477452D01*
X103560563Y-62696567D01*
X103501337Y-62736141D01*
X103358272Y-62936351D01*
X85572600Y-62936351D01*
X85572600Y-47569000D01*
X114505229Y-47569000D01*
X114505229Y-48419000D01*
X114526482Y-48531952D01*
X114593237Y-48635692D01*
X114695093Y-48705287D01*
X114816000Y-48729771D01*
X114884200Y-48729771D01*
X114884200Y-56388000D01*
X114917069Y-56553243D01*
X115001927Y-56680243D01*
X115010671Y-56693329D01*
X116026671Y-57709329D01*
X116166757Y-57802931D01*
X116332000Y-57835800D01*
X157480000Y-57835800D01*
X157645243Y-57802931D01*
X157785329Y-57709329D01*
X158068200Y-57426458D01*
X158068200Y-70429142D01*
X156945413Y-71551929D01*
X156872247Y-71503041D01*
X156464000Y-71421836D01*
X156055753Y-71503041D01*
X155709658Y-71734294D01*
X155478405Y-72080389D01*
X155397200Y-72488636D01*
X155397200Y-73307364D01*
X155478405Y-73715611D01*
X155709658Y-74061706D01*
X156055753Y-74292959D01*
X156464000Y-74374164D01*
X156872247Y-74292959D01*
X157218342Y-74061706D01*
X157449595Y-73715611D01*
X157530800Y-73307364D01*
X157530800Y-72488636D01*
X157480898Y-72237760D01*
X158568200Y-71150458D01*
X158568200Y-71521451D01*
X158249658Y-71734294D01*
X158018405Y-72080389D01*
X157937200Y-72488636D01*
X157937200Y-73307364D01*
X158018405Y-73715611D01*
X158249658Y-74061706D01*
X158595753Y-74292959D01*
X159004000Y-74374164D01*
X159412247Y-74292959D01*
X159758342Y-74061706D01*
X159989595Y-73715611D01*
X160070800Y-73307364D01*
X160070800Y-72488636D01*
X160477200Y-72488636D01*
X160477200Y-73307364D01*
X160558405Y-73715611D01*
X160789658Y-74061706D01*
X161135753Y-74292959D01*
X161544000Y-74374164D01*
X161952247Y-74292959D01*
X162298342Y-74061706D01*
X162529595Y-73715611D01*
X162610800Y-73307364D01*
X162610800Y-72488636D01*
X162529595Y-72080389D01*
X162414008Y-71907400D01*
X169926000Y-71907400D01*
X169926000Y-72288400D01*
X170013059Y-72675273D01*
X170241540Y-72999381D01*
X170576660Y-73211382D01*
X170758025Y-73262204D01*
X170916600Y-73215161D01*
X170916600Y-71907400D01*
X170967400Y-71907400D01*
X170967400Y-73215161D01*
X171125975Y-73262204D01*
X171307340Y-73211382D01*
X171642460Y-72999381D01*
X171870941Y-72675273D01*
X171958000Y-72288400D01*
X171958000Y-71907400D01*
X172466000Y-71907400D01*
X172466000Y-72288400D01*
X172553059Y-72675273D01*
X172781540Y-72999381D01*
X173116660Y-73211382D01*
X173298025Y-73262204D01*
X173456600Y-73215161D01*
X173456600Y-71907400D01*
X173507400Y-71907400D01*
X173507400Y-73215161D01*
X173665975Y-73262204D01*
X173847340Y-73211382D01*
X174182460Y-72999381D01*
X174410941Y-72675273D01*
X174498000Y-72288400D01*
X174498000Y-71907400D01*
X175006000Y-71907400D01*
X175006000Y-72288400D01*
X175093059Y-72675273D01*
X175321540Y-72999381D01*
X175656660Y-73211382D01*
X175838025Y-73262204D01*
X175996600Y-73215161D01*
X175996600Y-71907400D01*
X176047400Y-71907400D01*
X176047400Y-73215161D01*
X176205975Y-73262204D01*
X176387340Y-73211382D01*
X176722460Y-72999381D01*
X176950941Y-72675273D01*
X177038000Y-72288400D01*
X177038000Y-71907400D01*
X177546000Y-71907400D01*
X177546000Y-72288400D01*
X177633059Y-72675273D01*
X177861540Y-72999381D01*
X178196660Y-73211382D01*
X178378025Y-73262204D01*
X178536600Y-73215161D01*
X178536600Y-71907400D01*
X178587400Y-71907400D01*
X178587400Y-73215161D01*
X178745975Y-73262204D01*
X178927340Y-73211382D01*
X179262460Y-72999381D01*
X179490941Y-72675273D01*
X179578000Y-72288400D01*
X179578000Y-71907400D01*
X180086000Y-71907400D01*
X180086000Y-72288400D01*
X180173059Y-72675273D01*
X180401540Y-72999381D01*
X180736660Y-73211382D01*
X180918025Y-73262204D01*
X181076600Y-73215161D01*
X181076600Y-71907400D01*
X181127400Y-71907400D01*
X181127400Y-73215161D01*
X181285975Y-73262204D01*
X181467340Y-73211382D01*
X181802460Y-72999381D01*
X182030941Y-72675273D01*
X182118000Y-72288400D01*
X182118000Y-71907400D01*
X182626000Y-71907400D01*
X182626000Y-72288400D01*
X182713059Y-72675273D01*
X182941540Y-72999381D01*
X183276660Y-73211382D01*
X183458025Y-73262204D01*
X183616600Y-73215161D01*
X183616600Y-71907400D01*
X183667400Y-71907400D01*
X183667400Y-73215161D01*
X183825975Y-73262204D01*
X184007340Y-73211382D01*
X184342460Y-72999381D01*
X184570941Y-72675273D01*
X184658000Y-72288400D01*
X184658000Y-71907400D01*
X185166000Y-71907400D01*
X185166000Y-72288400D01*
X185253059Y-72675273D01*
X185481540Y-72999381D01*
X185816660Y-73211382D01*
X185998025Y-73262204D01*
X186156600Y-73215161D01*
X186156600Y-71907400D01*
X186207400Y-71907400D01*
X186207400Y-73215161D01*
X186365975Y-73262204D01*
X186547340Y-73211382D01*
X186882460Y-72999381D01*
X187110941Y-72675273D01*
X187198000Y-72288400D01*
X187198000Y-71907400D01*
X187706000Y-71907400D01*
X187706000Y-72288400D01*
X187793059Y-72675273D01*
X188021540Y-72999381D01*
X188356660Y-73211382D01*
X188538025Y-73262204D01*
X188696600Y-73215161D01*
X188696600Y-71907400D01*
X188747400Y-71907400D01*
X188747400Y-73215161D01*
X188905975Y-73262204D01*
X189087340Y-73211382D01*
X189422460Y-72999381D01*
X189650941Y-72675273D01*
X189738000Y-72288400D01*
X189738000Y-71907400D01*
X190246000Y-71907400D01*
X190246000Y-72288400D01*
X190333059Y-72675273D01*
X190561540Y-72999381D01*
X190896660Y-73211382D01*
X191078025Y-73262204D01*
X191236600Y-73215161D01*
X191236600Y-71907400D01*
X191287400Y-71907400D01*
X191287400Y-73215161D01*
X191445975Y-73262204D01*
X191627340Y-73211382D01*
X191962460Y-72999381D01*
X192190941Y-72675273D01*
X192278000Y-72288400D01*
X192278000Y-71907400D01*
X192786000Y-71907400D01*
X192786000Y-72288400D01*
X192873059Y-72675273D01*
X193101540Y-72999381D01*
X193436660Y-73211382D01*
X193618025Y-73262204D01*
X193776600Y-73215161D01*
X193776600Y-71907400D01*
X193827400Y-71907400D01*
X193827400Y-73215161D01*
X193985975Y-73262204D01*
X194167340Y-73211382D01*
X194502460Y-72999381D01*
X194730941Y-72675273D01*
X194818000Y-72288400D01*
X194818000Y-71907400D01*
X193827400Y-71907400D01*
X193776600Y-71907400D01*
X192786000Y-71907400D01*
X192278000Y-71907400D01*
X191287400Y-71907400D01*
X191236600Y-71907400D01*
X190246000Y-71907400D01*
X189738000Y-71907400D01*
X188747400Y-71907400D01*
X188696600Y-71907400D01*
X187706000Y-71907400D01*
X187198000Y-71907400D01*
X186207400Y-71907400D01*
X186156600Y-71907400D01*
X185166000Y-71907400D01*
X184658000Y-71907400D01*
X183667400Y-71907400D01*
X183616600Y-71907400D01*
X182626000Y-71907400D01*
X182118000Y-71907400D01*
X181127400Y-71907400D01*
X181076600Y-71907400D01*
X180086000Y-71907400D01*
X179578000Y-71907400D01*
X178587400Y-71907400D01*
X178536600Y-71907400D01*
X177546000Y-71907400D01*
X177038000Y-71907400D01*
X176047400Y-71907400D01*
X175996600Y-71907400D01*
X175006000Y-71907400D01*
X174498000Y-71907400D01*
X173507400Y-71907400D01*
X173456600Y-71907400D01*
X172466000Y-71907400D01*
X171958000Y-71907400D01*
X170967400Y-71907400D01*
X170916600Y-71907400D01*
X169926000Y-71907400D01*
X162414008Y-71907400D01*
X162298342Y-71734294D01*
X161952247Y-71503041D01*
X161814292Y-71475600D01*
X169926000Y-71475600D01*
X169926000Y-71856600D01*
X170916600Y-71856600D01*
X170916600Y-70548839D01*
X170967400Y-70548839D01*
X170967400Y-71856600D01*
X171958000Y-71856600D01*
X171958000Y-71475600D01*
X172466000Y-71475600D01*
X172466000Y-71856600D01*
X173456600Y-71856600D01*
X173456600Y-70548839D01*
X173507400Y-70548839D01*
X173507400Y-71856600D01*
X174498000Y-71856600D01*
X174498000Y-71475600D01*
X175006000Y-71475600D01*
X175006000Y-71856600D01*
X175996600Y-71856600D01*
X175996600Y-70548839D01*
X176047400Y-70548839D01*
X176047400Y-71856600D01*
X177038000Y-71856600D01*
X177038000Y-71475600D01*
X177546000Y-71475600D01*
X177546000Y-71856600D01*
X178536600Y-71856600D01*
X178536600Y-70548839D01*
X178587400Y-70548839D01*
X178587400Y-71856600D01*
X179578000Y-71856600D01*
X179578000Y-71475600D01*
X180086000Y-71475600D01*
X180086000Y-71856600D01*
X181076600Y-71856600D01*
X181076600Y-70548839D01*
X181127400Y-70548839D01*
X181127400Y-71856600D01*
X182118000Y-71856600D01*
X182118000Y-71475600D01*
X182626000Y-71475600D01*
X182626000Y-71856600D01*
X183616600Y-71856600D01*
X183616600Y-70548839D01*
X183667400Y-70548839D01*
X183667400Y-71856600D01*
X184658000Y-71856600D01*
X184658000Y-71475600D01*
X185166000Y-71475600D01*
X185166000Y-71856600D01*
X186156600Y-71856600D01*
X186156600Y-70548839D01*
X186207400Y-70548839D01*
X186207400Y-71856600D01*
X187198000Y-71856600D01*
X187198000Y-71475600D01*
X187706000Y-71475600D01*
X187706000Y-71856600D01*
X188696600Y-71856600D01*
X188696600Y-70548839D01*
X188747400Y-70548839D01*
X188747400Y-71856600D01*
X189738000Y-71856600D01*
X189738000Y-71475600D01*
X190246000Y-71475600D01*
X190246000Y-71856600D01*
X191236600Y-71856600D01*
X191236600Y-70548839D01*
X191287400Y-70548839D01*
X191287400Y-71856600D01*
X192278000Y-71856600D01*
X192278000Y-71475600D01*
X192786000Y-71475600D01*
X192786000Y-71856600D01*
X193776600Y-71856600D01*
X193776600Y-70548839D01*
X193827400Y-70548839D01*
X193827400Y-71856600D01*
X194818000Y-71856600D01*
X194818000Y-71475600D01*
X194730941Y-71088727D01*
X194502460Y-70764619D01*
X194167340Y-70552618D01*
X193985975Y-70501796D01*
X193827400Y-70548839D01*
X193776600Y-70548839D01*
X193618025Y-70501796D01*
X193436660Y-70552618D01*
X193101540Y-70764619D01*
X192873059Y-71088727D01*
X192786000Y-71475600D01*
X192278000Y-71475600D01*
X192190941Y-71088727D01*
X191962460Y-70764619D01*
X191627340Y-70552618D01*
X191445975Y-70501796D01*
X191287400Y-70548839D01*
X191236600Y-70548839D01*
X191078025Y-70501796D01*
X190896660Y-70552618D01*
X190561540Y-70764619D01*
X190333059Y-71088727D01*
X190246000Y-71475600D01*
X189738000Y-71475600D01*
X189650941Y-71088727D01*
X189422460Y-70764619D01*
X189087340Y-70552618D01*
X188905975Y-70501796D01*
X188747400Y-70548839D01*
X188696600Y-70548839D01*
X188538025Y-70501796D01*
X188356660Y-70552618D01*
X188021540Y-70764619D01*
X187793059Y-71088727D01*
X187706000Y-71475600D01*
X187198000Y-71475600D01*
X187110941Y-71088727D01*
X186882460Y-70764619D01*
X186547340Y-70552618D01*
X186365975Y-70501796D01*
X186207400Y-70548839D01*
X186156600Y-70548839D01*
X185998025Y-70501796D01*
X185816660Y-70552618D01*
X185481540Y-70764619D01*
X185253059Y-71088727D01*
X185166000Y-71475600D01*
X184658000Y-71475600D01*
X184570941Y-71088727D01*
X184342460Y-70764619D01*
X184007340Y-70552618D01*
X183825975Y-70501796D01*
X183667400Y-70548839D01*
X183616600Y-70548839D01*
X183458025Y-70501796D01*
X183276660Y-70552618D01*
X182941540Y-70764619D01*
X182713059Y-71088727D01*
X182626000Y-71475600D01*
X182118000Y-71475600D01*
X182030941Y-71088727D01*
X181802460Y-70764619D01*
X181467340Y-70552618D01*
X181285975Y-70501796D01*
X181127400Y-70548839D01*
X181076600Y-70548839D01*
X180918025Y-70501796D01*
X180736660Y-70552618D01*
X180401540Y-70764619D01*
X180173059Y-71088727D01*
X180086000Y-71475600D01*
X179578000Y-71475600D01*
X179490941Y-71088727D01*
X179262460Y-70764619D01*
X178927340Y-70552618D01*
X178745975Y-70501796D01*
X178587400Y-70548839D01*
X178536600Y-70548839D01*
X178378025Y-70501796D01*
X178196660Y-70552618D01*
X177861540Y-70764619D01*
X177633059Y-71088727D01*
X177546000Y-71475600D01*
X177038000Y-71475600D01*
X176950941Y-71088727D01*
X176722460Y-70764619D01*
X176387340Y-70552618D01*
X176205975Y-70501796D01*
X176047400Y-70548839D01*
X175996600Y-70548839D01*
X175838025Y-70501796D01*
X175656660Y-70552618D01*
X175321540Y-70764619D01*
X175093059Y-71088727D01*
X175006000Y-71475600D01*
X174498000Y-71475600D01*
X174410941Y-71088727D01*
X174182460Y-70764619D01*
X173847340Y-70552618D01*
X173665975Y-70501796D01*
X173507400Y-70548839D01*
X173456600Y-70548839D01*
X173298025Y-70501796D01*
X173116660Y-70552618D01*
X172781540Y-70764619D01*
X172553059Y-71088727D01*
X172466000Y-71475600D01*
X171958000Y-71475600D01*
X171870941Y-71088727D01*
X171642460Y-70764619D01*
X171307340Y-70552618D01*
X171125975Y-70501796D01*
X170967400Y-70548839D01*
X170916600Y-70548839D01*
X170758025Y-70501796D01*
X170576660Y-70552618D01*
X170241540Y-70764619D01*
X170013059Y-71088727D01*
X169926000Y-71475600D01*
X161814292Y-71475600D01*
X161544000Y-71421836D01*
X161135753Y-71503041D01*
X160789658Y-71734294D01*
X160558405Y-72080389D01*
X160477200Y-72488636D01*
X160070800Y-72488636D01*
X159989595Y-72080389D01*
X159758342Y-71734294D01*
X159431800Y-71516106D01*
X159431800Y-68424636D01*
X169875200Y-68424636D01*
X169875200Y-69243364D01*
X169956405Y-69651611D01*
X170187658Y-69997706D01*
X170533753Y-70228959D01*
X170942000Y-70310164D01*
X171350247Y-70228959D01*
X171696342Y-69997706D01*
X171927595Y-69651611D01*
X172008800Y-69243364D01*
X172008800Y-68424636D01*
X172415200Y-68424636D01*
X172415200Y-69243364D01*
X172496405Y-69651611D01*
X172727658Y-69997706D01*
X173073753Y-70228959D01*
X173482000Y-70310164D01*
X173890247Y-70228959D01*
X174236342Y-69997706D01*
X174467595Y-69651611D01*
X174548800Y-69243364D01*
X174548800Y-68424636D01*
X174467595Y-68016389D01*
X174236342Y-67670294D01*
X173890247Y-67439041D01*
X173482000Y-67357836D01*
X173073753Y-67439041D01*
X172727658Y-67670294D01*
X172496405Y-68016389D01*
X172415200Y-68424636D01*
X172008800Y-68424636D01*
X171927595Y-68016389D01*
X171696342Y-67670294D01*
X171350247Y-67439041D01*
X170942000Y-67357836D01*
X170533753Y-67439041D01*
X170187658Y-67670294D01*
X169956405Y-68016389D01*
X169875200Y-68424636D01*
X159431800Y-68424636D01*
X159431800Y-55807899D01*
X159500000Y-55821465D01*
X159568200Y-55807899D01*
X159568200Y-56368000D01*
X159601069Y-56533243D01*
X159614432Y-56553242D01*
X159694671Y-56673329D01*
X159898433Y-56877091D01*
X159718248Y-56951542D01*
X159568069Y-57101459D01*
X159486693Y-57297435D01*
X159486508Y-57509634D01*
X159567542Y-57705752D01*
X159717459Y-57855931D01*
X159913435Y-57937307D01*
X159942675Y-57937332D01*
X160096200Y-58090857D01*
X160096200Y-60383363D01*
X160076069Y-60403459D01*
X159994693Y-60599435D01*
X159994508Y-60811634D01*
X160075542Y-61007752D01*
X160225459Y-61157931D01*
X160421435Y-61239307D01*
X160633634Y-61239492D01*
X160829752Y-61158458D01*
X160979931Y-61008541D01*
X161061307Y-60812565D01*
X161061492Y-60600366D01*
X160980458Y-60404248D01*
X160959800Y-60383554D01*
X160959800Y-57938458D01*
X161492671Y-58471329D01*
X161632757Y-58564931D01*
X161798000Y-58597800D01*
X166116000Y-58597800D01*
X166281243Y-58564931D01*
X166421329Y-58471329D01*
X168161758Y-56730900D01*
X171774000Y-56730900D01*
X171774000Y-57167524D01*
X171812669Y-57260879D01*
X171884120Y-57332331D01*
X171977476Y-57371000D01*
X172389100Y-57371000D01*
X172452600Y-57307500D01*
X172452600Y-56667400D01*
X172503400Y-56667400D01*
X172503400Y-57307500D01*
X172566900Y-57371000D01*
X172978524Y-57371000D01*
X173071880Y-57332331D01*
X173143331Y-57260879D01*
X173182000Y-57167524D01*
X173182000Y-56730900D01*
X173118500Y-56667400D01*
X172503400Y-56667400D01*
X172452600Y-56667400D01*
X171837500Y-56667400D01*
X171774000Y-56730900D01*
X168161758Y-56730900D01*
X168776182Y-56116476D01*
X171774000Y-56116476D01*
X171774000Y-56553100D01*
X171837500Y-56616600D01*
X172452600Y-56616600D01*
X172452600Y-55976500D01*
X172503400Y-55976500D01*
X172503400Y-56616600D01*
X173118500Y-56616600D01*
X173182000Y-56553100D01*
X173182000Y-56167000D01*
X173217229Y-56167000D01*
X173217229Y-57117000D01*
X173238482Y-57229952D01*
X173305237Y-57333692D01*
X173407093Y-57403287D01*
X173528000Y-57427771D01*
X174428000Y-57427771D01*
X174540952Y-57406518D01*
X174644692Y-57339763D01*
X174714287Y-57237907D01*
X174738771Y-57117000D01*
X174738771Y-57073800D01*
X175214766Y-57073800D01*
X175232482Y-57167952D01*
X175299237Y-57271692D01*
X175401093Y-57341287D01*
X175522000Y-57365771D01*
X175590200Y-57365771D01*
X175590200Y-60383363D01*
X175570069Y-60403459D01*
X175488693Y-60599435D01*
X175488508Y-60811634D01*
X175569542Y-61007752D01*
X175590200Y-61028446D01*
X175590200Y-67454779D01*
X175267658Y-67670294D01*
X175036405Y-68016389D01*
X174955200Y-68424636D01*
X174955200Y-69243364D01*
X175036405Y-69651611D01*
X175267658Y-69997706D01*
X175613753Y-70228959D01*
X176022000Y-70310164D01*
X176430247Y-70228959D01*
X176776342Y-69997706D01*
X177007595Y-69651611D01*
X177088800Y-69243364D01*
X177088800Y-68424636D01*
X177007595Y-68016389D01*
X176776342Y-67670294D01*
X176453800Y-67454779D01*
X176453800Y-61028637D01*
X176473931Y-61008541D01*
X176555307Y-60812565D01*
X176555492Y-60600366D01*
X176474458Y-60404248D01*
X176453800Y-60383554D01*
X176453800Y-57365771D01*
X176522000Y-57365771D01*
X176634952Y-57344518D01*
X176738692Y-57277763D01*
X176808287Y-57175907D01*
X176832771Y-57055000D01*
X176832771Y-56927365D01*
X176839542Y-56943752D01*
X176989459Y-57093931D01*
X177185435Y-57175307D01*
X177397634Y-57175492D01*
X177593752Y-57094458D01*
X177626467Y-57061800D01*
X177752508Y-57061800D01*
X177772482Y-57167952D01*
X177839237Y-57271692D01*
X177941093Y-57341287D01*
X178062000Y-57365771D01*
X178130200Y-57365771D01*
X178130200Y-67454779D01*
X177807658Y-67670294D01*
X177576405Y-68016389D01*
X177495200Y-68424636D01*
X177495200Y-69243364D01*
X177576405Y-69651611D01*
X177807658Y-69997706D01*
X178153753Y-70228959D01*
X178562000Y-70310164D01*
X178970247Y-70228959D01*
X179316342Y-69997706D01*
X179547595Y-69651611D01*
X179628800Y-69243364D01*
X179628800Y-68424636D01*
X180035200Y-68424636D01*
X180035200Y-69243364D01*
X180116405Y-69651611D01*
X180347658Y-69997706D01*
X180693753Y-70228959D01*
X181102000Y-70310164D01*
X181510247Y-70228959D01*
X181856342Y-69997706D01*
X182087595Y-69651611D01*
X182168800Y-69243364D01*
X182168800Y-68424636D01*
X182575200Y-68424636D01*
X182575200Y-69243364D01*
X182656405Y-69651611D01*
X182887658Y-69997706D01*
X183233753Y-70228959D01*
X183642000Y-70310164D01*
X184050247Y-70228959D01*
X184396342Y-69997706D01*
X184627595Y-69651611D01*
X184708800Y-69243364D01*
X184708800Y-68424636D01*
X185115200Y-68424636D01*
X185115200Y-69243364D01*
X185196405Y-69651611D01*
X185427658Y-69997706D01*
X185773753Y-70228959D01*
X186182000Y-70310164D01*
X186590247Y-70228959D01*
X186936342Y-69997706D01*
X187167595Y-69651611D01*
X187248800Y-69243364D01*
X187248800Y-68424636D01*
X187655200Y-68424636D01*
X187655200Y-69243364D01*
X187736405Y-69651611D01*
X187967658Y-69997706D01*
X188313753Y-70228959D01*
X188722000Y-70310164D01*
X189130247Y-70228959D01*
X189476342Y-69997706D01*
X189707595Y-69651611D01*
X189788800Y-69243364D01*
X189788800Y-68424636D01*
X189707595Y-68016389D01*
X189476342Y-67670294D01*
X189153800Y-67454779D01*
X189153800Y-60774637D01*
X189173931Y-60754541D01*
X189255307Y-60558565D01*
X189255492Y-60346366D01*
X189174458Y-60150248D01*
X189153800Y-60129554D01*
X189153800Y-57365771D01*
X189222000Y-57365771D01*
X189334952Y-57344518D01*
X189438692Y-57277763D01*
X189508287Y-57175907D01*
X189532771Y-57055000D01*
X189532771Y-56205000D01*
X189511518Y-56092048D01*
X189444763Y-55988308D01*
X189342907Y-55918713D01*
X189222000Y-55894229D01*
X188222000Y-55894229D01*
X188109048Y-55915482D01*
X188005308Y-55982237D01*
X187935713Y-56084093D01*
X187911229Y-56205000D01*
X187911229Y-57055000D01*
X187932482Y-57167952D01*
X187999237Y-57271692D01*
X188101093Y-57341287D01*
X188222000Y-57365771D01*
X188290200Y-57365771D01*
X188290200Y-60129363D01*
X188270069Y-60149459D01*
X188188693Y-60345435D01*
X188188508Y-60557634D01*
X188269542Y-60753752D01*
X188290200Y-60774446D01*
X188290200Y-67454779D01*
X187967658Y-67670294D01*
X187736405Y-68016389D01*
X187655200Y-68424636D01*
X187248800Y-68424636D01*
X187167595Y-68016389D01*
X186936342Y-67670294D01*
X186613800Y-67454779D01*
X186613800Y-59504637D01*
X186633931Y-59484541D01*
X186715307Y-59288565D01*
X186715492Y-59076366D01*
X186634458Y-58880248D01*
X186613800Y-58859554D01*
X186613800Y-57365771D01*
X186682000Y-57365771D01*
X186794952Y-57344518D01*
X186898692Y-57277763D01*
X186968287Y-57175907D01*
X186992771Y-57055000D01*
X186992771Y-56205000D01*
X186971518Y-56092048D01*
X186904763Y-55988308D01*
X186802907Y-55918713D01*
X186682000Y-55894229D01*
X185682000Y-55894229D01*
X185569048Y-55915482D01*
X185465308Y-55982237D01*
X185395713Y-56084093D01*
X185371229Y-56205000D01*
X185371229Y-57055000D01*
X185392482Y-57167952D01*
X185459237Y-57271692D01*
X185561093Y-57341287D01*
X185682000Y-57365771D01*
X185750200Y-57365771D01*
X185750200Y-58859363D01*
X185730069Y-58879459D01*
X185648693Y-59075435D01*
X185648508Y-59287634D01*
X185729542Y-59483752D01*
X185750200Y-59504446D01*
X185750200Y-67454779D01*
X185427658Y-67670294D01*
X185196405Y-68016389D01*
X185115200Y-68424636D01*
X184708800Y-68424636D01*
X184627595Y-68016389D01*
X184396342Y-67670294D01*
X184073800Y-67454779D01*
X184073800Y-60012637D01*
X184093931Y-59992541D01*
X184175307Y-59796565D01*
X184175492Y-59584366D01*
X184094458Y-59388248D01*
X184073800Y-59367554D01*
X184073800Y-59143771D01*
X184142000Y-59143771D01*
X184254952Y-59122518D01*
X184358692Y-59055763D01*
X184428287Y-58953907D01*
X184452771Y-58833000D01*
X184452771Y-57983000D01*
X184431518Y-57870048D01*
X184364763Y-57766308D01*
X184262907Y-57696713D01*
X184142000Y-57672229D01*
X183142000Y-57672229D01*
X183029048Y-57693482D01*
X182925308Y-57760237D01*
X182855713Y-57862093D01*
X182831229Y-57983000D01*
X182831229Y-58833000D01*
X182852482Y-58945952D01*
X182919237Y-59049692D01*
X183021093Y-59119287D01*
X183142000Y-59143771D01*
X183210200Y-59143771D01*
X183210200Y-59367363D01*
X183190069Y-59387459D01*
X183108693Y-59583435D01*
X183108508Y-59795634D01*
X183189542Y-59991752D01*
X183210200Y-60012446D01*
X183210200Y-67454779D01*
X182887658Y-67670294D01*
X182656405Y-68016389D01*
X182575200Y-68424636D01*
X182168800Y-68424636D01*
X182087595Y-68016389D01*
X181856342Y-67670294D01*
X181533800Y-67454779D01*
X181533800Y-59143771D01*
X181602000Y-59143771D01*
X181714952Y-59122518D01*
X181818692Y-59055763D01*
X181888287Y-58953907D01*
X181912771Y-58833000D01*
X181912771Y-57983000D01*
X181891518Y-57870048D01*
X181824763Y-57766308D01*
X181722907Y-57696713D01*
X181602000Y-57672229D01*
X180602000Y-57672229D01*
X180489048Y-57693482D01*
X180385308Y-57760237D01*
X180315713Y-57862093D01*
X180291229Y-57983000D01*
X180291229Y-58833000D01*
X180312482Y-58945952D01*
X180379237Y-59049692D01*
X180481093Y-59119287D01*
X180602000Y-59143771D01*
X180670200Y-59143771D01*
X180670200Y-67454779D01*
X180347658Y-67670294D01*
X180116405Y-68016389D01*
X180035200Y-68424636D01*
X179628800Y-68424636D01*
X179547595Y-68016389D01*
X179316342Y-67670294D01*
X178993800Y-67454779D01*
X178993800Y-57365771D01*
X179062000Y-57365771D01*
X179174952Y-57344518D01*
X179278692Y-57277763D01*
X179348287Y-57175907D01*
X179372771Y-57055000D01*
X179372771Y-56996900D01*
X180348000Y-56996900D01*
X180348000Y-57383524D01*
X180386669Y-57476880D01*
X180458121Y-57548331D01*
X180551476Y-57587000D01*
X181013100Y-57587000D01*
X181076600Y-57523500D01*
X181076600Y-56933400D01*
X181127400Y-56933400D01*
X181127400Y-57523500D01*
X181190900Y-57587000D01*
X181652524Y-57587000D01*
X181745879Y-57548331D01*
X181817331Y-57476880D01*
X181856000Y-57383524D01*
X181856000Y-56996900D01*
X182888000Y-56996900D01*
X182888000Y-57383524D01*
X182926669Y-57476880D01*
X182998121Y-57548331D01*
X183091476Y-57587000D01*
X183553100Y-57587000D01*
X183616600Y-57523500D01*
X183616600Y-56933400D01*
X183667400Y-56933400D01*
X183667400Y-57523500D01*
X183730900Y-57587000D01*
X184192524Y-57587000D01*
X184285879Y-57548331D01*
X184357331Y-57476880D01*
X184396000Y-57383524D01*
X184396000Y-56996900D01*
X184332500Y-56933400D01*
X183667400Y-56933400D01*
X183616600Y-56933400D01*
X182951500Y-56933400D01*
X182888000Y-56996900D01*
X181856000Y-56996900D01*
X181792500Y-56933400D01*
X181127400Y-56933400D01*
X181076600Y-56933400D01*
X180411500Y-56933400D01*
X180348000Y-56996900D01*
X179372771Y-56996900D01*
X179372771Y-56432476D01*
X180348000Y-56432476D01*
X180348000Y-56819100D01*
X180411500Y-56882600D01*
X181076600Y-56882600D01*
X181076600Y-56292500D01*
X181127400Y-56292500D01*
X181127400Y-56882600D01*
X181792500Y-56882600D01*
X181856000Y-56819100D01*
X181856000Y-56432476D01*
X182888000Y-56432476D01*
X182888000Y-56819100D01*
X182951500Y-56882600D01*
X183616600Y-56882600D01*
X183616600Y-56292500D01*
X183667400Y-56292500D01*
X183667400Y-56882600D01*
X184332500Y-56882600D01*
X184396000Y-56819100D01*
X184396000Y-56432476D01*
X184357331Y-56339120D01*
X184285879Y-56267669D01*
X184192524Y-56229000D01*
X183730900Y-56229000D01*
X183667400Y-56292500D01*
X183616600Y-56292500D01*
X183553100Y-56229000D01*
X183091476Y-56229000D01*
X182998121Y-56267669D01*
X182926669Y-56339120D01*
X182888000Y-56432476D01*
X181856000Y-56432476D01*
X181817331Y-56339120D01*
X181745879Y-56267669D01*
X181652524Y-56229000D01*
X181190900Y-56229000D01*
X181127400Y-56292500D01*
X181076600Y-56292500D01*
X181013100Y-56229000D01*
X180551476Y-56229000D01*
X180458121Y-56267669D01*
X180386669Y-56339120D01*
X180348000Y-56432476D01*
X179372771Y-56432476D01*
X179372771Y-56205000D01*
X179351518Y-56092048D01*
X179284763Y-55988308D01*
X179182907Y-55918713D01*
X179062000Y-55894229D01*
X178062000Y-55894229D01*
X177949048Y-55915482D01*
X177845308Y-55982237D01*
X177775713Y-56084093D01*
X177752606Y-56198200D01*
X177602658Y-56198200D01*
X177594541Y-56190069D01*
X177398565Y-56108693D01*
X177186366Y-56108508D01*
X176990248Y-56189542D01*
X176840069Y-56339459D01*
X176832771Y-56357035D01*
X176832771Y-56205000D01*
X176811518Y-56092048D01*
X176744763Y-55988308D01*
X176642907Y-55918713D01*
X176522000Y-55894229D01*
X175522000Y-55894229D01*
X175409048Y-55915482D01*
X175305308Y-55982237D01*
X175235713Y-56084093D01*
X175211229Y-56205000D01*
X175211229Y-56210200D01*
X174738771Y-56210200D01*
X174738771Y-56167000D01*
X174717518Y-56054048D01*
X174650763Y-55950308D01*
X174548907Y-55880713D01*
X174428000Y-55856229D01*
X173528000Y-55856229D01*
X173415048Y-55877482D01*
X173311308Y-55944237D01*
X173241713Y-56046093D01*
X173217229Y-56167000D01*
X173182000Y-56167000D01*
X173182000Y-56116476D01*
X173143331Y-56023121D01*
X173071880Y-55951669D01*
X172978524Y-55913000D01*
X172566900Y-55913000D01*
X172503400Y-55976500D01*
X172452600Y-55976500D01*
X172389100Y-55913000D01*
X171977476Y-55913000D01*
X171884120Y-55951669D01*
X171812669Y-56023121D01*
X171774000Y-56116476D01*
X168776182Y-56116476D01*
X169732524Y-55160134D01*
X173520008Y-55160134D01*
X173601042Y-55356252D01*
X173750959Y-55506431D01*
X173946935Y-55587807D01*
X174159134Y-55587992D01*
X174222524Y-55561800D01*
X175212508Y-55561800D01*
X175232482Y-55667952D01*
X175299237Y-55771692D01*
X175401093Y-55841287D01*
X175522000Y-55865771D01*
X176522000Y-55865771D01*
X176634952Y-55844518D01*
X176738692Y-55777763D01*
X176808287Y-55675907D01*
X176831394Y-55561800D01*
X177752508Y-55561800D01*
X177772482Y-55667952D01*
X177839237Y-55771692D01*
X177941093Y-55841287D01*
X178062000Y-55865771D01*
X179062000Y-55865771D01*
X179174952Y-55844518D01*
X179278692Y-55777763D01*
X179348287Y-55675907D01*
X179371394Y-55561800D01*
X185372508Y-55561800D01*
X185392482Y-55667952D01*
X185459237Y-55771692D01*
X185561093Y-55841287D01*
X185682000Y-55865771D01*
X186682000Y-55865771D01*
X186794952Y-55844518D01*
X186898692Y-55777763D01*
X186968287Y-55675907D01*
X186991394Y-55561800D01*
X187912508Y-55561800D01*
X187932482Y-55667952D01*
X187999237Y-55771692D01*
X188101093Y-55841287D01*
X188222000Y-55865771D01*
X189222000Y-55865771D01*
X189334952Y-55844518D01*
X189438692Y-55777763D01*
X189508287Y-55675907D01*
X189531394Y-55561800D01*
X189557336Y-55561800D01*
X189522193Y-55646435D01*
X189522008Y-55858634D01*
X189603042Y-56054752D01*
X189752959Y-56204931D01*
X189948935Y-56286307D01*
X190161134Y-56286492D01*
X190211516Y-56265674D01*
X190451229Y-56505387D01*
X190451229Y-57055000D01*
X190472482Y-57167952D01*
X190539237Y-57271692D01*
X190641093Y-57341287D01*
X190762000Y-57365771D01*
X190830200Y-57365771D01*
X190830200Y-67454779D01*
X190507658Y-67670294D01*
X190276405Y-68016389D01*
X190195200Y-68424636D01*
X190195200Y-69243364D01*
X190276405Y-69651611D01*
X190507658Y-69997706D01*
X190853753Y-70228959D01*
X191262000Y-70310164D01*
X191670247Y-70228959D01*
X192016342Y-69997706D01*
X192247595Y-69651611D01*
X192328800Y-69243364D01*
X192328800Y-68424636D01*
X192247595Y-68016389D01*
X192016342Y-67670294D01*
X191693800Y-67454779D01*
X191693800Y-57365771D01*
X191762000Y-57365771D01*
X191874952Y-57344518D01*
X191978692Y-57277763D01*
X192048287Y-57175907D01*
X192072771Y-57055000D01*
X192072771Y-56205000D01*
X192051518Y-56092048D01*
X191984763Y-55988308D01*
X191882907Y-55918713D01*
X191762000Y-55894229D01*
X191061387Y-55894229D01*
X191032929Y-55865771D01*
X191762000Y-55865771D01*
X191874952Y-55844518D01*
X191978692Y-55777763D01*
X192048287Y-55675907D01*
X192071394Y-55561800D01*
X192238142Y-55561800D01*
X193370200Y-56693858D01*
X193370200Y-67380229D01*
X193040000Y-67380229D01*
X192927048Y-67401482D01*
X192823308Y-67468237D01*
X192753713Y-67570093D01*
X192729229Y-67691000D01*
X192729229Y-69977000D01*
X192750482Y-70089952D01*
X192817237Y-70193692D01*
X192919093Y-70263287D01*
X193040000Y-70287771D01*
X194564000Y-70287771D01*
X194676952Y-70266518D01*
X194780692Y-70199763D01*
X194850287Y-70097907D01*
X194874771Y-69977000D01*
X194874771Y-69519800D01*
X209423000Y-69519800D01*
X209588243Y-69486931D01*
X209728329Y-69393329D01*
X221421657Y-57700000D01*
X224313836Y-57700000D01*
X224395041Y-58108247D01*
X224626294Y-58454342D01*
X224972389Y-58685595D01*
X225380636Y-58766800D01*
X226199364Y-58766800D01*
X226607611Y-58685595D01*
X226953706Y-58454342D01*
X227184959Y-58108247D01*
X227266164Y-57700000D01*
X227184959Y-57291753D01*
X226953706Y-56945658D01*
X226607611Y-56714405D01*
X226199364Y-56633200D01*
X225380636Y-56633200D01*
X224972389Y-56714405D01*
X224626294Y-56945658D01*
X224395041Y-57291753D01*
X224313836Y-57700000D01*
X221421657Y-57700000D01*
X223529857Y-55591800D01*
X224410779Y-55591800D01*
X224626294Y-55914342D01*
X224972389Y-56145595D01*
X225380636Y-56226800D01*
X226199364Y-56226800D01*
X226607611Y-56145595D01*
X226953706Y-55914342D01*
X227184959Y-55568247D01*
X227266164Y-55160000D01*
X227184959Y-54751753D01*
X226953706Y-54405658D01*
X226607611Y-54174405D01*
X226199364Y-54093200D01*
X225380636Y-54093200D01*
X224972389Y-54174405D01*
X224626294Y-54405658D01*
X224410779Y-54728200D01*
X223351000Y-54728200D01*
X223185757Y-54761069D01*
X223045671Y-54854671D01*
X223045669Y-54854674D01*
X209244142Y-68656200D01*
X194874771Y-68656200D01*
X194874771Y-67691000D01*
X194853518Y-67578048D01*
X194786763Y-67474308D01*
X194684907Y-67404713D01*
X194564000Y-67380229D01*
X194233800Y-67380229D01*
X194233800Y-56515005D01*
X194233801Y-56515000D01*
X194200931Y-56349758D01*
X194200931Y-56349757D01*
X194107329Y-56209671D01*
X192722329Y-54824671D01*
X192648140Y-54775100D01*
X192582243Y-54731069D01*
X192417000Y-54698200D01*
X192071492Y-54698200D01*
X192051518Y-54592048D01*
X191984763Y-54488308D01*
X191882907Y-54418713D01*
X191762000Y-54394229D01*
X190762000Y-54394229D01*
X190649048Y-54415482D01*
X190545308Y-54482237D01*
X190475713Y-54584093D01*
X190452606Y-54698200D01*
X189531492Y-54698200D01*
X189511518Y-54592048D01*
X189444763Y-54488308D01*
X189342907Y-54418713D01*
X189222000Y-54394229D01*
X188222000Y-54394229D01*
X188109048Y-54415482D01*
X188005308Y-54482237D01*
X187935713Y-54584093D01*
X187912606Y-54698200D01*
X186991492Y-54698200D01*
X186971518Y-54592048D01*
X186904763Y-54488308D01*
X186802907Y-54418713D01*
X186682000Y-54394229D01*
X185682000Y-54394229D01*
X185569048Y-54415482D01*
X185465308Y-54482237D01*
X185395713Y-54584093D01*
X185372606Y-54698200D01*
X179371492Y-54698200D01*
X179351518Y-54592048D01*
X179284763Y-54488308D01*
X179182907Y-54418713D01*
X179062000Y-54394229D01*
X178062000Y-54394229D01*
X177949048Y-54415482D01*
X177845308Y-54482237D01*
X177775713Y-54584093D01*
X177752606Y-54698200D01*
X176831492Y-54698200D01*
X176811518Y-54592048D01*
X176744763Y-54488308D01*
X176642907Y-54418713D01*
X176522000Y-54394229D01*
X175522000Y-54394229D01*
X175409048Y-54415482D01*
X175305308Y-54482237D01*
X175235713Y-54584093D01*
X175212606Y-54698200D01*
X174451505Y-54698200D01*
X174356041Y-54602569D01*
X174160065Y-54521193D01*
X173947866Y-54521008D01*
X173751748Y-54602042D01*
X173601569Y-54751959D01*
X173520193Y-54947935D01*
X173520008Y-55160134D01*
X169732524Y-55160134D01*
X172272658Y-52620000D01*
X224313836Y-52620000D01*
X224395041Y-53028247D01*
X224626294Y-53374342D01*
X224972389Y-53605595D01*
X225380636Y-53686800D01*
X226199364Y-53686800D01*
X226607611Y-53605595D01*
X226953706Y-53374342D01*
X227184959Y-53028247D01*
X227266164Y-52620000D01*
X227184959Y-52211753D01*
X226953706Y-51865658D01*
X226607611Y-51634405D01*
X226199364Y-51553200D01*
X225380636Y-51553200D01*
X224972389Y-51634405D01*
X224626294Y-51865658D01*
X224395041Y-52211753D01*
X224313836Y-52620000D01*
X172272658Y-52620000D01*
X175574658Y-49318000D01*
X224336229Y-49318000D01*
X224336229Y-50842000D01*
X224357482Y-50954952D01*
X224424237Y-51058692D01*
X224526093Y-51128287D01*
X224647000Y-51152771D01*
X226933000Y-51152771D01*
X227045952Y-51131518D01*
X227149692Y-51064763D01*
X227219287Y-50962907D01*
X227243771Y-50842000D01*
X227243771Y-49318000D01*
X227222518Y-49205048D01*
X227155763Y-49101308D01*
X227053907Y-49031713D01*
X226933000Y-49007229D01*
X224647000Y-49007229D01*
X224534048Y-49028482D01*
X224430308Y-49095237D01*
X224360713Y-49197093D01*
X224336229Y-49318000D01*
X175574658Y-49318000D01*
X178105329Y-46787329D01*
X178198931Y-46647243D01*
X178231800Y-46482000D01*
X178231800Y-34399221D01*
X178554342Y-34183706D01*
X178785595Y-33837611D01*
X178866800Y-33429364D01*
X178866800Y-32610636D01*
X178785595Y-32202389D01*
X178568178Y-31877000D01*
X194507229Y-31877000D01*
X194507229Y-34163000D01*
X194528482Y-34275952D01*
X194595237Y-34379692D01*
X194697093Y-34449287D01*
X194818000Y-34473771D01*
X196342000Y-34473771D01*
X196454952Y-34452518D01*
X196558692Y-34385763D01*
X196628287Y-34283907D01*
X196652771Y-34163000D01*
X196652771Y-32610636D01*
X197053200Y-32610636D01*
X197053200Y-33429364D01*
X197134405Y-33837611D01*
X197365658Y-34183706D01*
X197711753Y-34414959D01*
X198120000Y-34496164D01*
X198528247Y-34414959D01*
X198874342Y-34183706D01*
X199105595Y-33837611D01*
X199186800Y-33429364D01*
X199186800Y-32610636D01*
X199593200Y-32610636D01*
X199593200Y-33429364D01*
X199674405Y-33837611D01*
X199905658Y-34183706D01*
X200251753Y-34414959D01*
X200660000Y-34496164D01*
X201068247Y-34414959D01*
X201414342Y-34183706D01*
X201645595Y-33837611D01*
X201726800Y-33429364D01*
X201726800Y-32610636D01*
X202133200Y-32610636D01*
X202133200Y-33429364D01*
X202214405Y-33837611D01*
X202445658Y-34183706D01*
X202791753Y-34414959D01*
X203200000Y-34496164D01*
X203608247Y-34414959D01*
X203954342Y-34183706D01*
X204185595Y-33837611D01*
X204266800Y-33429364D01*
X204266800Y-32610636D01*
X204673200Y-32610636D01*
X204673200Y-33429364D01*
X204754405Y-33837611D01*
X204985658Y-34183706D01*
X205331753Y-34414959D01*
X205740000Y-34496164D01*
X206148247Y-34414959D01*
X206494342Y-34183706D01*
X206725595Y-33837611D01*
X206806800Y-33429364D01*
X206806800Y-32610636D01*
X207213200Y-32610636D01*
X207213200Y-33429364D01*
X207294405Y-33837611D01*
X207525658Y-34183706D01*
X207871753Y-34414959D01*
X208280000Y-34496164D01*
X208688247Y-34414959D01*
X209034342Y-34183706D01*
X209265595Y-33837611D01*
X209346800Y-33429364D01*
X209346800Y-32610636D01*
X209753200Y-32610636D01*
X209753200Y-33429364D01*
X209834405Y-33837611D01*
X210065658Y-34183706D01*
X210411753Y-34414959D01*
X210820000Y-34496164D01*
X211228247Y-34414959D01*
X211574342Y-34183706D01*
X211805595Y-33837611D01*
X211886800Y-33429364D01*
X211886800Y-32610636D01*
X212293200Y-32610636D01*
X212293200Y-33429364D01*
X212374405Y-33837611D01*
X212605658Y-34183706D01*
X212951753Y-34414959D01*
X213360000Y-34496164D01*
X213768247Y-34414959D01*
X214114342Y-34183706D01*
X214345595Y-33837611D01*
X214426800Y-33429364D01*
X214426800Y-32610636D01*
X214345595Y-32202389D01*
X214114342Y-31856294D01*
X213768247Y-31625041D01*
X213360000Y-31543836D01*
X212951753Y-31625041D01*
X212605658Y-31856294D01*
X212374405Y-32202389D01*
X212293200Y-32610636D01*
X211886800Y-32610636D01*
X211805595Y-32202389D01*
X211574342Y-31856294D01*
X211228247Y-31625041D01*
X210820000Y-31543836D01*
X210411753Y-31625041D01*
X210065658Y-31856294D01*
X209834405Y-32202389D01*
X209753200Y-32610636D01*
X209346800Y-32610636D01*
X209265595Y-32202389D01*
X209034342Y-31856294D01*
X208688247Y-31625041D01*
X208280000Y-31543836D01*
X207871753Y-31625041D01*
X207525658Y-31856294D01*
X207294405Y-32202389D01*
X207213200Y-32610636D01*
X206806800Y-32610636D01*
X206725595Y-32202389D01*
X206494342Y-31856294D01*
X206148247Y-31625041D01*
X205740000Y-31543836D01*
X205331753Y-31625041D01*
X204985658Y-31856294D01*
X204754405Y-32202389D01*
X204673200Y-32610636D01*
X204266800Y-32610636D01*
X204185595Y-32202389D01*
X203954342Y-31856294D01*
X203608247Y-31625041D01*
X203200000Y-31543836D01*
X202791753Y-31625041D01*
X202445658Y-31856294D01*
X202214405Y-32202389D01*
X202133200Y-32610636D01*
X201726800Y-32610636D01*
X201645595Y-32202389D01*
X201414342Y-31856294D01*
X201068247Y-31625041D01*
X200660000Y-31543836D01*
X200251753Y-31625041D01*
X199905658Y-31856294D01*
X199674405Y-32202389D01*
X199593200Y-32610636D01*
X199186800Y-32610636D01*
X199105595Y-32202389D01*
X198874342Y-31856294D01*
X198528247Y-31625041D01*
X198120000Y-31543836D01*
X197711753Y-31625041D01*
X197365658Y-31856294D01*
X197134405Y-32202389D01*
X197053200Y-32610636D01*
X196652771Y-32610636D01*
X196652771Y-31877000D01*
X196631518Y-31764048D01*
X196564763Y-31660308D01*
X196462907Y-31590713D01*
X196342000Y-31566229D01*
X194818000Y-31566229D01*
X194705048Y-31587482D01*
X194601308Y-31654237D01*
X194531713Y-31756093D01*
X194507229Y-31877000D01*
X178568178Y-31877000D01*
X178554342Y-31856294D01*
X178208247Y-31625041D01*
X177800000Y-31543836D01*
X177391753Y-31625041D01*
X177045658Y-31856294D01*
X176814405Y-32202389D01*
X176733200Y-32610636D01*
X176733200Y-33429364D01*
X176814405Y-33837611D01*
X177045658Y-34183706D01*
X177368200Y-34399221D01*
X177368200Y-46303142D01*
X175691800Y-47979542D01*
X175691800Y-34399221D01*
X176014342Y-34183706D01*
X176245595Y-33837611D01*
X176326800Y-33429364D01*
X176326800Y-32610636D01*
X176245595Y-32202389D01*
X176014342Y-31856294D01*
X175668247Y-31625041D01*
X175260000Y-31543836D01*
X174851753Y-31625041D01*
X174505658Y-31856294D01*
X174274405Y-32202389D01*
X174193200Y-32610636D01*
X174193200Y-33429364D01*
X174274405Y-33837611D01*
X174505658Y-34183706D01*
X174828200Y-34399221D01*
X174828200Y-48081142D01*
X173151800Y-49757542D01*
X173151800Y-34399221D01*
X173474342Y-34183706D01*
X173705595Y-33837611D01*
X173786800Y-33429364D01*
X173786800Y-32610636D01*
X173705595Y-32202389D01*
X173474342Y-31856294D01*
X173128247Y-31625041D01*
X172720000Y-31543836D01*
X172311753Y-31625041D01*
X171965658Y-31856294D01*
X171734405Y-32202389D01*
X171653200Y-32610636D01*
X171653200Y-33429364D01*
X171734405Y-33837611D01*
X171965658Y-34183706D01*
X172288200Y-34399221D01*
X172288200Y-49859142D01*
X170611800Y-51535542D01*
X170611800Y-34399221D01*
X170934342Y-34183706D01*
X171165595Y-33837611D01*
X171246800Y-33429364D01*
X171246800Y-32610636D01*
X171165595Y-32202389D01*
X170934342Y-31856294D01*
X170588247Y-31625041D01*
X170180000Y-31543836D01*
X169771753Y-31625041D01*
X169425658Y-31856294D01*
X169194405Y-32202389D01*
X169113200Y-32610636D01*
X169113200Y-33429364D01*
X169194405Y-33837611D01*
X169425658Y-34183706D01*
X169748200Y-34399221D01*
X169748200Y-51637143D01*
X165175142Y-56210200D01*
X162738857Y-56210200D01*
X161944932Y-55416274D01*
X161954800Y-55366665D01*
X161954800Y-54125335D01*
X161920180Y-53951291D01*
X161867438Y-53872357D01*
X161899743Y-53865931D01*
X162039829Y-53772329D01*
X162084358Y-53727800D01*
X162213708Y-53727800D01*
X162329335Y-53750800D01*
X163570665Y-53750800D01*
X163686292Y-53727800D01*
X164813642Y-53727800D01*
X165138033Y-54052191D01*
X165138008Y-54080634D01*
X165219042Y-54276752D01*
X165368959Y-54426931D01*
X165564935Y-54508307D01*
X165777134Y-54508492D01*
X165973252Y-54427458D01*
X166123431Y-54277541D01*
X166204807Y-54081565D01*
X166204992Y-53869366D01*
X166123958Y-53673248D01*
X165974041Y-53523069D01*
X165778065Y-53441693D01*
X165748826Y-53441668D01*
X165570958Y-53263800D01*
X166116000Y-53263800D01*
X166281243Y-53230931D01*
X166421329Y-53137329D01*
X166421330Y-53137328D01*
X169215326Y-50343331D01*
X169215329Y-50343329D01*
X169308931Y-50203243D01*
X169314385Y-50175827D01*
X169341801Y-50038000D01*
X169341800Y-50037995D01*
X169341800Y-46990000D01*
X169308931Y-46824757D01*
X169215329Y-46684671D01*
X168071800Y-45541142D01*
X168071800Y-34399221D01*
X168394342Y-34183706D01*
X168625595Y-33837611D01*
X168706800Y-33429364D01*
X168706800Y-32610636D01*
X168625595Y-32202389D01*
X168394342Y-31856294D01*
X168048247Y-31625041D01*
X167640000Y-31543836D01*
X167231753Y-31625041D01*
X166885658Y-31856294D01*
X166654405Y-32202389D01*
X166573200Y-32610636D01*
X166573200Y-33429364D01*
X166654405Y-33837611D01*
X166885658Y-34183706D01*
X167208200Y-34399221D01*
X167208200Y-45720000D01*
X167241069Y-45885243D01*
X167294407Y-45965069D01*
X167334671Y-46025329D01*
X168478200Y-47168858D01*
X168478200Y-49859143D01*
X166388909Y-51948433D01*
X166326772Y-51798050D01*
X166417752Y-51760458D01*
X166567931Y-51610541D01*
X166649307Y-51414565D01*
X166649492Y-51202366D01*
X166580772Y-51036050D01*
X166671752Y-50998458D01*
X166821931Y-50848541D01*
X166903307Y-50652565D01*
X166903492Y-50440366D01*
X166822458Y-50244248D01*
X166672541Y-50094069D01*
X166476565Y-50012693D01*
X166447325Y-50012668D01*
X166425329Y-49990671D01*
X166412249Y-49981931D01*
X166285243Y-49897069D01*
X166135396Y-49867262D01*
X167717190Y-48285467D01*
X167745634Y-48285492D01*
X167941752Y-48204458D01*
X168091931Y-48054541D01*
X168173307Y-47858565D01*
X168173492Y-47646366D01*
X168092458Y-47450248D01*
X167942541Y-47300069D01*
X167746565Y-47218693D01*
X167534366Y-47218508D01*
X167368050Y-47287228D01*
X167330458Y-47196248D01*
X167180541Y-47046069D01*
X166984565Y-46964693D01*
X166772366Y-46964508D01*
X166606050Y-47033228D01*
X166568458Y-46942248D01*
X166418541Y-46792069D01*
X166222565Y-46710693D01*
X166010366Y-46710508D01*
X165814248Y-46791542D01*
X165785800Y-46819940D01*
X165785800Y-46804637D01*
X165805931Y-46784541D01*
X165887307Y-46588565D01*
X165887492Y-46376366D01*
X165806458Y-46180248D01*
X165656541Y-46030069D01*
X165460565Y-45948693D01*
X165248366Y-45948508D01*
X165125378Y-45999325D01*
X165125492Y-45868366D01*
X165044458Y-45672248D01*
X164894541Y-45522069D01*
X164698565Y-45440693D01*
X164486366Y-45440508D01*
X164451914Y-45454743D01*
X165405326Y-44501331D01*
X165405329Y-44501329D01*
X165498931Y-44361243D01*
X165531800Y-44196000D01*
X165531800Y-34399221D01*
X165854342Y-34183706D01*
X166085595Y-33837611D01*
X166166800Y-33429364D01*
X166166800Y-32610636D01*
X166085595Y-32202389D01*
X165854342Y-31856294D01*
X165508247Y-31625041D01*
X165100000Y-31543836D01*
X164691753Y-31625041D01*
X164345658Y-31856294D01*
X164114405Y-32202389D01*
X164033200Y-32610636D01*
X164033200Y-33429364D01*
X164114405Y-33837611D01*
X164345658Y-34183706D01*
X164668200Y-34399221D01*
X164668200Y-44017143D01*
X162825481Y-45859861D01*
X162839307Y-45826565D01*
X162839492Y-45614366D01*
X162758458Y-45418248D01*
X162608541Y-45268069D01*
X162412565Y-45186693D01*
X162200366Y-45186508D01*
X162004248Y-45267542D01*
X161854069Y-45417459D01*
X161845134Y-45438977D01*
X161830335Y-45416828D01*
X161845752Y-45410458D01*
X161995931Y-45260541D01*
X162077307Y-45064565D01*
X162077492Y-44852366D01*
X161996458Y-44656248D01*
X161846541Y-44506069D01*
X161650565Y-44424693D01*
X161438366Y-44424508D01*
X161242248Y-44505542D01*
X161204521Y-44543203D01*
X161124757Y-44559069D01*
X161061489Y-44601343D01*
X161061492Y-44598366D01*
X160980458Y-44402248D01*
X160830541Y-44252069D01*
X160634565Y-44170693D01*
X160422366Y-44170508D01*
X160226248Y-44251542D01*
X160076069Y-44401459D01*
X160005905Y-44570434D01*
X160005041Y-44569569D01*
X159809065Y-44488193D01*
X159596866Y-44488008D01*
X159400748Y-44569042D01*
X159250569Y-44718959D01*
X159169193Y-44914935D01*
X159169008Y-45127134D01*
X159250042Y-45323252D01*
X159318790Y-45392120D01*
X159310983Y-45396655D01*
X159174044Y-45305155D01*
X159000000Y-45270535D01*
X158931800Y-45284101D01*
X158931800Y-42600858D01*
X159931229Y-41601429D01*
X159931229Y-42648000D01*
X159952482Y-42760952D01*
X160019237Y-42864692D01*
X160121093Y-42934287D01*
X160242000Y-42958771D01*
X163242000Y-42958771D01*
X163354952Y-42937518D01*
X163458692Y-42870763D01*
X163528287Y-42768907D01*
X163552771Y-42648000D01*
X163552771Y-39648000D01*
X163531518Y-39535048D01*
X163464763Y-39431308D01*
X163362907Y-39361713D01*
X163242000Y-39337229D01*
X162217800Y-39337229D01*
X162217800Y-38631771D01*
X162236000Y-38631771D01*
X162348952Y-38610518D01*
X162452692Y-38543763D01*
X162522287Y-38441907D01*
X162546771Y-38321000D01*
X162546771Y-37371000D01*
X162525518Y-37258048D01*
X162458763Y-37154308D01*
X162356907Y-37084713D01*
X162236000Y-37060229D01*
X161336000Y-37060229D01*
X161223048Y-37081482D01*
X161119308Y-37148237D01*
X161049713Y-37250093D01*
X161025229Y-37371000D01*
X161025229Y-38321000D01*
X161046482Y-38433952D01*
X161113237Y-38537692D01*
X161215093Y-38607287D01*
X161336000Y-38631771D01*
X161354200Y-38631771D01*
X161354200Y-39337229D01*
X160242000Y-39337229D01*
X160129048Y-39358482D01*
X160025308Y-39425237D01*
X159955713Y-39527093D01*
X159931229Y-39648000D01*
X159931229Y-40716200D01*
X159774000Y-40716200D01*
X159608757Y-40749069D01*
X159468671Y-40842671D01*
X158246000Y-42065342D01*
X157023329Y-40842671D01*
X156883243Y-40749069D01*
X156718000Y-40716200D01*
X156552771Y-40716200D01*
X156552771Y-39648000D01*
X156531518Y-39535048D01*
X156464763Y-39431308D01*
X156362907Y-39361713D01*
X156242000Y-39337229D01*
X155129800Y-39337229D01*
X155129800Y-38631771D01*
X155148000Y-38631771D01*
X155260952Y-38610518D01*
X155364692Y-38543763D01*
X155434287Y-38441907D01*
X155458771Y-38321000D01*
X155458771Y-37934900D01*
X155494000Y-37934900D01*
X155494000Y-38371524D01*
X155532669Y-38464879D01*
X155604120Y-38536331D01*
X155697476Y-38575000D01*
X156109100Y-38575000D01*
X156172600Y-38511500D01*
X156172600Y-37871400D01*
X156223400Y-37871400D01*
X156223400Y-38511500D01*
X156286900Y-38575000D01*
X156698524Y-38575000D01*
X156791880Y-38536331D01*
X156863331Y-38464879D01*
X156902000Y-38371524D01*
X156902000Y-37934900D01*
X159582000Y-37934900D01*
X159582000Y-38371524D01*
X159620669Y-38464879D01*
X159692120Y-38536331D01*
X159785476Y-38575000D01*
X160197100Y-38575000D01*
X160260600Y-38511500D01*
X160260600Y-37871400D01*
X160311400Y-37871400D01*
X160311400Y-38511500D01*
X160374900Y-38575000D01*
X160786524Y-38575000D01*
X160879880Y-38536331D01*
X160951331Y-38464879D01*
X160990000Y-38371524D01*
X160990000Y-37934900D01*
X160926500Y-37871400D01*
X160311400Y-37871400D01*
X160260600Y-37871400D01*
X159645500Y-37871400D01*
X159582000Y-37934900D01*
X156902000Y-37934900D01*
X156838500Y-37871400D01*
X156223400Y-37871400D01*
X156172600Y-37871400D01*
X155557500Y-37871400D01*
X155494000Y-37934900D01*
X155458771Y-37934900D01*
X155458771Y-37371000D01*
X155449265Y-37320476D01*
X155494000Y-37320476D01*
X155494000Y-37757100D01*
X155557500Y-37820600D01*
X156172600Y-37820600D01*
X156172600Y-37180500D01*
X156223400Y-37180500D01*
X156223400Y-37820600D01*
X156838500Y-37820600D01*
X156902000Y-37757100D01*
X156902000Y-37320476D01*
X159582000Y-37320476D01*
X159582000Y-37757100D01*
X159645500Y-37820600D01*
X160260600Y-37820600D01*
X160260600Y-37180500D01*
X160311400Y-37180500D01*
X160311400Y-37820600D01*
X160926500Y-37820600D01*
X160990000Y-37757100D01*
X160990000Y-37320476D01*
X160951331Y-37227121D01*
X160879880Y-37155669D01*
X160786524Y-37117000D01*
X160374900Y-37117000D01*
X160311400Y-37180500D01*
X160260600Y-37180500D01*
X160197100Y-37117000D01*
X159785476Y-37117000D01*
X159692120Y-37155669D01*
X159620669Y-37227121D01*
X159582000Y-37320476D01*
X156902000Y-37320476D01*
X156863331Y-37227121D01*
X156791880Y-37155669D01*
X156698524Y-37117000D01*
X156286900Y-37117000D01*
X156223400Y-37180500D01*
X156172600Y-37180500D01*
X156109100Y-37117000D01*
X155697476Y-37117000D01*
X155604120Y-37155669D01*
X155532669Y-37227121D01*
X155494000Y-37320476D01*
X155449265Y-37320476D01*
X155437518Y-37258048D01*
X155370763Y-37154308D01*
X155268907Y-37084713D01*
X155148000Y-37060229D01*
X154248000Y-37060229D01*
X154135048Y-37081482D01*
X154031308Y-37148237D01*
X153961713Y-37250093D01*
X153937229Y-37371000D01*
X153937229Y-38321000D01*
X153958482Y-38433952D01*
X154025237Y-38537692D01*
X154127093Y-38607287D01*
X154248000Y-38631771D01*
X154266200Y-38631771D01*
X154266200Y-39337229D01*
X153242000Y-39337229D01*
X153129048Y-39358482D01*
X153025308Y-39425237D01*
X152955713Y-39527093D01*
X152931229Y-39648000D01*
X152931229Y-42648000D01*
X152952482Y-42760952D01*
X153019237Y-42864692D01*
X153121093Y-42934287D01*
X153242000Y-42958771D01*
X156242000Y-42958771D01*
X156354952Y-42937518D01*
X156458692Y-42870763D01*
X156528287Y-42768907D01*
X156552771Y-42648000D01*
X156552771Y-41593429D01*
X157568200Y-42608858D01*
X157568200Y-45284101D01*
X157500000Y-45270535D01*
X157325956Y-45305155D01*
X157250000Y-45355907D01*
X157174044Y-45305155D01*
X157000000Y-45270535D01*
X156825956Y-45305155D01*
X156750000Y-45355907D01*
X156674044Y-45305155D01*
X156500000Y-45270535D01*
X156325956Y-45305155D01*
X156250000Y-45355907D01*
X156174044Y-45305155D01*
X156000000Y-45270535D01*
X155825956Y-45305155D01*
X155678408Y-45403743D01*
X155579820Y-45551291D01*
X155545200Y-45725335D01*
X155545200Y-45923200D01*
X154881637Y-45923200D01*
X154861541Y-45903069D01*
X154665565Y-45821693D01*
X154453366Y-45821508D01*
X154257248Y-45902542D01*
X154107069Y-46052459D01*
X154025693Y-46248435D01*
X154025508Y-46460634D01*
X154106542Y-46656752D01*
X154118200Y-46668430D01*
X154118200Y-47341200D01*
X153929335Y-47341200D01*
X153755291Y-47375820D01*
X153607743Y-47474408D01*
X153509155Y-47621956D01*
X153474535Y-47796000D01*
X153509155Y-47970044D01*
X153600655Y-48106983D01*
X153567032Y-48164863D01*
X153555737Y-48207838D01*
X153610449Y-48270600D01*
X154524600Y-48270600D01*
X154524600Y-48250800D01*
X154575400Y-48250800D01*
X154575400Y-48270600D01*
X155489551Y-48270600D01*
X155544263Y-48207838D01*
X155532968Y-48164863D01*
X155499345Y-48106983D01*
X155590845Y-47970044D01*
X155625465Y-47796000D01*
X155590845Y-47621956D01*
X155492257Y-47474408D01*
X155344709Y-47375820D01*
X155170665Y-47341200D01*
X154981800Y-47341200D01*
X154981800Y-46786800D01*
X155545200Y-46786800D01*
X155545200Y-46966665D01*
X155579820Y-47140709D01*
X155678408Y-47288257D01*
X155825956Y-47386845D01*
X156000000Y-47421465D01*
X156174044Y-47386845D01*
X156250000Y-47336093D01*
X156325956Y-47386845D01*
X156500000Y-47421465D01*
X156674044Y-47386845D01*
X156750000Y-47336093D01*
X156825956Y-47386845D01*
X157000000Y-47421465D01*
X157174044Y-47386845D01*
X157250000Y-47336093D01*
X157325956Y-47386845D01*
X157500000Y-47421465D01*
X157674044Y-47386845D01*
X157750000Y-47336093D01*
X157825956Y-47386845D01*
X158000000Y-47421465D01*
X158174044Y-47386845D01*
X158250000Y-47336093D01*
X158325956Y-47386845D01*
X158500000Y-47421465D01*
X158568200Y-47407899D01*
X158568200Y-51641769D01*
X158544541Y-51618069D01*
X158497629Y-51598589D01*
X158521307Y-51541565D01*
X158521492Y-51329366D01*
X158440458Y-51133248D01*
X158290541Y-50983069D01*
X158094565Y-50901693D01*
X157882366Y-50901508D01*
X157686248Y-50982542D01*
X157536069Y-51132459D01*
X157454693Y-51328435D01*
X157454668Y-51357674D01*
X157448142Y-51364200D01*
X155611899Y-51364200D01*
X155625465Y-51296000D01*
X155590845Y-51121956D01*
X155540093Y-51046000D01*
X155590845Y-50970044D01*
X155625465Y-50796000D01*
X155590845Y-50621956D01*
X155540093Y-50546000D01*
X155590845Y-50470044D01*
X155625465Y-50296000D01*
X155611899Y-50227800D01*
X156452000Y-50227800D01*
X156617243Y-50194931D01*
X156757329Y-50101329D01*
X156795191Y-50063467D01*
X156823634Y-50063492D01*
X157019752Y-49982458D01*
X157169931Y-49832541D01*
X157251307Y-49636565D01*
X157251492Y-49424366D01*
X157170458Y-49228248D01*
X157020541Y-49078069D01*
X156824565Y-48996693D01*
X156612366Y-48996508D01*
X156416248Y-49077542D01*
X156266069Y-49227459D01*
X156209289Y-49364200D01*
X155611899Y-49364200D01*
X155625465Y-49296000D01*
X155590845Y-49121956D01*
X155540093Y-49046000D01*
X155590845Y-48970044D01*
X155625465Y-48796000D01*
X155590845Y-48621956D01*
X155499345Y-48485017D01*
X155532968Y-48427137D01*
X155544263Y-48384162D01*
X155489551Y-48321400D01*
X154575400Y-48321400D01*
X154575400Y-48341200D01*
X154524600Y-48341200D01*
X154524600Y-48321400D01*
X153610449Y-48321400D01*
X153573139Y-48364200D01*
X151336858Y-48364200D01*
X150799800Y-47827142D01*
X150799800Y-38278858D01*
X150800858Y-38277800D01*
X152400000Y-38277800D01*
X152565243Y-38244931D01*
X152705329Y-38151329D01*
X154356858Y-36499800D01*
X157734000Y-36499800D01*
X157899243Y-36466931D01*
X158039329Y-36373329D01*
X158928858Y-35483800D01*
X160528000Y-35483800D01*
X160693243Y-35450931D01*
X160833329Y-35357329D01*
X161926325Y-34264333D01*
X162151753Y-34414959D01*
X162560000Y-34496164D01*
X162968247Y-34414959D01*
X163314342Y-34183706D01*
X163545595Y-33837611D01*
X163626800Y-33429364D01*
X163626800Y-32610636D01*
X163545595Y-32202389D01*
X163314342Y-31856294D01*
X162968247Y-31625041D01*
X162560000Y-31543836D01*
X162151753Y-31625041D01*
X161805658Y-31856294D01*
X161574405Y-32202389D01*
X161493200Y-32610636D01*
X161493200Y-33429364D01*
X161500961Y-33468381D01*
X160349142Y-34620200D01*
X159030458Y-34620200D01*
X159386325Y-34264333D01*
X159611753Y-34414959D01*
X160020000Y-34496164D01*
X160428247Y-34414959D01*
X160774342Y-34183706D01*
X161005595Y-33837611D01*
X161086800Y-33429364D01*
X161086800Y-32610636D01*
X161005595Y-32202389D01*
X160774342Y-31856294D01*
X160428247Y-31625041D01*
X160020000Y-31543836D01*
X159611753Y-31625041D01*
X159265658Y-31856294D01*
X159034405Y-32202389D01*
X158953200Y-32610636D01*
X158953200Y-33429364D01*
X158960961Y-33468382D01*
X157301142Y-35128200D01*
X156998458Y-35128200D01*
X157667862Y-34458796D01*
X157888247Y-34414959D01*
X158234342Y-34183706D01*
X158465595Y-33837611D01*
X158546800Y-33429364D01*
X158546800Y-32610636D01*
X158465595Y-32202389D01*
X158234342Y-31856294D01*
X157888247Y-31625041D01*
X157480000Y-31543836D01*
X157071753Y-31625041D01*
X156725658Y-31856294D01*
X156494405Y-32202389D01*
X156413200Y-32610636D01*
X156413200Y-33429364D01*
X156494405Y-33837611D01*
X156724047Y-34181295D01*
X156285142Y-34620200D01*
X153835040Y-34620200D01*
X154237137Y-34218103D01*
X154531753Y-34414959D01*
X154940000Y-34496164D01*
X155348247Y-34414959D01*
X155694342Y-34183706D01*
X155925595Y-33837611D01*
X156006800Y-33429364D01*
X156006800Y-32610636D01*
X155925595Y-32202389D01*
X155694342Y-31856294D01*
X155348247Y-31625041D01*
X154940000Y-31543836D01*
X154531753Y-31625041D01*
X154185658Y-31856294D01*
X153954405Y-32202389D01*
X153873200Y-32610636D01*
X153873200Y-33360724D01*
X153364013Y-33869911D01*
X153385595Y-33837611D01*
X153466800Y-33429364D01*
X153466800Y-32610636D01*
X153385595Y-32202389D01*
X153154342Y-31856294D01*
X152808247Y-31625041D01*
X152400000Y-31543836D01*
X151991753Y-31625041D01*
X151645658Y-31856294D01*
X151414405Y-32202389D01*
X151333200Y-32610636D01*
X151333200Y-33429364D01*
X151414405Y-33837611D01*
X151645658Y-34183706D01*
X151968200Y-34399221D01*
X151968200Y-34619142D01*
X151205142Y-35382200D01*
X149886458Y-35382200D01*
X150165326Y-35103331D01*
X150165329Y-35103329D01*
X150258931Y-34963243D01*
X150291800Y-34798000D01*
X150291800Y-34399221D01*
X150614342Y-34183706D01*
X150845595Y-33837611D01*
X150926800Y-33429364D01*
X150926800Y-32610636D01*
X150845595Y-32202389D01*
X150614342Y-31856294D01*
X150268247Y-31625041D01*
X149860000Y-31543836D01*
X149451753Y-31625041D01*
X149105658Y-31856294D01*
X148874405Y-32202389D01*
X148793200Y-32610636D01*
X148793200Y-33429364D01*
X148874405Y-33837611D01*
X149105658Y-34183706D01*
X149428200Y-34399221D01*
X149428200Y-34619143D01*
X149173142Y-34874200D01*
X148590005Y-34874200D01*
X148590000Y-34874199D01*
X148452173Y-34901615D01*
X148424757Y-34907069D01*
X148284671Y-35000671D01*
X147751800Y-35533542D01*
X147751800Y-34399221D01*
X148074342Y-34183706D01*
X148305595Y-33837611D01*
X148386800Y-33429364D01*
X148386800Y-32610636D01*
X148305595Y-32202389D01*
X148074342Y-31856294D01*
X147728247Y-31625041D01*
X147320000Y-31543836D01*
X146911753Y-31625041D01*
X146565658Y-31856294D01*
X146334405Y-32202389D01*
X146253200Y-32610636D01*
X146253200Y-33429364D01*
X146334405Y-33837611D01*
X146565658Y-34183706D01*
X146888200Y-34399221D01*
X146888200Y-49530000D01*
X146921069Y-49695243D01*
X147012281Y-49831752D01*
X147014671Y-49835329D01*
X149780671Y-52601329D01*
X149920757Y-52694931D01*
X149948173Y-52700385D01*
X150086000Y-52727801D01*
X150086005Y-52727800D01*
X151893543Y-52727800D01*
X151560809Y-53060533D01*
X151532366Y-53060508D01*
X151336248Y-53141542D01*
X151186069Y-53291459D01*
X151104693Y-53487435D01*
X151104508Y-53699634D01*
X151185542Y-53895752D01*
X151335459Y-54045931D01*
X151397036Y-54071500D01*
X151212976Y-54071500D01*
X151119620Y-54110169D01*
X151048169Y-54181621D01*
X151009500Y-54274976D01*
X151009500Y-54711600D01*
X151073000Y-54775100D01*
X151688100Y-54775100D01*
X151688100Y-54755100D01*
X151738900Y-54755100D01*
X151738900Y-54775100D01*
X152354000Y-54775100D01*
X152417500Y-54711600D01*
X152417500Y-54274976D01*
X152378831Y-54181621D01*
X152307380Y-54110169D01*
X152214024Y-54071500D01*
X151879146Y-54071500D01*
X151939752Y-54046458D01*
X152089931Y-53896541D01*
X152146038Y-53761421D01*
X152201542Y-53895752D01*
X152351459Y-54045931D01*
X152533869Y-54121674D01*
X152477213Y-54204593D01*
X152452729Y-54325500D01*
X152452729Y-55275500D01*
X152473276Y-55384700D01*
X152393196Y-55384700D01*
X152417500Y-55326024D01*
X152417500Y-54889400D01*
X152354000Y-54825900D01*
X151738900Y-54825900D01*
X151738900Y-54845900D01*
X151688100Y-54845900D01*
X151688100Y-54825900D01*
X151073000Y-54825900D01*
X151009500Y-54889400D01*
X151009500Y-55326024D01*
X151033804Y-55384700D01*
X148658637Y-55384700D01*
X148638541Y-55364569D01*
X148442565Y-55283193D01*
X148230366Y-55283008D01*
X148034248Y-55364042D01*
X147884069Y-55513959D01*
X147802693Y-55709935D01*
X147802508Y-55922134D01*
X147883542Y-56118252D01*
X148033459Y-56268431D01*
X148229435Y-56349807D01*
X148441634Y-56349992D01*
X148637752Y-56268958D01*
X148658446Y-56248300D01*
X154495500Y-56248300D01*
X154660743Y-56215431D01*
X154800829Y-56121829D01*
X155546991Y-55375667D01*
X155579820Y-55540709D01*
X155678408Y-55688257D01*
X155825956Y-55786845D01*
X156000000Y-55821465D01*
X156174044Y-55786845D01*
X156310983Y-55695345D01*
X156368785Y-55728923D01*
X156266069Y-55831459D01*
X156184693Y-56027435D01*
X156184508Y-56239634D01*
X156265542Y-56435752D01*
X156293940Y-56464200D01*
X119050858Y-56464200D01*
X118287800Y-55701142D01*
X118287800Y-48729771D01*
X118356000Y-48729771D01*
X118468952Y-48708518D01*
X118572692Y-48641763D01*
X118642287Y-48539907D01*
X118666771Y-48419000D01*
X118666771Y-47569000D01*
X118645518Y-47456048D01*
X118578763Y-47352308D01*
X118476907Y-47282713D01*
X118356000Y-47258229D01*
X117356000Y-47258229D01*
X117243048Y-47279482D01*
X117139308Y-47346237D01*
X117069713Y-47448093D01*
X117045229Y-47569000D01*
X117045229Y-48419000D01*
X117066482Y-48531952D01*
X117133237Y-48635692D01*
X117235093Y-48705287D01*
X117356000Y-48729771D01*
X117424200Y-48729771D01*
X117424200Y-55880000D01*
X117457069Y-56045243D01*
X117504665Y-56116476D01*
X117550671Y-56185329D01*
X118337542Y-56972200D01*
X116510858Y-56972200D01*
X115747800Y-56209142D01*
X115747800Y-48729771D01*
X115816000Y-48729771D01*
X115928952Y-48708518D01*
X116032692Y-48641763D01*
X116102287Y-48539907D01*
X116126771Y-48419000D01*
X116126771Y-47569000D01*
X116105518Y-47456048D01*
X116038763Y-47352308D01*
X115936907Y-47282713D01*
X115816000Y-47258229D01*
X114816000Y-47258229D01*
X114703048Y-47279482D01*
X114599308Y-47346237D01*
X114529713Y-47448093D01*
X114505229Y-47569000D01*
X85572600Y-47569000D01*
X85572600Y-46069000D01*
X114505229Y-46069000D01*
X114505229Y-46919000D01*
X114526482Y-47031952D01*
X114593237Y-47135692D01*
X114695093Y-47205287D01*
X114816000Y-47229771D01*
X115816000Y-47229771D01*
X115928952Y-47208518D01*
X116032692Y-47141763D01*
X116102287Y-47039907D01*
X116126771Y-46919000D01*
X116126771Y-46069000D01*
X116105518Y-45956048D01*
X116038763Y-45852308D01*
X115936907Y-45782713D01*
X115816000Y-45758229D01*
X115747800Y-45758229D01*
X115747800Y-45390858D01*
X115941326Y-45197331D01*
X115941329Y-45197329D01*
X115976400Y-45144841D01*
X115976400Y-45212000D01*
X116022803Y-45445284D01*
X116154948Y-45643052D01*
X116352716Y-45775197D01*
X116586000Y-45821600D01*
X116819284Y-45775197D01*
X117017052Y-45643052D01*
X117149197Y-45445284D01*
X117195600Y-45212000D01*
X117195600Y-44890841D01*
X117230671Y-44943329D01*
X117424200Y-45136857D01*
X117424200Y-45758229D01*
X117356000Y-45758229D01*
X117243048Y-45779482D01*
X117139308Y-45846237D01*
X117069713Y-45948093D01*
X117045229Y-46069000D01*
X117045229Y-46919000D01*
X117066482Y-47031952D01*
X117133237Y-47135692D01*
X117235093Y-47205287D01*
X117356000Y-47229771D01*
X118356000Y-47229771D01*
X118468952Y-47208518D01*
X118572692Y-47141763D01*
X118642287Y-47039907D01*
X118666771Y-46919000D01*
X118666771Y-46069000D01*
X118645518Y-45956048D01*
X118578763Y-45852308D01*
X118476907Y-45782713D01*
X118356000Y-45758229D01*
X118287800Y-45758229D01*
X118287800Y-44958000D01*
X118254931Y-44792757D01*
X118161329Y-44652671D01*
X118161326Y-44652669D01*
X117967800Y-44459142D01*
X117967800Y-44345390D01*
X118052692Y-44290763D01*
X118122287Y-44188907D01*
X118146771Y-44068000D01*
X118146771Y-42968000D01*
X118125518Y-42855048D01*
X118058763Y-42751308D01*
X117956907Y-42681713D01*
X117836000Y-42657229D01*
X117236000Y-42657229D01*
X117123048Y-42678482D01*
X117107142Y-42688718D01*
X117027058Y-42633999D01*
X116886000Y-42605434D01*
X116286000Y-42605434D01*
X116154223Y-42630230D01*
X116065302Y-42687449D01*
X116056907Y-42681713D01*
X115936000Y-42657229D01*
X115336000Y-42657229D01*
X115223048Y-42678482D01*
X115119308Y-42745237D01*
X115049713Y-42847093D01*
X115025229Y-42968000D01*
X115025229Y-44068000D01*
X115046482Y-44180952D01*
X115113237Y-44284692D01*
X115204200Y-44346844D01*
X115204200Y-44713143D01*
X115010671Y-44906671D01*
X114917069Y-45046757D01*
X114884200Y-45212000D01*
X114884200Y-45758229D01*
X114816000Y-45758229D01*
X114703048Y-45779482D01*
X114599308Y-45846237D01*
X114529713Y-45948093D01*
X114505229Y-46069000D01*
X85572600Y-46069000D01*
X85572600Y-36566806D01*
X107551196Y-36566806D01*
X107730553Y-37000882D01*
X108062371Y-37333280D01*
X108496134Y-37513394D01*
X108965806Y-37513804D01*
X109399882Y-37334447D01*
X109732280Y-37002629D01*
X109912394Y-36568866D01*
X109912804Y-36099194D01*
X109733447Y-35665118D01*
X109401629Y-35332720D01*
X109273084Y-35279343D01*
X109328325Y-35257502D01*
X109357925Y-35237724D01*
X109446834Y-35083755D01*
X108732000Y-34368921D01*
X108017166Y-35083755D01*
X108106075Y-35237724D01*
X108196439Y-35276879D01*
X108064118Y-35331553D01*
X107731720Y-35663371D01*
X107551606Y-36097134D01*
X107551196Y-36566806D01*
X85572600Y-36566806D01*
X85572600Y-34530141D01*
X107649668Y-34530141D01*
X107807498Y-34929325D01*
X107827276Y-34958925D01*
X107981245Y-35047834D01*
X108696079Y-34333000D01*
X108767921Y-34333000D01*
X109482755Y-35047834D01*
X109636724Y-34958925D01*
X109807387Y-34565056D01*
X109807521Y-34556745D01*
X110102004Y-34556745D01*
X110273644Y-34972144D01*
X110591184Y-35290239D01*
X110693904Y-35332892D01*
X110592856Y-35374644D01*
X110274761Y-35692184D01*
X110102397Y-36107283D01*
X110102004Y-36556745D01*
X110273644Y-36972144D01*
X110591184Y-37290239D01*
X111006283Y-37462603D01*
X111455745Y-37462996D01*
X111871144Y-37291356D01*
X112189239Y-36973816D01*
X112276030Y-36764800D01*
X113014542Y-36764800D01*
X115204200Y-38954458D01*
X115204200Y-40490610D01*
X115119308Y-40545237D01*
X115049713Y-40647093D01*
X115025229Y-40768000D01*
X115025229Y-41868000D01*
X115046482Y-41980952D01*
X115113237Y-42084692D01*
X115215093Y-42154287D01*
X115336000Y-42178771D01*
X115936000Y-42178771D01*
X116048952Y-42157518D01*
X116152692Y-42090763D01*
X116154318Y-42088383D01*
X116235476Y-42122000D01*
X116497100Y-42122000D01*
X116560600Y-42058500D01*
X116560600Y-41343400D01*
X116540600Y-41343400D01*
X116540600Y-41292600D01*
X116560600Y-41292600D01*
X116560600Y-40577500D01*
X116497100Y-40514000D01*
X116235476Y-40514000D01*
X116153722Y-40547864D01*
X116067800Y-40489156D01*
X116067800Y-38775600D01*
X116034931Y-38610357D01*
X115941329Y-38470271D01*
X113498729Y-36027671D01*
X113445044Y-35991800D01*
X113358643Y-35934069D01*
X113193400Y-35901200D01*
X112276029Y-35901200D01*
X112190356Y-35693856D01*
X111872816Y-35375761D01*
X111770096Y-35333108D01*
X111871144Y-35291356D01*
X112189239Y-34973816D01*
X112276030Y-34764800D01*
X113148142Y-34764800D01*
X117104200Y-38720858D01*
X117104200Y-40490610D01*
X117019308Y-40545237D01*
X117017682Y-40547617D01*
X116936524Y-40514000D01*
X116674900Y-40514000D01*
X116611400Y-40577500D01*
X116611400Y-41292600D01*
X116631400Y-41292600D01*
X116631400Y-41343400D01*
X116611400Y-41343400D01*
X116611400Y-42058500D01*
X116674900Y-42122000D01*
X116936524Y-42122000D01*
X117018278Y-42088136D01*
X117115093Y-42154287D01*
X117236000Y-42178771D01*
X117836000Y-42178771D01*
X117948952Y-42157518D01*
X118052692Y-42090763D01*
X118122287Y-41988907D01*
X118146771Y-41868000D01*
X118146771Y-40768000D01*
X118125518Y-40655048D01*
X118058763Y-40551308D01*
X117967800Y-40489156D01*
X117967800Y-38542005D01*
X117967801Y-38542000D01*
X117934931Y-38376758D01*
X117934931Y-38376757D01*
X117841329Y-38236671D01*
X113632329Y-34027671D01*
X113594179Y-34002180D01*
X113492243Y-33934069D01*
X113327000Y-33901200D01*
X112276029Y-33901200D01*
X112190356Y-33693856D01*
X111872816Y-33375761D01*
X111457717Y-33203397D01*
X111008255Y-33203004D01*
X110592856Y-33374644D01*
X110274761Y-33692184D01*
X110102397Y-34107283D01*
X110102004Y-34556745D01*
X109807521Y-34556745D01*
X109814332Y-34135859D01*
X109656502Y-33736675D01*
X109636724Y-33707075D01*
X109482755Y-33618166D01*
X108767921Y-34333000D01*
X108696079Y-34333000D01*
X107981245Y-33618166D01*
X107827276Y-33707075D01*
X107656613Y-34100944D01*
X107649668Y-34530141D01*
X85572600Y-34530141D01*
X85572600Y-32178461D01*
X95111714Y-32178461D01*
X95537820Y-33209716D01*
X96326134Y-33999407D01*
X97356643Y-34427312D01*
X98472461Y-34428286D01*
X99503716Y-34002180D01*
X99924384Y-33582245D01*
X108017166Y-33582245D01*
X108732000Y-34297079D01*
X109446834Y-33582245D01*
X109357925Y-33428276D01*
X108964056Y-33257613D01*
X108534859Y-33250668D01*
X108135675Y-33408498D01*
X108106075Y-33428276D01*
X108017166Y-33582245D01*
X99924384Y-33582245D01*
X100293407Y-33213866D01*
X100440141Y-32860491D01*
X102780430Y-32860491D01*
X102951482Y-33084600D01*
X103589255Y-33367705D01*
X104286821Y-33385194D01*
X104937980Y-33134404D01*
X105012518Y-33084600D01*
X105183570Y-32860491D01*
X114780430Y-32860491D01*
X114951482Y-33084600D01*
X115589255Y-33367705D01*
X116286821Y-33385194D01*
X116937980Y-33134404D01*
X117012518Y-33084600D01*
X117183570Y-32860491D01*
X115982000Y-31658921D01*
X114780430Y-32860491D01*
X105183570Y-32860491D01*
X103982000Y-31658921D01*
X102780430Y-32860491D01*
X100440141Y-32860491D01*
X100721312Y-32183357D01*
X100721535Y-31927821D01*
X102219806Y-31927821D01*
X102470596Y-32578980D01*
X102520400Y-32653518D01*
X102744509Y-32824570D01*
X103946079Y-31623000D01*
X104017921Y-31623000D01*
X105219491Y-32824570D01*
X105443600Y-32653518D01*
X105726705Y-32015745D01*
X105728909Y-31927821D01*
X114219806Y-31927821D01*
X114470596Y-32578980D01*
X114520400Y-32653518D01*
X114744509Y-32824570D01*
X115946079Y-31623000D01*
X116017921Y-31623000D01*
X117219491Y-32824570D01*
X117443600Y-32653518D01*
X117654475Y-32178461D01*
X119241714Y-32178461D01*
X119667820Y-33209716D01*
X120456134Y-33999407D01*
X121486643Y-34427312D01*
X122602461Y-34428286D01*
X123633716Y-34002180D01*
X124423407Y-33213866D01*
X124851312Y-32183357D01*
X124851579Y-31877000D01*
X138627229Y-31877000D01*
X138627229Y-34163000D01*
X138648482Y-34275952D01*
X138715237Y-34379692D01*
X138817093Y-34449287D01*
X138938000Y-34473771D01*
X139268200Y-34473771D01*
X139268200Y-48445363D01*
X139248069Y-48465459D01*
X139166693Y-48661435D01*
X139166508Y-48873634D01*
X139247542Y-49069752D01*
X139397459Y-49219931D01*
X139593435Y-49301307D01*
X139805634Y-49301492D01*
X140001752Y-49220458D01*
X140030200Y-49192060D01*
X140030200Y-50223363D01*
X140010069Y-50243459D01*
X139928693Y-50439435D01*
X139928508Y-50651634D01*
X140009542Y-50847752D01*
X140159459Y-50997931D01*
X140355435Y-51079307D01*
X140567634Y-51079492D01*
X140763752Y-50998458D01*
X140792200Y-50970060D01*
X140792200Y-51239363D01*
X140772069Y-51259459D01*
X140690693Y-51455435D01*
X140690508Y-51667634D01*
X140771542Y-51863752D01*
X140921459Y-52013931D01*
X141117435Y-52095307D01*
X141329634Y-52095492D01*
X141525752Y-52014458D01*
X141675931Y-51864541D01*
X141757307Y-51668565D01*
X141757492Y-51456366D01*
X141676458Y-51260248D01*
X141655800Y-51239554D01*
X141655800Y-36500858D01*
X142672858Y-35483800D01*
X144272000Y-35483800D01*
X144437243Y-35450931D01*
X144577329Y-35357329D01*
X145085326Y-34849331D01*
X145085329Y-34849329D01*
X145178931Y-34709243D01*
X145211800Y-34544000D01*
X145211800Y-34399221D01*
X145534342Y-34183706D01*
X145765595Y-33837611D01*
X145846800Y-33429364D01*
X145846800Y-32610636D01*
X145765595Y-32202389D01*
X145534342Y-31856294D01*
X145188247Y-31625041D01*
X144780000Y-31543836D01*
X144371753Y-31625041D01*
X144025658Y-31856294D01*
X143794405Y-32202389D01*
X143713200Y-32610636D01*
X143713200Y-33429364D01*
X143794405Y-33837611D01*
X144025658Y-34183706D01*
X144327771Y-34385571D01*
X144093142Y-34620200D01*
X142494000Y-34620200D01*
X142328757Y-34653069D01*
X142188671Y-34746671D01*
X140918671Y-36016671D01*
X140893800Y-36053893D01*
X140893800Y-35992858D01*
X142427862Y-34458796D01*
X142648247Y-34414959D01*
X142994342Y-34183706D01*
X143225595Y-33837611D01*
X143306800Y-33429364D01*
X143306800Y-32610636D01*
X143225595Y-32202389D01*
X142994342Y-31856294D01*
X142648247Y-31625041D01*
X142240000Y-31543836D01*
X141831753Y-31625041D01*
X141485658Y-31856294D01*
X141254405Y-32202389D01*
X141173200Y-32610636D01*
X141173200Y-33429364D01*
X141254405Y-33837611D01*
X141484047Y-34181295D01*
X140156671Y-35508671D01*
X140131800Y-35545893D01*
X140131800Y-34473771D01*
X140462000Y-34473771D01*
X140574952Y-34452518D01*
X140678692Y-34385763D01*
X140748287Y-34283907D01*
X140772771Y-34163000D01*
X140772771Y-31877000D01*
X140751518Y-31764048D01*
X140684763Y-31660308D01*
X140582907Y-31590713D01*
X140462000Y-31566229D01*
X138938000Y-31566229D01*
X138825048Y-31587482D01*
X138721308Y-31654237D01*
X138651713Y-31756093D01*
X138627229Y-31877000D01*
X124851579Y-31877000D01*
X124852286Y-31067539D01*
X124426180Y-30036284D01*
X123637866Y-29246593D01*
X122607357Y-28818688D01*
X121491539Y-28817714D01*
X120460284Y-29243820D01*
X119670593Y-30032134D01*
X119242688Y-31062643D01*
X119241714Y-32178461D01*
X117654475Y-32178461D01*
X117726705Y-32015745D01*
X117744194Y-31318179D01*
X117493404Y-30667020D01*
X117443600Y-30592482D01*
X117219491Y-30421430D01*
X116017921Y-31623000D01*
X115946079Y-31623000D01*
X114744509Y-30421430D01*
X114520400Y-30592482D01*
X114237295Y-31230255D01*
X114219806Y-31927821D01*
X105728909Y-31927821D01*
X105744194Y-31318179D01*
X105493404Y-30667020D01*
X105443600Y-30592482D01*
X105219491Y-30421430D01*
X104017921Y-31623000D01*
X103946079Y-31623000D01*
X102744509Y-30421430D01*
X102520400Y-30592482D01*
X102237295Y-31230255D01*
X102219806Y-31927821D01*
X100721535Y-31927821D01*
X100722286Y-31067539D01*
X100440477Y-30385509D01*
X102780430Y-30385509D01*
X103982000Y-31587079D01*
X105183570Y-30385509D01*
X114780430Y-30385509D01*
X115982000Y-31587079D01*
X117183570Y-30385509D01*
X117012518Y-30161400D01*
X116374745Y-29878295D01*
X115677179Y-29860806D01*
X115026020Y-30111596D01*
X114951482Y-30161400D01*
X114780430Y-30385509D01*
X105183570Y-30385509D01*
X105012518Y-30161400D01*
X104374745Y-29878295D01*
X103677179Y-29860806D01*
X103026020Y-30111596D01*
X102951482Y-30161400D01*
X102780430Y-30385509D01*
X100440477Y-30385509D01*
X100296180Y-30036284D01*
X99507866Y-29246593D01*
X98477357Y-28818688D01*
X97361539Y-28817714D01*
X96330284Y-29243820D01*
X95540593Y-30032134D01*
X95112688Y-31062643D01*
X95111714Y-32178461D01*
X85572600Y-32178461D01*
X85572600Y-27152600D01*
X234594400Y-27152600D01*
X234594400Y-76225400D01*
G36*
X156525400Y-54720600D02*
X156545200Y-54720600D01*
X156545200Y-54771400D01*
X156525400Y-54771400D01*
X156525400Y-54791400D01*
X156474600Y-54791400D01*
X156474600Y-54771400D01*
X156454800Y-54771400D01*
X156454800Y-54720600D01*
X156474600Y-54720600D01*
X156474600Y-54700600D01*
X156525400Y-54700600D01*
X156525400Y-54720600D01*
X156525400Y-54720600D01*
G37*
X156525400Y-54720600D02*
X156545200Y-54720600D01*
X156545200Y-54771400D01*
X156525400Y-54771400D01*
X156525400Y-54791400D01*
X156474600Y-54791400D01*
X156474600Y-54771400D01*
X156454800Y-54771400D01*
X156454800Y-54720600D01*
X156474600Y-54720600D01*
X156474600Y-54700600D01*
X156525400Y-54700600D01*
X156525400Y-54720600D01*
G36*
X159525400Y-46320600D02*
X159545200Y-46320600D01*
X159545200Y-46371400D01*
X159525400Y-46371400D01*
X159525400Y-47285551D01*
X159568200Y-47322861D01*
X159568200Y-47449328D01*
X159568069Y-47449459D01*
X159486693Y-47645435D01*
X159486508Y-47857634D01*
X159567542Y-48053752D01*
X159717459Y-48203931D01*
X159913435Y-48285307D01*
X160125634Y-48285492D01*
X160321752Y-48204458D01*
X160471931Y-48054541D01*
X160553307Y-47858565D01*
X160553492Y-47646366D01*
X160472458Y-47450248D01*
X160431800Y-47409519D01*
X160431800Y-47407899D01*
X160500000Y-47421465D01*
X160674044Y-47386845D01*
X160750000Y-47336093D01*
X160825956Y-47386845D01*
X161000000Y-47421465D01*
X161174044Y-47386845D01*
X161250000Y-47336093D01*
X161309496Y-47375847D01*
X161238671Y-47446671D01*
X161145069Y-47586757D01*
X161112200Y-47752000D01*
X161112200Y-51562000D01*
X161145069Y-51727243D01*
X161172468Y-51768248D01*
X161238671Y-51867329D01*
X161472671Y-52101329D01*
X161612757Y-52194931D01*
X161778000Y-52227800D01*
X161888101Y-52227800D01*
X161874535Y-52296000D01*
X161909155Y-52470044D01*
X162000655Y-52606983D01*
X161967032Y-52664863D01*
X161955737Y-52707838D01*
X162010449Y-52770600D01*
X162924600Y-52770600D01*
X162924600Y-52750800D01*
X162975400Y-52750800D01*
X162975400Y-52770600D01*
X163889551Y-52770600D01*
X163926861Y-52727800D01*
X164639142Y-52727800D01*
X164775542Y-52864200D01*
X163926861Y-52864200D01*
X163889551Y-52821400D01*
X162975400Y-52821400D01*
X162975400Y-52841200D01*
X162924600Y-52841200D01*
X162924600Y-52821400D01*
X162010449Y-52821400D01*
X161973139Y-52864200D01*
X161905505Y-52864200D01*
X161905500Y-52864199D01*
X161740258Y-52897068D01*
X161740256Y-52897069D01*
X161740257Y-52897069D01*
X161600171Y-52990671D01*
X161600169Y-52990674D01*
X161555643Y-53035200D01*
X159751181Y-53035200D01*
X159791307Y-52938565D01*
X159791492Y-52726366D01*
X159710458Y-52530248D01*
X159560541Y-52380069D01*
X159431800Y-52326611D01*
X159431800Y-47322861D01*
X159474600Y-47285551D01*
X159474600Y-46371400D01*
X159454800Y-46371400D01*
X159454800Y-46320600D01*
X159474600Y-46320600D01*
X159474600Y-46300600D01*
X159525400Y-46300600D01*
X159525400Y-46320600D01*
X159525400Y-46320600D01*
G37*
X159525400Y-46320600D02*
X159545200Y-46320600D01*
X159545200Y-46371400D01*
X159525400Y-46371400D01*
X159525400Y-47285551D01*
X159568200Y-47322861D01*
X159568200Y-47449328D01*
X159568069Y-47449459D01*
X159486693Y-47645435D01*
X159486508Y-47857634D01*
X159567542Y-48053752D01*
X159717459Y-48203931D01*
X159913435Y-48285307D01*
X160125634Y-48285492D01*
X160321752Y-48204458D01*
X160471931Y-48054541D01*
X160553307Y-47858565D01*
X160553492Y-47646366D01*
X160472458Y-47450248D01*
X160431800Y-47409519D01*
X160431800Y-47407899D01*
X160500000Y-47421465D01*
X160674044Y-47386845D01*
X160750000Y-47336093D01*
X160825956Y-47386845D01*
X161000000Y-47421465D01*
X161174044Y-47386845D01*
X161250000Y-47336093D01*
X161309496Y-47375847D01*
X161238671Y-47446671D01*
X161145069Y-47586757D01*
X161112200Y-47752000D01*
X161112200Y-51562000D01*
X161145069Y-51727243D01*
X161172468Y-51768248D01*
X161238671Y-51867329D01*
X161472671Y-52101329D01*
X161612757Y-52194931D01*
X161778000Y-52227800D01*
X161888101Y-52227800D01*
X161874535Y-52296000D01*
X161909155Y-52470044D01*
X162000655Y-52606983D01*
X161967032Y-52664863D01*
X161955737Y-52707838D01*
X162010449Y-52770600D01*
X162924600Y-52770600D01*
X162924600Y-52750800D01*
X162975400Y-52750800D01*
X162975400Y-52770600D01*
X163889551Y-52770600D01*
X163926861Y-52727800D01*
X164639142Y-52727800D01*
X164775542Y-52864200D01*
X163926861Y-52864200D01*
X163889551Y-52821400D01*
X162975400Y-52821400D01*
X162975400Y-52841200D01*
X162924600Y-52841200D01*
X162924600Y-52821400D01*
X162010449Y-52821400D01*
X161973139Y-52864200D01*
X161905505Y-52864200D01*
X161905500Y-52864199D01*
X161740258Y-52897068D01*
X161740256Y-52897069D01*
X161740257Y-52897069D01*
X161600171Y-52990671D01*
X161600169Y-52990674D01*
X161555643Y-53035200D01*
X159751181Y-53035200D01*
X159791307Y-52938565D01*
X159791492Y-52726366D01*
X159710458Y-52530248D01*
X159560541Y-52380069D01*
X159431800Y-52326611D01*
X159431800Y-47322861D01*
X159474600Y-47285551D01*
X159474600Y-46371400D01*
X159454800Y-46371400D01*
X159454800Y-46320600D01*
X159474600Y-46320600D01*
X159474600Y-46300600D01*
X159525400Y-46300600D01*
X159525400Y-46320600D01*
M02*
