G04 #@! TF.FileFunction,Legend,Bot*
%FSLAX46Y46*%
G04 Gerber Fmt 4.6, Leading zero omitted, Abs format (unit mm)*
G04 Created by KiCad (PCBNEW 4.0.1-stable) date 6/9/2016 4:02:24 PM*
%MOMM*%
G01*
G04 APERTURE LIST*
%ADD10C,0.100000*%
%ADD11C,0.350000*%
%ADD12C,0.150000*%
G04 APERTURE END LIST*
D10*
D11*
X152417500Y-54579500D02*
X152509500Y-54579500D01*
X152509500Y-54579500D02*
X152417500Y-54579500D01*
X152417500Y-55021500D02*
X152509500Y-55021500D01*
X152509500Y-55021500D02*
X152417500Y-55021500D01*
X155402000Y-37625000D02*
X155494000Y-37625000D01*
X155494000Y-37625000D02*
X155402000Y-37625000D01*
X155402000Y-38067000D02*
X155494000Y-38067000D01*
X155494000Y-38067000D02*
X155402000Y-38067000D01*
X161082000Y-38067000D02*
X160990000Y-38067000D01*
X160990000Y-38067000D02*
X161082000Y-38067000D01*
X161082000Y-37625000D02*
X160990000Y-37625000D01*
X160990000Y-37625000D02*
X161082000Y-37625000D01*
X173182000Y-56421000D02*
X173274000Y-56421000D01*
X173274000Y-56421000D02*
X173182000Y-56421000D01*
X173182000Y-56863000D02*
X173274000Y-56863000D01*
X173274000Y-56863000D02*
X173182000Y-56863000D01*
D12*
X115086000Y-41668000D02*
X115086000Y-40668000D01*
D11*
X115086000Y-42168000D02*
X115086000Y-42668000D01*
X115086000Y-42668000D02*
X118086000Y-42668000D01*
X118086000Y-42668000D02*
X118086000Y-42168000D01*
X118086000Y-42168000D02*
X115086000Y-42168000D01*
X115070000Y-47315000D02*
X115070000Y-47173000D01*
X115070000Y-47173000D02*
X115070000Y-47315000D01*
X115562000Y-47315000D02*
X115562000Y-47173000D01*
X115562000Y-47173000D02*
X115562000Y-47315000D01*
X117610000Y-47315000D02*
X117610000Y-47173000D01*
X117610000Y-47173000D02*
X117610000Y-47315000D01*
X118102000Y-47315000D02*
X118102000Y-47173000D01*
X118102000Y-47173000D02*
X118102000Y-47315000D01*
X191508000Y-55809000D02*
X191508000Y-55951000D01*
X191508000Y-55951000D02*
X191508000Y-55809000D01*
X191016000Y-55809000D02*
X191016000Y-55951000D01*
X191016000Y-55951000D02*
X191016000Y-55809000D01*
X183396000Y-57729000D02*
X183396000Y-57587000D01*
X183396000Y-57587000D02*
X183396000Y-57729000D01*
X183888000Y-57729000D02*
X183888000Y-57587000D01*
X183888000Y-57587000D02*
X183888000Y-57729000D01*
X188968000Y-55809000D02*
X188968000Y-55951000D01*
X188968000Y-55951000D02*
X188968000Y-55809000D01*
X188476000Y-55809000D02*
X188476000Y-55951000D01*
X188476000Y-55951000D02*
X188476000Y-55809000D01*
X186428000Y-55809000D02*
X186428000Y-55951000D01*
X186428000Y-55951000D02*
X186428000Y-55809000D01*
X185936000Y-55809000D02*
X185936000Y-55951000D01*
X185936000Y-55951000D02*
X185936000Y-55809000D01*
X180856000Y-57729000D02*
X180856000Y-57587000D01*
X180856000Y-57587000D02*
X180856000Y-57729000D01*
X181348000Y-57729000D02*
X181348000Y-57587000D01*
X181348000Y-57587000D02*
X181348000Y-57729000D01*
X178808000Y-55809000D02*
X178808000Y-55951000D01*
X178808000Y-55951000D02*
X178808000Y-55809000D01*
X178316000Y-55809000D02*
X178316000Y-55951000D01*
X178316000Y-55951000D02*
X178316000Y-55809000D01*
X176268000Y-55809000D02*
X176268000Y-55951000D01*
X176268000Y-55951000D02*
X176268000Y-55809000D01*
X175776000Y-55809000D02*
X175776000Y-55951000D01*
X175776000Y-55951000D02*
X175776000Y-55809000D01*
X161692000Y-47604000D02*
X161692000Y-53488000D01*
X161692000Y-53488000D02*
X155808000Y-53488000D01*
X155808000Y-53488000D02*
X155808000Y-47604000D01*
X155808000Y-47604000D02*
X161692000Y-47604000D01*
X156570000Y-47985000D02*
X156189000Y-48366000D01*
X156189000Y-48366000D02*
X156570000Y-48747000D01*
X156570000Y-48747000D02*
X156951000Y-48366000D01*
X156951000Y-48366000D02*
X156570000Y-47985000D01*
X155500000Y-45671000D02*
X155425000Y-45746000D01*
X155425000Y-45746000D02*
X155500000Y-45821000D01*
X155500000Y-45821000D02*
X155575000Y-45746000D01*
X155575000Y-45746000D02*
X155500000Y-45671000D01*
D12*
X163742000Y-43148000D02*
X163742000Y-39148000D01*
X163742000Y-39148000D02*
X152742000Y-39148000D01*
X152742000Y-39148000D02*
X152742000Y-43148000D01*
X152742000Y-43148000D02*
X163742000Y-43148000D01*
X150399714Y-54667167D02*
X150437810Y-54629072D01*
X150475905Y-54514786D01*
X150475905Y-54438596D01*
X150437810Y-54324310D01*
X150361619Y-54248119D01*
X150285429Y-54210024D01*
X150133048Y-54171929D01*
X150018762Y-54171929D01*
X149866381Y-54210024D01*
X149790190Y-54248119D01*
X149714000Y-54324310D01*
X149675905Y-54438596D01*
X149675905Y-54514786D01*
X149714000Y-54629072D01*
X149752095Y-54667167D01*
X149942571Y-55352881D02*
X150475905Y-55352881D01*
X149637810Y-55162405D02*
X150209238Y-54971929D01*
X150209238Y-55467167D01*
X155962286Y-39655714D02*
X156000381Y-39693810D01*
X156114667Y-39731905D01*
X156190857Y-39731905D01*
X156305143Y-39693810D01*
X156381334Y-39617619D01*
X156419429Y-39541429D01*
X156457524Y-39389048D01*
X156457524Y-39274762D01*
X156419429Y-39122381D01*
X156381334Y-39046190D01*
X156305143Y-38970000D01*
X156190857Y-38931905D01*
X156114667Y-38931905D01*
X156000381Y-38970000D01*
X155962286Y-39008095D01*
X155200381Y-39731905D02*
X155657524Y-39731905D01*
X155428953Y-39731905D02*
X155428953Y-38931905D01*
X155505143Y-39046190D01*
X155581334Y-39122381D01*
X155657524Y-39160476D01*
X154705143Y-38931905D02*
X154628952Y-38931905D01*
X154552762Y-38970000D01*
X154514667Y-39008095D01*
X154476571Y-39084286D01*
X154438476Y-39236667D01*
X154438476Y-39427143D01*
X154476571Y-39579524D01*
X154514667Y-39655714D01*
X154552762Y-39693810D01*
X154628952Y-39731905D01*
X154705143Y-39731905D01*
X154781333Y-39693810D01*
X154819429Y-39655714D01*
X154857524Y-39579524D01*
X154895619Y-39427143D01*
X154895619Y-39236667D01*
X154857524Y-39084286D01*
X154819429Y-39008095D01*
X154781333Y-38970000D01*
X154705143Y-38931905D01*
X161550286Y-39655714D02*
X161588381Y-39693810D01*
X161702667Y-39731905D01*
X161778857Y-39731905D01*
X161893143Y-39693810D01*
X161969334Y-39617619D01*
X162007429Y-39541429D01*
X162045524Y-39389048D01*
X162045524Y-39274762D01*
X162007429Y-39122381D01*
X161969334Y-39046190D01*
X161893143Y-38970000D01*
X161778857Y-38931905D01*
X161702667Y-38931905D01*
X161588381Y-38970000D01*
X161550286Y-39008095D01*
X160788381Y-39731905D02*
X161245524Y-39731905D01*
X161016953Y-39731905D02*
X161016953Y-38931905D01*
X161093143Y-39046190D01*
X161169334Y-39122381D01*
X161245524Y-39160476D01*
X160026476Y-39731905D02*
X160483619Y-39731905D01*
X160255048Y-39731905D02*
X160255048Y-38931905D01*
X160331238Y-39046190D01*
X160407429Y-39122381D01*
X160483619Y-39160476D01*
X173742286Y-55657714D02*
X173780381Y-55695810D01*
X173894667Y-55733905D01*
X173970857Y-55733905D01*
X174085143Y-55695810D01*
X174161334Y-55619619D01*
X174199429Y-55543429D01*
X174237524Y-55391048D01*
X174237524Y-55276762D01*
X174199429Y-55124381D01*
X174161334Y-55048190D01*
X174085143Y-54972000D01*
X173970857Y-54933905D01*
X173894667Y-54933905D01*
X173780381Y-54972000D01*
X173742286Y-55010095D01*
X172980381Y-55733905D02*
X173437524Y-55733905D01*
X173208953Y-55733905D02*
X173208953Y-54933905D01*
X173285143Y-55048190D01*
X173361334Y-55124381D01*
X173437524Y-55162476D01*
X172675619Y-55010095D02*
X172637524Y-54972000D01*
X172561333Y-54933905D01*
X172370857Y-54933905D01*
X172294667Y-54972000D01*
X172256571Y-55010095D01*
X172218476Y-55086286D01*
X172218476Y-55162476D01*
X172256571Y-55276762D01*
X172713714Y-55733905D01*
X172218476Y-55733905D01*
X114255429Y-41636905D02*
X114255429Y-40836905D01*
X114064953Y-40836905D01*
X113950667Y-40875000D01*
X113874476Y-40951190D01*
X113836381Y-41027381D01*
X113798286Y-41179762D01*
X113798286Y-41294048D01*
X113836381Y-41446429D01*
X113874476Y-41522619D01*
X113950667Y-41598810D01*
X114064953Y-41636905D01*
X114255429Y-41636905D01*
X113531619Y-40836905D02*
X112998286Y-40836905D01*
X113531619Y-41636905D01*
X112998286Y-41636905D01*
X112274476Y-41636905D02*
X112731619Y-41636905D01*
X112503048Y-41636905D02*
X112503048Y-40836905D01*
X112579238Y-40951190D01*
X112655429Y-41027381D01*
X112731619Y-41065476D01*
X115677905Y-47110667D02*
X115296952Y-46844000D01*
X115677905Y-46653524D02*
X114877905Y-46653524D01*
X114877905Y-46958286D01*
X114916000Y-47034477D01*
X114954095Y-47072572D01*
X115030286Y-47110667D01*
X115144571Y-47110667D01*
X115220762Y-47072572D01*
X115258857Y-47034477D01*
X115296952Y-46958286D01*
X115296952Y-46653524D01*
X114877905Y-47377334D02*
X114877905Y-47872572D01*
X115182667Y-47605905D01*
X115182667Y-47720191D01*
X115220762Y-47796381D01*
X115258857Y-47834477D01*
X115335048Y-47872572D01*
X115525524Y-47872572D01*
X115601714Y-47834477D01*
X115639810Y-47796381D01*
X115677905Y-47720191D01*
X115677905Y-47491619D01*
X115639810Y-47415429D01*
X115601714Y-47377334D01*
X118217905Y-47110667D02*
X117836952Y-46844000D01*
X118217905Y-46653524D02*
X117417905Y-46653524D01*
X117417905Y-46958286D01*
X117456000Y-47034477D01*
X117494095Y-47072572D01*
X117570286Y-47110667D01*
X117684571Y-47110667D01*
X117760762Y-47072572D01*
X117798857Y-47034477D01*
X117836952Y-46958286D01*
X117836952Y-46653524D01*
X117684571Y-47796381D02*
X118217905Y-47796381D01*
X117379810Y-47605905D02*
X117951238Y-47415429D01*
X117951238Y-47910667D01*
X191623905Y-53206667D02*
X191242952Y-52940000D01*
X191623905Y-52749524D02*
X190823905Y-52749524D01*
X190823905Y-53054286D01*
X190862000Y-53130477D01*
X190900095Y-53168572D01*
X190976286Y-53206667D01*
X191090571Y-53206667D01*
X191166762Y-53168572D01*
X191204857Y-53130477D01*
X191242952Y-53054286D01*
X191242952Y-52749524D01*
X190823905Y-53892381D02*
X190823905Y-53740000D01*
X190862000Y-53663810D01*
X190900095Y-53625715D01*
X191014381Y-53549524D01*
X191166762Y-53511429D01*
X191471524Y-53511429D01*
X191547714Y-53549524D01*
X191585810Y-53587619D01*
X191623905Y-53663810D01*
X191623905Y-53816191D01*
X191585810Y-53892381D01*
X191547714Y-53930477D01*
X191471524Y-53968572D01*
X191281048Y-53968572D01*
X191204857Y-53930477D01*
X191166762Y-53892381D01*
X191128667Y-53816191D01*
X191128667Y-53663810D01*
X191166762Y-53587619D01*
X191204857Y-53549524D01*
X191281048Y-53511429D01*
X184003905Y-54984667D02*
X183622952Y-54718000D01*
X184003905Y-54527524D02*
X183203905Y-54527524D01*
X183203905Y-54832286D01*
X183242000Y-54908477D01*
X183280095Y-54946572D01*
X183356286Y-54984667D01*
X183470571Y-54984667D01*
X183546762Y-54946572D01*
X183584857Y-54908477D01*
X183622952Y-54832286D01*
X183622952Y-54527524D01*
X183203905Y-55251334D02*
X183203905Y-55784667D01*
X184003905Y-55441810D01*
X189083905Y-53206667D02*
X188702952Y-52940000D01*
X189083905Y-52749524D02*
X188283905Y-52749524D01*
X188283905Y-53054286D01*
X188322000Y-53130477D01*
X188360095Y-53168572D01*
X188436286Y-53206667D01*
X188550571Y-53206667D01*
X188626762Y-53168572D01*
X188664857Y-53130477D01*
X188702952Y-53054286D01*
X188702952Y-52749524D01*
X188626762Y-53663810D02*
X188588667Y-53587619D01*
X188550571Y-53549524D01*
X188474381Y-53511429D01*
X188436286Y-53511429D01*
X188360095Y-53549524D01*
X188322000Y-53587619D01*
X188283905Y-53663810D01*
X188283905Y-53816191D01*
X188322000Y-53892381D01*
X188360095Y-53930477D01*
X188436286Y-53968572D01*
X188474381Y-53968572D01*
X188550571Y-53930477D01*
X188588667Y-53892381D01*
X188626762Y-53816191D01*
X188626762Y-53663810D01*
X188664857Y-53587619D01*
X188702952Y-53549524D01*
X188779143Y-53511429D01*
X188931524Y-53511429D01*
X189007714Y-53549524D01*
X189045810Y-53587619D01*
X189083905Y-53663810D01*
X189083905Y-53816191D01*
X189045810Y-53892381D01*
X189007714Y-53930477D01*
X188931524Y-53968572D01*
X188779143Y-53968572D01*
X188702952Y-53930477D01*
X188664857Y-53892381D01*
X188626762Y-53816191D01*
X186543905Y-53206667D02*
X186162952Y-52940000D01*
X186543905Y-52749524D02*
X185743905Y-52749524D01*
X185743905Y-53054286D01*
X185782000Y-53130477D01*
X185820095Y-53168572D01*
X185896286Y-53206667D01*
X186010571Y-53206667D01*
X186086762Y-53168572D01*
X186124857Y-53130477D01*
X186162952Y-53054286D01*
X186162952Y-52749524D01*
X186543905Y-53587619D02*
X186543905Y-53740000D01*
X186505810Y-53816191D01*
X186467714Y-53854286D01*
X186353429Y-53930477D01*
X186201048Y-53968572D01*
X185896286Y-53968572D01*
X185820095Y-53930477D01*
X185782000Y-53892381D01*
X185743905Y-53816191D01*
X185743905Y-53663810D01*
X185782000Y-53587619D01*
X185820095Y-53549524D01*
X185896286Y-53511429D01*
X186086762Y-53511429D01*
X186162952Y-53549524D01*
X186201048Y-53587619D01*
X186239143Y-53663810D01*
X186239143Y-53816191D01*
X186201048Y-53892381D01*
X186162952Y-53930477D01*
X186086762Y-53968572D01*
X181463905Y-54349714D02*
X181082952Y-54083047D01*
X181463905Y-53892571D02*
X180663905Y-53892571D01*
X180663905Y-54197333D01*
X180702000Y-54273524D01*
X180740095Y-54311619D01*
X180816286Y-54349714D01*
X180930571Y-54349714D01*
X181006762Y-54311619D01*
X181044857Y-54273524D01*
X181082952Y-54197333D01*
X181082952Y-53892571D01*
X181463905Y-55111619D02*
X181463905Y-54654476D01*
X181463905Y-54883047D02*
X180663905Y-54883047D01*
X180778190Y-54806857D01*
X180854381Y-54730666D01*
X180892476Y-54654476D01*
X180663905Y-55606857D02*
X180663905Y-55683048D01*
X180702000Y-55759238D01*
X180740095Y-55797333D01*
X180816286Y-55835429D01*
X180968667Y-55873524D01*
X181159143Y-55873524D01*
X181311524Y-55835429D01*
X181387714Y-55797333D01*
X181425810Y-55759238D01*
X181463905Y-55683048D01*
X181463905Y-55606857D01*
X181425810Y-55530667D01*
X181387714Y-55492571D01*
X181311524Y-55454476D01*
X181159143Y-55416381D01*
X180968667Y-55416381D01*
X180816286Y-55454476D01*
X180740095Y-55492571D01*
X180702000Y-55530667D01*
X180663905Y-55606857D01*
X178923905Y-52571714D02*
X178542952Y-52305047D01*
X178923905Y-52114571D02*
X178123905Y-52114571D01*
X178123905Y-52419333D01*
X178162000Y-52495524D01*
X178200095Y-52533619D01*
X178276286Y-52571714D01*
X178390571Y-52571714D01*
X178466762Y-52533619D01*
X178504857Y-52495524D01*
X178542952Y-52419333D01*
X178542952Y-52114571D01*
X178923905Y-53333619D02*
X178923905Y-52876476D01*
X178923905Y-53105047D02*
X178123905Y-53105047D01*
X178238190Y-53028857D01*
X178314381Y-52952666D01*
X178352476Y-52876476D01*
X178923905Y-54095524D02*
X178923905Y-53638381D01*
X178923905Y-53866952D02*
X178123905Y-53866952D01*
X178238190Y-53790762D01*
X178314381Y-53714571D01*
X178352476Y-53638381D01*
X176383905Y-52571714D02*
X176002952Y-52305047D01*
X176383905Y-52114571D02*
X175583905Y-52114571D01*
X175583905Y-52419333D01*
X175622000Y-52495524D01*
X175660095Y-52533619D01*
X175736286Y-52571714D01*
X175850571Y-52571714D01*
X175926762Y-52533619D01*
X175964857Y-52495524D01*
X176002952Y-52419333D01*
X176002952Y-52114571D01*
X176383905Y-53333619D02*
X176383905Y-52876476D01*
X176383905Y-53105047D02*
X175583905Y-53105047D01*
X175698190Y-53028857D01*
X175774381Y-52952666D01*
X175812476Y-52876476D01*
X175660095Y-53638381D02*
X175622000Y-53676476D01*
X175583905Y-53752667D01*
X175583905Y-53943143D01*
X175622000Y-54019333D01*
X175660095Y-54057429D01*
X175736286Y-54095524D01*
X175812476Y-54095524D01*
X175926762Y-54057429D01*
X176383905Y-53600286D01*
X176383905Y-54095524D01*
X158311905Y-49936476D02*
X158959524Y-49936476D01*
X159035714Y-49974571D01*
X159073810Y-50012667D01*
X159111905Y-50088857D01*
X159111905Y-50241238D01*
X159073810Y-50317429D01*
X159035714Y-50355524D01*
X158959524Y-50393619D01*
X158311905Y-50393619D01*
X158388095Y-50736476D02*
X158350000Y-50774571D01*
X158311905Y-50850762D01*
X158311905Y-51041238D01*
X158350000Y-51117428D01*
X158388095Y-51155524D01*
X158464286Y-51193619D01*
X158540476Y-51193619D01*
X158654762Y-51155524D01*
X159111905Y-50698381D01*
X159111905Y-51193619D01*
X159051524Y-40600381D02*
X158384857Y-41600381D01*
X158384857Y-40600381D02*
X159051524Y-41600381D01*
X157480095Y-41600381D02*
X158051524Y-41600381D01*
X157765810Y-41600381D02*
X157765810Y-40600381D01*
X157861048Y-40743238D01*
X157956286Y-40838476D01*
X158051524Y-40886095D01*
M02*
